<svg xmlns="http://www.w3.org/2000/svg" xmlns:xlink="http://www.w3.org/1999/xlink" xmlns:lucid="lucid" width="800" height="480"><g transform="translate(-360 -40)" lucid:page-tab-id="9ehaMoOT7Sf_"><path d="M0 0h1322.83v1870.87H0z" fill="#fff"/><path d="M360 46a6 6 0 0 1 6-6h788a6 6 0 0 1 6 6v468a6 6 0 0 1-6 6H366a6 6 0 0 1-6-6z" fill-opacity="0"/><path d="M375 66a6 6 0 0 1 6-6h138a6 6 0 0 1 6 6v48a6 6 0 0 1-6 6H381a6 6 0 0 1-6-6z" stroke="#3a414a" fill="#fff"/><use xlink:href="#a" transform="matrix(1,0,0,1,380,65) translate(37.31481481481483 30.27777777777777)"/><path d="M960 64.33a6 6 0 0 1 6-6h168a6 6 0 0 1 6 6v51.34a6 6 0 0 1-6 6H966a6 6 0 0 1-6-6z" stroke="#3a414a" fill="#fff"/><use xlink:href="#b" transform="matrix(1,0,0,1,965,63.33333333333339) translate(31.41975308641979 21.15277777777777)"/><use xlink:href="#c" transform="matrix(1,0,0,1,965,63.33333333333339) translate(55.432098765432116 47.81944444444443)"/><path d="M440 166a6 6 0 0 1 6-6h8a6 6 0 0 1 6 6v308a6 6 0 0 1-6 6h-8a6 6 0 0 1-6-6zM720 166a6 6 0 0 1 6-6h8a6 6 0 0 1 6 6v268a6 6 0 0 1-6 6h-8a6 6 0 0 1-6-6zM1040 286a6 6 0 0 1 6-6h8a6 6 0 0 1 6 6v88a6 6 0 0 1-6 6h-8a6 6 0 0 1-6-6z" stroke="#3a414a" fill="#fff"/><path d="M460.93 190.93h242.2" stroke="#3a414a" fill="none"/><path d="M460.95 191.43h-.52v-1h.52z" stroke="#3a414a" stroke-width=".05" fill="#3a414a"/><path d="M717.9 190.93l-14.28 4.64v-9.27z" stroke="#3a414a" fill="#3a414a"/><use xlink:href="#d" transform="matrix(1,0,0,1,482.9818929962428,165.59986461112078) translate(0 14.222222222222223)"/><use xlink:href="#e" transform="matrix(1,0,0,1,482.9818929962428,165.59986461112078) translate(83.80246913580248 14.222222222222223)"/><use xlink:href="#f" transform="matrix(1,0,0,1,482.9818929962428,165.59986461112078) translate(162.71604938271608 14.222222222222223)"/><path d="M460.96 270.76h242.18" stroke="#3a414a" stroke-linejoin="round" fill="none"/><path d="M460.97 271.26h-.52v-1h.52z" stroke="#3a414a" stroke-width=".05" fill="#3a414a"/><path d="M717.9 270.76l-14.26 4.64v-9.28z" stroke="#3a414a" fill="#3a414a"/><use xlink:href="#g" transform="matrix(1,0,0,1,491.8438725925074,245.42668230935803) translate(0 14.222222222222223)"/><use xlink:href="#h" transform="matrix(1,0,0,1,491.8438725925074,245.42668230935803) translate(76.98765432098767 14.222222222222223)"/><use xlink:href="#i" transform="matrix(1,0,0,1,491.8438725925074,245.42668230935803) translate(107.55555555555557 14.222222222222223)"/><path d="M740.97 320h282.17" stroke="#3a414a" stroke-linejoin="round" fill="none"/><path d="M741 320.5h-.53v-1h.52z" stroke="#3a414a" stroke-width=".05" fill="#3a414a"/><path d="M1037.9 320l-14.26 4.64v-9.28z" stroke="#3a414a" fill="#3a414a"/><use xlink:href="#j" transform="matrix(1,0,0,1,763.8772477058261,294.6666666666668) translate(0 14.222222222222223)"/><use xlink:href="#k" transform="matrix(1,0,0,1,763.8772477058261,294.6666666666668) translate(81.67901234567901 14.222222222222223)"/><use xlink:href="#l" transform="matrix(1,0,0,1,763.8772477058261,294.6666666666668) translate(143.7530864197531 14.222222222222223)"/><use xlink:href="#i" transform="matrix(1,0,0,1,763.8772477058261,294.6666666666668) translate(163.50617283950618 14.222222222222223)"/><path d="M1039.05 346.26h-4.96m-4.96 0h-9.9m-4.95 0h-9.9m-4.96 0h-9.9m-4.95 0h-9.9m-4.96 0h-9.9m-4.96 0h-9.9m-4.95 0h-9.9m-4.95 0h-9.9m-4.95 0h-9.9m-4.95 0h-9.9m-4.95 0h-9.9m-4.96 0h-9.9m-4.95 0h-9.9m-4.95 0h-9.9m-4.95 0h-9.9m-4.95 0h-9.9m-4.96 0h-9.9m-4.94 0h-9.9m-4.95 0h-4.94" stroke="#3a414a" stroke-linejoin="round" fill="none"/><path d="M1039.55 346.76h-.52v-1h.52z" stroke="#3a414a" stroke-width=".05" fill="#3a414a"/><path d="M742.1 346.26l14.26-4.63v9.27z" stroke="#3a414a" fill="#3a414a"/><path d="M719.06 392.94h-242.2" stroke="#3a414a" stroke-linejoin="round" fill="none"/><path d="M719.56 393.44h-.5v-1h.5z" stroke="#3a414a" stroke-width=".05" fill="#3a414a"/><path d="M462.1 392.94l14.26-4.64v9.28z" stroke="#3a414a" fill="#3a414a"/><use xlink:href="#m" transform="matrix(1,0,0,1,491.4516563464165,367.6065924621035) translate(0 14.222222222222223)"/><use xlink:href="#n" transform="matrix(1,0,0,1,491.4516563464165,367.6065924621035) translate(96.59259259259258 14.222222222222223)"/><use xlink:href="#o" transform="matrix(1,0,0,1,491.4516563464165,367.6065924621035) translate(117.28395061728395 14.222222222222223)"/><path d="M450 120.96v4.23m0 4.22v8.46m0 4.23v8.47m0 4.23v4.23" stroke="#3a414a" stroke-linejoin="round" fill="none"/><path d="M450.5 120.98h-1v-.52h1zM450.5 159.53h-1v-.5h1z" stroke="#3a414a" stroke-width=".05" fill="#3a414a"/><path d="M655 66a6 6 0 0 1 6-6h138a6 6 0 0 1 6 6v48a6 6 0 0 1-6 6H661a6 6 0 0 1-6-6z" stroke="#3a414a" fill="#fff"/><use xlink:href="#p" transform="matrix(1,0,0,1,660,65) translate(29.938271604938286 30.27777777777777)"/><path d="M730 120.96v4.23m0 4.22v8.46m0 4.23v8.47m0 4.23v4.23" stroke="#3a414a" stroke-linejoin="round" fill="none"/><path d="M730.5 120.98h-1v-.52h1zM730.5 159.53h-1v-.5h1z" stroke="#3a414a" stroke-width=".05" fill="#3a414a"/><path d="M1050 122.63v5.22m0 5.2v10.44m0 5.2v10.43m0 5.2v10.44m0 5.2v10.44m0 5.22v10.43m0 5.2v10.44m0 5.2v10.43m0 5.2v10.44m0 5.2v10.44m0 5.22v5.2" stroke="#3a414a" stroke-linejoin="round" fill="none"/><path d="M1050.5 122.65h-1v-.52h1zM1050.5 279.53h-1v-.5h1z" stroke="#3a414a" stroke-width=".05" fill="#3a414a"/><path d="M1050 380.97v4.94m0 4.95v9.87m0 4.94v9.88m0 4.94v9.88m0 4.94v9.87m0 4.94v9.9m0 4.93v9.88m0 4.94v9.88m0 4.94v4.94" stroke="#3a414a" stroke-linejoin="round" fill="none"/><path d="M1050.5 380.98h-1v-.5l1-.02z" stroke="#3a414a" stroke-width=".05" fill="#3a414a"/><path d="M1050 499.5v.5" stroke="#3a414a" fill="none"/><path d="M730 440.97v4.88m0 4.87v9.76m0 4.88v9.75m0 4.9v9.74m0 4.88v4.88" stroke="#3a414a" stroke-linejoin="round" fill="none"/><path d="M730.5 440.98h-1v-.5l1-.02z" stroke="#3a414a" stroke-width=".05" fill="#3a414a"/><path d="M730 499.5v.5" stroke="#3a414a" fill="none"/><path d="M450 480.57v.2-.2" stroke="#3a414a" stroke-linejoin="round" fill="none"/><path d="M450.5 480.98h-1v-.5l1-.02z" stroke="#3a414a" stroke-width=".05" fill="#3a414a"/><path d="M450.5 480.58h-1v-.1l1-.02z" stroke="#3a414a" stroke-width=".05" fill="#3a414a"/><path d="M449.84 480.93" stroke="#3a414a" stroke-linejoin="round" fill="none"/><path d="M450.6 480.85l-.97.23-.14-.6 1-.02z" stroke="#3a414a" stroke-width=".05" fill="#3a414a"/><path d="M449.85 480.92l-.2.47" stroke="#3a414a" fill="none"/><path d="M450 480.97v6.17m0 6.18v6.18" stroke="#3a414a" stroke-linejoin="round" fill="none"/><path d="M450.5 480.98h-1v-.5l1-.02z" stroke="#3a414a" stroke-width=".05" fill="#3a414a"/><path d="M450 499.5v.5M719 217.6h-4.76m-4.78 0h-9.56m-4.78 0h-9.56m-4.78 0h-9.56m-4.78 0h-9.56m-4.77 0h-9.55m-4.78 0h-9.56m-4.77 0h-9.56m-4.78 0h-9.57m-4.77 0h-9.5m-4.7 0h-9.44m-4.72 0h-9.43m-4.7 0h-9.44m-4.72 0h-9.4m-4.73 0h-9.43m-4.7 0h-9.44m-4.72 0h-9.43m-4.7 0h-4.73" stroke="#3a414a" fill="none"/><path d="M719.5 218.1h-.5v-1h.5z" stroke="#3a414a" stroke-width=".05" fill="#3a414a"/><path d="M462.06 217.6l14.26-4.64v9.28z" stroke="#3a414a" fill="#3a414a"/><defs><path d="M232-93c-1 65-40 97-104 97C67 4 28-28 28-90v-158h33c8 89-33 224 67 224 102 0 64-133 71-224h33v155" id="q"/><path d="M59-47c-2 24 18 29 38 22v24C64 9 27 4 27-40v-127H5v-23h24l9-43h21v43h35v23H59v120" id="r"/><path d="M100-194c63 0 86 42 84 106H49c0 40 14 67 53 68 26 1 43-12 49-29l28 8c-11 28-37 45-77 45C44 4 14-33 15-96c1-61 26-98 85-98zm52 81c6-60-76-77-97-28-3 7-6 17-6 28h103" id="s"/><path d="M117-194c89-4 53 116 60 194h-32v-121c0-31-8-49-39-48C34-167 62-67 57 0H25l-1-190h30c1 10-1 24 2 32 11-22 29-35 61-36" id="t"/><g id="a"><use transform="matrix(0.06172839506172837,0,0,0.06172839506172837,0,0)" xlink:href="#q"/><use transform="matrix(0.06172839506172837,0,0,0.06172839506172837,15.987654320987648,0)" xlink:href="#r"/><use transform="matrix(0.06172839506172837,0,0,0.06172839506172837,22.160493827160487,0)" xlink:href="#s"/><use transform="matrix(0.06172839506172837,0,0,0.06172839506172837,34.50617283950616,0)" xlink:href="#t"/><use transform="matrix(0.06172839506172837,0,0,0.06172839506172837,46.85185185185183,0)" xlink:href="#r"/><use transform="matrix(0.06172839506172837,0,0,0.06172839506172837,53.02469135802467,0)" xlink:href="#s"/></g><path d="M212-179c-10-28-35-45-73-45-59 0-87 40-87 99 0 60 29 101 89 101 43 0 62-24 78-52l27 14C228-24 195 4 139 4 59 4 22-46 18-125c-6-104 99-153 187-111 19 9 31 26 39 46" id="u"/><path d="M141-36C126-15 110 5 73 4 37 3 15-17 15-53c-1-64 63-63 125-63 3-35-9-54-41-54-24 1-41 7-42 31l-33-3c5-37 33-52 76-52 45 0 72 20 72 64v82c-1 20 7 32 28 27v20c-31 9-61-2-59-35zM48-53c0 20 12 33 32 33 41-3 63-29 60-74-43 2-92-5-92 41" id="v"/><path d="M24 0v-261h32V0H24" id="w"/><path d="M85-194c31 0 48 13 60 33l-1-100h32l1 261h-30c-2-10 0-23-3-31C134-8 116 4 85 4 32 4 16-35 15-94c0-66 23-100 70-100zm9 24c-40 0-46 34-46 75 0 40 6 74 45 74 42 0 51-32 51-76 0-42-9-74-50-73" id="x"/><path d="M114-163C36-179 61-72 57 0H25l-1-190h30c1 12-1 29 2 39 6-27 23-49 58-41v29" id="y"/><path d="M24-231v-30h32v30H24zM24 0v-190h32V0H24" id="z"/><path d="M100-194c62-1 85 37 85 99 1 63-27 99-86 99S16-35 15-95c0-66 28-99 85-99zM99-20c44 1 53-31 53-75 0-43-8-75-51-75s-53 32-53 75 10 74 51 75" id="A"/><g id="b"><use transform="matrix(0.06172839506172837,0,0,0.06172839506172837,0,0)" xlink:href="#u"/><use transform="matrix(0.06172839506172837,0,0,0.06172839506172837,15.987654320987648,0)" xlink:href="#v"/><use transform="matrix(0.06172839506172837,0,0,0.06172839506172837,28.33333333333332,0)" xlink:href="#w"/><use transform="matrix(0.06172839506172837,0,0,0.06172839506172837,33.20987654320986,0)" xlink:href="#s"/><use transform="matrix(0.06172839506172837,0,0,0.06172839506172837,45.55555555555553,0)" xlink:href="#t"/><use transform="matrix(0.06172839506172837,0,0,0.06172839506172837,57.9012345679012,0)" xlink:href="#v"/><use transform="matrix(0.06172839506172837,0,0,0.06172839506172837,70.24691358024687,0)" xlink:href="#x"/><use transform="matrix(0.06172839506172837,0,0,0.06172839506172837,82.59259259259254,0)" xlink:href="#y"/><use transform="matrix(0.06172839506172837,0,0,0.06172839506172837,89.93827160493821,0)" xlink:href="#z"/><use transform="matrix(0.06172839506172837,0,0,0.06172839506172837,94.81481481481475,0)" xlink:href="#A"/></g><g id="c"><use transform="matrix(0.06172839506172837,0,0,0.06172839506172837,0,0)" xlink:href="#A"/><use transform="matrix(0.06172839506172837,0,0,0.06172839506172837,12.345679012345673,0)" xlink:href="#t"/><use transform="matrix(0.06172839506172837,0,0,0.06172839506172837,24.691358024691347,0)" xlink:href="#w"/><use transform="matrix(0.06172839506172837,0,0,0.06172839506172837,29.567901234567888,0)" xlink:href="#z"/><use transform="matrix(0.06172839506172837,0,0,0.06172839506172837,34.44444444444443,0)" xlink:href="#t"/><use transform="matrix(0.06172839506172837,0,0,0.06172839506172837,46.7901234567901,0)" xlink:href="#s"/></g><path fill="#333" d="M240-174c0 40-23 61-54 70L253 0h-59l-57-94H76V0H24v-248c93 4 217-23 216 74zM76-134c48-2 112 12 112-38 0-48-66-32-112-35v73" id="B"/><path fill="#333" d="M25-224v-37h50v37H25zM25 0v-190h50V0H25" id="C"/><path fill="#333" d="M190-63c-7 42-38 67-86 67-59 0-84-38-90-98-12-110 154-137 174-36l-49 2c-2-19-15-32-35-32-30 0-35 28-38 64-6 74 65 87 74 30" id="D"/><path fill="#333" d="M114-157C55-157 80-60 75 0H25v-261h50l-1 109c12-26 28-41 61-42 86-1 58 113 63 194h-50c-7-57 23-157-34-157" id="E"/><path fill="#333" d="M185-48c-13 30-37 53-82 52C43 2 14-33 14-96s30-98 90-98c62 0 83 45 84 108H66c0 31 8 55 39 56 18 0 30-7 34-22zm-45-69c5-46-57-63-70-21-2 6-4 13-4 21h74" id="F"/><path fill="#333" d="M137-138c1-29-70-34-71-4 15 46 118 7 119 86 1 83-164 76-172 9l43-7c4 19 20 25 44 25 33 8 57-30 24-41C81-84 22-81 20-136c-2-80 154-74 161-7" id="G"/><path fill="#333" d="M115-3C79 11 28 4 28-45v-112H4v-33h27l15-45h31v45h36v33H77v99c-1 23 16 31 38 25v30" id="H"/><path fill="#333" d="M133-34C117-15 103 5 69 4 32 3 11-16 11-54c-1-60 55-63 116-61 1-26-3-47-28-47-18 1-26 9-28 27l-52-2c7-38 36-58 82-57s74 22 75 68l1 82c-1 14 12 18 25 15v27c-30 8-71 5-69-32zm-48 3c29 0 43-24 42-57-32 0-66-3-65 30 0 17 8 27 23 27" id="I"/><g id="d"><use transform="matrix(0.04938271604938272,0,0,0.04938271604938272,0,0)" xlink:href="#B"/><use transform="matrix(0.04938271604938272,0,0,0.04938271604938272,12.790123456790125,0)" xlink:href="#C"/><use transform="matrix(0.04938271604938272,0,0,0.04938271604938272,17.7283950617284,0)" xlink:href="#D"/><use transform="matrix(0.04938271604938272,0,0,0.04938271604938272,27.604938271604947,0)" xlink:href="#E"/><use transform="matrix(0.04938271604938272,0,0,0.04938271604938272,38.41975308641976,0)" xlink:href="#C"/><use transform="matrix(0.04938271604938272,0,0,0.04938271604938272,43.35802469135803,0)" xlink:href="#F"/><use transform="matrix(0.04938271604938272,0,0,0.04938271604938272,53.23456790123457,0)" xlink:href="#G"/><use transform="matrix(0.04938271604938272,0,0,0.04938271604938272,63.111111111111114,0)" xlink:href="#H"/><use transform="matrix(0.04938271604938272,0,0,0.04938271604938272,68.98765432098766,0)" xlink:href="#I"/></g><path fill="#333" d="M135-194c53 0 70 44 70 98 0 56-19 98-73 100-31 1-45-17-59-34 3 33 2 69 2 105H25l-1-265h48c2 10 0 23 3 31 11-24 29-35 60-35zM114-30c33 0 39-31 40-66 0-38-9-64-40-64-56 0-55 130 0 130" id="J"/><path fill="#333" d="M135-150c-39-12-60 13-60 57V0H25l-1-190h47c2 13-1 29 3 40 6-28 27-53 61-41v41" id="K"/><path fill="#333" d="M110-194c64 0 96 36 96 99 0 64-35 99-97 99-61 0-95-36-95-99 0-62 34-99 96-99zm-1 164c35 0 45-28 45-65 0-40-10-65-43-65-34 0-45 26-45 65 0 36 10 65 43 65" id="L"/><path fill="#333" d="M220-157c-53 9-28 100-34 157h-49v-107c1-27-5-49-29-50C55-147 81-57 75 0H25l-1-190h47c2 12-1 28 3 38 10-53 101-56 108 0 13-22 24-43 59-42 82 1 51 116 57 194h-49v-107c-1-25-5-48-29-50" id="M"/><g id="e"><use transform="matrix(0.04938271604938272,0,0,0.04938271604938272,0,0)" xlink:href="#J"/><use transform="matrix(0.04938271604938272,0,0,0.04938271604938272,10.814814814814815,0)" xlink:href="#K"/><use transform="matrix(0.04938271604938272,0,0,0.04938271604938272,17.728395061728396,0)" xlink:href="#L"/><use transform="matrix(0.04938271604938272,0,0,0.04938271604938272,28.543209876543205,0)" xlink:href="#G"/><use transform="matrix(0.04938271604938272,0,0,0.04938271604938272,38.41975308641975,0)" xlink:href="#G"/><use transform="matrix(0.04938271604938272,0,0,0.04938271604938272,48.2962962962963,0)" xlink:href="#C"/><use transform="matrix(0.04938271604938272,0,0,0.04938271604938272,53.23456790123457,0)" xlink:href="#M"/><use transform="matrix(0.04938271604938272,0,0,0.04938271604938272,69.03703703703704,0)" xlink:href="#C"/></g><path fill="#333" d="M128 0H69L1-190h53L99-40l48-150h52" id="N"/><path fill="#333" d="M135-194c87-1 58 113 63 194h-50c-7-57 23-157-34-157-59 0-34 97-39 157H25l-1-190h47c2 12-1 28 3 38 12-26 28-41 61-42" id="O"/><g id="f"><use transform="matrix(0.04938271604938272,0,0,0.04938271604938272,0,0)" xlink:href="#F"/><use transform="matrix(0.04938271604938272,0,0,0.04938271604938272,9.876543209876544,0)" xlink:href="#N"/><use transform="matrix(0.04938271604938272,0,0,0.04938271604938272,19.75308641975309,0)" xlink:href="#F"/><use transform="matrix(0.04938271604938272,0,0,0.04938271604938272,29.629629629629633,0)" xlink:href="#O"/><use transform="matrix(0.04938271604938272,0,0,0.04938271604938272,40.44444444444445,0)" xlink:href="#H"/><use transform="matrix(0.04938271604938272,0,0,0.04938271604938272,46.320987654320994,0)" xlink:href="#C"/></g><path fill="#333" d="M24 0v-248h52V0H24" id="P"/><g id="g"><use transform="matrix(0.04938271604938272,0,0,0.04938271604938272,0,0)" xlink:href="#P"/><use transform="matrix(0.04938271604938272,0,0,0.04938271604938272,4.938271604938272,0)" xlink:href="#O"/><use transform="matrix(0.04938271604938272,0,0,0.04938271604938272,15.753086419753087,0)" xlink:href="#G"/><use transform="matrix(0.04938271604938272,0,0,0.04938271604938272,25.629629629629633,0)" xlink:href="#F"/><use transform="matrix(0.04938271604938272,0,0,0.04938271604938272,35.50617283950618,0)" xlink:href="#K"/><use transform="matrix(0.04938271604938272,0,0,0.04938271604938272,42.41975308641976,0)" xlink:href="#C"/><use transform="matrix(0.04938271604938272,0,0,0.04938271604938272,47.35802469135803,0)" xlink:href="#G"/><use transform="matrix(0.04938271604938272,0,0,0.04938271604938272,57.23456790123457,0)" xlink:href="#D"/><use transform="matrix(0.04938271604938272,0,0,0.04938271604938272,67.11111111111111,0)" xlink:href="#C"/></g><path fill="#333" d="M25 0v-261h50V0H25" id="Q"/><g id="h"><use transform="matrix(0.04938271604938272,0,0,0.04938271604938272,0,0)" xlink:href="#O"/><use transform="matrix(0.04938271604938272,0,0,0.04938271604938272,10.814814814814815,0)" xlink:href="#F"/><use transform="matrix(0.04938271604938272,0,0,0.04938271604938272,20.69135802469136,0)" xlink:href="#Q"/></g><path fill="#333" d="M88-194c31-1 46 15 58 34l-1-101h50l1 261h-48c-2-10 0-23-3-31C134-8 116 4 84 4 32 4 16-41 15-95c0-56 19-97 73-99zm17 164c33 0 40-30 41-66 1-37-9-64-41-64s-38 30-39 65c0 43 13 65 39 65" id="R"/><g id="i"><use transform="matrix(0.04938271604938272,0,0,0.04938271604938272,0,0)" xlink:href="#D"/><use transform="matrix(0.04938271604938272,0,0,0.04938271604938272,9.876543209876544,0)" xlink:href="#I"/><use transform="matrix(0.04938271604938272,0,0,0.04938271604938272,19.75308641975309,0)" xlink:href="#Q"/><use transform="matrix(0.04938271604938272,0,0,0.04938271604938272,24.69135802469136,0)" xlink:href="#F"/><use transform="matrix(0.04938271604938272,0,0,0.04938271604938272,34.567901234567906,0)" xlink:href="#O"/><use transform="matrix(0.04938271604938272,0,0,0.04938271604938272,45.38271604938272,0)" xlink:href="#R"/><use transform="matrix(0.04938271604938272,0,0,0.04938271604938272,56.19753086419754,0)" xlink:href="#I"/><use transform="matrix(0.04938271604938272,0,0,0.04938271604938272,66.07407407407408,0)" xlink:href="#K"/><use transform="matrix(0.04938271604938272,0,0,0.04938271604938272,72.98765432098766,0)" xlink:href="#C"/><use transform="matrix(0.04938271604938272,0,0,0.04938271604938272,77.92592592592592,0)" xlink:href="#L"/></g><path fill="#333" d="M199 0l-22-63H83L61 0H9l90-248h61L250 0h-51zm-33-102l-36-108c-10 38-24 72-36 108h72" id="S"/><path fill="#333" d="M195-6C206 82 75 100 31 46c-4-6-6-13-8-21l49-6c3 16 16 24 34 25 40 0 42-37 40-79-11 22-30 35-61 35-53 0-70-43-70-97 0-56 18-96 73-97 30 0 46 14 59 34l2-30h47zm-90-29c32 0 41-27 41-63 0-35-9-62-40-62-32 0-39 29-40 63 0 36 9 62 39 62" id="T"/><path fill="#333" d="M85 4C-2 5 27-109 22-190h50c7 57-23 150 33 157 60-5 35-97 40-157h50l1 190h-47c-2-12 1-28-3-38-12 25-28 42-61 42" id="U"/><g id="j"><use transform="matrix(0.04938271604938272,0,0,0.04938271604938272,0,0)" xlink:href="#S"/><use transform="matrix(0.04938271604938272,0,0,0.04938271604938272,12.790123456790125,0)" xlink:href="#T"/><use transform="matrix(0.04938271604938272,0,0,0.04938271604938272,23.60493827160494,0)" xlink:href="#T"/><use transform="matrix(0.04938271604938272,0,0,0.04938271604938272,34.41975308641975,0)" xlink:href="#C"/><use transform="matrix(0.04938271604938272,0,0,0.04938271604938272,39.358024691358025,0)" xlink:href="#U"/><use transform="matrix(0.04938271604938272,0,0,0.04938271604938272,50.17283950617284,0)" xlink:href="#O"/><use transform="matrix(0.04938271604938272,0,0,0.04938271604938272,60.98765432098766,0)" xlink:href="#T"/><use transform="matrix(0.04938271604938272,0,0,0.04938271604938272,71.80246913580247,0)" xlink:href="#C"/></g><g id="k"><use transform="matrix(0.04938271604938272,0,0,0.04938271604938272,0,0)" xlink:href="#F"/><use transform="matrix(0.04938271604938272,0,0,0.04938271604938272,9.876543209876544,0)" xlink:href="#N"/><use transform="matrix(0.04938271604938272,0,0,0.04938271604938272,19.75308641975309,0)" xlink:href="#F"/><use transform="matrix(0.04938271604938272,0,0,0.04938271604938272,29.629629629629633,0)" xlink:href="#O"/><use transform="matrix(0.04938271604938272,0,0,0.04938271604938272,40.44444444444445,0)" xlink:href="#H"/><use transform="matrix(0.04938271604938272,0,0,0.04938271604938272,46.320987654320994,0)" xlink:href="#L"/></g><g id="l"><use transform="matrix(0.04938271604938272,0,0,0.04938271604938272,0,0)" xlink:href="#I"/><use transform="matrix(0.04938271604938272,0,0,0.04938271604938272,9.876543209876544,0)" xlink:href="#Q"/></g><path fill="#333" d="M230 0l2-204L168 0h-37L68-204 70 0H24v-248h70l56 185 57-185h69V0h-46" id="V"/><g id="m"><use transform="matrix(0.04938271604938272,0,0,0.04938271604938272,0,0)" xlink:href="#V"/><use transform="matrix(0.04938271604938272,0,0,0.04938271604938272,14.765432098765434,0)" xlink:href="#F"/><use transform="matrix(0.04938271604938272,0,0,0.04938271604938272,24.641975308641978,0)" xlink:href="#G"/><use transform="matrix(0.04938271604938272,0,0,0.04938271604938272,34.51851851851852,0)" xlink:href="#G"/><use transform="matrix(0.04938271604938272,0,0,0.04938271604938272,44.39506172839506,0)" xlink:href="#I"/><use transform="matrix(0.04938271604938272,0,0,0.04938271604938272,54.27160493827161,0)" xlink:href="#T"/><use transform="matrix(0.04938271604938272,0,0,0.04938271604938272,65.08641975308642,0)" xlink:href="#T"/><use transform="matrix(0.04938271604938272,0,0,0.04938271604938272,75.90123456790123,0)" xlink:href="#C"/><use transform="matrix(0.04938271604938272,0,0,0.04938271604938272,80.83950617283949,0)" xlink:href="#L"/></g><g id="n"><use transform="matrix(0.04938271604938272,0,0,0.04938271604938272,0,0)" xlink:href="#R"/><use transform="matrix(0.04938271604938272,0,0,0.04938271604938272,10.814814814814815,0)" xlink:href="#C"/></g><path fill="#333" d="M121-226c-27-7-43 5-38 36h38v33H83V0H34v-157H6v-33h28c-9-59 32-81 87-68v32" id="W"/><g id="o"><use transform="matrix(0.04938271604938272,0,0,0.04938271604938272,0,0)" xlink:href="#D"/><use transform="matrix(0.04938271604938272,0,0,0.04938271604938272,9.876543209876544,0)" xlink:href="#L"/><use transform="matrix(0.04938271604938272,0,0,0.04938271604938272,20.69135802469136,0)" xlink:href="#O"/><use transform="matrix(0.04938271604938272,0,0,0.04938271604938272,31.506172839506174,0)" xlink:href="#W"/><use transform="matrix(0.04938271604938272,0,0,0.04938271604938272,37.38271604938272,0)" xlink:href="#F"/><use transform="matrix(0.04938271604938272,0,0,0.04938271604938272,47.25925925925927,0)" xlink:href="#K"/><use transform="matrix(0.04938271604938272,0,0,0.04938271604938272,54.17283950617284,0)" xlink:href="#M"/><use transform="matrix(0.04938271604938272,0,0,0.04938271604938272,69.97530864197532,0)" xlink:href="#I"/></g><path d="M185-189c-5-48-123-54-124 2 14 75 158 14 163 119 3 78-121 87-175 55-17-10-28-26-33-46l33-7c5 56 141 63 141-1 0-78-155-14-162-118-5-82 145-84 179-34 5 7 8 16 11 25" id="X"/><path d="M135-143c-3-34-86-38-87 0 15 53 115 12 119 90S17 21 10-45l28-5c4 36 97 45 98 0-10-56-113-15-118-90-4-57 82-63 122-42 12 7 21 19 24 35" id="Y"/><path d="M210-169c-67 3-38 105-44 169h-31v-121c0-29-5-50-35-48C34-165 62-65 56 0H25l-1-190h30c1 10-1 24 2 32 10-44 99-50 107 0 11-21 27-35 58-36 85-2 47 119 55 194h-31v-121c0-29-5-49-35-48" id="Z"/><g id="p"><use transform="matrix(0.06172839506172837,0,0,0.06172839506172837,0,0)" xlink:href="#X"/><use transform="matrix(0.06172839506172837,0,0,0.06172839506172837,14.81481481481481,0)" xlink:href="#z"/><use transform="matrix(0.06172839506172837,0,0,0.06172839506172837,19.69135802469135,0)" xlink:href="#Y"/><use transform="matrix(0.06172839506172837,0,0,0.06172839506172837,30.802469135802458,0)" xlink:href="#r"/><use transform="matrix(0.06172839506172837,0,0,0.06172839506172837,36.975308641975296,0)" xlink:href="#s"/><use transform="matrix(0.06172839506172837,0,0,0.06172839506172837,49.32098765432097,0)" xlink:href="#Z"/><use transform="matrix(0.06172839506172837,0,0,0.06172839506172837,67.77777777777776,0)" xlink:href="#v"/></g></defs></g></svg>