<svg xmlns="http://www.w3.org/2000/svg" xmlns:xlink="http://www.w3.org/1999/xlink" xmlns:lucid="lucid" width="1860" height="1020"><g transform="translate(260 -820)" lucid:page-tab-id="T-gaN_hpOjWE"><path d="M-1806.87 0h3677.74v2581.67h-3677.74z" fill="#fff"/><path d="M.03 1357.74a6 6 0 0 1 6-6h148a6 6 0 0 1 6 6v108a6 6 0 0 1-6 6h-148a6 6 0 0 1-6-6z" stroke="#333" fill="#fff"/><path d="M150.03 1361.74h-15v20h15z" stroke="#333" fill="#fff"/><path d="M140.03 1365.07h-10v3.33h10zm0 10h-10v3.33h10z" stroke="#333" fill="#fff"/><use xlink:href="#a" transform="matrix(1,0,0,1,0.03192863140532154,1351.7366296611272) translate(16.332160493827153 51.52777777777778)"/><use xlink:href="#b" transform="matrix(1,0,0,1,0.03192863140532154,1351.7366296611272) translate(52.87537037037037 78.19444444444446)"/><path d="M-200 1411.74h10m-30-20c11.05 0 20 8.95 20 20 0 11.04-8.95 20-20 20" stroke="#333" fill="none"/><path d="M-220 1391.74c11.05 0 20 8.95 20 20 0 11.04-8.95 20-20 20zM-200 1411.74a.8.8 0 0 1 .8-.8h8.4a.8.8 0 0 1 .8.8.8.8 0 0 1-.8.8h-8.4a.8.8 0 0 1-.8-.8z" fill="none"/><path d="M-189.5 1411.74H-.93" stroke="#333" stroke-linejoin="round" fill="none"/><path d="M-189.48 1412.24H-193h3v-1h.52zM-.43 1412.24h-.5v-1h.5z" stroke="#333" stroke-width=".05" fill="#333"/><use xlink:href="#c" transform="matrix(1,0,0,1,-120.86860552623591,1386.4032963277937) translate(0.004999999999999005 14.222222222222223)"/><path d="M-200 1457.37h10m-30-20c11.05 0 20 8.95 20 20 0 11.04-8.95 20-20 20" stroke="#333" fill="none"/><path d="M-220 1437.37c11.05 0 20 8.95 20 20 0 11.04-8.95 20-20 20zM-200 1457.37a.8.8 0 0 1 .8-.8h8.4a.8.8 0 0 1 .8.8.8.8 0 0 1-.8.8h-8.4a.8.8 0 0 1-.8-.8z" fill="none"/><path d="M-189.5 1457.37H-.9" stroke="#333" stroke-linejoin="round" fill="none"/><path d="M-189.48 1457.87H-193h3v-1h.52zM-.4 1457.87h-.5v-1h.5z" stroke="#333" stroke-width=".05" fill="#333"/><use xlink:href="#d" transform="matrix(1,0,0,1,-136.60620226166964,1432.0364311923483) translate(0.005000000000002558 14.222222222222223)"/><path d="M.03 846a6 6 0 0 1 6-6h148a6 6 0 0 1 6 6v108a6 6 0 0 1-6 6h-148a6 6 0 0 1-6-6z" stroke="#333" fill="#fff"/><path d="M150.03 850h-15v20h15z" stroke="#333" fill="#fff"/><path d="M140.03 853.33h-10v3.34h10zm0 10h-10v3.34h10z" stroke="#333" fill="#fff"/><use xlink:href="#e" transform="matrix(1,0,0,1,0.03192863140532154,840.0000000545641) translate(30.467962962962957 36.52777777777778)"/><use xlink:href="#f" transform="matrix(1,0,0,1,0.03192863140532154,840.0000000545641) translate(10.313641975308636 63.19444444444445)"/><use xlink:href="#g" transform="matrix(1,0,0,1,0.03192863140532154,840.0000000545641) translate(42.44327160493827 89.86111111111111)"/><path d="M161 900h109.78" stroke="#333" stroke-linejoin="round" fill="none"/><path d="M161 900.5h-.5v-1h.5zM271.28 900.5h-.5v-1h.5z" stroke="#333" stroke-width=".05" fill="#333"/><path d="M431.23 846a6 6 0 0 1 6-6h148a6 6 0 0 1 6 6v108a6 6 0 0 1-6 6h-148a6 6 0 0 1-6-6z" stroke="#333" fill="#fff"/><path d="M581.23 850h-15v20h15z" stroke="#333" fill="#fff"/><path d="M571.23 853.33h-10v3.34h10zm0 10h-10v3.34h10z" stroke="#333" fill="#fff"/><use xlink:href="#h" transform="matrix(1,0,0,1,431.225499759811,840.0000000545641) translate(16.332160493827153 51.52777777777778)"/><use xlink:href="#i" transform="matrix(1,0,0,1,431.225499759811,840.0000000545641) translate(14.01734567901236 78.19444444444446)"/><use xlink:href="#j" transform="matrix(1,0,0,1,431.225499759811,840.0000000545641) translate(91.7333950617284 78.19444444444446)"/><path d="M321.28 900h-11M276.28 900h-5" stroke="#333" fill="none"/><path d="M296.28 914c-7.73 0-14-6.27-14-14s6.27-14 14-14 14 6.27 14 14-6.27 14-14 14z" stroke="#333" fill="#fff"/><path d="M296.28 880c-11.04 0-20 8.95-20 20s8.96 20 20 20" stroke="#333" fill="none"/><path d="M321.28 900a.8.8 0 0 1-.8.8h-9.4a.8.8 0 0 1-.8-.8.8.8 0 0 1 .8-.8h9.4a.8.8 0 0 1 .8.8z" fill="none"/><path d="M430.26 900H321.78" stroke="#333" stroke-linejoin="round" fill="none"/><path d="M430.76 900.5h-.5v-1h.5zM321.8 900.5h-.52v-1h.52z" stroke="#333" stroke-width=".05" fill="#333"/><use xlink:href="#k" transform="matrix(1,0,0,1,322.71959617764344,853.3333333878974) translate(13.782777777777781 14.222222222222223)"/><use xlink:href="#l" transform="matrix(1,0,0,1,322.71959617764344,853.3333333878974) translate(0.005000000000002558 35.55555555555556)"/><path d="M451.92 1397.74a6 6 0 0 1 6-6h148a6 6 0 0 1 6 6v108a6 6 0 0 1-6 6h-148a6 6 0 0 1-6-6z" stroke="#333" fill="#fff"/><path d="M601.92 1401.74h-15v20h15z" stroke="#333" fill="#fff"/><path d="M591.92 1405.07h-10v3.33h10zm0 10h-10v3.33h10z" stroke="#333" fill="#fff"/><use xlink:href="#m" transform="matrix(1,0,0,1,451.9185890103123,1391.7366296611276) translate(15.745740740740738 51.52777777777778)"/><use xlink:href="#n" transform="matrix(1,0,0,1,451.9185890103123,1391.7366296611276) translate(102.04203703703703 51.52777777777778)"/><use xlink:href="#o" transform="matrix(1,0,0,1,451.9185890103123,1391.7366296611276) translate(8.461790123456788 78.19444444444446)"/><path d="M-106.2 1517.74a6 6 0 0 1 6-6h148a6 6 0 0 1 6 6v108a6 6 0 0 1-6 6h-148a6 6 0 0 1-6-6z" stroke="#333" fill="#fff"/><path d="M43.8 1521.74h-15v20h15z" stroke="#333" fill="#fff"/><path d="M33.8 1525.07h-10v3.33h10zm0 10h-10v3.33h10z" stroke="#333" fill="#fff"/><use xlink:href="#a" transform="matrix(1,0,0,1,-106.19357112840547,1511.7366296065643) translate(16.332160493827153 51.52777777777778)"/><use xlink:href="#p" transform="matrix(1,0,0,1,-106.19357112840547,1511.7366296065643) translate(9.665493827160498 78.19444444444446)"/><use xlink:href="#q" transform="matrix(1,0,0,1,-106.19357112840547,1511.7366296065643) translate(87.38154320987654 78.19444444444446)"/><path d="M287.2 1541.57h11M332.2 1541.57h5" stroke="#333" fill="none"/><path d="M312.2 1527.57c7.75 0 14 6.27 14 14s-6.25 14-14 14c-7.72 0-14-6.27-14-14s6.28-14 14-14z" stroke="#333" fill="#fff"/><path d="M312.2 1561.57c11.06 0 20-8.95 20-20s-8.94-20-20-20" stroke="#333" fill="none"/><path d="M287.2 1541.57a.8.8 0 0 1 .8-.8h9.4a.8.8 0 0 1 .8.8.8.8 0 0 1-.8.8H288a.8.8 0 0 1-.8-.8z" fill="none"/><path d="M450.97 1481.9l-2.95.08-3.2.2-3 .34-2.8.43-2.7.54-2.56.62-2.48.72-2.4.82-2.38.92-2.34 1.04-2.33 1.15-2.37 1.3-2.42 1.48-2.52 1.7-2.7 1.97-2.96 2.4-3.52 3.1-4.98 4.82-17 17.2-3.53 3.1-2.97 2.4-2.7 2-2.5 1.68-2.43 1.48-2.37 1.3-2.33 1.16-2.34 1.03-2.38.9-2.4.83-2.5.73-2.56.63-2.68.52-2.82.44-3 .33-3.2.2-2.95.06" stroke="#333" stroke-linejoin="round" fill="none"/><path d="M451.48 1482.4h-.5l-.03-1h.53zM337.73 1542.07h-3.52 3v-1h.53z" stroke="#333" stroke-width=".05" fill="#333"/><path d="M54.75 1541.57H286.7" stroke="#333" stroke-linejoin="round" fill="none"/><path d="M54.77 1542.07h-.52v-1h.52zM287.2 1542.07h-.5v-1h.5z" stroke="#333" stroke-width=".05" fill="#333"/><use xlink:href="#r" transform="matrix(1,0,0,1,125.94302903860572,1516.2372228702754) translate(0.005000000000002558 14.222222222222223)"/><use xlink:href="#s" transform="matrix(1,0,0,1,125.94302903860572,1516.2372228702754) translate(36.44944444444445 14.222222222222223)"/><path d="M337.72 1411.74h113.2" stroke="#333" stroke-linejoin="round" fill="none"/><path d="M337.73 1412.24h-.52v-1h.53zM451.43 1412.24h-.5v-1h.5z" stroke="#333" stroke-width=".05" fill="#333"/><path d="M531.92 1342.6v-11M531.92 1297.6v-5" stroke="#333" fill="none"/><path d="M517.92 1317.6c0-7.72 6.27-14 14-14s14 6.28 14 14c0 7.75-6.27 14-14 14s-14-6.25-14-14z" stroke="#333" fill="#fff"/><path d="M551.92 1317.6c0-11.03-8.96-20-20-20-11.05 0-20 8.97-20 20" stroke="#333" fill="none"/><path d="M531.92 1342.6a.8.8 0 0 1-.8-.8v-9.4a.8.8 0 0 1 .8-.8.8.8 0 0 1 .8.8v9.4a.8.8 0 0 1-.8.8z" fill="none"/><path d="M287.2 1411.74h11M332.2 1411.74h5" stroke="#333" fill="none"/><path d="M312.2 1397.74c7.75 0 14 6.27 14 14s-6.25 14-14 14c-7.72 0-14-6.27-14-14s6.28-14 14-14z" stroke="#333" fill="#fff"/><path d="M312.2 1431.74c11.06 0 20-8.96 20-20 0-11.05-8.94-20-20-20" stroke="#333" fill="none"/><path d="M287.2 1411.74a.8.8 0 0 1 .8-.8h9.4a.8.8 0 0 1 .8.8.8.8 0 0 1-.8.8H288a.8.8 0 0 1-.8-.8z" fill="none"/><path d="M531.92 1390.77v-47.66" stroke="#333" stroke-linejoin="round" fill="none"/><path d="M532.42 1391.27h-1v-.5h1zM532.42 1343.13h-1v-.52h1z" stroke="#333" stroke-width=".05" fill="#333"/><use xlink:href="#r" transform="matrix(1,0,0,1,539.9185890103122,1353.5789519277887) translate(0.005000000000002558 14.222222222222223)"/><use xlink:href="#s" transform="matrix(1,0,0,1,539.9185890103122,1353.5789519277887) translate(36.44944444444445 14.222222222222223)"/><path d="M286.7 1411.74H161" stroke="#333" stroke-linejoin="round" fill="none"/><path d="M290.2 1411.24h-3v1h-.5v-1h3.5zM161 1412.24h-.5v-1h.5z" stroke="#333" stroke-width=".05" fill="#333"/><use xlink:href="#r" transform="matrix(1,0,0,1,191.8967695768382,1386.403296327794) translate(0.005000000000002558 14.222222222222223)"/><use xlink:href="#t" transform="matrix(1,0,0,1,191.8967695768382,1386.403296327794) translate(36.44944444444445 14.222222222222223)"/><path d="M1211.84 971.7v-11M1211.84 926.7v-5" stroke="#333" fill="none"/><path d="M1197.84 946.7c0-7.74 6.27-14 14-14s14 6.26 14 14c0 7.72-6.27 14-14 14s-14-6.28-14-14z" stroke="#333" fill="#fff"/><path d="M1231.84 946.7c0-11.05-8.95-20-20-20s-20 8.95-20 20" stroke="#333" fill="none"/><path d="M1211.84 971.7a.8.8 0 0 1-.8-.8v-9.4a.8.8 0 0 1 .8-.8.8.8 0 0 1 .8.8v9.4a.8.8 0 0 1-.8.8z" fill="none"/><path d="M1211.84 921.2V820.5" stroke="#333" stroke-linejoin="round" fill="none"/><path d="M1212.34 921.7h-1v3-3.52h1z" stroke="#333" stroke-width=".05" fill="#333"/><path d="M1211.84 820.5v-.5M1211.84 972.2v443.37a6 6 0 0 1-6 6H612.86" stroke="#333" fill="none"/><path d="M1211.34 971.7h1v.5h-1v-3.5zM612.87 1422.07h-.5v-1h.5z" stroke="#333" stroke-width=".05" fill="#333"/><use xlink:href="#u" transform="matrix(1,0,0,1,1112.0855333972322,1374.9038895915053) translate(0.005000000000002558 14.222222222222223)"/><use xlink:href="#v" transform="matrix(1,0,0,1,1112.0855333972322,1374.9038895915053) translate(19.313641975308645 35.55555555555556)"/><path d="M1251.84 881.7v11M1251.84 926.7v5" stroke="#333" fill="none"/><path d="M1265.84 906.7c0 7.72-6.27 14-14 14s-14-6.28-14-14c0-7.74 6.27-14 14-14s14 6.26 14 14z" stroke="#333" fill="#fff"/><path d="M1231.84 906.7c0 11.04 8.95 20 20 20s20-8.96 20-20" stroke="#333" fill="none"/><path d="M1251.84 881.7a.8.8 0 0 1 .8.8v9.4a.8.8 0 0 1-.8.8.8.8 0 0 1-.8-.8v-9.4a.8.8 0 0 1 .8-.8z" fill="none"/><path d="M1251.84 881.2v-60.7" stroke="#333" stroke-linejoin="round" fill="none"/><path d="M1252.34 884.7v-3h-1v-.52h1z" stroke="#333" stroke-width=".05" fill="#333"/><path d="M1251.84 820.5v-.5" stroke="#333" fill="none"/><use xlink:href="#w" transform="matrix(1,0,0,1,1259.841284556496,842.8196458393735) translate(0.47413580246913156 14.222222222222223)"/><use xlink:href="#x" transform="matrix(1,0,0,1,1259.841284556496,842.8196458393735) translate(0.004999999999999005 35.55555555555556)"/><path d="M1251.84 932.2v543.72a6 6 0 0 1-6 6H612.9" stroke="#333" fill="none"/><path d="M1252.34 932.2h-1v-.5h1v-3zM612.92 1482.42h-.52v-1h.52z" stroke="#333" stroke-width=".05" fill="#333"/><path d="M.03 1697.74a6 6 0 0 1 6-6h148a6 6 0 0 1 6 6v108a6 6 0 0 1-6 6h-148a6 6 0 0 1-6-6z" stroke="#333" fill="#fff"/><path d="M150.03 1701.74h-15v20h15z" stroke="#333" fill="#fff"/><path d="M140.03 1705.07h-10v3.33h10zm0 10h-10v3.33h10z" stroke="#333" fill="#fff"/><use xlink:href="#e" transform="matrix(1,0,0,1,0.03192863140532154,1691.7366296611276) translate(32.96796296296296 51.52777777777778)"/><use xlink:href="#y" transform="matrix(1,0,0,1,0.03192863140532154,1691.7366296611276) translate(16.54820987654319 78.19444444444446)"/><path d="M-200 1721.57h10m-30-20c11.05 0 20 8.96 20 20 0 11.05-8.95 20-20 20" stroke="#333" fill="none"/><path d="M-220 1701.57c11.05 0 20 8.96 20 20 0 11.05-8.95 20-20 20zM-200 1721.57a.8.8 0 0 1 .8-.8h8.4a.8.8 0 0 1 .8.8.8.8 0 0 1-.8.8h-8.4a.8.8 0 0 1-.8-.8z" fill="none"/><path d="M-189.5 1721.57H-.95" stroke="#333" stroke-linejoin="round" fill="none"/><path d="M-189.48 1722.07H-193h3v-1h.52zM-.45 1722.06h-.5v-1h.5z" stroke="#333" stroke-width=".05" fill="#333"/><use xlink:href="#r" transform="matrix(1,0,0,1,-140.03287250350715,1696.2309484276836) translate(0.005000000000002558 14.222222222222223)"/><use xlink:href="#s" transform="matrix(1,0,0,1,-140.03287250350715,1696.2309484276836) translate(36.44944444444445 14.222222222222223)"/><path d="M400.03 1697.74a6 6 0 0 1 6-6h148a6 6 0 0 1 6 6v108a6 6 0 0 1-6 6h-148a6 6 0 0 1-6-6z" stroke="#333" fill="#fff"/><path d="M550.03 1701.74h-15v20h15z" stroke="#333" fill="#fff"/><path d="M540.03 1705.07h-10v3.33h10zm0 10h-10v3.33h10z" stroke="#333" fill="#fff"/><use xlink:href="#m" transform="matrix(1,0,0,1,400.0319286314053,1691.7366296611276) translate(15.745740740740738 51.52777777777778)"/><use xlink:href="#n" transform="matrix(1,0,0,1,400.0319286314053,1691.7366296611276) translate(102.04203703703703 51.52777777777778)"/><use xlink:href="#y" transform="matrix(1,0,0,1,400.0319286314053,1691.7366296611276) translate(16.54820987654319 78.19444444444446)"/><path d="M287.2 1601.92h11M332.2 1601.92h5" stroke="#333" fill="none"/><path d="M312.2 1587.92c7.75 0 14 6.27 14 14s-6.25 14-14 14c-7.72 0-14-6.27-14-14s6.28-14 14-14z" stroke="#333" fill="#fff"/><path d="M312.2 1621.92c11.06 0 20-8.96 20-20 0-11.05-8.94-20-20-20" stroke="#333" fill="none"/><path d="M287.2 1601.92a.8.8 0 0 1 .8-.8h9.4a.8.8 0 0 1 .8.8.8.8 0 0 1-.8.8H288a.8.8 0 0 1-.8-.8z" fill="none"/><path d="M439.72 1690.8l-.1-3.93-.3-4.28-.5-4.17-.7-4.03-.9-3.93-1.04-3.84-1.23-3.75-1.4-3.67-1.6-3.58-1.75-3.52-1.94-3.46-2.13-3.4-2.32-3.3-2.5-3.27-2.74-3.2-2.93-3.1-3.16-3.04-3.4-2.96-3.6-2.85-3.86-2.75-4.08-2.63-4.33-2.5-4.6-2.33-4.8-2.17-5.03-1.98-5.25-1.8-5.45-1.54-5.64-1.3-5.8-1.07-5.93-.8-6.06-.5-6.14-.2h-.8" stroke="#333" stroke-linejoin="round" fill="none"/><path d="M440.24 1691.3h-1l-.02-.5 1-.03zM337.73 1601.42v1h-.52v-1h-2.98v-.02z" stroke="#333" stroke-width=".05" fill="#333"/><path d="M337.7 1721.57h61.35" stroke="#333" stroke-linejoin="round" fill="none"/><path d="M334.2 1722.07h3zm3.53 0h-.52v-1h.53zM399.55 1722.06h-.5v-1h.5z" stroke="#333" stroke-width=".05" fill="#333"/><path d="M287.2 1721.57h11M332.2 1721.57h5" stroke="#333" fill="none"/><path d="M312.2 1707.57c7.75 0 14 6.27 14 14s-6.25 14-14 14c-7.72 0-14-6.27-14-14s6.28-14 14-14z" stroke="#333" fill="#fff"/><path d="M312.2 1741.57c11.06 0 20-8.95 20-20 0-11.04-8.94-20-20-20" stroke="#333" fill="none"/><path d="M287.2 1721.57a.8.8 0 0 1 .8-.8h9.4a.8.8 0 0 1 .8.8.8.8 0 0 1-.8.8H288a.8.8 0 0 1-.8-.8z" fill="none"/><path d="M286.7 1721.57H160.98" stroke="#333" stroke-linejoin="round" fill="none"/><path d="M290.2 1721.07h-3v1h-.5v-1h3.5zM161 1722.07h-.52v-1h.5z" stroke="#333" stroke-width=".05" fill="#333"/><use xlink:href="#z" transform="matrix(1,0,0,1,178.98699035980047,1674.9038895915055) translate(39.85685185185185 14.222222222222223)"/><use xlink:href="#A" transform="matrix(1,0,0,1,178.98699035980047,1674.9038895915055) translate(0.005000000000002558 35.55555555555556)"/><use xlink:href="#B" transform="matrix(1,0,0,1,178.98699035980047,1674.9038895915055) translate(58.07907407407408 35.55555555555556)"/><path d="M54.8 1601.92h231.9" stroke="#333" stroke-linejoin="round" fill="none"/><path d="M54.8 1602.42h-.5v-1h.5zM287.2 1602.42h-.5v-1h.5z" stroke="#333" stroke-width=".05" fill="#333"/><use xlink:href="#r" transform="matrix(1,0,0,1,125.96351274714596,1555.2513993547009) translate(0.005000000000002558 14.222222222222223)"/><use xlink:href="#C" transform="matrix(1,0,0,1,125.96351274714596,1555.2513993547009) translate(36.44944444444445 14.222222222222223)"/><use xlink:href="#v" transform="matrix(1,0,0,1,125.96351274714596,1555.2513993547009) translate(18.227222222222228 35.55555555555556)"/><path d="M1308.97 971.7v-11M1308.97 926.7v-5" stroke="#333" fill="none"/><path d="M1294.97 946.7c0-7.74 6.27-14 14-14s14 6.26 14 14c0 7.72-6.27 14-14 14s-14-6.28-14-14z" stroke="#333" fill="#fff"/><path d="M1328.97 946.7c0-11.05-8.96-20-20-20-11.05 0-20 8.95-20 20" stroke="#333" fill="none"/><path d="M1308.97 971.7a.8.8 0 0 1-.8-.8v-9.4a.8.8 0 0 1 .8-.8.8.8 0 0 1 .8.8v9.4a.8.8 0 0 1-.8.8z" fill="none"/><path d="M560.97 1721.57h742a6 6 0 0 0 6-6V972.2" stroke="#333" fill="none"/><path d="M561 1722.07h-.52v-1h.5zM1309.47 972.2h-1v-.5h1z" stroke="#333" stroke-width=".05" fill="#333"/><use xlink:href="#r" transform="matrix(1,0,0,1,1204.0418051746153,1674.9038895915053) translate(0.005000000000002558 14.222222222222223)"/><use xlink:href="#C" transform="matrix(1,0,0,1,1204.0418051746153,1674.9038895915053) translate(36.44944444444445 14.222222222222223)"/><use xlink:href="#v" transform="matrix(1,0,0,1,1204.0418051746153,1674.9038895915053) translate(18.227222222222228 35.55555555555556)"/><path d="M1308.97 921.2V820.5" stroke="#333" stroke-linejoin="round" fill="none"/><path d="M1309.47 921.7h-1v3-3.52h1z" stroke="#333" stroke-width=".05" fill="#333"/><path d="M1308.97 820.5v-.5M600.03 1611.74h11M645.03 1611.74h5" stroke="#333" fill="none"/><path d="M625.03 1597.74c7.73 0 14 6.26 14 14 0 7.73-6.27 14-14 14s-14-6.27-14-14c0-7.74 6.27-14 14-14z" stroke="#333" fill="#fff"/><path d="M625.03 1631.74c11.05 0 20-8.96 20-20 0-11.05-8.95-20-20-20" stroke="#333" fill="none"/><path d="M600.03 1611.74a.8.8 0 0 1 .8-.8h9.4a.8.8 0 0 1 .8.8.8.8 0 0 1-.8.8h-9.4a.8.8 0 0 1-.8-.8z" fill="none"/><path d="M679.07 1611.74h-28.54" stroke="#333" stroke-linejoin="round" fill="none"/><path d="M679.57 1612.24h-.5v-1h.5zM650.54 1612.24h-.5v-1h.5z" stroke="#333" stroke-width=".05" fill="#333"/><path d="M680.03 1557.74a6 6 0 0 1 6-6h148a6 6 0 0 1 6 6v108a6 6 0 0 1-6 6h-148a6 6 0 0 1-6-6z" stroke="#333" fill="#fff"/><path d="M830.03 1561.74h-15v20h15z" stroke="#333" fill="#fff"/><path d="M820.03 1565.07h-10v3.33h10zm0 10h-10v3.33h10z" stroke="#333" fill="#fff"/><use xlink:href="#a" transform="matrix(1,0,0,1,680.0319286314053,1551.7366296065643) translate(16.332160493827153 51.52777777777778)"/><use xlink:href="#D" transform="matrix(1,0,0,1,680.0319286314053,1551.7366296065643) translate(9.233395061728382 78.19444444444446)"/><use xlink:href="#E" transform="matrix(1,0,0,1,680.0319286314053,1551.7366296065643) translate(90.52969135802469 78.19444444444446)"/><path d="M-190 1781.92h-10m-40 0c0-11.05 8.95-20 20-20s20 8.95 20 20c0 11.04-8.95 20-20 20s-20-8.96-20-20z" stroke="#333" fill="#fff"/><path d="M-190 1782.72h-10v-1.6h10z" fill="none"/><path d="M-.9 1781.9l-188.6.02" stroke="#333" stroke-linejoin="round" fill="none"/><path d="M-.4 1782.4h-.53v-1h.52zM-189.5 1782.42h-3.5 3v-1h.5z" stroke="#333" stroke-width=".05" fill="#333"/><use xlink:href="#F" transform="matrix(1,0,0,1,-150.4292614007872,1735.2437184211692) translate(34.52351851851852 14.222222222222223)"/><use xlink:href="#G" transform="matrix(1,0,0,1,-150.4292614007872,1735.2437184211692) translate(0.005000000000002558 35.55555555555556)"/><path d="M399.1 1781.9l-139.5.02" stroke="#333" stroke-linejoin="round" fill="none"/><path d="M399.6 1782.4h-.53v-1h.52zM259.6 1782.42h-3.5 3v-1h.5z" stroke="#333" stroke-width=".05" fill="#333"/><use xlink:href="#F" transform="matrix(1,0,0,1,262.58153063304513,1785.9116480271648) translate(34.52351851851852 14.222222222222223)"/><use xlink:href="#G" transform="matrix(1,0,0,1,262.58153063304513,1785.9116480271648) translate(0.005000000000002558 35.55555555555556)"/><path d="M259.1 1781.92h-11M214.1 1781.92h-5" stroke="#333" fill="none"/><path d="M234.1 1795.92c-7.74 0-14-6.27-14-14s6.26-14 14-14c7.72 0 14 6.27 14 14s-6.28 14-14 14z" stroke="#333" fill="#fff"/><path d="M234.1 1761.92c-11.06 0-20 8.95-20 20 0 11.04 8.94 20 20 20" stroke="#333" fill="none"/><path d="M259.1 1781.92a.8.8 0 0 1-.8.8h-9.4a.8.8 0 0 1-.8-.8.8.8 0 0 1 .8-.8h9.4a.8.8 0 0 1 .8.8z" fill="none"/><path d="M161.02 1781.92h47.57" stroke="#333" stroke-linejoin="round" fill="none"/><path d="M161.03 1782.42h-.5v-1h.5zM209.1 1782.42h-.53v-1h.52z" stroke="#333" stroke-width=".05" fill="#333"/><path d="M1343 881.7v11M1343 926.7v5" stroke="#333" fill="none"/><path d="M1357 906.7c0 7.72-6.26 14-14 14-7.72 0-14-6.28-14-14 0-7.74 6.28-14 14-14 7.74 0 14 6.26 14 14z" stroke="#333" fill="#fff"/><path d="M1323 906.7c0 11.04 8.96 20 20 20 11.06 0 20-8.96 20-20" stroke="#333" fill="none"/><path d="M1343 881.7a.8.8 0 0 1 .8.8v9.4a.8.8 0 0 1-.8.8.8.8 0 0 1-.8-.8v-9.4a.8.8 0 0 1 .8-.8z" fill="none"/><path d="M1343 820.5v60.7" stroke="#333" stroke-linejoin="round" fill="none"/><path d="M1343 820.5v-.5" stroke="#333" fill="none"/><path d="M1342.5 881.7v-.52h1v.5z" stroke="#333" stroke-width=".05" fill="#333"/><use xlink:href="#F" transform="matrix(1,0,0,1,1351.0103061455504,840.4929011458552) translate(29.585246913580242 14.222222222222223)"/><use xlink:href="#H" transform="matrix(1,0,0,1,1351.0103061455504,840.4929011458552) translate(0.005000000000002558 35.55555555555556)"/><path d="M561 1751.74h776a6 6 0 0 0 6-6V932.2" stroke="#333" fill="none"/><path d="M561 1752.24h-.5v-1h.5zM1343.5 932.2h-1v-.5h1z" stroke="#333" stroke-width=".05" fill="#333"/><path d="M.03 1011.68a6 6 0 0 1 6-6h148a6 6 0 0 1 6 6V1134a6 6 0 0 1-6 6h-148a6 6 0 0 1-6-6z" stroke="#333" fill="#fff"/><path d="M150.03 1015.68h-15v20h15z" stroke="#333" fill="#fff"/><path d="M140.03 1019h-10v3.34h10zm0 10h-10v3.34h10z" stroke="#333" fill="#fff"/><use xlink:href="#I" transform="matrix(1,0,0,1,0.03192863140532154,1005.678271853495) translate(24.511172839506166 59.96527777777778)"/><use xlink:href="#J" transform="matrix(1,0,0,1,0.03192863140532154,1005.678271853495) translate(99.75808641975308 59.96527777777778)"/><use xlink:href="#K" transform="matrix(1,0,0,1,0.03192863140532154,1005.678271853495) translate(35.035864197530856 86.63194444444446)"/><path d="M1040.03 881.7v11M1040.03 926.7v5" stroke="#333" fill="none"/><path d="M1054.03 906.7c0 7.72-6.27 14-14 14s-14-6.28-14-14c0-7.74 6.27-14 14-14s14 6.26 14 14z" stroke="#333" fill="#fff"/><path d="M1020.03 906.7c0 11.04 8.96 20 20 20 11.05 0 20-8.96 20-20" stroke="#333" fill="none"/><path d="M1040.03 881.7a.8.8 0 0 1 .8.8v9.4a.8.8 0 0 1-.8.8.8.8 0 0 1-.8-.8v-9.4a.8.8 0 0 1 .8-.8z" fill="none"/><path d="M160.97 1027.37h873.06a6 6 0 0 0 6-6V932.2" stroke="#333" fill="none"/><path d="M160.98 1027.87h-.5v-1h.5zM1040.53 932.2h-1v-.5h1z" stroke="#333" stroke-width=".05" fill="#333"/><path d="M-190 1027.68h-10m-40 0c0-11.05 8.95-20 20-20s20 8.95 20 20c0 11.04-8.95 20-20 20s-20-8.96-20-20z" stroke="#333" fill="#fff"/><path d="M-190 1028.48h-10v-1.6h10z" fill="none"/><path d="M-189.5 1027.68H-.96" stroke="#333" stroke-linejoin="round" fill="none"/><path d="M-189.48 1028.18h-.52v-1h.52zM-.46 1028.18h-.5v-1h.5z" stroke="#333" stroke-width=".05" fill="#333"/><use xlink:href="#r" transform="matrix(1,0,0,1,-140.01822202035646,1002.344938520162) translate(0.005000000000002558 14.222222222222223)"/><use xlink:href="#s" transform="matrix(1,0,0,1,-140.01822202035646,1002.344938520162) translate(36.44944444444445 14.222222222222223)"/><path d="M-200 1072.84h10m-30-20c11.05 0 20 8.95 20 20 0 11.04-8.95 20-20 20" stroke="#333" fill="none"/><path d="M-220 1052.84c11.05 0 20 8.95 20 20 0 11.04-8.95 20-20 20zM-200 1072.84a.8.8 0 0 1 .8-.8h8.4a.8.8 0 0 1 .8.8.8.8 0 0 1-.8.8h-8.4a.8.8 0 0 1-.8-.8z" fill="none"/><path d="M-189.5 1072.84H-.93" stroke="#333" stroke-linejoin="round" fill="none"/><path d="M-189.48 1073.34H-193h3v-1h.52zM-.43 1073.34h-.5v-1h.5z" stroke="#333" stroke-width=".05" fill="#333"/><use xlink:href="#L" transform="matrix(1,0,0,1,-155.31549987253518,1047.5065425534083) translate(0.005000000000002558 14.222222222222223)"/><use xlink:href="#M" transform="matrix(1,0,0,1,-155.31549987253518,1047.5065425534083) translate(88.69635802469136 14.222222222222223)"/><path d="M-200 1366.1h10m-30-20c11.05 0 20 8.96 20 20 0 11.05-8.95 20-20 20" stroke="#333" fill="none"/><path d="M-220 1346.1c11.05 0 20 8.96 20 20 0 11.05-8.95 20-20 20zM-200 1366.1a.8.8 0 0 1 .8-.8h8.4a.8.8 0 0 1 .8.8.8.8 0 0 1-.8.8h-8.4a.8.8 0 0 1-.8-.8z" fill="none"/><path d="M-.97 1366.1H-189.5" stroke="#333" stroke-linejoin="round" fill="none"/><path d="M-.46 1366.6h-.52v-1h.52zM-189.5 1366.6h-.5v-1h.5z" stroke="#333" stroke-width=".05" fill="#333"/><use xlink:href="#N" transform="matrix(1,0,0,1,-177.05977825474653,1340.7686815625223) translate(0.0049999999999954525 14.222222222222223)"/><use xlink:href="#O" transform="matrix(1,0,0,1,-177.05977825474653,1340.7686815625223) translate(80.84450617283952 14.222222222222223)"/><path d="M385.8 1072.84h11M430.8 1072.84h5" stroke="#333" fill="none"/><path d="M410.8 1058.84c7.72 0 14 6.27 14 14s-6.28 14-14 14c-7.74 0-14-6.27-14-14s6.26-14 14-14z" stroke="#333" fill="#fff"/><path d="M410.8 1092.84c11.04 0 20-8.96 20-20 0-11.05-8.96-20-20-20" stroke="#333" fill="none"/><path d="M385.8 1072.84a.8.8 0 0 1 .8-.8h9.4a.8.8 0 0 1 .8.8.8.8 0 0 1-.8.8h-9.4a.8.8 0 0 1-.8-.8z" fill="none"/><path d="M161.03 1117.9h188.5" stroke="#333" stroke-linejoin="round" fill="none"/><path d="M161.04 1118.4h-.52v-1h.52zM350.03 1118.4h-.5v-1h.5z" stroke="#333" stroke-width=".05" fill="#333"/><use xlink:href="#P" transform="matrix(1,0,0,1,213.4019763334183,1092.5649345196405) translate(0.005000000000002558 14.222222222222223)"/><path d="M680.03 1182a6 6 0 0 1 6-6h168a6 6 0 0 1 6 6v108a6 6 0 0 1-6 6h-168a6 6 0 0 1-6-6z" stroke="#333" fill="#fff"/><path d="M850.03 1186h-15v20h15z" stroke="#333" fill="#fff"/><path d="M840.03 1189.32h-10v3.34h10zm0 10h-10v3.34h10z" stroke="#333" fill="#fff"/><use xlink:href="#Q" transform="matrix(1,0,0,1,680.0319286314053,1175.9907718534964) translate(38.029691358024685 51.52777777777778)"/><use xlink:href="#R" transform="matrix(1,0,0,1,680.0319286314053,1175.9907718534964) translate(8.616111111111104 78.19444444444446)"/><use xlink:href="#S" transform="matrix(1,0,0,1,680.0319286314053,1175.9907718534964) translate(109.6654938271605 78.19444444444446)"/><path d="M679.04 1199.83h-113a6 6 0 0 1-6-6v-115a6 6 0 0 0-6-6H436.28" stroke="#333" fill="none"/><path d="M679.54 1200.33h-.5v-1h.5zM436.3 1073.34h-.5v-1h.5z" stroke="#333" stroke-width=".05" fill="#333"/><path d="M350.03 1117.9h11M395.03 1117.9h5" stroke="#333" fill="none"/><path d="M375.03 1103.9c7.73 0 14 6.27 14 14s-6.27 14-14 14-14-6.27-14-14 6.27-14 14-14z" stroke="#333" fill="#fff"/><path d="M375.03 1137.9c11.05 0 20-8.96 20-20 0-11.05-8.95-20-20-20" stroke="#333" fill="none"/><path d="M350.03 1117.9a.8.8 0 0 1 .8-.8h9.4a.8.8 0 0 1 .8.8.8.8 0 0 1-.8.8h-9.4a.8.8 0 0 1-.8-.8z" fill="none"/><path d="M160.97 1371.67h213.06a6 6 0 0 0 6-6v-22.56" stroke="#333" fill="none"/><path d="M160.98 1372.17h-.5v-1h.5zM380.53 1343.13h-1v-.52h1z" stroke="#333" stroke-width=".05" fill="#333"/><use xlink:href="#T" transform="matrix(1,0,0,1,183.03765423701955,1325.0040003873064) translate(0.0049999999999954525 14.222222222222223)"/><use xlink:href="#U" transform="matrix(1,0,0,1,183.03765423701955,1325.0040003873064) translate(77.93092592592595 14.222222222222223)"/><use xlink:href="#d" transform="matrix(1,0,0,1,183.03765423701955,1325.0040003873064) translate(35.51117283950619 35.55555555555556)"/><path d="M679.06 1220.16H516.03a6 6 0 0 1-6-6v-90.26a6 6 0 0 0-6-6h-103.5" stroke="#333" fill="none"/><path d="M679.56 1220.66h-.5v-1h.5zM400.54 1118.4h-.5v-1h.5z" stroke="#333" stroke-width=".05" fill="#333"/><path d="M760.03 1351.74v11M760.03 1396.74v5" stroke="#333" fill="none"/><path d="M774.03 1376.74c0 7.73-6.27 14-14 14s-14-6.27-14-14c0-7.74 6.27-14 14-14s14 6.26 14 14z" stroke="#333" fill="#fff"/><path d="M740.03 1376.74c0 11.04 8.95 20 20 20s20-8.96 20-20" stroke="#333" fill="none"/><path d="M760.03 1351.74a.8.8 0 0 1 .8.8v9.4a.8.8 0 0 1-.8.8.8.8 0 0 1-.8-.8v-9.4a.8.8 0 0 1 .8-.8z" fill="none"/><path d="M760.03 1296.96v54.28" stroke="#333" fill="none"/><path d="M760.53 1296.97h-1v-.5h1zM759.53 1351.74v-.52h1v.52z" stroke="#333" stroke-width=".05" fill="#333"/><use xlink:href="#V" transform="matrix(1,0,0,1,768.0305962616503,1300.8987920314657) translate(15.758086419753084 14.222222222222223)"/><use xlink:href="#W" transform="matrix(1,0,0,1,768.0305962616503,1300.8987920314657) translate(3.4617901234567867 35.55555555555556)"/><use xlink:href="#X" transform="matrix(1,0,0,1,768.0305962616503,1300.8987920314657) translate(0.005000000000002558 56.88888888888889)"/><path d="M760.03 1402.24v148.54" stroke="#333" fill="none"/><path d="M760.53 1402.25h-1v-.5h1v-3zM760.53 1551.27h-1v-.5h1z" stroke="#333" stroke-width=".05" fill="#333"/><path d="M1177.05 936.7v-11M1177.05 891.7v-5" stroke="#333" fill="none"/><path d="M1163.05 911.7c0-7.74 6.27-14 14-14s14 6.26 14 14c0 7.72-6.27 14-14 14s-14-6.28-14-14z" stroke="#333" fill="#fff"/><path d="M1197.05 911.7c0-11.05-8.95-20-20-20-11.04 0-20 8.95-20 20" stroke="#333" fill="none"/><path d="M1177.05 936.7a.8.8 0 0 1-.8-.8v-9.4a.8.8 0 0 1 .8-.8.8.8 0 0 1 .8.8v9.4a.8.8 0 0 1-.8.8z" fill="none"/><path d="M861.02 1266.15h310.03a6 6 0 0 0 6-6V937.2" stroke="#333" fill="none"/><path d="M861.03 1266.65h-.5v-1h.5zM1177.55 937.2h-1v-.5h1z" stroke="#333" stroke-width=".05" fill="#333"/><g><use xlink:href="#Y" transform="matrix(1,0,0,1,970.7319413865627,1270.1520441037155) translate(26.128456790123458 14.222222222222223)"/><use xlink:href="#Z" transform="matrix(1,0,0,1,970.7319413865627,1270.1520441037155) translate(0.005000000000002558 35.55555555555556)"/></g><path d="M1177.05 886.2v-65.7" stroke="#333" stroke-linejoin="round" fill="none"/><path d="M1177.55 886.7h-1v3-3.52h1z" stroke="#333" stroke-width=".05" fill="#333"/><path d="M1177.05 820.5v-.5" stroke="#333" fill="none"/><path d="M.03 1186.26a6 6 0 0 1 6-6h148a6 6 0 0 1 6 6v108a6 6 0 0 1-6 6h-148a6 6 0 0 1-6-6z" stroke="#333" fill="#fff"/><path d="M150.03 1190.26h-15v20h15z" stroke="#333" fill="#fff"/><path d="M140.03 1193.6h-10v3.33h10zm0 10h-10v3.33h10z" stroke="#333" fill="#fff"/><g><use xlink:href="#e" transform="matrix(1,0,0,1,0.03192863140532154,1180.26058286227) translate(30.467962962962957 36.52777777777778)"/><use xlink:href="#aa" transform="matrix(1,0,0,1,0.03192863140532154,1180.26058286227) translate(55.34450617283951 63.19444444444445)"/><use xlink:href="#ab" transform="matrix(1,0,0,1,0.03192863140532154,1180.26058286227) translate(32.535864197530856 89.86111111111111)"/></g><path d="M-200 1240.26h10m-30-20c11.05 0 20 8.95 20 20 0 11.04-8.95 20-20 20" stroke="#333" fill="none"/><path d="M-220 1220.26c11.05 0 20 8.95 20 20 0 11.04-8.95 20-20 20zM-200 1240.26a.8.8 0 0 1 .8-.8h8.4a.8.8 0 0 1 .8.8.8.8 0 0 1-.8.8h-8.4a.8.8 0 0 1-.8-.8z" fill="none"/><path d="M-189.5 1240.26H-.93" stroke="#333" stroke-linejoin="round" fill="none"/><path d="M-189.48 1240.76H-193h3v-1h.52zM-.43 1240.76h-.5v-1h.5z" stroke="#333" stroke-width=".05" fill="#333"/><g><use xlink:href="#ac" transform="matrix(1,0,0,1,-148.48113334465387,1193.5939161956037) translate(15.313641975308641 14.222222222222223)"/><use xlink:href="#ad" transform="matrix(1,0,0,1,-148.48113334465387,1193.5939161956037) translate(0.005000000000002558 35.55555555555556)"/></g><path d="M311.23 1240.26h11M356.23 1240.26h5" stroke="#333" fill="none"/><path d="M336.23 1226.26c7.73 0 14 6.26 14 14 0 7.73-6.27 14-14 14-7.74 0-14-6.27-14-14 0-7.74 6.26-14 14-14z" stroke="#333" fill="#fff"/><path d="M336.23 1260.26c11.04 0 20-8.96 20-20 0-11.05-8.96-20-20-20" stroke="#333" fill="none"/><path d="M311.23 1240.26a.8.8 0 0 1 .8-.8h9.4a.8.8 0 0 1 .8.8.8.8 0 0 1-.8.8h-9.4a.8.8 0 0 1-.8-.8z" fill="none"/><path d="M161 1240.26h149.73" stroke="#333" stroke-linejoin="round" fill="none"/><path d="M161 1240.76h-.5v-1h.5zM314.23 1239.76h-3v1h-.52v-1h3.53z" stroke="#333" stroke-width=".05" fill="#333"/><g><use xlink:href="#ac" transform="matrix(1,0,0,1,194.45142679566385,1193.5918193267887) translate(15.313641975308641 14.222222222222223)"/><use xlink:href="#ad" transform="matrix(1,0,0,1,194.45142679566385,1193.5918193267887) translate(0.005000000000002558 35.55555555555556)"/></g><path d="M679.07 1240.26H361.73" stroke="#333" stroke-linejoin="round" fill="none"/><path d="M679.57 1240.76h-.52v-1h.52zM361.74 1240.76h-.5v-1h.5z" stroke="#333" stroke-width=".05" fill="#333"/><path d="M-189.5 900H-.93" stroke="#333" stroke-linejoin="round" fill="none"/><path d="M-189.48 900.5H-193h3v-1h.52zM-.43 900.5h-.5v-1h.5z" stroke="#333" stroke-width=".05" fill="#333"/><g><use xlink:href="#ae" transform="matrix(1,0,0,1,-128.69604986207864,853.3348132886146) translate(17.264259259259262 14.222222222222223)"/><use xlink:href="#af" transform="matrix(1,0,0,1,-128.69604986207864,853.3348132886146) translate(0.005000000000002558 35.55555555555556)"/></g><g><path d="M-190 900h-10m-40 0c0-11.05 8.95-20 20-20s20 8.95 20 20-8.95 20-20 20-20-8.95-20-20z" stroke="#333" fill="#fff"/><path d="M-190 900.8h-10v-1.6h10z" fill="none"/></g><path d="M679.1 1279.58H537.92a6 6 0 0 0-6 6v6.53" stroke="#333" fill="none"/><path d="M679.6 1280.08h-.5v-1h.5zM531.42 1292.6v-.5h1v.5z" stroke="#333" stroke-width=".05" fill="#333"/><path d="M1040.03 820.5v60.7M1040.03 820.5v-.5" stroke="#333" fill="none"/><path d="M1039.53 881.7v-.52h1v.5z" stroke="#333" stroke-width=".05" fill="#333"/><g><use xlink:href="#Y" transform="matrix(1,0,0,1,1048.0319286314054,841.6562734926143) translate(10.819814814814812 14.222222222222223)"/><use xlink:href="#v" transform="matrix(1,0,0,1,1048.0319286314054,841.6562734926143) translate(0.004999999999999005 35.55555555555556)"/></g><g><path d="M281.92 1451.74h-11M236.92 1451.74h-5" stroke="#333" fill="none"/><path d="M256.92 1465.74c-7.73 0-14-6.27-14-14 0-7.74 6.27-14 14-14s14 6.26 14 14c0 7.73-6.27 14-14 14z" stroke="#333" fill="#fff"/><path d="M256.92 1431.74c-11.05 0-20 8.95-20 20 0 11.04 8.95 20 20 20" stroke="#333" fill="none"/><path d="M281.92 1451.74a.8.8 0 0 1-.8.8h-9.4a.8.8 0 0 1-.8-.8.8.8 0 0 1 .8-.8h9.4a.8.8 0 0 1 .8.8z" fill="none"/></g><path d="M231.42 1451.74h-70.4" stroke="#333" fill="none"/><path d="M231.92 1452.24h3-3.5v-1h.5zM161.04 1452.24h-.52v-1h.52z" stroke="#333" stroke-width=".05" fill="#333"/><path d="M280.53 1451.74h170.43" stroke="#333" stroke-linejoin="round" fill="none"/><path d="M280.55 1451.74h-.52" stroke="#333" fill="none"/><path d="M451.46 1452.24h-.52v-1h.5z" stroke="#333" stroke-width=".05" fill="#333"/><g><use xlink:href="#ag" transform="matrix(1,0,0,1,302.6141788256251,1455.737962030883) translate(0.005000000000002558 14.222222222222223)"/><use xlink:href="#t" transform="matrix(1,0,0,1,302.6141788256251,1455.737962030883) translate(46.325987654321 14.222222222222223)"/></g><path d="M-200 1118h10m-30-20c11.05 0 20 8.95 20 20s-8.95 20-20 20" stroke="#333" fill="none"/><path d="M-220 1098c11.05 0 20 8.95 20 20s-8.95 20-20 20zM-200 1118a.8.8 0 0 1 .8-.8h8.4a.8.8 0 0 1 .8.8.8.8 0 0 1-.8.8h-8.4a.8.8 0 0 1-.8-.8z" fill="none"/><path d="M-189.5 1118H-.9" stroke="#333" stroke-linejoin="round" fill="none"/><path d="M-189.48 1118.5H-193h3v-1h.52zM-.4 1118.5h-.52v-1h.52z" stroke="#333" stroke-width=".05" fill="#333"/><g><use xlink:href="#ah" transform="matrix(1,0,0,1,-162.23775436692023,1092.6681465673842) translate(0.0049999999999954525 14.222222222222223)"/><use xlink:href="#ai" transform="matrix(1,0,0,1,-162.23775436692023,1092.6681465673842) translate(66.12845679012347 14.222222222222223)"/></g><g><path d="M380.03 1342.6v-11M380.03 1297.6v-5" stroke="#333" fill="none"/><path d="M366.03 1317.6c0-7.72 6.27-14 14-14s14 6.28 14 14c0 7.75-6.27 14-14 14s-14-6.25-14-14z" stroke="#333" fill="#fff"/><path d="M400.03 1317.6c0-11.03-8.95-20-20-20-11.04 0-20 8.97-20 20" stroke="#333" fill="none"/><path d="M380.03 1342.6a.8.8 0 0 1-.8-.8v-9.4a.8.8 0 0 1 .8-.8.8.8 0 0 1 .8.8v9.4a.8.8 0 0 1-.8.8z" fill="none"/></g><path d="M385.3 1072.84H161" stroke="#333" fill="none"/><path d="M385.8 1073.34h-.52v-1h.5zM161 1073.34h-.5v-1h.5z" stroke="#333" stroke-width=".05" fill="#333"/><g><use xlink:href="#aj" transform="matrix(1,0,0,1,183.4401271418734,1047.5058025934147) translate(0.0049999999999954525 14.222222222222223)"/><use xlink:href="#ai" transform="matrix(1,0,0,1,183.4401271418734,1047.5058025934147) translate(111.46179012345678 14.222222222222223)"/></g><path d="M380.03 1292.1v-26.08a6 6 0 0 1 6-6h293.05" stroke="#333" fill="none"/><path d="M380.53 1292.6h-1v3-3.5h1zM679.6 1260.52h-.53v-1h.5z" stroke="#333" stroke-width=".05" fill="#333"/><g><path d="M1137.05 966.7v-11M1137.05 921.7v-5" stroke="#333" fill="none"/><path d="M1123.05 941.7c0-7.74 6.27-14 14-14s14 6.26 14 14c0 7.72-6.27 14-14 14s-14-6.28-14-14z" stroke="#333" fill="#fff"/><path d="M1157.05 941.7c0-11.05-8.95-20-20-20-11.04 0-20 8.95-20 20" stroke="#333" fill="none"/><path d="M1137.05 966.7a.8.8 0 0 1-.8-.8v-9.4a.8.8 0 0 1 .8-.8.8.8 0 0 1 .8.8v9.4a.8.8 0 0 1-.8.8z" fill="none"/></g><path d="M860.97 1205.84h270.08a6 6 0 0 0 6-6V967.2" stroke="#333" fill="none"/><path d="M861 1206.34h-.52v-1h.5zM1137.55 967.2h-1v-.5h1z" stroke="#333" stroke-width=".05" fill="#333"/><g><use xlink:href="#ak" transform="matrix(1,0,0,1,960.3708614793751,1159.176480209517) translate(0.005000000000002558 14.222222222222223)"/><use xlink:href="#al" transform="matrix(1,0,0,1,960.3708614793751,1159.176480209517) translate(19.28895061728395 35.55555555555556)"/></g><path d="M1137.05 916.2v-95.7" stroke="#333" fill="none"/><path d="M1137.55 916.7h-1v3-3.52h1z" stroke="#333" stroke-width=".05" fill="#333"/><path d="M1137.05 820.5v-.5" stroke="#333" fill="none"/><path d="M599.53 1611.75l-4.96.16-5.3.5-5.15.82-5 1.12-4.86 1.4-4.7 1.7-4.53 1.95-4.37 2.22-4.2 2.47-4 2.7-3.82 2.97-3.62 3.2-3.4 3.4-3.2 3.6-2.96 3.8-2.72 4-2.48 4.18-2.22 4.34-1.96 4.5-1.7 4.67-1.4 4.82-1.12 4.96-.82 5.12-.5 5.28-.17 5.1" stroke="#333" stroke-linejoin="round" fill="none"/><path d="M603.02 1611.24h-3v1h-.5l-.02-1 3.5-.1zM520.85 1690.74v.5h-1v-.5z" stroke="#333" stroke-width=".05" fill="#333"/><g><use xlink:href="#V" transform="matrix(1,0,0,1,486.38173782760407,1557.3759296498474) translate(22.177839506172838 14.222222222222223)"/><use xlink:href="#am" transform="matrix(1,0,0,1,486.38173782760407,1557.3759296498474) translate(0.005000000000002558 35.55555555555556)"/><use xlink:href="#an" transform="matrix(1,0,0,1,486.38173782760407,1557.3759296498474) translate(13.85685185185185 56.88888888888889)"/></g><path d="M-260 826a6 6 0 0 1 6-6h1848a6 6 0 0 1 6 6v1008a6 6 0 0 1-6 6H-254a6 6 0 0 1-6-6z" fill-opacity="0"/><defs><path fill="#333" d="M33 0v-248h34V0H33" id="ao"/><path fill="#333" d="M117-194c89-4 53 116 60 194h-32v-121c0-31-8-49-39-48C34-167 62-67 57 0H25l-1-190h30c1 10-1 24 2 32 11-22 29-35 61-36" id="ap"/><path fill="#333" d="M59-47c-2 24 18 29 38 22v24C64 9 27 4 27-40v-127H5v-23h24l9-43h21v43h35v23H59v120" id="aq"/><path fill="#333" d="M100-194c63 0 86 42 84 106H49c0 40 14 67 53 68 26 1 43-12 49-29l28 8c-11 28-37 45-77 45C44 4 14-33 15-96c1-61 26-98 85-98zm52 81c6-60-76-77-97-28-3 7-6 17-6 28h103" id="ar"/><path fill="#333" d="M114-163C36-179 61-72 57 0H25l-1-190h30c1 12-1 29 2 39 6-27 23-49 58-41v29" id="as"/><path fill="#333" d="M101-234c-31-9-42 10-38 44h38v23H63V0H32v-167H5v-23h27c-7-52 17-82 69-68v24" id="at"/><path fill="#333" d="M141-36C126-15 110 5 73 4 37 3 15-17 15-53c-1-64 63-63 125-63 3-35-9-54-41-54-24 1-41 7-42 31l-33-3c5-37 33-52 76-52 45 0 72 20 72 64v82c-1 20 7 32 28 27v20c-31 9-61-2-59-35zM48-53c0 20 12 33 32 33 41-3 63-29 60-74-43 2-92-5-92 41" id="au"/><path fill="#333" d="M96-169c-40 0-48 33-48 73s9 75 48 75c24 0 41-14 43-38l32 2c-6 37-31 61-74 61-59 0-76-41-82-99-10-93 101-131 147-64 4 7 5 14 7 22l-32 3c-4-21-16-35-41-35" id="av"/><path fill="#333" d="M24-231v-30h32v30H24zM24 0v-190h32V0H24" id="aw"/><g id="a"><use transform="matrix(0.06172839506172839,0,0,0.06172839506172839,0,0)" xlink:href="#ao"/><use transform="matrix(0.06172839506172839,0,0,0.06172839506172839,6.172839506172839,0)" xlink:href="#ap"/><use transform="matrix(0.06172839506172839,0,0,0.06172839506172839,18.51851851851852,0)" xlink:href="#aq"/><use transform="matrix(0.06172839506172839,0,0,0.06172839506172839,24.691358024691358,0)" xlink:href="#ar"/><use transform="matrix(0.06172839506172839,0,0,0.06172839506172839,37.03703703703704,0)" xlink:href="#as"/><use transform="matrix(0.06172839506172839,0,0,0.06172839506172839,44.382716049382715,0)" xlink:href="#at"/><use transform="matrix(0.06172839506172839,0,0,0.06172839506172839,50.55555555555556,0)" xlink:href="#au"/><use transform="matrix(0.06172839506172839,0,0,0.06172839506172839,62.901234567901234,0)" xlink:href="#av"/><use transform="matrix(0.06172839506172839,0,0,0.06172839506172839,74.01234567901234,0)" xlink:href="#av"/><use transform="matrix(0.06172839506172839,0,0,0.06172839506172839,85.12345679012346,0)" xlink:href="#aw"/><use transform="matrix(0.06172839506172839,0,0,0.06172839506172839,90,0)" xlink:href="#au"/></g><path fill="#333" d="M30 0v-248h33v221h125V0H30" id="ax"/><path fill="#333" d="M100-194c62-1 85 37 85 99 1 63-27 99-86 99S16-35 15-95c0-66 28-99 85-99zM99-20c44 1 53-31 53-75 0-43-8-75-51-75s-53 32-53 75 10 74 51 75" id="ay"/><path fill="#333" d="M177-190C167-65 218 103 67 71c-23-6-38-20-44-43l32-5c15 47 100 32 89-28v-30C133-14 115 1 83 1 29 1 15-40 15-95c0-56 16-97 71-98 29-1 48 16 59 35 1-10 0-23 2-32h30zM94-22c36 0 50-32 50-73 0-42-14-75-50-75-39 0-46 34-46 75s6 73 46 73" id="az"/><g id="b"><use transform="matrix(0.06172839506172839,0,0,0.06172839506172839,0,0)" xlink:href="#ax"/><use transform="matrix(0.06172839506172839,0,0,0.06172839506172839,12.345679012345679,0)" xlink:href="#ay"/><use transform="matrix(0.06172839506172839,0,0,0.06172839506172839,24.691358024691358,0)" xlink:href="#az"/><use transform="matrix(0.06172839506172839,0,0,0.06172839506172839,37.03703703703704,0)" xlink:href="#aw"/><use transform="matrix(0.06172839506172839,0,0,0.06172839506172839,41.91358024691358,0)" xlink:href="#ap"/></g><path fill="#333" d="M185-48c-13 30-37 53-82 52C43 2 14-33 14-96s30-98 90-98c62 0 83 45 84 108H66c0 31 8 55 39 56 18 0 30-7 34-22zm-45-69c5-46-57-63-70-21-2 6-4 13-4 21h74" id="aA"/><path fill="#333" d="M14-72v-43h91v43H14" id="aB"/><path fill="#333" d="M220-157c-53 9-28 100-34 157h-49v-107c1-27-5-49-29-50C55-147 81-57 75 0H25l-1-190h47c2 12-1 28 3 38 10-53 101-56 108 0 13-22 24-43 59-42 82 1 51 116 57 194h-49v-107c-1-25-5-48-29-50" id="aC"/><path fill="#333" d="M133-34C117-15 103 5 69 4 32 3 11-16 11-54c-1-60 55-63 116-61 1-26-3-47-28-47-18 1-26 9-28 27l-52-2c7-38 36-58 82-57s74 22 75 68l1 82c-1 14 12 18 25 15v27c-30 8-71 5-69-32zm-48 3c29 0 43-24 42-57-32 0-66-3-65 30 0 17 8 27 23 27" id="aD"/><path fill="#333" d="M25-224v-37h50v37H25zM25 0v-190h50V0H25" id="aE"/><path fill="#333" d="M25 0v-261h50V0H25" id="aF"/><g id="c"><use transform="matrix(0.04938271604938272,0,0,0.04938271604938272,0,0)" xlink:href="#aA"/><use transform="matrix(0.04938271604938272,0,0,0.04938271604938272,9.876543209876544,0)" xlink:href="#aB"/><use transform="matrix(0.04938271604938272,0,0,0.04938271604938272,15.753086419753087,0)" xlink:href="#aC"/><use transform="matrix(0.04938271604938272,0,0,0.04938271604938272,31.555555555555557,0)" xlink:href="#aD"/><use transform="matrix(0.04938271604938272,0,0,0.04938271604938272,41.4320987654321,0)" xlink:href="#aE"/><use transform="matrix(0.04938271604938272,0,0,0.04938271604938272,46.370370370370374,0)" xlink:href="#aF"/></g><path fill="#333" d="M135-194c53 0 70 44 70 98 0 56-19 98-73 100-31 1-45-17-59-34 3 33 2 69 2 105H25l-1-265h48c2 10 0 23 3 31 11-24 29-35 60-35zM114-30c33 0 39-31 40-66 0-38-9-64-40-64-56 0-55 130 0 130" id="aG"/><path fill="#333" d="M137-138c1-29-70-34-71-4 15 46 118 7 119 86 1 83-164 76-172 9l43-7c4 19 20 25 44 25 33 8 57-30 24-41C81-84 22-81 20-136c-2-80 154-74 161-7" id="aH"/><path fill="#333" d="M231 0h-52l-39-155L100 0H48L-1-190h46L77-45c9-52 24-97 36-145h53l37 145 32-145h46" id="aI"/><path fill="#333" d="M110-194c64 0 96 36 96 99 0 64-35 99-97 99-61 0-95-36-95-99 0-62 34-99 96-99zm-1 164c35 0 45-28 45-65 0-40-10-65-43-65-34 0-45 26-45 65 0 36 10 65 43 65" id="aJ"/><path fill="#333" d="M135-150c-39-12-60 13-60 57V0H25l-1-190h47c2 13-1 29 3 40 6-28 27-53 61-41v41" id="aK"/><path fill="#333" d="M88-194c31-1 46 15 58 34l-1-101h50l1 261h-48c-2-10 0-23-3-31C134-8 116 4 84 4 32 4 16-41 15-95c0-56 19-97 73-99zm17 164c33 0 40-30 41-66 1-37-9-64-41-64s-38 30-39 65c0 43 13 65 39 65" id="aL"/><g id="d"><use transform="matrix(0.04938271604938272,0,0,0.04938271604938272,0,0)" xlink:href="#aG"/><use transform="matrix(0.04938271604938272,0,0,0.04938271604938272,10.814814814814815,0)" xlink:href="#aD"/><use transform="matrix(0.04938271604938272,0,0,0.04938271604938272,20.69135802469136,0)" xlink:href="#aH"/><use transform="matrix(0.04938271604938272,0,0,0.04938271604938272,30.567901234567906,0)" xlink:href="#aH"/><use transform="matrix(0.04938271604938272,0,0,0.04938271604938272,40.44444444444445,0)" xlink:href="#aI"/><use transform="matrix(0.04938271604938272,0,0,0.04938271604938272,54.27160493827161,0)" xlink:href="#aJ"/><use transform="matrix(0.04938271604938272,0,0,0.04938271604938272,65.08641975308642,0)" xlink:href="#aK"/><use transform="matrix(0.04938271604938272,0,0,0.04938271604938272,72,0)" xlink:href="#aL"/></g><path fill="#333" d="M30-248c87 1 191-15 191 75 0 78-77 80-158 76V0H30v-248zm33 125c57 0 124 11 124-50 0-59-68-47-124-48v98" id="aM"/><g id="e"><use transform="matrix(0.06172839506172839,0,0,0.06172839506172839,0,0)" xlink:href="#aM"/><use transform="matrix(0.06172839506172839,0,0,0.06172839506172839,14.814814814814813,0)" xlink:href="#au"/><use transform="matrix(0.06172839506172839,0,0,0.06172839506172839,27.160493827160494,0)" xlink:href="#az"/><use transform="matrix(0.06172839506172839,0,0,0.06172839506172839,39.50617283950617,0)" xlink:href="#aw"/><use transform="matrix(0.06172839506172839,0,0,0.06172839506172839,44.382716049382715,0)" xlink:href="#ap"/><use transform="matrix(0.06172839506172839,0,0,0.06172839506172839,56.72839506172839,0)" xlink:href="#au"/></g><path fill="#333" d="M115-194c55 1 70 41 70 98S169 2 115 4C84 4 66-9 55-30l1 105H24l-1-265h31l2 30c10-21 28-34 59-34zm-8 174c40 0 45-34 45-75s-6-73-45-74c-42 0-51 32-51 76 0 43 10 73 51 73" id="aN"/><path fill="#333" d="M135-143c-3-34-86-38-87 0 15 53 115 12 119 90S17 21 10-45l28-5c4 36 97 45 98 0-10-56-113-15-118-90-4-57 82-63 122-42 12 7 21 19 24 35" id="aO"/><path fill="#333" d="M9 0v-24l116-142H16v-24h144v24L44-24h123V0H9" id="aP"/><g id="f"><use transform="matrix(0.06172839506172839,0,0,0.06172839506172839,0,0)" xlink:href="#aN"/><use transform="matrix(0.06172839506172839,0,0,0.06172839506172839,12.345679012345679,0)" xlink:href="#as"/><use transform="matrix(0.06172839506172839,0,0,0.06172839506172839,19.691358024691358,0)" xlink:href="#ar"/><use transform="matrix(0.06172839506172839,0,0,0.06172839506172839,32.03703703703704,0)" xlink:href="#aO"/><use transform="matrix(0.06172839506172839,0,0,0.06172839506172839,43.14814814814815,0)" xlink:href="#ar"/><use transform="matrix(0.06172839506172839,0,0,0.06172839506172839,55.49382716049383,0)" xlink:href="#ap"/><use transform="matrix(0.06172839506172839,0,0,0.06172839506172839,67.8395061728395,0)" xlink:href="#aq"/><use transform="matrix(0.06172839506172839,0,0,0.06172839506172839,74.01234567901234,0)" xlink:href="#au"/><use transform="matrix(0.06172839506172839,0,0,0.06172839506172839,86.35802469135803,0)" xlink:href="#aP"/><use transform="matrix(0.06172839506172839,0,0,0.06172839506172839,97.46913580246914,0)" xlink:href="#aw"/><use transform="matrix(0.06172839506172839,0,0,0.06172839506172839,102.34567901234568,0)" xlink:href="#ay"/><use transform="matrix(0.06172839506172839,0,0,0.06172839506172839,114.69135802469137,0)" xlink:href="#ap"/><use transform="matrix(0.06172839506172839,0,0,0.06172839506172839,127.03703703703705,0)" xlink:href="#ar"/></g><g id="g"><use transform="matrix(0.06172839506172839,0,0,0.06172839506172839,0,0)" xlink:href="#ay"/><use transform="matrix(0.06172839506172839,0,0,0.06172839506172839,12.345679012345679,0)" xlink:href="#as"/><use transform="matrix(0.06172839506172839,0,0,0.06172839506172839,19.691358024691358,0)" xlink:href="#au"/><use transform="matrix(0.06172839506172839,0,0,0.06172839506172839,32.03703703703704,0)" xlink:href="#aq"/><use transform="matrix(0.06172839506172839,0,0,0.06172839506172839,38.20987654320988,0)" xlink:href="#ay"/><use transform="matrix(0.06172839506172839,0,0,0.06172839506172839,50.55555555555556,0)" xlink:href="#as"/><use transform="matrix(0.06172839506172839,0,0,0.06172839506172839,57.901234567901234,0)" xlink:href="#aw"/><use transform="matrix(0.06172839506172839,0,0,0.06172839506172839,62.77777777777778,0)" xlink:href="#ay"/></g><g id="h"><use transform="matrix(0.06172839506172839,0,0,0.06172839506172839,0,0)" xlink:href="#ao"/><use transform="matrix(0.06172839506172839,0,0,0.06172839506172839,6.172839506172839,0)" xlink:href="#ap"/><use transform="matrix(0.06172839506172839,0,0,0.06172839506172839,18.51851851851852,0)" xlink:href="#aq"/><use transform="matrix(0.06172839506172839,0,0,0.06172839506172839,24.691358024691358,0)" xlink:href="#ar"/><use transform="matrix(0.06172839506172839,0,0,0.06172839506172839,37.03703703703704,0)" xlink:href="#as"/><use transform="matrix(0.06172839506172839,0,0,0.06172839506172839,44.382716049382715,0)" xlink:href="#at"/><use transform="matrix(0.06172839506172839,0,0,0.06172839506172839,50.55555555555556,0)" xlink:href="#au"/><use transform="matrix(0.06172839506172839,0,0,0.06172839506172839,62.901234567901234,0)" xlink:href="#av"/><use transform="matrix(0.06172839506172839,0,0,0.06172839506172839,74.01234567901234,0)" xlink:href="#av"/><use transform="matrix(0.06172839506172839,0,0,0.06172839506172839,85.12345679012346,0)" xlink:href="#aw"/><use transform="matrix(0.06172839506172839,0,0,0.06172839506172839,90,0)" xlink:href="#au"/></g><path fill="#333" d="M143 4C61 4 22-44 18-125c-5-107 100-154 193-111 17 8 29 25 37 43l-32 9c-13-25-37-40-76-40-61 0-88 39-88 99 0 61 29 100 91 101 35 0 62-11 79-27v-45h-74v-28h105v86C228-13 192 4 143 4" id="aQ"/><path fill="#333" d="M24 0v-261h32V0H24" id="aR"/><g id="i"><use transform="matrix(0.06172839506172839,0,0,0.06172839506172839,0,0)" xlink:href="#aQ"/><use transform="matrix(0.06172839506172839,0,0,0.06172839506172839,17.28395061728395,0)" xlink:href="#ay"/><use transform="matrix(0.06172839506172839,0,0,0.06172839506172839,29.629629629629626,0)" xlink:href="#ay"/><use transform="matrix(0.06172839506172839,0,0,0.06172839506172839,41.9753086419753,0)" xlink:href="#az"/><use transform="matrix(0.06172839506172839,0,0,0.06172839506172839,54.32098765432098,0)" xlink:href="#aR"/><use transform="matrix(0.06172839506172839,0,0,0.06172839506172839,59.197530864197525,0)" xlink:href="#ar"/></g><path fill="#333" d="M240 0l2-218c-23 76-54 145-80 218h-23L58-218 59 0H30v-248h44l77 211c21-75 51-140 76-211h43V0h-30" id="aS"/><g id="j"><use transform="matrix(0.06172839506172839,0,0,0.06172839506172839,0,0)" xlink:href="#aS"/><use transform="matrix(0.06172839506172839,0,0,0.06172839506172839,18.456790123456788,0)" xlink:href="#au"/><use transform="matrix(0.06172839506172839,0,0,0.06172839506172839,30.80246913580247,0)" xlink:href="#aN"/><use transform="matrix(0.06172839506172839,0,0,0.06172839506172839,43.148148148148145,0)" xlink:href="#aO"/></g><g id="k"><use transform="matrix(0.04938271604938272,0,0,0.04938271604938272,0,0)" xlink:href="#aC"/><use transform="matrix(0.04938271604938272,0,0,0.04938271604938272,15.80246913580247,0)" xlink:href="#aD"/><use transform="matrix(0.04938271604938272,0,0,0.04938271604938272,25.679012345679016,0)" xlink:href="#aG"/><use transform="matrix(0.04938271604938272,0,0,0.04938271604938272,36.49382716049383,0)" xlink:href="#aG"/><use transform="matrix(0.04938271604938272,0,0,0.04938271604938272,47.308641975308646,0)" xlink:href="#aD"/></g><path fill="#333" d="M135-194c87-1 58 113 63 194h-50c-7-57 23-157-34-157-59 0-34 97-39 157H25l-1-190h47c2 12-1 28 3 38 12-26 28-41 61-42" id="aT"/><path fill="#333" d="M115-3C79 11 28 4 28-45v-112H4v-33h27l15-45h31v45h36v33H77v99c-1 23 16 31 38 25v30" id="aU"/><path fill="#333" d="M128 0H69L1-190h53L99-40l48-150h52" id="aV"/><g id="l"><use transform="matrix(0.04938271604938272,0,0,0.04938271604938272,0,0)" xlink:href="#aE"/><use transform="matrix(0.04938271604938272,0,0,0.04938271604938272,4.938271604938272,0)" xlink:href="#aT"/><use transform="matrix(0.04938271604938272,0,0,0.04938271604938272,15.753086419753087,0)" xlink:href="#aU"/><use transform="matrix(0.04938271604938272,0,0,0.04938271604938272,21.62962962962963,0)" xlink:href="#aA"/><use transform="matrix(0.04938271604938272,0,0,0.04938271604938272,31.506172839506174,0)" xlink:href="#aK"/><use transform="matrix(0.04938271604938272,0,0,0.04938271604938272,38.41975308641975,0)" xlink:href="#aD"/><use transform="matrix(0.04938271604938272,0,0,0.04938271604938272,48.2962962962963,0)" xlink:href="#aU"/><use transform="matrix(0.04938271604938272,0,0,0.04938271604938272,54.17283950617284,0)" xlink:href="#aU"/><use transform="matrix(0.04938271604938272,0,0,0.04938271604938272,60.04938271604939,0)" xlink:href="#aE"/><use transform="matrix(0.04938271604938272,0,0,0.04938271604938272,64.98765432098766,0)" xlink:href="#aV"/><use transform="matrix(0.04938271604938272,0,0,0.04938271604938272,74.8641975308642,0)" xlink:href="#aD"/></g><path fill="#333" d="M185-189c-5-48-123-54-124 2 14 75 158 14 163 119 3 78-121 87-175 55-17-10-28-26-33-46l33-7c5 56 141 63 141-1 0-78-155-14-162-118-5-82 145-84 179-34 5 7 8 16 11 25" id="aW"/><path fill="#333" d="M210-169c-67 3-38 105-44 169h-31v-121c0-29-5-50-35-48C34-165 62-65 56 0H25l-1-190h30c1 10-1 24 2 32 10-44 99-50 107 0 11-21 27-35 58-36 85-2 47 119 55 194h-31v-121c0-29-5-49-35-48" id="aX"/><g id="m"><use transform="matrix(0.06172839506172839,0,0,0.06172839506172839,0,0)" xlink:href="#aW"/><use transform="matrix(0.06172839506172839,0,0,0.06172839506172839,14.814814814814813,0)" xlink:href="#aw"/><use transform="matrix(0.06172839506172839,0,0,0.06172839506172839,19.691358024691354,0)" xlink:href="#aO"/><use transform="matrix(0.06172839506172839,0,0,0.06172839506172839,30.802469135802465,0)" xlink:href="#aq"/><use transform="matrix(0.06172839506172839,0,0,0.06172839506172839,36.9753086419753,0)" xlink:href="#ar"/><use transform="matrix(0.06172839506172839,0,0,0.06172839506172839,49.32098765432098,0)" xlink:href="#aX"/><use transform="matrix(0.06172839506172839,0,0,0.06172839506172839,67.77777777777777,0)" xlink:href="#au"/></g><path fill="#333" d="M85-194c31 0 48 13 60 33l-1-100h32l1 261h-30c-2-10 0-23-3-31C134-8 116 4 85 4 32 4 16-35 15-94c0-66 23-100 70-100zm9 24c-40 0-46 34-46 75 0 40 6 74 45 74 42 0 51-32 51-76 0-42-9-74-50-73" id="aY"/><g id="n"><use transform="matrix(0.06172839506172839,0,0,0.06172839506172839,0,0)" xlink:href="#aY"/><use transform="matrix(0.06172839506172839,0,0,0.06172839506172839,12.345679012345679,0)" xlink:href="#aw"/></g><path fill="#333" d="M84 4C-5 8 30-112 23-190h32v120c0 31 7 50 39 49 72-2 45-101 50-169h31l1 190h-30c-1-10 1-25-2-33-11 22-28 36-60 37" id="aZ"/><g id="o"><use transform="matrix(0.06172839506172839,0,0,0.06172839506172839,0,0)" xlink:href="#au"/><use transform="matrix(0.06172839506172839,0,0,0.06172839506172839,12.345679012345679,0)" xlink:href="#aZ"/><use transform="matrix(0.06172839506172839,0,0,0.06172839506172839,24.691358024691358,0)" xlink:href="#aq"/><use transform="matrix(0.06172839506172839,0,0,0.06172839506172839,30.864197530864196,0)" xlink:href="#ar"/><use transform="matrix(0.06172839506172839,0,0,0.06172839506172839,43.20987654320987,0)" xlink:href="#ap"/><use transform="matrix(0.06172839506172839,0,0,0.06172839506172839,55.55555555555555,0)" xlink:href="#aq"/><use transform="matrix(0.06172839506172839,0,0,0.06172839506172839,61.72839506172839,0)" xlink:href="#aw"/><use transform="matrix(0.06172839506172839,0,0,0.06172839506172839,66.60493827160494,0)" xlink:href="#av"/><use transform="matrix(0.06172839506172839,0,0,0.06172839506172839,77.71604938271605,0)" xlink:href="#au"/><use transform="matrix(0.06172839506172839,0,0,0.06172839506172839,90.06172839506173,0)" xlink:href="#aP"/><use transform="matrix(0.06172839506172839,0,0,0.06172839506172839,101.17283950617285,0)" xlink:href="#aw"/><use transform="matrix(0.06172839506172839,0,0,0.06172839506172839,106.0493827160494,0)" xlink:href="#ay"/><use transform="matrix(0.06172839506172839,0,0,0.06172839506172839,118.39506172839508,0)" xlink:href="#ap"/><use transform="matrix(0.06172839506172839,0,0,0.06172839506172839,130.74074074074076,0)" xlink:href="#ar"/></g><g id="p"><use transform="matrix(0.06172839506172839,0,0,0.06172839506172839,0,0)" xlink:href="#aQ"/><use transform="matrix(0.06172839506172839,0,0,0.06172839506172839,17.28395061728395,0)" xlink:href="#ay"/><use transform="matrix(0.06172839506172839,0,0,0.06172839506172839,29.629629629629626,0)" xlink:href="#ay"/><use transform="matrix(0.06172839506172839,0,0,0.06172839506172839,41.9753086419753,0)" xlink:href="#az"/><use transform="matrix(0.06172839506172839,0,0,0.06172839506172839,54.32098765432098,0)" xlink:href="#aR"/><use transform="matrix(0.06172839506172839,0,0,0.06172839506172839,59.197530864197525,0)" xlink:href="#ar"/></g><path fill="#333" d="M140-251c81 0 123 46 123 126C263-46 219 4 140 4 59 4 17-45 17-125s42-126 123-126zm0 227c63 0 89-41 89-101s-29-99-89-99c-61 0-89 39-89 99S79-25 140-24" id="ba"/><path fill="#333" d="M205 0l-28-72H64L36 0H1l101-248h38L239 0h-34zm-38-99l-47-123c-12 45-31 82-46 123h93" id="bb"/><path fill="#333" d="M106-169C34-169 62-67 57 0H25v-261h32l-1 103c12-21 28-36 61-36 89 0 53 116 60 194h-32v-121c2-32-8-49-39-48" id="bc"/><g id="q"><use transform="matrix(0.06172839506172839,0,0,0.06172839506172839,0,0)" xlink:href="#ba"/><use transform="matrix(0.06172839506172839,0,0,0.06172839506172839,17.28395061728395,0)" xlink:href="#bb"/><use transform="matrix(0.06172839506172839,0,0,0.06172839506172839,32.09876543209876,0)" xlink:href="#aZ"/><use transform="matrix(0.06172839506172839,0,0,0.06172839506172839,44.444444444444436,0)" xlink:href="#aq"/><use transform="matrix(0.06172839506172839,0,0,0.06172839506172839,50.61728395061728,0)" xlink:href="#bc"/></g><g id="r"><use transform="matrix(0.04938271604938272,0,0,0.04938271604938272,0,0)" xlink:href="#aL"/><use transform="matrix(0.04938271604938272,0,0,0.04938271604938272,10.814814814814815,0)" xlink:href="#aD"/><use transform="matrix(0.04938271604938272,0,0,0.04938271604938272,20.69135802469136,0)" xlink:href="#aU"/><use transform="matrix(0.04938271604938272,0,0,0.04938271604938272,26.567901234567902,0)" xlink:href="#aE"/></g><path fill="#333" d="M85 4C-2 5 27-109 22-190h50c7 57-23 150 33 157 60-5 35-97 40-157h50l1 190h-47c-2-12 1-28-3-38-12 25-28 42-61 42" id="bd"/><g id="s"><use transform="matrix(0.04938271604938272,0,0,0.04938271604938272,0,0)" xlink:href="#bd"/><use transform="matrix(0.04938271604938272,0,0,0.04938271604938272,10.814814814814815,0)" xlink:href="#aU"/><use transform="matrix(0.04938271604938272,0,0,0.04938271604938272,16.691358024691358,0)" xlink:href="#aA"/><use transform="matrix(0.04938271604938272,0,0,0.04938271604938272,26.567901234567902,0)" xlink:href="#aT"/><use transform="matrix(0.04938271604938272,0,0,0.04938271604938272,37.382716049382715,0)" xlink:href="#aU"/><use transform="matrix(0.04938271604938272,0,0,0.04938271604938272,43.25925925925926,0)" xlink:href="#aA"/></g><path fill="#333" d="M195-6C206 82 75 100 31 46c-4-6-6-13-8-21l49-6c3 16 16 24 34 25 40 0 42-37 40-79-11 22-30 35-61 35-53 0-70-43-70-97 0-56 18-96 73-97 30 0 46 14 59 34l2-30h47zm-90-29c32 0 41-27 41-63 0-35-9-62-40-62-32 0-39 29-40 63 0 36 9 62 39 62" id="be"/><g id="t"><use transform="matrix(0.04938271604938272,0,0,0.04938271604938272,0,0)" xlink:href="#aF"/><use transform="matrix(0.04938271604938272,0,0,0.04938271604938272,4.938271604938272,0)" xlink:href="#aJ"/><use transform="matrix(0.04938271604938272,0,0,0.04938271604938272,15.753086419753087,0)" xlink:href="#be"/><use transform="matrix(0.04938271604938272,0,0,0.04938271604938272,26.567901234567902,0)" xlink:href="#aE"/><use transform="matrix(0.04938271604938272,0,0,0.04938271604938272,31.506172839506174,0)" xlink:href="#aT"/></g><path fill="#333" d="M190-63c-7 42-38 67-86 67-59 0-84-38-90-98-12-110 154-137 174-36l-49 2c-2-19-15-32-35-32-30 0-35 28-38 64-6 74 65 87 74 30" id="bf"/><path fill="#333" d="M12 0v-35l95-120H19v-35h142v35L67-36h103V0H12" id="bg"/><g id="u"><use transform="matrix(0.04938271604938272,0,0,0.04938271604938272,0,0)" xlink:href="#bf"/><use transform="matrix(0.04938271604938272,0,0,0.04938271604938272,9.876543209876544,0)" xlink:href="#aK"/><use transform="matrix(0.04938271604938272,0,0,0.04938271604938272,16.790123456790127,0)" xlink:href="#aA"/><use transform="matrix(0.04938271604938272,0,0,0.04938271604938272,26.666666666666668,0)" xlink:href="#aL"/><use transform="matrix(0.04938271604938272,0,0,0.04938271604938272,37.48148148148149,0)" xlink:href="#aA"/><use transform="matrix(0.04938271604938272,0,0,0.04938271604938272,47.35802469135803,0)" xlink:href="#aT"/><use transform="matrix(0.04938271604938272,0,0,0.04938271604938272,58.17283950617284,0)" xlink:href="#bg"/><use transform="matrix(0.04938271604938272,0,0,0.04938271604938272,67.06172839506173,0)" xlink:href="#aE"/><use transform="matrix(0.04938271604938272,0,0,0.04938271604938272,72,0)" xlink:href="#aD"/><use transform="matrix(0.04938271604938272,0,0,0.04938271604938272,81.87654320987654,0)" xlink:href="#aF"/><use transform="matrix(0.04938271604938272,0,0,0.04938271604938272,86.81481481481481,0)" xlink:href="#aE"/></g><g id="v"><use transform="matrix(0.04938271604938272,0,0,0.04938271604938272,0,0)" xlink:href="#bd"/><use transform="matrix(0.04938271604938272,0,0,0.04938271604938272,10.814814814814815,0)" xlink:href="#aU"/><use transform="matrix(0.04938271604938272,0,0,0.04938271604938272,16.691358024691358,0)" xlink:href="#aA"/><use transform="matrix(0.04938271604938272,0,0,0.04938271604938272,26.567901234567902,0)" xlink:href="#aT"/><use transform="matrix(0.04938271604938272,0,0,0.04938271604938272,37.382716049382715,0)" xlink:href="#aU"/><use transform="matrix(0.04938271604938272,0,0,0.04938271604938272,43.25925925925926,0)" xlink:href="#aA"/></g><g id="w"><use transform="matrix(0.04938271604938272,0,0,0.04938271604938272,0,0)" xlink:href="#aA"/><use transform="matrix(0.04938271604938272,0,0,0.04938271604938272,9.876543209876544,0)" xlink:href="#aH"/><use transform="matrix(0.04938271604938272,0,0,0.04938271604938272,19.75308641975309,0)" xlink:href="#aE"/><use transform="matrix(0.04938271604938272,0,0,0.04938271604938272,24.69135802469136,0)" xlink:href="#aU"/><use transform="matrix(0.04938271604938272,0,0,0.04938271604938272,30.567901234567906,0)" xlink:href="#aJ"/></g><g id="x"><use transform="matrix(0.04938271604938272,0,0,0.04938271604938272,0,0)" xlink:href="#aF"/><use transform="matrix(0.04938271604938272,0,0,0.04938271604938272,4.938271604938272,0)" xlink:href="#aJ"/><use transform="matrix(0.04938271604938272,0,0,0.04938271604938272,15.753086419753087,0)" xlink:href="#be"/><use transform="matrix(0.04938271604938272,0,0,0.04938271604938272,26.567901234567902,0)" xlink:href="#aE"/><use transform="matrix(0.04938271604938272,0,0,0.04938271604938272,31.506172839506174,0)" xlink:href="#aT"/></g><g id="y"><use transform="matrix(0.06172839506172839,0,0,0.06172839506172839,0,0)" xlink:href="#as"/><use transform="matrix(0.06172839506172839,0,0,0.06172839506172839,7.345679012345679,0)" xlink:href="#ar"/><use transform="matrix(0.06172839506172839,0,0,0.06172839506172839,19.691358024691358,0)" xlink:href="#az"/><use transform="matrix(0.06172839506172839,0,0,0.06172839506172839,32.03703703703704,0)" xlink:href="#aw"/><use transform="matrix(0.06172839506172839,0,0,0.06172839506172839,36.91358024691358,0)" xlink:href="#aO"/><use transform="matrix(0.06172839506172839,0,0,0.06172839506172839,48.0246913580247,0)" xlink:href="#aq"/><use transform="matrix(0.06172839506172839,0,0,0.06172839506172839,54.19753086419754,0)" xlink:href="#as"/><use transform="matrix(0.06172839506172839,0,0,0.06172839506172839,61.543209876543216,0)" xlink:href="#au"/><use transform="matrix(0.06172839506172839,0,0,0.06172839506172839,73.8888888888889,0)" xlink:href="#aP"/><use transform="matrix(0.06172839506172839,0,0,0.06172839506172839,85.00000000000001,0)" xlink:href="#aw"/><use transform="matrix(0.06172839506172839,0,0,0.06172839506172839,89.87654320987656,0)" xlink:href="#ay"/><use transform="matrix(0.06172839506172839,0,0,0.06172839506172839,102.22222222222224,0)" xlink:href="#ap"/><use transform="matrix(0.06172839506172839,0,0,0.06172839506172839,114.56790123456793,0)" xlink:href="#ar"/></g><g id="z"><use transform="matrix(0.04938271604938272,0,0,0.04938271604938272,0,0)" xlink:href="#aL"/><use transform="matrix(0.04938271604938272,0,0,0.04938271604938272,10.814814814814815,0)" xlink:href="#aD"/><use transform="matrix(0.04938271604938272,0,0,0.04938271604938272,20.69135802469136,0)" xlink:href="#aU"/><use transform="matrix(0.04938271604938272,0,0,0.04938271604938272,26.567901234567902,0)" xlink:href="#aE"/></g><g id="A"><use transform="matrix(0.04938271604938272,0,0,0.04938271604938272,0,0)" xlink:href="#aT"/><use transform="matrix(0.04938271604938272,0,0,0.04938271604938272,10.814814814814815,0)" xlink:href="#bd"/><use transform="matrix(0.04938271604938272,0,0,0.04938271604938272,21.62962962962963,0)" xlink:href="#aJ"/><use transform="matrix(0.04938271604938272,0,0,0.04938271604938272,32.44444444444444,0)" xlink:href="#aV"/><use transform="matrix(0.04938271604938272,0,0,0.04938271604938272,42.32098765432099,0)" xlink:href="#aJ"/></g><g id="B"><use transform="matrix(0.04938271604938272,0,0,0.04938271604938272,0,0)" xlink:href="#bd"/><use transform="matrix(0.04938271604938272,0,0,0.04938271604938272,10.814814814814815,0)" xlink:href="#aU"/><use transform="matrix(0.04938271604938272,0,0,0.04938271604938272,16.691358024691358,0)" xlink:href="#aA"/><use transform="matrix(0.04938271604938272,0,0,0.04938271604938272,26.567901234567902,0)" xlink:href="#aT"/><use transform="matrix(0.04938271604938272,0,0,0.04938271604938272,37.382716049382715,0)" xlink:href="#aU"/><use transform="matrix(0.04938271604938272,0,0,0.04938271604938272,43.25925925925926,0)" xlink:href="#aA"/></g><g id="C"><use transform="matrix(0.04938271604938272,0,0,0.04938271604938272,0,0)" xlink:href="#aT"/><use transform="matrix(0.04938271604938272,0,0,0.04938271604938272,10.814814814814815,0)" xlink:href="#bd"/><use transform="matrix(0.04938271604938272,0,0,0.04938271604938272,21.62962962962963,0)" xlink:href="#aJ"/><use transform="matrix(0.04938271604938272,0,0,0.04938271604938272,32.44444444444444,0)" xlink:href="#aV"/><use transform="matrix(0.04938271604938272,0,0,0.04938271604938272,42.32098765432099,0)" xlink:href="#aJ"/></g><path fill="#333" d="M108 0H70L1-190h34L89-25l56-165h34" id="bh"/><g id="D"><use transform="matrix(0.06172839506172839,0,0,0.06172839506172839,0,0)" xlink:href="#aO"/><use transform="matrix(0.06172839506172839,0,0,0.06172839506172839,11.11111111111111,0)" xlink:href="#ar"/><use transform="matrix(0.06172839506172839,0,0,0.06172839506172839,23.45679012345679,0)" xlink:href="#as"/><use transform="matrix(0.06172839506172839,0,0,0.06172839506172839,30.80246913580247,0)" xlink:href="#bh"/><use transform="matrix(0.06172839506172839,0,0,0.06172839506172839,41.91358024691358,0)" xlink:href="#aw"/><use transform="matrix(0.06172839506172839,0,0,0.06172839506172839,46.79012345679013,0)" xlink:href="#aP"/><use transform="matrix(0.06172839506172839,0,0,0.06172839506172839,57.90123456790124,0)" xlink:href="#aw"/><use transform="matrix(0.06172839506172839,0,0,0.06172839506172839,62.777777777777786,0)" xlink:href="#ay"/></g><path fill="#333" d="M16-82v-28h88v28H16" id="bi"/><g id="E"><use transform="matrix(0.06172839506172839,0,0,0.06172839506172839,0,0)" xlink:href="#ar"/><use transform="matrix(0.06172839506172839,0,0,0.06172839506172839,12.345679012345679,0)" xlink:href="#bi"/><use transform="matrix(0.06172839506172839,0,0,0.06172839506172839,19.691358024691358,0)" xlink:href="#aX"/><use transform="matrix(0.06172839506172839,0,0,0.06172839506172839,38.148148148148145,0)" xlink:href="#au"/><use transform="matrix(0.06172839506172839,0,0,0.06172839506172839,50.49382716049382,0)" xlink:href="#aw"/><use transform="matrix(0.06172839506172839,0,0,0.06172839506172839,55.37037037037037,0)" xlink:href="#aR"/></g><g id="F"><use transform="matrix(0.04938271604938272,0,0,0.04938271604938272,0,0)" xlink:href="#aA"/><use transform="matrix(0.04938271604938272,0,0,0.04938271604938272,9.876543209876544,0)" xlink:href="#aH"/><use transform="matrix(0.04938271604938272,0,0,0.04938271604938272,19.75308641975309,0)" xlink:href="#aE"/><use transform="matrix(0.04938271604938272,0,0,0.04938271604938272,24.69135802469136,0)" xlink:href="#aU"/><use transform="matrix(0.04938271604938272,0,0,0.04938271604938272,30.567901234567906,0)" xlink:href="#aJ"/></g><g id="G"><use transform="matrix(0.04938271604938272,0,0,0.04938271604938272,0,0)" xlink:href="#aK"/><use transform="matrix(0.04938271604938272,0,0,0.04938271604938272,6.913580246913581,0)" xlink:href="#aA"/><use transform="matrix(0.04938271604938272,0,0,0.04938271604938272,16.790123456790127,0)" xlink:href="#be"/><use transform="matrix(0.04938271604938272,0,0,0.04938271604938272,27.604938271604947,0)" xlink:href="#aE"/><use transform="matrix(0.04938271604938272,0,0,0.04938271604938272,32.543209876543216,0)" xlink:href="#aH"/><use transform="matrix(0.04938271604938272,0,0,0.04938271604938272,42.41975308641976,0)" xlink:href="#aU"/><use transform="matrix(0.04938271604938272,0,0,0.04938271604938272,48.296296296296305,0)" xlink:href="#aK"/><use transform="matrix(0.04938271604938272,0,0,0.04938271604938272,55.209876543209894,0)" xlink:href="#aD"/><use transform="matrix(0.04938271604938272,0,0,0.04938271604938272,65.08641975308643,0)" xlink:href="#bg"/><use transform="matrix(0.04938271604938272,0,0,0.04938271604938272,73.97530864197532,0)" xlink:href="#aE"/><use transform="matrix(0.04938271604938272,0,0,0.04938271604938272,78.9135802469136,0)" xlink:href="#aJ"/><use transform="matrix(0.04938271604938272,0,0,0.04938271604938272,89.7283950617284,0)" xlink:href="#aT"/><use transform="matrix(0.04938271604938272,0,0,0.04938271604938272,100.54320987654322,0)" xlink:href="#aA"/></g><g id="H"><use transform="matrix(0.04938271604938272,0,0,0.04938271604938272,0,0)" xlink:href="#aE"/><use transform="matrix(0.04938271604938272,0,0,0.04938271604938272,4.938271604938272,0)" xlink:href="#aT"/><use transform="matrix(0.04938271604938272,0,0,0.04938271604938272,15.753086419753087,0)" xlink:href="#aH"/><use transform="matrix(0.04938271604938272,0,0,0.04938271604938272,25.629629629629633,0)" xlink:href="#aA"/><use transform="matrix(0.04938271604938272,0,0,0.04938271604938272,35.50617283950618,0)" xlink:href="#aK"/><use transform="matrix(0.04938271604938272,0,0,0.04938271604938272,42.41975308641976,0)" xlink:href="#aE"/><use transform="matrix(0.04938271604938272,0,0,0.04938271604938272,47.35802469135803,0)" xlink:href="#aC"/><use transform="matrix(0.04938271604938272,0,0,0.04938271604938272,63.1604938271605,0)" xlink:href="#aA"/><use transform="matrix(0.04938271604938272,0,0,0.04938271604938272,73.03703703703704,0)" xlink:href="#aT"/><use transform="matrix(0.04938271604938272,0,0,0.04938271604938272,83.85185185185185,0)" xlink:href="#aU"/><use transform="matrix(0.04938271604938272,0,0,0.04938271604938272,89.72839506172839,0)" xlink:href="#aJ"/></g><g id="I"><use transform="matrix(0.06172839506172839,0,0,0.06172839506172839,0,0)" xlink:href="#aM"/><use transform="matrix(0.06172839506172839,0,0,0.06172839506172839,14.814814814814813,0)" xlink:href="#au"/><use transform="matrix(0.06172839506172839,0,0,0.06172839506172839,27.160493827160494,0)" xlink:href="#az"/><use transform="matrix(0.06172839506172839,0,0,0.06172839506172839,39.50617283950617,0)" xlink:href="#aw"/><use transform="matrix(0.06172839506172839,0,0,0.06172839506172839,44.382716049382715,0)" xlink:href="#ap"/><use transform="matrix(0.06172839506172839,0,0,0.06172839506172839,56.72839506172839,0)" xlink:href="#au"/></g><g id="J"><use transform="matrix(0.06172839506172839,0,0,0.06172839506172839,0,0)" xlink:href="#aY"/><use transform="matrix(0.06172839506172839,0,0,0.06172839506172839,12.345679012345679,0)" xlink:href="#au"/><use transform="matrix(0.06172839506172839,0,0,0.06172839506172839,24.691358024691358,0)" xlink:href="#aq"/><use transform="matrix(0.06172839506172839,0,0,0.06172839506172839,30.864197530864196,0)" xlink:href="#aw"/></g><g id="K"><use transform="matrix(0.06172839506172839,0,0,0.06172839506172839,0,0)" xlink:href="#aN"/><use transform="matrix(0.06172839506172839,0,0,0.06172839506172839,12.345679012345679,0)" xlink:href="#ar"/><use transform="matrix(0.06172839506172839,0,0,0.06172839506172839,24.691358024691358,0)" xlink:href="#as"/><use transform="matrix(0.06172839506172839,0,0,0.06172839506172839,32.03703703703704,0)" xlink:href="#aO"/><use transform="matrix(0.06172839506172839,0,0,0.06172839506172839,43.14814814814815,0)" xlink:href="#ay"/><use transform="matrix(0.06172839506172839,0,0,0.06172839506172839,55.49382716049383,0)" xlink:href="#ap"/><use transform="matrix(0.06172839506172839,0,0,0.06172839506172839,67.8395061728395,0)" xlink:href="#au"/><use transform="matrix(0.06172839506172839,0,0,0.06172839506172839,80.18518518518519,0)" xlink:href="#aR"/><use transform="matrix(0.06172839506172839,0,0,0.06172839506172839,85.06172839506173,0)" xlink:href="#aw"/></g><path fill="#333" d="M121-226c-27-7-43 5-38 36h38v33H83V0H34v-157H6v-33h28c-9-59 32-81 87-68v32" id="bj"/><path fill="#333" d="M114-157C55-157 80-60 75 0H25v-261h50l-1 109c12-26 28-41 61-42 86-1 58 113 63 194h-50c-7-57 23-157-34-157" id="bk"/><g id="L"><use transform="matrix(0.04938271604938272,0,0,0.04938271604938272,0,0)" xlink:href="#aC"/><use transform="matrix(0.04938271604938272,0,0,0.04938271604938272,15.80246913580247,0)" xlink:href="#aJ"/><use transform="matrix(0.04938271604938272,0,0,0.04938271604938272,26.617283950617285,0)" xlink:href="#aL"/><use transform="matrix(0.04938271604938272,0,0,0.04938271604938272,37.4320987654321,0)" xlink:href="#aE"/><use transform="matrix(0.04938271604938272,0,0,0.04938271604938272,42.370370370370374,0)" xlink:href="#bj"/><use transform="matrix(0.04938271604938272,0,0,0.04938271604938272,48.24691358024692,0)" xlink:href="#aE"/><use transform="matrix(0.04938271604938272,0,0,0.04938271604938272,53.18518518518519,0)" xlink:href="#bf"/><use transform="matrix(0.04938271604938272,0,0,0.04938271604938272,63.061728395061735,0)" xlink:href="#bk"/><use transform="matrix(0.04938271604938272,0,0,0.04938271604938272,73.87654320987654,0)" xlink:href="#aA"/></g><g id="M"><use transform="matrix(0.04938271604938272,0,0,0.04938271604938272,0,0)" xlink:href="#aL"/><use transform="matrix(0.04938271604938272,0,0,0.04938271604938272,10.814814814814815,0)" xlink:href="#aD"/><use transform="matrix(0.04938271604938272,0,0,0.04938271604938272,20.69135802469136,0)" xlink:href="#aU"/><use transform="matrix(0.04938271604938272,0,0,0.04938271604938272,26.567901234567902,0)" xlink:href="#aE"/></g><g id="N"><use transform="matrix(0.04938271604938272,0,0,0.04938271604938272,0,0)" xlink:href="#aK"/><use transform="matrix(0.04938271604938272,0,0,0.04938271604938272,6.913580246913581,0)" xlink:href="#aA"/><use transform="matrix(0.04938271604938272,0,0,0.04938271604938272,16.790123456790127,0)" xlink:href="#bf"/><use transform="matrix(0.04938271604938272,0,0,0.04938271604938272,26.666666666666668,0)" xlink:href="#bd"/><use transform="matrix(0.04938271604938272,0,0,0.04938271604938272,37.48148148148149,0)" xlink:href="#aG"/><use transform="matrix(0.04938271604938272,0,0,0.04938271604938272,48.296296296296305,0)" xlink:href="#aA"/><use transform="matrix(0.04938271604938272,0,0,0.04938271604938272,58.17283950617284,0)" xlink:href="#aK"/><use transform="matrix(0.04938271604938272,0,0,0.04938271604938272,65.08641975308643,0)" xlink:href="#aJ"/></g><g id="O"><use transform="matrix(0.04938271604938272,0,0,0.04938271604938272,0,0)" xlink:href="#aG"/><use transform="matrix(0.04938271604938272,0,0,0.04938271604938272,10.814814814814815,0)" xlink:href="#aD"/><use transform="matrix(0.04938271604938272,0,0,0.04938271604938272,20.69135802469136,0)" xlink:href="#aH"/><use transform="matrix(0.04938271604938272,0,0,0.04938271604938272,30.567901234567906,0)" xlink:href="#aH"/><use transform="matrix(0.04938271604938272,0,0,0.04938271604938272,40.44444444444445,0)" xlink:href="#aI"/><use transform="matrix(0.04938271604938272,0,0,0.04938271604938272,54.27160493827161,0)" xlink:href="#aJ"/><use transform="matrix(0.04938271604938272,0,0,0.04938271604938272,65.08641975308642,0)" xlink:href="#aK"/><use transform="matrix(0.04938271604938272,0,0,0.04938271604938272,72,0)" xlink:href="#aL"/></g><g id="P"><use transform="matrix(0.04938271604938272,0,0,0.04938271604938272,0,0)" xlink:href="#aC"/><use transform="matrix(0.04938271604938272,0,0,0.04938271604938272,15.80246913580247,0)" xlink:href="#aJ"/><use transform="matrix(0.04938271604938272,0,0,0.04938271604938272,26.617283950617285,0)" xlink:href="#aL"/><use transform="matrix(0.04938271604938272,0,0,0.04938271604938272,37.4320987654321,0)" xlink:href="#aE"/><use transform="matrix(0.04938271604938272,0,0,0.04938271604938272,42.370370370370374,0)" xlink:href="#bj"/><use transform="matrix(0.04938271604938272,0,0,0.04938271604938272,48.24691358024692,0)" xlink:href="#aE"/><use transform="matrix(0.04938271604938272,0,0,0.04938271604938272,53.18518518518519,0)" xlink:href="#bf"/><use transform="matrix(0.04938271604938272,0,0,0.04938271604938272,63.061728395061735,0)" xlink:href="#bk"/><use transform="matrix(0.04938271604938272,0,0,0.04938271604938272,73.87654320987654,0)" xlink:href="#aA"/></g><g id="Q"><use transform="matrix(0.06172839506172839,0,0,0.06172839506172839,0,0)" xlink:href="#aQ"/><use transform="matrix(0.06172839506172839,0,0,0.06172839506172839,17.28395061728395,0)" xlink:href="#ar"/><use transform="matrix(0.06172839506172839,0,0,0.06172839506172839,29.629629629629626,0)" xlink:href="#aO"/><use transform="matrix(0.06172839506172839,0,0,0.06172839506172839,40.74074074074073,0)" xlink:href="#aq"/><use transform="matrix(0.06172839506172839,0,0,0.06172839506172839,46.913580246913575,0)" xlink:href="#ay"/><use transform="matrix(0.06172839506172839,0,0,0.06172839506172839,59.25925925925925,0)" xlink:href="#as"/><use transform="matrix(0.06172839506172839,0,0,0.06172839506172839,66.60493827160494,0)" xlink:href="#ar"/></g><g id="R"><use transform="matrix(0.06172839506172839,0,0,0.06172839506172839,0,0)" xlink:href="#aX"/><use transform="matrix(0.06172839506172839,0,0,0.06172839506172839,18.456790123456788,0)" xlink:href="#ay"/><use transform="matrix(0.06172839506172839,0,0,0.06172839506172839,30.80246913580247,0)" xlink:href="#aY"/><use transform="matrix(0.06172839506172839,0,0,0.06172839506172839,43.148148148148145,0)" xlink:href="#aw"/><use transform="matrix(0.06172839506172839,0,0,0.06172839506172839,48.02469135802469,0)" xlink:href="#at"/><use transform="matrix(0.06172839506172839,0,0,0.06172839506172839,54.19753086419753,0)" xlink:href="#aw"/><use transform="matrix(0.06172839506172839,0,0,0.06172839506172839,59.074074074074076,0)" xlink:href="#av"/><use transform="matrix(0.06172839506172839,0,0,0.06172839506172839,70.18518518518519,0)" xlink:href="#bc"/><use transform="matrix(0.06172839506172839,0,0,0.06172839506172839,82.53086419753087,0)" xlink:href="#ar"/></g><g id="S"><use transform="matrix(0.06172839506172839,0,0,0.06172839506172839,0,0)" xlink:href="#aZ"/><use transform="matrix(0.06172839506172839,0,0,0.06172839506172839,12.345679012345679,0)" xlink:href="#aq"/><use transform="matrix(0.06172839506172839,0,0,0.06172839506172839,18.51851851851852,0)" xlink:href="#ar"/><use transform="matrix(0.06172839506172839,0,0,0.06172839506172839,30.864197530864196,0)" xlink:href="#ap"/><use transform="matrix(0.06172839506172839,0,0,0.06172839506172839,43.20987654320987,0)" xlink:href="#aq"/><use transform="matrix(0.06172839506172839,0,0,0.06172839506172839,49.382716049382715,0)" xlink:href="#ar"/></g><g id="T"><use transform="matrix(0.04938271604938272,0,0,0.04938271604938272,0,0)" xlink:href="#aK"/><use transform="matrix(0.04938271604938272,0,0,0.04938271604938272,6.913580246913581,0)" xlink:href="#aE"/><use transform="matrix(0.04938271604938272,0,0,0.04938271604938272,11.851851851851853,0)" xlink:href="#bf"/><use transform="matrix(0.04938271604938272,0,0,0.04938271604938272,21.7283950617284,0)" xlink:href="#bk"/><use transform="matrix(0.04938271604938272,0,0,0.04938271604938272,32.543209876543216,0)" xlink:href="#aE"/><use transform="matrix(0.04938271604938272,0,0,0.04938271604938272,37.48148148148149,0)" xlink:href="#aA"/><use transform="matrix(0.04938271604938272,0,0,0.04938271604938272,47.35802469135803,0)" xlink:href="#aH"/><use transform="matrix(0.04938271604938272,0,0,0.04938271604938272,57.23456790123457,0)" xlink:href="#aU"/><use transform="matrix(0.04938271604938272,0,0,0.04938271604938272,63.111111111111114,0)" xlink:href="#aD"/></g><g id="U"><use transform="matrix(0.04938271604938272,0,0,0.04938271604938272,0,0)" xlink:href="#aK"/><use transform="matrix(0.04938271604938272,0,0,0.04938271604938272,6.913580246913581,0)" xlink:href="#aA"/><use transform="matrix(0.04938271604938272,0,0,0.04938271604938272,16.790123456790127,0)" xlink:href="#bf"/><use transform="matrix(0.04938271604938272,0,0,0.04938271604938272,26.666666666666668,0)" xlink:href="#bd"/><use transform="matrix(0.04938271604938272,0,0,0.04938271604938272,37.48148148148149,0)" xlink:href="#aG"/><use transform="matrix(0.04938271604938272,0,0,0.04938271604938272,48.296296296296305,0)" xlink:href="#aA"/><use transform="matrix(0.04938271604938272,0,0,0.04938271604938272,58.17283950617284,0)" xlink:href="#aK"/><use transform="matrix(0.04938271604938272,0,0,0.04938271604938272,65.08641975308643,0)" xlink:href="#aJ"/></g><g id="V"><use transform="matrix(0.04938271604938272,0,0,0.04938271604938272,0,0)" xlink:href="#aA"/><use transform="matrix(0.04938271604938272,0,0,0.04938271604938272,9.876543209876544,0)" xlink:href="#aB"/><use transform="matrix(0.04938271604938272,0,0,0.04938271604938272,15.753086419753087,0)" xlink:href="#aC"/><use transform="matrix(0.04938271604938272,0,0,0.04938271604938272,31.555555555555557,0)" xlink:href="#aD"/><use transform="matrix(0.04938271604938272,0,0,0.04938271604938272,41.4320987654321,0)" xlink:href="#aE"/><use transform="matrix(0.04938271604938272,0,0,0.04938271604938272,46.370370370370374,0)" xlink:href="#aF"/></g><g id="W"><use transform="matrix(0.04938271604938272,0,0,0.04938271604938272,0,0)" xlink:href="#aK"/><use transform="matrix(0.04938271604938272,0,0,0.04938271604938272,6.913580246913581,0)" xlink:href="#aA"/><use transform="matrix(0.04938271604938272,0,0,0.04938271604938272,16.790123456790127,0)" xlink:href="#bf"/><use transform="matrix(0.04938271604938272,0,0,0.04938271604938272,26.666666666666668,0)" xlink:href="#bd"/><use transform="matrix(0.04938271604938272,0,0,0.04938271604938272,37.48148148148149,0)" xlink:href="#aG"/><use transform="matrix(0.04938271604938272,0,0,0.04938271604938272,48.296296296296305,0)" xlink:href="#aA"/><use transform="matrix(0.04938271604938272,0,0,0.04938271604938272,58.17283950617284,0)" xlink:href="#aK"/><use transform="matrix(0.04938271604938272,0,0,0.04938271604938272,65.08641975308643,0)" xlink:href="#aJ"/></g><g id="X"><use transform="matrix(0.04938271604938272,0,0,0.04938271604938272,0,0)" xlink:href="#aG"/><use transform="matrix(0.04938271604938272,0,0,0.04938271604938272,10.814814814814815,0)" xlink:href="#aD"/><use transform="matrix(0.04938271604938272,0,0,0.04938271604938272,20.69135802469136,0)" xlink:href="#aH"/><use transform="matrix(0.04938271604938272,0,0,0.04938271604938272,30.567901234567906,0)" xlink:href="#aH"/><use transform="matrix(0.04938271604938272,0,0,0.04938271604938272,40.44444444444445,0)" xlink:href="#aI"/><use transform="matrix(0.04938271604938272,0,0,0.04938271604938272,54.27160493827161,0)" xlink:href="#aJ"/><use transform="matrix(0.04938271604938272,0,0,0.04938271604938272,65.08641975308642,0)" xlink:href="#aK"/><use transform="matrix(0.04938271604938272,0,0,0.04938271604938272,72,0)" xlink:href="#aL"/></g><g id="Y"><use transform="matrix(0.04938271604938272,0,0,0.04938271604938272,0,0)" xlink:href="#aL"/><use transform="matrix(0.04938271604938272,0,0,0.04938271604938272,10.814814814814815,0)" xlink:href="#aD"/><use transform="matrix(0.04938271604938272,0,0,0.04938271604938272,20.69135802469136,0)" xlink:href="#aU"/><use transform="matrix(0.04938271604938272,0,0,0.04938271604938272,26.567901234567902,0)" xlink:href="#aE"/></g><g id="Z"><use transform="matrix(0.04938271604938272,0,0,0.04938271604938272,0,0)" xlink:href="#aC"/><use transform="matrix(0.04938271604938272,0,0,0.04938271604938272,15.80246913580247,0)" xlink:href="#aJ"/><use transform="matrix(0.04938271604938272,0,0,0.04938271604938272,26.617283950617285,0)" xlink:href="#aL"/><use transform="matrix(0.04938271604938272,0,0,0.04938271604938272,37.4320987654321,0)" xlink:href="#aE"/><use transform="matrix(0.04938271604938272,0,0,0.04938271604938272,42.370370370370374,0)" xlink:href="#bj"/><use transform="matrix(0.04938271604938272,0,0,0.04938271604938272,48.24691358024692,0)" xlink:href="#aE"/><use transform="matrix(0.04938271604938272,0,0,0.04938271604938272,53.18518518518519,0)" xlink:href="#bf"/><use transform="matrix(0.04938271604938272,0,0,0.04938271604938272,63.061728395061735,0)" xlink:href="#aD"/><use transform="matrix(0.04938271604938272,0,0,0.04938271604938272,72.93827160493828,0)" xlink:href="#aU"/><use transform="matrix(0.04938271604938272,0,0,0.04938271604938272,78.81481481481482,0)" xlink:href="#aE"/></g><g id="aa"><use transform="matrix(0.06172839506172839,0,0,0.06172839506172839,0,0)" xlink:href="#as"/><use transform="matrix(0.06172839506172839,0,0,0.06172839506172839,7.345679012345679,0)" xlink:href="#ar"/><use transform="matrix(0.06172839506172839,0,0,0.06172839506172839,19.691358024691358,0)" xlink:href="#aO"/><use transform="matrix(0.06172839506172839,0,0,0.06172839506172839,30.80246913580247,0)" xlink:href="#ar"/><use transform="matrix(0.06172839506172839,0,0,0.06172839506172839,43.148148148148145,0)" xlink:href="#aq"/></g><path fill="#333" d="M206 0h-36l-40-164L89 0H53L-1-190h32L70-26l43-164h34l41 164 42-164h31" id="bl"/><g id="ab"><use transform="matrix(0.06172839506172839,0,0,0.06172839506172839,0,0)" xlink:href="#aN"/><use transform="matrix(0.06172839506172839,0,0,0.06172839506172839,12.345679012345679,0)" xlink:href="#au"/><use transform="matrix(0.06172839506172839,0,0,0.06172839506172839,24.691358024691358,0)" xlink:href="#aO"/><use transform="matrix(0.06172839506172839,0,0,0.06172839506172839,35.80246913580247,0)" xlink:href="#aO"/><use transform="matrix(0.06172839506172839,0,0,0.06172839506172839,46.91358024691358,0)" xlink:href="#bl"/><use transform="matrix(0.06172839506172839,0,0,0.06172839506172839,62.901234567901234,0)" xlink:href="#ay"/><use transform="matrix(0.06172839506172839,0,0,0.06172839506172839,75.24691358024691,0)" xlink:href="#as"/><use transform="matrix(0.06172839506172839,0,0,0.06172839506172839,82.5925925925926,0)" xlink:href="#aY"/></g><g id="ac"><use transform="matrix(0.04938271604938272,0,0,0.04938271604938272,0,0)" xlink:href="#aT"/><use transform="matrix(0.04938271604938272,0,0,0.04938271604938272,10.814814814814815,0)" xlink:href="#bd"/><use transform="matrix(0.04938271604938272,0,0,0.04938271604938272,21.62962962962963,0)" xlink:href="#aJ"/><use transform="matrix(0.04938271604938272,0,0,0.04938271604938272,32.44444444444444,0)" xlink:href="#aV"/><use transform="matrix(0.04938271604938272,0,0,0.04938271604938272,42.32098765432099,0)" xlink:href="#aD"/></g><g id="ad"><use transform="matrix(0.04938271604938272,0,0,0.04938271604938272,0,0)" xlink:href="#aG"/><use transform="matrix(0.04938271604938272,0,0,0.04938271604938272,10.814814814814815,0)" xlink:href="#aD"/><use transform="matrix(0.04938271604938272,0,0,0.04938271604938272,20.69135802469136,0)" xlink:href="#aH"/><use transform="matrix(0.04938271604938272,0,0,0.04938271604938272,30.567901234567906,0)" xlink:href="#aH"/><use transform="matrix(0.04938271604938272,0,0,0.04938271604938272,40.44444444444445,0)" xlink:href="#aI"/><use transform="matrix(0.04938271604938272,0,0,0.04938271604938272,54.27160493827161,0)" xlink:href="#aJ"/><use transform="matrix(0.04938271604938272,0,0,0.04938271604938272,65.08641975308642,0)" xlink:href="#aK"/><use transform="matrix(0.04938271604938272,0,0,0.04938271604938272,72,0)" xlink:href="#aL"/></g><g id="ae"><use transform="matrix(0.04938271604938272,0,0,0.04938271604938272,0,0)" xlink:href="#aE"/><use transform="matrix(0.04938271604938272,0,0,0.04938271604938272,4.938271604938272,0)" xlink:href="#aT"/><use transform="matrix(0.04938271604938272,0,0,0.04938271604938272,15.753086419753087,0)" xlink:href="#bj"/><use transform="matrix(0.04938271604938272,0,0,0.04938271604938272,21.62962962962963,0)" xlink:href="#aJ"/></g><g id="af"><use transform="matrix(0.04938271604938272,0,0,0.04938271604938272,0,0)" xlink:href="#aJ"/><use transform="matrix(0.04938271604938272,0,0,0.04938271604938272,10.814814814814815,0)" xlink:href="#aK"/><use transform="matrix(0.04938271604938272,0,0,0.04938271604938272,17.728395061728396,0)" xlink:href="#aD"/><use transform="matrix(0.04938271604938272,0,0,0.04938271604938272,27.60493827160494,0)" xlink:href="#aU"/><use transform="matrix(0.04938271604938272,0,0,0.04938271604938272,33.48148148148148,0)" xlink:href="#aJ"/><use transform="matrix(0.04938271604938272,0,0,0.04938271604938272,44.2962962962963,0)" xlink:href="#aK"/><use transform="matrix(0.04938271604938272,0,0,0.04938271604938272,51.20987654320988,0)" xlink:href="#aE"/><use transform="matrix(0.04938271604938272,0,0,0.04938271604938272,56.14814814814815,0)" xlink:href="#aJ"/></g><g id="ag"><use transform="matrix(0.04938271604938272,0,0,0.04938271604938272,0,0)" xlink:href="#aA"/><use transform="matrix(0.04938271604938272,0,0,0.04938271604938272,9.876543209876544,0)" xlink:href="#aH"/><use transform="matrix(0.04938271604938272,0,0,0.04938271604938272,19.75308641975309,0)" xlink:href="#aE"/><use transform="matrix(0.04938271604938272,0,0,0.04938271604938272,24.69135802469136,0)" xlink:href="#aU"/><use transform="matrix(0.04938271604938272,0,0,0.04938271604938272,30.567901234567906,0)" xlink:href="#aJ"/></g><g id="ah"><use transform="matrix(0.04938271604938272,0,0,0.04938271604938272,0,0)" xlink:href="#aA"/><use transform="matrix(0.04938271604938272,0,0,0.04938271604938272,9.876543209876544,0)" xlink:href="#aF"/><use transform="matrix(0.04938271604938272,0,0,0.04938271604938272,14.814814814814817,0)" xlink:href="#aE"/><use transform="matrix(0.04938271604938272,0,0,0.04938271604938272,19.75308641975309,0)" xlink:href="#aC"/><use transform="matrix(0.04938271604938272,0,0,0.04938271604938272,35.55555555555556,0)" xlink:href="#aE"/><use transform="matrix(0.04938271604938272,0,0,0.04938271604938272,40.49382716049383,0)" xlink:href="#aT"/><use transform="matrix(0.04938271604938272,0,0,0.04938271604938272,51.308641975308646,0)" xlink:href="#aD"/></g><g id="ai"><use transform="matrix(0.04938271604938272,0,0,0.04938271604938272,0,0)" xlink:href="#aD"/><use transform="matrix(0.04938271604938272,0,0,0.04938271604938272,9.876543209876544,0)" xlink:href="#bf"/><use transform="matrix(0.04938271604938272,0,0,0.04938271604938272,19.75308641975309,0)" xlink:href="#bf"/><use transform="matrix(0.04938271604938272,0,0,0.04938271604938272,29.629629629629633,0)" xlink:href="#aJ"/><use transform="matrix(0.04938271604938272,0,0,0.04938271604938272,40.44444444444445,0)" xlink:href="#bd"/><use transform="matrix(0.04938271604938272,0,0,0.04938271604938272,51.25925925925927,0)" xlink:href="#aT"/><use transform="matrix(0.04938271604938272,0,0,0.04938271604938272,62.074074074074076,0)" xlink:href="#aU"/></g><g id="aj"><use transform="matrix(0.04938271604938272,0,0,0.04938271604938272,0,0)" xlink:href="#aA"/><use transform="matrix(0.04938271604938272,0,0,0.04938271604938272,9.876543209876544,0)" xlink:href="#aF"/><use transform="matrix(0.04938271604938272,0,0,0.04938271604938272,14.814814814814817,0)" xlink:href="#aE"/><use transform="matrix(0.04938271604938272,0,0,0.04938271604938272,19.75308641975309,0)" xlink:href="#aC"/><use transform="matrix(0.04938271604938272,0,0,0.04938271604938272,35.55555555555556,0)" xlink:href="#aE"/><use transform="matrix(0.04938271604938272,0,0,0.04938271604938272,40.49382716049383,0)" xlink:href="#aT"/><use transform="matrix(0.04938271604938272,0,0,0.04938271604938272,51.308641975308646,0)" xlink:href="#aD"/><use transform="matrix(0.04938271604938272,0,0,0.04938271604938272,61.18518518518519,0)" xlink:href="#bg"/><use transform="matrix(0.04938271604938272,0,0,0.04938271604938272,70.07407407407408,0)" xlink:href="#aE"/><use transform="matrix(0.04938271604938272,0,0,0.04938271604938272,75.01234567901236,0)" xlink:href="#aJ"/><use transform="matrix(0.04938271604938272,0,0,0.04938271604938272,85.82716049382717,0)" xlink:href="#aT"/><use transform="matrix(0.04938271604938272,0,0,0.04938271604938272,96.64197530864197,0)" xlink:href="#aA"/></g><g id="ak"><use transform="matrix(0.04938271604938272,0,0,0.04938271604938272,0,0)" xlink:href="#aA"/><use transform="matrix(0.04938271604938272,0,0,0.04938271604938272,9.876543209876544,0)" xlink:href="#aF"/><use transform="matrix(0.04938271604938272,0,0,0.04938271604938272,14.814814814814817,0)" xlink:href="#aE"/><use transform="matrix(0.04938271604938272,0,0,0.04938271604938272,19.75308641975309,0)" xlink:href="#aC"/><use transform="matrix(0.04938271604938272,0,0,0.04938271604938272,35.55555555555556,0)" xlink:href="#aE"/><use transform="matrix(0.04938271604938272,0,0,0.04938271604938272,40.49382716049383,0)" xlink:href="#aT"/><use transform="matrix(0.04938271604938272,0,0,0.04938271604938272,51.308641975308646,0)" xlink:href="#aD"/><use transform="matrix(0.04938271604938272,0,0,0.04938271604938272,61.18518518518519,0)" xlink:href="#bg"/><use transform="matrix(0.04938271604938272,0,0,0.04938271604938272,70.07407407407408,0)" xlink:href="#aE"/><use transform="matrix(0.04938271604938272,0,0,0.04938271604938272,75.01234567901236,0)" xlink:href="#aJ"/><use transform="matrix(0.04938271604938272,0,0,0.04938271604938272,85.82716049382717,0)" xlink:href="#aT"/><use transform="matrix(0.04938271604938272,0,0,0.04938271604938272,96.64197530864197,0)" xlink:href="#aA"/></g><g id="al"><use transform="matrix(0.04938271604938272,0,0,0.04938271604938272,0,0)" xlink:href="#aD"/><use transform="matrix(0.04938271604938272,0,0,0.04938271604938272,9.876543209876544,0)" xlink:href="#bf"/><use transform="matrix(0.04938271604938272,0,0,0.04938271604938272,19.75308641975309,0)" xlink:href="#bf"/><use transform="matrix(0.04938271604938272,0,0,0.04938271604938272,29.629629629629633,0)" xlink:href="#aJ"/><use transform="matrix(0.04938271604938272,0,0,0.04938271604938272,40.44444444444445,0)" xlink:href="#bd"/><use transform="matrix(0.04938271604938272,0,0,0.04938271604938272,51.25925925925927,0)" xlink:href="#aT"/><use transform="matrix(0.04938271604938272,0,0,0.04938271604938272,62.074074074074076,0)" xlink:href="#aU"/></g><g id="am"><use transform="matrix(0.04938271604938272,0,0,0.04938271604938272,0,0)" xlink:href="#aV"/><use transform="matrix(0.04938271604938272,0,0,0.04938271604938272,9.876543209876544,0)" xlink:href="#aD"/><use transform="matrix(0.04938271604938272,0,0,0.04938271604938272,19.75308641975309,0)" xlink:href="#aF"/><use transform="matrix(0.04938271604938272,0,0,0.04938271604938272,24.69135802469136,0)" xlink:href="#aE"/><use transform="matrix(0.04938271604938272,0,0,0.04938271604938272,29.629629629629633,0)" xlink:href="#aL"/><use transform="matrix(0.04938271604938272,0,0,0.04938271604938272,40.44444444444445,0)" xlink:href="#aD"/><use transform="matrix(0.04938271604938272,0,0,0.04938271604938272,50.320987654320994,0)" xlink:href="#bg"/><use transform="matrix(0.04938271604938272,0,0,0.04938271604938272,59.209876543209894,0)" xlink:href="#aE"/><use transform="matrix(0.04938271604938272,0,0,0.04938271604938272,64.14814814814815,0)" xlink:href="#aJ"/><use transform="matrix(0.04938271604938272,0,0,0.04938271604938272,74.96296296296296,0)" xlink:href="#aT"/><use transform="matrix(0.04938271604938272,0,0,0.04938271604938272,85.77777777777777,0)" xlink:href="#aA"/></g><g id="an"><use transform="matrix(0.04938271604938272,0,0,0.04938271604938272,0,0)" xlink:href="#aD"/><use transform="matrix(0.04938271604938272,0,0,0.04938271604938272,9.876543209876544,0)" xlink:href="#bf"/><use transform="matrix(0.04938271604938272,0,0,0.04938271604938272,19.75308641975309,0)" xlink:href="#bf"/><use transform="matrix(0.04938271604938272,0,0,0.04938271604938272,29.629629629629633,0)" xlink:href="#aJ"/><use transform="matrix(0.04938271604938272,0,0,0.04938271604938272,40.44444444444445,0)" xlink:href="#bd"/><use transform="matrix(0.04938271604938272,0,0,0.04938271604938272,51.25925925925927,0)" xlink:href="#aT"/><use transform="matrix(0.04938271604938272,0,0,0.04938271604938272,62.074074074074076,0)" xlink:href="#aU"/></g></defs></g></svg>