<svg xmlns="http://www.w3.org/2000/svg" xmlns:xlink="http://www.w3.org/1999/xlink" xmlns:lucid="lucid" width="1120" height="1100"><g transform="translate(-120 -660)" lucid:page-tab-id="9ehaMoOT7Sf_"><path d="M0 0h1322.83v1870.87H0z" fill="#fff"/><path d="M120 666a6 6 0 0 1 6-6h1108a6 6 0 0 1 6 6v1088a6 6 0 0 1-6 6H126a6 6 0 0 1-6-6z" fill-opacity="0"/><path d="M880 700c0 11.05-8.95 20-20 20s-20-8.95-20-20 8.95-20 20-20 20 8.95 20 20z"/><path d="M877.28 709.97l-2.64 3.66-3.85 3.2-.84.4m-4.8 1.98l-3.72.75-1.44.05-4.96-.62-.2-.08m-4.8-2.02l-3.67-2.64-3.2-3.85-.4-.84m-1.98-4.8l-.75-3.72L840 700l.62-4.96.08-.2m2.02-4.8l2.64-3.67 3.85-3.2.84-.4m4.8-1.98l3.72-.75L860 680l4.96.62.2.08m4.8 2.02l3.67 2.64 3.2 3.85.4.84m1.98 4.8l.75 3.72.05 1.44-.62 4.96-.08.2" stroke="#3a414a" fill="none"/><path d="M855.52 984.24a6 6 0 0 1 8.5 0l21.5 21.52a6 6 0 0 1 0 8.48l-21.5 21.52a6 6 0 0 1-8.5 0l-21.5-21.52a6 6 0 0 1 0-8.48z" stroke="#3a414a" fill="#fff"/><path d="M831.25 1010H616a6 6 0 0 1-6-6v-88a6 6 0 0 1 6-6h121.7" stroke="#3a414a" fill="none"/><path d="M831.75 1010l.04.5h-.56v-1h.55z" stroke="#3a414a" stroke-width=".05" fill="#3a414a"/><path d="M752.45 910l-14.26 4.64v-9.28z" stroke="#3a414a" fill="#3a414a"/><use xlink:href="#a" transform="matrix(1,0,0,1,621.5070825669735,984.6666666666667) translate(0 14.222222222222223)"/><use xlink:href="#b" transform="matrix(1,0,0,1,621.5070825669735,984.6666666666667) translate(62.12345679012346 14.222222222222223)"/><use xlink:href="#c" transform="matrix(1,0,0,1,621.5070825669735,984.6666666666667) translate(99.50617283950618 14.222222222222223)"/><path d="M855.52 1186.1a6 6 0 0 1 8.5 0l21.5 21.52a6 6 0 0 1 0 8.5l-21.5 21.5a6 6 0 0 1-8.5 0l-21.5-21.5a6 6 0 0 1 0-8.5z" stroke="#3a414a" fill="#fff"/><path d="M831.25 1211.87h-214.4" stroke="#3a414a" fill="none"/><path d="M831.75 1211.87l.04.5h-.56v-1h.55z" stroke="#3a414a" stroke-width=".05" fill="#3a414a"/><path d="M602.08 1211.87l14.27-4.64v9.27z" stroke="#3a414a" fill="#3a414a"/><use xlink:href="#d" transform="matrix(1,0,0,1,616.5515270114182,1181.8980784177093) translate(0 14.222222222222223)"/><use xlink:href="#e" transform="matrix(1,0,0,1,616.5515270114182,1181.8980784177093) translate(116.29629629629628 14.222222222222223)"/><path d="M1120 1263.15v-45.28a6 6 0 0 0-6-6H888.28" stroke="#3a414a" fill="none"/><path d="M1120 1277.92l-4.64-14.27h9.28z" stroke="#3a414a" fill="#3a414a"/><path d="M888.3 1212.37h-.56l.04-.5-.04-.5h.56z" stroke="#3a414a" stroke-width=".05" fill="#3a414a"/><use xlink:href="#d" transform="matrix(1,0,0,1,960.735929266111,1186.5333333333333) translate(0 14.222222222222223)"/><use xlink:href="#b" transform="matrix(1,0,0,1,960.735929266111,1186.5333333333333) translate(116.29629629629628 14.222222222222223)"/><use xlink:href="#f" transform="matrix(1,0,0,1,960.735929266111,1186.5333333333333) translate(153.67901234567898 14.222222222222223)"/><path d="M855.52 1427.5a6 6 0 0 1 8.5 0l21.5 21.53a6 6 0 0 1 0 8.48l-21.5 21.53a6 6 0 0 1-8.5 0l-21.5-21.52a6 6 0 0 1 0-8.47zM759.77 775.53a6 6 0 0 1 6-6h188a6 6 0 0 1 6 6v48a6 6 0 0 1-6 6h-188a6 6 0 0 1-6-6z" stroke="#3a414a" fill="#fff"/><use xlink:href="#g" transform="matrix(1,0,0,1,759.7666666666669,769.5333333333334) translate(36.279999999999994 33.15)"/><use xlink:href="#h" transform="matrix(1,0,0,1,759.7666666666669,769.5333333333334) translate(121.78 33.15)"/><path d="M754.53 886a6 6 0 0 1 6-6H959a6 6 0 0 1 6 6v48a6 6 0 0 1-6 6H760.53a6 6 0 0 1-6-6z" stroke="#3a414a" fill="#fff"/><use xlink:href="#i" transform="matrix(1,0,0,1,754.5333333333338,880.0000000000001) translate(15.104999999999999 21.9)"/><use xlink:href="#j" transform="matrix(1,0,0,1,754.5333333333338,880.0000000000001) translate(73.055 21.9)"/><use xlink:href="#k" transform="matrix(1,0,0,1,754.5333333333338,880.0000000000001) translate(153.955 21.9)"/><use xlink:href="#l" transform="matrix(1,0,0,1,754.5333333333338,880.0000000000001) translate(54.055 43.5)"/><use xlink:href="#m" transform="matrix(1,0,0,1,754.5333333333338,880.0000000000001) translate(79.055 43.5)"/><path d="M759.77 1086a6 6 0 0 1 6-6h188a6 6 0 0 1 6 6v48a6 6 0 0 1-6 6h-188a6 6 0 0 1-6-6z" stroke="#3a414a" fill="#fff"/><use xlink:href="#i" transform="matrix(1,0,0,1,759.7666666666669,1080) translate(12.654999999999996 21.9)"/><use xlink:href="#j" transform="matrix(1,0,0,1,759.7666666666669,1080) translate(70.60499999999999 21.9)"/><use xlink:href="#n" transform="matrix(1,0,0,1,759.7666666666669,1080) translate(151.505 21.9)"/><use xlink:href="#o" transform="matrix(1,0,0,1,759.7666666666669,1080) translate(26.604999999999997 43.5)"/><use xlink:href="#p" transform="matrix(1,0,0,1,759.7666666666669,1080) translate(69.505 43.5)"/><path d="M400 1187.87a6 6 0 0 1 6-6h188a6 6 0 0 1 6 6v48a6 6 0 0 1-6 6H406a6 6 0 0 1-6-6z" stroke="#3a414a" fill="#fff"/><use xlink:href="#q" transform="matrix(1,0,0,1,400,1181.8666666666668) translate(37.12999999999999 21.9)"/><use xlink:href="#r" transform="matrix(1,0,0,1,400,1181.8666666666668) translate(101.98 21.9)"/><use xlink:href="#s" transform="matrix(1,0,0,1,400,1181.8666666666668) translate(10.12999999999999 43.5)"/><use xlink:href="#t" transform="matrix(1,0,0,1,400,1181.8666666666668) translate(94.93 43.5)"/><use xlink:href="#u" transform="matrix(1,0,0,1,400,1181.8666666666668) translate(109.93 43.5)"/><path d="M1020 1286a6 6 0 0 1 6-6h188a6 6 0 0 1 6 6v48a6 6 0 0 1-6 6h-188a6 6 0 0 1-6-6z" stroke="#3a414a" fill="#fff"/><use xlink:href="#v" transform="matrix(1,0,0,1,1020,1280) translate(32.62999999999999 21.9)"/><use xlink:href="#w" transform="matrix(1,0,0,1,1020,1280) translate(116.53 21.9)"/><use xlink:href="#x" transform="matrix(1,0,0,1,1020,1280) translate(62.07999999999999 43.5)"/><path d="M410 1428.33a6 6 0 0 1 6-6h188a6 6 0 0 1 6 6v48a6 6 0 0 1-6 6H416a6 6 0 0 1-6-6z" stroke="#3a414a" fill="#fff"/><use xlink:href="#y" transform="matrix(1,0,0,1,410,1422.3343429823876) translate(22.630000000000003 21.9)"/><use xlink:href="#z" transform="matrix(1,0,0,1,410,1422.3343429823876) translate(79.58000000000001 21.9)"/><use xlink:href="#A" transform="matrix(1,0,0,1,410,1422.3343429823876) translate(151.43 21.9)"/><use xlink:href="#B" transform="matrix(1,0,0,1,410,1422.3343429823876) translate(37.054999999999986 43.5)"/><use xlink:href="#C" transform="matrix(1,0,0,1,410,1422.3343429823876) translate(96.05499999999999 43.5)"/><path d="M1020 1429.27a6 6 0 0 1 6-6h188a6 6 0 0 1 6 6v48a6 6 0 0 1-6 6h-188a6 6 0 0 1-6-6z" stroke="#3a414a" fill="#fff"/><use xlink:href="#D" transform="matrix(1,0,0,1,1020,1423.267676315721) translate(6.12999999999999 33.15)"/><use xlink:href="#p" transform="matrix(1,0,0,1,1020,1423.267676315721) translate(89.98 33.15)"/><path d="M505.76 1566.58a6 6 0 0 1 8.48 0l21.52 21.5a6 6 0 0 1 0 8.5l-21.52 21.5a6 6 0 0 1-8.48 0l-21.52-21.5a6 6 0 0 1 0-8.5zM660 1568.33a6 6 0 0 1 6-6h188a6 6 0 0 1 6 6v48a6 6 0 0 1-6 6H666a6 6 0 0 1-6-6z" stroke="#3a414a" fill="#fff"/><use xlink:href="#E" transform="matrix(1,0,0,1,660,1562.3343429823876) translate(32.62999999999999 21.9)"/><use xlink:href="#F" transform="matrix(1,0,0,1,660,1562.3343429823876) translate(120.48 21.9)"/><use xlink:href="#B" transform="matrix(1,0,0,1,660,1562.3343429823876) translate(11.054999999999987 43.5)"/><use xlink:href="#t" transform="matrix(1,0,0,1,660,1562.3343429823876) translate(70.05499999999999 43.5)"/><use xlink:href="#p" transform="matrix(1,0,0,1,660,1562.3343429823876) translate(85.05499999999999 43.5)"/><path d="M140 1568.33a6 6 0 0 1 6-6h188a6 6 0 0 1 6 6v48a6 6 0 0 1-6 6H146a6 6 0 0 1-6-6z" stroke="#3a414a" fill="#fff"/><use xlink:href="#G" transform="matrix(1,0,0,1,140,1562.3343429823876) translate(30.654999999999994 21.9)"/><use xlink:href="#H" transform="matrix(1,0,0,1,140,1562.3343429823876) translate(102.50500000000001 21.9)"/><use xlink:href="#B" transform="matrix(1,0,0,1,140,1562.3343429823876) translate(37.054999999999986 43.5)"/><use xlink:href="#C" transform="matrix(1,0,0,1,140,1562.3343429823876) translate(96.05499999999999 43.5)"/><path d="M860 721v31.7" stroke="#3a414a" stroke-linejoin="round" fill="none"/><path d="M859.98 720.5l.52-.02v.53h-1v-.56z" stroke="#3a414a" stroke-width=".05" fill="#3a414a"/><path d="M860 767.45l-4.64-14.26h9.28z" stroke="#3a414a" fill="#3a414a"/><path d="M859.77 830.5v32.65" stroke="#3a414a" fill="none"/><path d="M860.27 830.5h-1v-.5h1z" stroke="#3a414a" stroke-width=".05" fill="#3a414a"/><path d="M859.77 877.92l-4.64-14.27h9.27z" stroke="#3a414a" fill="#3a414a"/><path d="M859.76 940.96l-.22 40.54" stroke="#3a414a" stroke-linejoin="round" fill="none"/><path d="M860.26 940.98h-1v-.52h1zM860.04 981.5v.5l-.27-.02-.74.06v-.55z" stroke="#3a414a" stroke-width=".05" fill="#3a414a"/><path d="M859.77 1063.15v-24.63" stroke="#3a414a" stroke-linejoin="round" fill="none"/><path d="M859.77 1077.92l-4.64-14.27h9.27z" stroke="#3a414a" fill="#3a414a"/><path d="M859.77 1038.02l.5-.04v.55h-1v-.55z" stroke="#3a414a" stroke-width=".05" fill="#3a414a"/><path d="M859.77 1140.96v26.5" stroke="#3a414a" stroke-linejoin="round" fill="none"/><path d="M860.27 1140.98h-1v-.52h1z" stroke="#3a414a" stroke-width=".05" fill="#3a414a"/><path d="M859.77 1182.23l-4.64-14.26h9.27z" stroke="#3a414a" fill="#3a414a"/><path d="M1120 1340.96v35.9a6 6 0 0 1-6 6H865.77a6 6 0 0 0-6 6v20" stroke="#3a414a" fill="none"/><path d="M1120.5 1340.98h-1v-.52h1z" stroke="#3a414a" stroke-width=".05" fill="#3a414a"/><path d="M859.77 1423.63l-4.64-14.26h9.27z" stroke="#3a414a" fill="#3a414a"/><path d="M888.28 1453.27h114.87" stroke="#3a414a" stroke-linejoin="round" fill="none"/><path d="M888.3 1453.77h-.56l.04-.5-.04-.5h.56z" stroke="#3a414a" stroke-width=".05" fill="#3a414a"/><path d="M1017.92 1453.27l-14.27 4.63v-9.27z" stroke="#3a414a" fill="#3a414a"/><use xlink:href="#I" transform="matrix(1,0,0,1,897.9815598943873,1401.9657547334302) translate(0 14.222222222222223)"/><use xlink:href="#J" transform="matrix(1,0,0,1,897.9815598943873,1401.9657547334302) translate(0 35.55555555555556)"/><path d="M831.25 1453.27h-204.4" stroke="#3a414a" stroke-linejoin="round" fill="none"/><path d="M831.75 1453.27l.04.5h-.57v-1h.56z" stroke="#3a414a" stroke-width=".05" fill="#3a414a"/><path d="M612.08 1453.27l14.27-4.64v9.27z" stroke="#3a414a" fill="#3a414a"/><use xlink:href="#d" transform="matrix(1,0,0,1,663.4725327621662,1406.6010096490545) translate(0 14.222222222222223)"/><use xlink:href="#K" transform="matrix(1,0,0,1,663.4725327621662,1406.6010096490545) translate(116.29629629629628 14.222222222222223)"/><use xlink:href="#L" transform="matrix(1,0,0,1,663.4725327621662,1406.6010096490545) translate(0 35.55555555555556)"/><use xlink:href="#M" transform="matrix(1,0,0,1,663.4725327621662,1406.6010096490545) translate(62.07407407407408 35.55555555555556)"/><path d="M510 1483.3v64.63" stroke="#3a414a" stroke-linejoin="round" fill="none"/><path d="M510.5 1483.3h-1v-.5h1z" stroke="#3a414a" stroke-width=".05" fill="#3a414a"/><path d="M510 1562.7l-4.64-14.27h9.28z" stroke="#3a414a" fill="#3a414a"/><path d="M538.52 1592.33h104.63" stroke="#3a414a" stroke-linejoin="round" fill="none"/><path d="M538.53 1592.83h-.55l.04-.5-.04-.5h.55z" stroke="#3a414a" stroke-width=".05" fill="#3a414a"/><path d="M657.92 1592.33l-14.27 4.64v-9.27z" stroke="#3a414a" fill="#3a414a"/><path d="M481.48 1592.33H356.85" stroke="#3a414a" stroke-linejoin="round" fill="none"/><path d="M481.98 1592.33l.04.5h-.55v-1h.55z" stroke="#3a414a" stroke-width=".05" fill="#3a414a"/><path d="M342.08 1592.33l14.27-4.63v9.27z" stroke="#3a414a" fill="#3a414a"/><g><use xlink:href="#N" transform="matrix(1,0,0,1,355.5683668563457,1541.0324214000968) translate(12.25191358024692 14.222222222222223)"/><use xlink:href="#O" transform="matrix(1,0,0,1,355.5683668563457,1541.0324214000968) translate(0.005000000000002558 35.55555555555556)"/><use xlink:href="#P" transform="matrix(1,0,0,1,355.5683668563457,1541.0324214000968) translate(54.177839506172845 35.55555555555556)"/></g><path d="M880 1721.4c0 11.05-8.95 20-20 20s-20-8.95-20-20c0-11.04 8.95-20 20-20s20 8.96 20 20z" stroke="#3a414a"/><path d="M878 1721.4c0 9.94-8.06 18-18 18s-18-8.06-18-18 8.06-18 18-18 18 8.06 18 18z" stroke="#3a414a"/><path d="M878 1721.4c0 9.94-8.06 18-18 18s-18-8.06-18-18 8.06-18 18-18 18 8.06 18 18z" fill="none"/><path d="M823.12 1721.4H757.9a6 6 0 0 1-6-6v-92.1" stroke="#3a414a" fill="none"/><path d="M837.88 1721.4l-14.26 4.64v-9.27z" stroke="#3a414a" fill="#3a414a"/><path d="M752.4 1623.3h-1v-.5h1z" stroke="#3a414a" stroke-width=".05" fill="#3a414a"/><path d="M1120 1484.23v231.17a6 6 0 0 1-6 6H896.88" stroke="#3a414a" fill="none"/><path d="M1120.5 1484.24h-1v-.5h1z" stroke="#3a414a" stroke-width=".05" fill="#3a414a"/><path d="M882.12 1721.4l14.26-4.63v9.27z" stroke="#3a414a" fill="#3a414a"/><path d="M240 1561.37v-103.04a6 6 0 0 1 6-6h147.15" stroke="#3a414a" fill="none"/><path d="M240.5 1561.87h-1v-.5h1z" stroke="#3a414a" stroke-width=".05" fill="#3a414a"/><path d="M407.92 1452.33l-14.27 4.64v-9.27z" stroke="#3a414a" fill="#3a414a"/><path d="M495.76 1286.58a6 6 0 0 1 8.48 0l21.52 21.5a6 6 0 0 1 0 8.5l-21.52 21.5a6 6 0 0 1-8.48 0l-21.52-21.5a6 6 0 0 1 0-8.5z" stroke="#3a414a" fill="#fff"/><path d="M1003.15 1310h-475.1" stroke="#3a414a" fill="none"/><path d="M1017.92 1310l-14.27 4.64v-9.28z" stroke="#3a414a" fill="#3a414a"/><path d="M528.08 1310.5h-.34l-.04-.17-.34-.83h.72z" stroke="#3a414a" stroke-width=".05" fill="#3a414a"/><g><use xlink:href="#a" transform="matrix(1,0,0,1,532.3952569279005,1263.3333333333333) translate(0 14.222222222222223)"/><use xlink:href="#Q" transform="matrix(1,0,0,1,532.3952569279005,1263.3333333333333) translate(62.12345679012346 14.222222222222223)"/><use xlink:href="#R" transform="matrix(1,0,0,1,532.3952569279005,1263.3333333333333) translate(0 35.55555555555556)"/><use xlink:href="#S" transform="matrix(1,0,0,1,532.3952569279005,1263.3333333333333) translate(45.38271604938272 35.55555555555556)"/><use xlink:href="#T" transform="matrix(1,0,0,1,532.3952569279005,1263.3333333333333) translate(86.76543209876544 35.55555555555556)"/></g><path d="M500 1242.83v25.1" stroke="#3a414a" fill="none"/><path d="M500.5 1242.84h-1v-.5h1z" stroke="#3a414a" stroke-width=".05" fill="#3a414a"/><path d="M500 1282.7l-4.64-14.27h9.28z" stroke="#3a414a" fill="#3a414a"/><path d="M471.48 1312.33H365.54a6 6 0 0 1-6-6v-88.46a6 6 0 0 1 6-6h17.6" stroke="#3a414a" fill="none"/><path d="M471.98 1312.33l.04.5h-.55v-1h.55z" stroke="#3a414a" stroke-width=".05" fill="#3a414a"/><path d="M397.92 1211.87l-14.27 4.63v-9.27z" stroke="#3a414a" fill="#3a414a"/><g><use xlink:href="#a" transform="matrix(1,0,0,1,367.5362677311502,1265.6676763157209) translate(0 14.222222222222223)"/><use xlink:href="#U" transform="matrix(1,0,0,1,367.5362677311502,1265.6676763157209) translate(62.12345679012346 14.222222222222223)"/><use xlink:href="#V" transform="matrix(1,0,0,1,367.5362677311502,1265.6676763157209) translate(0 35.55555555555556)"/></g><defs><path fill="#333" d="M169-182c-1-43-94-46-97-3 18 66 151 10 154 114 3 95-165 93-204 36-6-8-10-19-12-30l50-8c3 46 112 56 116 5-17-69-150-10-154-114-4-87 153-88 188-35 5 8 8 18 10 28" id="W"/><path fill="#333" d="M135-194c53 0 70 44 70 98 0 56-19 98-73 100-31 1-45-17-59-34 3 33 2 69 2 105H25l-1-265h48c2 10 0 23 3 31 11-24 29-35 60-35zM114-30c33 0 39-31 40-66 0-38-9-64-40-64-56 0-55 130 0 130" id="X"/><path fill="#333" d="M133-34C117-15 103 5 69 4 32 3 11-16 11-54c-1-60 55-63 116-61 1-26-3-47-28-47-18 1-26 9-28 27l-52-2c7-38 36-58 82-57s74 22 75 68l1 82c-1 14 12 18 25 15v27c-30 8-71 5-69-32zm-48 3c29 0 43-24 42-57-32 0-66-3-65 30 0 17 8 27 23 27" id="Y"/><path fill="#333" d="M12 0v-35l95-120H19v-35h142v35L67-36h103V0H12" id="Z"/><path fill="#333" d="M25-224v-37h50v37H25zM25 0v-190h50V0H25" id="aa"/><path fill="#333" d="M110-194c64 0 96 36 96 99 0 64-35 99-97 99-61 0-95-36-95-99 0-62 34-99 96-99zm-1 164c35 0 45-28 45-65 0-40-10-65-43-65-34 0-45 26-45 65 0 36 10 65 43 65" id="ab"/><g id="a"><use transform="matrix(0.04938271604938272,0,0,0.04938271604938272,0,0)" xlink:href="#W"/><use transform="matrix(0.04938271604938272,0,0,0.04938271604938272,11.851851851851853,0)" xlink:href="#X"/><use transform="matrix(0.04938271604938272,0,0,0.04938271604938272,22.666666666666668,0)" xlink:href="#Y"/><use transform="matrix(0.04938271604938272,0,0,0.04938271604938272,32.543209876543216,0)" xlink:href="#Z"/><use transform="matrix(0.04938271604938272,0,0,0.04938271604938272,41.4320987654321,0)" xlink:href="#aa"/><use transform="matrix(0.04938271604938272,0,0,0.04938271604938272,46.370370370370374,0)" xlink:href="#ab"/></g><path fill="#333" d="M135-194c87-1 58 113 63 194h-50c-7-57 23-157-34-157-59 0-34 97-39 157H25l-1-190h47c2 12-1 28 3 38 12-26 28-41 61-42" id="ac"/><g id="b"><use transform="matrix(0.04938271604938272,0,0,0.04938271604938272,0,0)" xlink:href="#ac"/><use transform="matrix(0.04938271604938272,0,0,0.04938271604938272,10.814814814814815,0)" xlink:href="#ab"/><use transform="matrix(0.04938271604938272,0,0,0.04938271604938272,21.62962962962963,0)" xlink:href="#ac"/></g><path fill="#333" d="M88-194c31-1 46 15 58 34l-1-101h50l1 261h-48c-2-10 0-23-3-31C134-8 116 4 84 4 32 4 16-41 15-95c0-56 19-97 73-99zm17 164c33 0 40-30 41-66 1-37-9-64-41-64s-38 30-39 65c0 43 13 65 39 65" id="ad"/><path fill="#333" d="M137-138c1-29-70-34-71-4 15 46 118 7 119 86 1 83-164 76-172 9l43-7c4 19 20 25 44 25 33 8 57-30 24-41C81-84 22-81 20-136c-2-80 154-74 161-7" id="ae"/><path fill="#333" d="M135-194c52 0 70 43 70 98 0 56-19 99-73 100-30 1-46-15-58-35L72 0H24l1-261h50v104c11-23 29-37 60-37zM114-30c31 0 40-27 40-66 0-37-7-63-39-63s-41 28-41 65c0 36 8 64 40 64" id="af"/><path fill="#333" d="M25 0v-261h50V0H25" id="ag"/><path fill="#333" d="M185-48c-13 30-37 53-82 52C43 2 14-33 14-96s30-98 90-98c62 0 83 45 84 108H66c0 31 8 55 39 56 18 0 30-7 34-22zm-45-69c5-46-57-63-70-21-2 6-4 13-4 21h74" id="ah"/><g id="c"><use transform="matrix(0.04938271604938272,0,0,0.04938271604938272,0,0)" xlink:href="#ad"/><use transform="matrix(0.04938271604938272,0,0,0.04938271604938272,10.814814814814815,0)" xlink:href="#aa"/><use transform="matrix(0.04938271604938272,0,0,0.04938271604938272,15.753086419753087,0)" xlink:href="#ae"/><use transform="matrix(0.04938271604938272,0,0,0.04938271604938272,25.629629629629633,0)" xlink:href="#X"/><use transform="matrix(0.04938271604938272,0,0,0.04938271604938272,36.44444444444445,0)" xlink:href="#ab"/><use transform="matrix(0.04938271604938272,0,0,0.04938271604938272,47.25925925925927,0)" xlink:href="#ac"/><use transform="matrix(0.04938271604938272,0,0,0.04938271604938272,58.074074074074076,0)" xlink:href="#aa"/><use transform="matrix(0.04938271604938272,0,0,0.04938271604938272,63.01234567901235,0)" xlink:href="#af"/><use transform="matrix(0.04938271604938272,0,0,0.04938271604938272,73.82716049382717,0)" xlink:href="#aa"/><use transform="matrix(0.04938271604938272,0,0,0.04938271604938272,78.76543209876544,0)" xlink:href="#ag"/><use transform="matrix(0.04938271604938272,0,0,0.04938271604938272,83.70370370370372,0)" xlink:href="#ah"/></g><path fill="#333" d="M24-248c93 1 206-16 204 79-1 75-69 88-152 82V0H24v-248zm52 121c47 0 100 7 100-41 0-47-54-39-100-39v80" id="ai"/><path fill="#333" d="M135-150c-39-12-60 13-60 57V0H25l-1-190h47c2 13-1 29 3 40 6-28 27-53 61-41v41" id="aj"/><path fill="#333" d="M115-3C79 11 28 4 28-45v-112H4v-33h27l15-45h31v45h36v33H77v99c-1 23 16 31 38 25v30" id="ak"/><g id="d"><use transform="matrix(0.04938271604938272,0,0,0.04938271604938272,0,0)" xlink:href="#ai"/><use transform="matrix(0.04938271604938272,0,0,0.04938271604938272,11.851851851851853,0)" xlink:href="#aj"/><use transform="matrix(0.04938271604938272,0,0,0.04938271604938272,18.765432098765434,0)" xlink:href="#ah"/><use transform="matrix(0.04938271604938272,0,0,0.04938271604938272,28.641975308641978,0)" xlink:href="#ac"/><use transform="matrix(0.04938271604938272,0,0,0.04938271604938272,39.45679012345679,0)" xlink:href="#ab"/><use transform="matrix(0.04938271604938272,0,0,0.04938271604938272,50.27160493827161,0)" xlink:href="#ak"/><use transform="matrix(0.04938271604938272,0,0,0.04938271604938272,56.14814814814815,0)" xlink:href="#Y"/><use transform="matrix(0.04938271604938272,0,0,0.04938271604938272,66.0246913580247,0)" xlink:href="#Z"/><use transform="matrix(0.04938271604938272,0,0,0.04938271604938272,74.91358024691358,0)" xlink:href="#aa"/><use transform="matrix(0.04938271604938272,0,0,0.04938271604938272,79.85185185185185,0)" xlink:href="#ab"/><use transform="matrix(0.04938271604938272,0,0,0.04938271604938272,90.66666666666666,0)" xlink:href="#ac"/><use transform="matrix(0.04938271604938272,0,0,0.04938271604938272,101.48148148148147,0)" xlink:href="#ah"/></g><path fill="#333" d="M190-63c-7 42-38 67-86 67-59 0-84-38-90-98-12-110 154-137 174-36l-49 2c-2-19-15-32-35-32-30 0-35 28-38 64-6 74 65 87 74 30" id="al"/><g id="e"><use transform="matrix(0.04938271604938272,0,0,0.04938271604938272,0,0)" xlink:href="#aj"/><use transform="matrix(0.04938271604938272,0,0,0.04938271604938272,6.913580246913581,0)" xlink:href="#aa"/><use transform="matrix(0.04938271604938272,0,0,0.04938271604938272,11.851851851851853,0)" xlink:href="#al"/><use transform="matrix(0.04938271604938272,0,0,0.04938271604938272,21.7283950617284,0)" xlink:href="#ab"/><use transform="matrix(0.04938271604938272,0,0,0.04938271604938272,32.543209876543216,0)" xlink:href="#aj"/><use transform="matrix(0.04938271604938272,0,0,0.04938271604938272,39.4567901234568,0)" xlink:href="#aj"/><use transform="matrix(0.04938271604938272,0,0,0.04938271604938272,46.37037037037038,0)" xlink:href="#ah"/><use transform="matrix(0.04938271604938272,0,0,0.04938271604938272,56.24691358024693,0)" xlink:href="#ac"/><use transform="matrix(0.04938271604938272,0,0,0.04938271604938272,67.06172839506173,0)" xlink:href="#ak"/><use transform="matrix(0.04938271604938272,0,0,0.04938271604938272,72.93827160493828,0)" xlink:href="#ah"/></g><g id="f"><use transform="matrix(0.04938271604938272,0,0,0.04938271604938272,0,0)" xlink:href="#aj"/><use transform="matrix(0.04938271604938272,0,0,0.04938271604938272,6.913580246913581,0)" xlink:href="#aa"/><use transform="matrix(0.04938271604938272,0,0,0.04938271604938272,11.851851851851853,0)" xlink:href="#al"/><use transform="matrix(0.04938271604938272,0,0,0.04938271604938272,21.7283950617284,0)" xlink:href="#ab"/><use transform="matrix(0.04938271604938272,0,0,0.04938271604938272,32.543209876543216,0)" xlink:href="#aj"/><use transform="matrix(0.04938271604938272,0,0,0.04938271604938272,39.4567901234568,0)" xlink:href="#aj"/><use transform="matrix(0.04938271604938272,0,0,0.04938271604938272,46.37037037037038,0)" xlink:href="#ah"/><use transform="matrix(0.04938271604938272,0,0,0.04938271604938272,56.24691358024693,0)" xlink:href="#ac"/><use transform="matrix(0.04938271604938272,0,0,0.04938271604938272,67.06172839506173,0)" xlink:href="#ak"/><use transform="matrix(0.04938271604938272,0,0,0.04938271604938272,72.93827160493828,0)" xlink:href="#ah"/></g><path d="M137 0h-34L2-248h35l83 218 83-218h36" id="am"/><path d="M24-231v-30h32v30H24zM24 0v-190h32V0H24" id="an"/><path d="M135-143c-3-34-86-38-87 0 15 53 115 12 119 90S17 21 10-45l28-5c4 36 97 45 98 0-10-56-113-15-118-90-4-57 82-63 122-42 12 7 21 19 24 35" id="ao"/><path d="M84 4C-5 8 30-112 23-190h32v120c0 31 7 50 39 49 72-2 45-101 50-169h31l1 190h-30c-1-10 1-25-2-33-11 22-28 36-60 37" id="ap"/><path d="M141-36C126-15 110 5 73 4 37 3 15-17 15-53c-1-64 63-63 125-63 3-35-9-54-41-54-24 1-41 7-42 31l-33-3c5-37 33-52 76-52 45 0 72 20 72 64v82c-1 20 7 32 28 27v20c-31 9-61-2-59-35zM48-53c0 20 12 33 32 33 41-3 63-29 60-74-43 2-92-5-92 41" id="aq"/><path d="M24 0v-261h32V0H24" id="ar"/><path d="M9 0v-24l116-142H16v-24h144v24L44-24h123V0H9" id="as"/><g id="g"><use transform="matrix(0.05,0,0,0.05,0,0)" xlink:href="#am"/><use transform="matrix(0.05,0,0,0.05,11.65,0)" xlink:href="#an"/><use transform="matrix(0.05,0,0,0.05,15.600000000000001,0)" xlink:href="#ao"/><use transform="matrix(0.05,0,0,0.05,24.6,0)" xlink:href="#ap"/><use transform="matrix(0.05,0,0,0.05,34.6,0)" xlink:href="#aq"/><use transform="matrix(0.05,0,0,0.05,44.6,0)" xlink:href="#ar"/><use transform="matrix(0.05,0,0,0.05,48.550000000000004,0)" xlink:href="#an"/><use transform="matrix(0.05,0,0,0.05,52.5,0)" xlink:href="#as"/><use transform="matrix(0.05,0,0,0.05,61.5,0)" xlink:href="#as"/><use transform="matrix(0.05,0,0,0.05,70.5,0)" xlink:href="#aq"/></g><path d="M115-194c55 1 70 41 70 98S169 2 115 4C84 4 66-9 55-30l1 105H24l-1-265h31l2 30c10-21 28-34 59-34zm-8 174c40 0 45-34 45-75s-6-73-45-74c-42 0-51 32-51 76 0 43 10 73 51 73" id="at"/><g id="h"><use transform="matrix(0.05,0,0,0.05,0,0)" xlink:href="#ao"/><use transform="matrix(0.05,0,0,0.05,9,0)" xlink:href="#at"/><use transform="matrix(0.05,0,0,0.05,19,0)" xlink:href="#aq"/><use transform="matrix(0.05,0,0,0.05,29,0)" xlink:href="#as"/><use transform="matrix(0.05,0,0,0.05,38,0)" xlink:href="#an"/></g><path d="M232-93c-1 65-40 97-104 97C67 4 28-28 28-90v-158h33c8 89-33 224 67 224 102 0 64-133 71-224h33v155" id="au"/><path d="M59-47c-2 24 18 29 38 22v24C64 9 27 4 27-40v-127H5v-23h24l9-43h21v43h35v23H59v120" id="av"/><path d="M100-194c63 0 86 42 84 106H49c0 40 14 67 53 68 26 1 43-12 49-29l28 8c-11 28-37 45-77 45C44 4 14-33 15-96c1-61 26-98 85-98zm52 81c6-60-76-77-97-28-3 7-6 17-6 28h103" id="aw"/><path d="M117-194c89-4 53 116 60 194h-32v-121c0-31-8-49-39-48C34-167 62-67 57 0H25l-1-190h30c1 10-1 24 2 32 11-22 29-35 61-36" id="ax"/><g id="i"><use transform="matrix(0.05,0,0,0.05,0,0)" xlink:href="#au"/><use transform="matrix(0.05,0,0,0.05,12.950000000000001,0)" xlink:href="#av"/><use transform="matrix(0.05,0,0,0.05,17.950000000000003,0)" xlink:href="#aw"/><use transform="matrix(0.05,0,0,0.05,27.950000000000003,0)" xlink:href="#ax"/><use transform="matrix(0.05,0,0,0.05,37.95,0)" xlink:href="#av"/><use transform="matrix(0.05,0,0,0.05,42.95,0)" xlink:href="#aw"/></g><path d="M100-194c62-1 85 37 85 99 1 63-27 99-86 99S16-35 15-95c0-66 28-99 85-99zM99-20c44 1 53-31 53-75 0-43-8-75-51-75s-53 32-53 75 10 74 51 75" id="ay"/><g id="j"><use transform="matrix(0.05,0,0,0.05,0,0)" xlink:href="#ao"/><use transform="matrix(0.05,0,0,0.05,9,0)" xlink:href="#aw"/><use transform="matrix(0.05,0,0,0.05,19,0)" xlink:href="#ar"/><use transform="matrix(0.05,0,0,0.05,22.95,0)" xlink:href="#aw"/><use transform="matrix(0.05,0,0,0.05,32.95,0)" xlink:href="#as"/><use transform="matrix(0.05,0,0,0.05,41.95,0)" xlink:href="#an"/><use transform="matrix(0.05,0,0,0.05,45.900000000000006,0)" xlink:href="#ay"/><use transform="matrix(0.05,0,0,0.05,55.900000000000006,0)" xlink:href="#ax"/><use transform="matrix(0.05,0,0,0.05,65.9,0)" xlink:href="#aq"/></g><g id="k"><use transform="matrix(0.05,0,0,0.05,0,0)" xlink:href="#ao"/><use transform="matrix(0.05,0,0,0.05,9,0)" xlink:href="#at"/><use transform="matrix(0.05,0,0,0.05,19,0)" xlink:href="#aq"/><use transform="matrix(0.05,0,0,0.05,29,0)" xlink:href="#as"/><use transform="matrix(0.05,0,0,0.05,38,0)" xlink:href="#an"/></g><path d="M85-194c31 0 48 13 60 33l-1-100h32l1 261h-30c-2-10 0-23-3-31C134-8 116 4 85 4 32 4 16-35 15-94c0-66 23-100 70-100zm9 24c-40 0-46 34-46 75 0 40 6 74 45 74 42 0 51-32 51-76 0-42-9-74-50-73" id="az"/><g id="l"><use transform="matrix(0.05,0,0,0.05,0,0)" xlink:href="#az"/><use transform="matrix(0.05,0,0,0.05,10,0)" xlink:href="#aq"/></g><path d="M114-163C36-179 61-72 57 0H25l-1-190h30c1 12-1 29 2 39 6-27 23-49 58-41v29" id="aA"/><g id="m"><use transform="matrix(0.05,0,0,0.05,0,0)" xlink:href="#at"/><use transform="matrix(0.05,0,0,0.05,10,0)" xlink:href="#aA"/><use transform="matrix(0.05,0,0,0.05,15.949999999999998,0)" xlink:href="#aw"/><use transform="matrix(0.05,0,0,0.05,25.950000000000003,0)" xlink:href="#ax"/><use transform="matrix(0.05,0,0,0.05,35.95,0)" xlink:href="#ay"/><use transform="matrix(0.05,0,0,0.05,45.95,0)" xlink:href="#av"/><use transform="matrix(0.05,0,0,0.05,50.95,0)" xlink:href="#aq"/><use transform="matrix(0.05,0,0,0.05,60.95,0)" xlink:href="#aA"/><use transform="matrix(0.05,0,0,0.05,66.9,0)" xlink:href="#aw"/></g><g id="n"><use transform="matrix(0.05,0,0,0.05,0,0)" xlink:href="#ay"/><use transform="matrix(0.05,0,0,0.05,10,0)" xlink:href="#aA"/><use transform="matrix(0.05,0,0,0.05,15.949999999999998,0)" xlink:href="#aq"/><use transform="matrix(0.05,0,0,0.05,25.950000000000003,0)" xlink:href="#aA"/><use transform="matrix(0.05,0,0,0.05,31.899999999999995,0)" xlink:href="#an"/></g><g id="o"><use transform="matrix(0.05,0,0,0.05,0,0)" xlink:href="#az"/><use transform="matrix(0.05,0,0,0.05,10,0)" xlink:href="#aw"/><use transform="matrix(0.05,0,0,0.05,20,0)" xlink:href="#ar"/><use transform="matrix(0.05,0,0,0.05,23.95,0)" xlink:href="#ar"/><use transform="matrix(0.05,0,0,0.05,27.899999999999995,0)" xlink:href="#aq"/></g><g id="p"><use transform="matrix(0.05,0,0,0.05,0,0)" xlink:href="#at"/><use transform="matrix(0.05,0,0,0.05,10,0)" xlink:href="#aA"/><use transform="matrix(0.05,0,0,0.05,15.949999999999998,0)" xlink:href="#aw"/><use transform="matrix(0.05,0,0,0.05,25.950000000000003,0)" xlink:href="#ax"/><use transform="matrix(0.05,0,0,0.05,35.95,0)" xlink:href="#ay"/><use transform="matrix(0.05,0,0,0.05,45.95,0)" xlink:href="#av"/><use transform="matrix(0.05,0,0,0.05,50.95,0)" xlink:href="#aq"/><use transform="matrix(0.05,0,0,0.05,60.95,0)" xlink:href="#as"/><use transform="matrix(0.05,0,0,0.05,69.95,0)" xlink:href="#an"/><use transform="matrix(0.05,0,0,0.05,73.9,0)" xlink:href="#ay"/><use transform="matrix(0.05,0,0,0.05,83.9,0)" xlink:href="#ax"/><use transform="matrix(0.05,0,0,0.05,93.9,0)" xlink:href="#aw"/></g><path d="M33 0v-248h34V0H33" id="aB"/><g id="q"><use transform="matrix(0.05,0,0,0.05,0,0)" xlink:href="#aB"/><use transform="matrix(0.05,0,0,0.05,5,0)" xlink:href="#ax"/><use transform="matrix(0.05,0,0,0.05,15,0)" xlink:href="#ao"/><use transform="matrix(0.05,0,0,0.05,24,0)" xlink:href="#aw"/><use transform="matrix(0.05,0,0,0.05,34,0)" xlink:href="#aA"/><use transform="matrix(0.05,0,0,0.05,39.95,0)" xlink:href="#an"/><use transform="matrix(0.05,0,0,0.05,43.900000000000006,0)" xlink:href="#aA"/><use transform="matrix(0.05,0,0,0.05,49.85000000000001,0)" xlink:href="#aw"/></g><path d="M210-169c-67 3-38 105-44 169h-31v-121c0-29-5-50-35-48C34-165 62-65 56 0H25l-1-190h30c1 10-1 24 2 32 10-44 99-50 107 0 11-21 27-35 58-36 85-2 47 119 55 194h-31v-121c0-29-5-49-35-48" id="aC"/><g id="r"><use transform="matrix(0.05,0,0,0.05,0,0)" xlink:href="#ax"/><use transform="matrix(0.05,0,0,0.05,10,0)" xlink:href="#ap"/><use transform="matrix(0.05,0,0,0.05,20,0)" xlink:href="#aC"/><use transform="matrix(0.05,0,0,0.05,34.95,0)" xlink:href="#aw"/><use transform="matrix(0.05,0,0,0.05,44.95,0)" xlink:href="#aA"/><use transform="matrix(0.05,0,0,0.05,50.900000000000006,0)" xlink:href="#ay"/></g><path d="M96-169c-40 0-48 33-48 73s9 75 48 75c24 0 41-14 43-38l32 2c-6 37-31 61-74 61-59 0-76-41-82-99-10-93 101-131 147-64 4 7 5 14 7 22l-32 3c-4-21-16-35-41-35" id="aD"/><g id="s"><use transform="matrix(0.05,0,0,0.05,0,0)" xlink:href="#aA"/><use transform="matrix(0.05,0,0,0.05,5.95,0)" xlink:href="#an"/><use transform="matrix(0.05,0,0,0.05,9.9,0)" xlink:href="#aD"/><use transform="matrix(0.05,0,0,0.05,18.9,0)" xlink:href="#ay"/><use transform="matrix(0.05,0,0,0.05,28.899999999999995,0)" xlink:href="#aA"/><use transform="matrix(0.05,0,0,0.05,34.85,0)" xlink:href="#aA"/><use transform="matrix(0.05,0,0,0.05,40.800000000000004,0)" xlink:href="#aw"/><use transform="matrix(0.05,0,0,0.05,50.800000000000004,0)" xlink:href="#ax"/><use transform="matrix(0.05,0,0,0.05,60.800000000000004,0)" xlink:href="#as"/><use transform="matrix(0.05,0,0,0.05,69.80000000000001,0)" xlink:href="#aw"/></g><use transform="matrix(0.05,0,0,0.05,0,0)" xlink:href="#aw" id="t"/><path d="M101-234c-31-9-42 10-38 44h38v23H63V0H32v-167H5v-23h27c-7-52 17-82 69-68v24" id="aE"/><path d="M145-31C134-9 116 4 85 4 32 4 16-35 15-94c0-59 17-99 70-100 32-1 48 14 60 33 0-11-1-24 2-32h30l-1 268h-32zM93-21c41 0 51-33 51-76s-8-73-50-73c-40 0-46 35-46 75s5 74 45 74" id="aF"/><g id="u"><use transform="matrix(0.05,0,0,0.05,0,0)" xlink:href="#aE"/><use transform="matrix(0.05,0,0,0.05,5,0)" xlink:href="#aA"/><use transform="matrix(0.05,0,0,0.05,10.95,0)" xlink:href="#aw"/><use transform="matrix(0.05,0,0,0.05,20.95,0)" xlink:href="#aF"/><use transform="matrix(0.05,0,0,0.05,30.950000000000003,0)" xlink:href="#ap"/><use transform="matrix(0.05,0,0,0.05,40.95,0)" xlink:href="#aw"/><use transform="matrix(0.05,0,0,0.05,50.95,0)" xlink:href="#ax"/><use transform="matrix(0.05,0,0,0.05,60.95,0)" xlink:href="#as"/><use transform="matrix(0.05,0,0,0.05,69.95,0)" xlink:href="#aq"/></g><path d="M185-189c-5-48-123-54-124 2 14 75 158 14 163 119 3 78-121 87-175 55-17-10-28-26-33-46l33-7c5 56 141 63 141-1 0-78-155-14-162-118-5-82 145-84 179-34 5 7 8 16 11 25" id="aG"/><g id="v"><use transform="matrix(0.05,0,0,0.05,0,0)" xlink:href="#aG"/><use transform="matrix(0.05,0,0,0.05,12,0)" xlink:href="#aw"/><use transform="matrix(0.05,0,0,0.05,22,0)" xlink:href="#ar"/><use transform="matrix(0.05,0,0,0.05,25.950000000000003,0)" xlink:href="#aw"/><use transform="matrix(0.05,0,0,0.05,35.95,0)" xlink:href="#as"/><use transform="matrix(0.05,0,0,0.05,44.95,0)" xlink:href="#an"/><use transform="matrix(0.05,0,0,0.05,48.900000000000006,0)" xlink:href="#ay"/><use transform="matrix(0.05,0,0,0.05,58.900000000000006,0)" xlink:href="#ax"/><use transform="matrix(0.05,0,0,0.05,68.9,0)" xlink:href="#aq"/></g><path d="M108 0H70L1-190h34L89-25l56-165h34" id="aH"/><g id="w"><use transform="matrix(0.05,0,0,0.05,0,0)" xlink:href="#ao"/><use transform="matrix(0.05,0,0,0.05,9,0)" xlink:href="#aw"/><use transform="matrix(0.05,0,0,0.05,19,0)" xlink:href="#aA"/><use transform="matrix(0.05,0,0,0.05,24.95,0)" xlink:href="#aH"/><use transform="matrix(0.05,0,0,0.05,33.95,0)" xlink:href="#an"/><use transform="matrix(0.05,0,0,0.05,37.900000000000006,0)" xlink:href="#as"/><use transform="matrix(0.05,0,0,0.05,46.900000000000006,0)" xlink:href="#an"/></g><path d="M177-190C167-65 218 103 67 71c-23-6-38-20-44-43l32-5c15 47 100 32 89-28v-30C133-14 115 1 83 1 29 1 15-40 15-95c0-56 16-97 71-98 29-1 48 16 59 35 1-10 0-23 2-32h30zM94-22c36 0 50-32 50-73 0-42-14-75-50-75-39 0-46 34-46 75s6 73 46 73" id="aI"/><g id="x"><use transform="matrix(0.05,0,0,0.05,0,0)" xlink:href="#aq"/><use transform="matrix(0.05,0,0,0.05,10,0)" xlink:href="#aI"/><use transform="matrix(0.05,0,0,0.05,20,0)" xlink:href="#aI"/><use transform="matrix(0.05,0,0,0.05,30,0)" xlink:href="#an"/><use transform="matrix(0.05,0,0,0.05,33.95,0)" xlink:href="#ap"/><use transform="matrix(0.05,0,0,0.05,43.95,0)" xlink:href="#ax"/><use transform="matrix(0.05,0,0,0.05,53.95,0)" xlink:href="#av"/><use transform="matrix(0.05,0,0,0.05,58.95,0)" xlink:href="#an"/><use transform="matrix(0.05,0,0,0.05,62.900000000000006,0)" xlink:href="#aH"/><use transform="matrix(0.05,0,0,0.05,71.9,0)" xlink:href="#an"/></g><path d="M190 0L58-211 59 0H30v-248h39L202-35l-2-213h31V0h-41" id="aJ"/><g id="y"><use transform="matrix(0.05,0,0,0.05,0,0)" xlink:href="#aJ"/><use transform="matrix(0.05,0,0,0.05,12.950000000000001,0)" xlink:href="#ap"/><use transform="matrix(0.05,0,0,0.05,22.950000000000003,0)" xlink:href="#ay"/><use transform="matrix(0.05,0,0,0.05,32.95,0)" xlink:href="#aH"/><use transform="matrix(0.05,0,0,0.05,41.95,0)" xlink:href="#aq"/></g><path d="M106-169C34-169 62-67 57 0H25v-261h32l-1 103c12-21 28-36 61-36 89 0 53 116 60 194h-32v-121c2-32-8-49-39-48" id="aK"/><g id="z"><use transform="matrix(0.05,0,0,0.05,0,0)" xlink:href="#aA"/><use transform="matrix(0.05,0,0,0.05,5.95,0)" xlink:href="#an"/><use transform="matrix(0.05,0,0,0.05,9.9,0)" xlink:href="#aD"/><use transform="matrix(0.05,0,0,0.05,18.9,0)" xlink:href="#aK"/><use transform="matrix(0.05,0,0,0.05,28.899999999999995,0)" xlink:href="#an"/><use transform="matrix(0.05,0,0,0.05,32.85,0)" xlink:href="#aw"/><use transform="matrix(0.05,0,0,0.05,42.85,0)" xlink:href="#ao"/><use transform="matrix(0.05,0,0,0.05,51.85,0)" xlink:href="#av"/><use transform="matrix(0.05,0,0,0.05,56.85,0)" xlink:href="#aq"/></g><g id="A"><use transform="matrix(0.05,0,0,0.05,0,0)" xlink:href="#at"/><use transform="matrix(0.05,0,0,0.05,10,0)" xlink:href="#aw"/><use transform="matrix(0.05,0,0,0.05,20,0)" xlink:href="#aA"/></g><g id="B"><use transform="matrix(0.05,0,0,0.05,0,0)" xlink:href="#aw"/><use transform="matrix(0.05,0,0,0.05,10,0)" xlink:href="#aH"/><use transform="matrix(0.05,0,0,0.05,19,0)" xlink:href="#aw"/><use transform="matrix(0.05,0,0,0.05,29,0)" xlink:href="#ax"/><use transform="matrix(0.05,0,0,0.05,39,0)" xlink:href="#av"/><use transform="matrix(0.05,0,0,0.05,44,0)" xlink:href="#ay"/></g><path d="M115-194c53 0 69 39 70 98 0 66-23 100-70 100C84 3 66-7 56-30L54 0H23l1-261h32v101c10-23 28-34 59-34zm-8 174c40 0 45-34 45-75 0-40-5-75-45-74-42 0-51 32-51 76 0 43 10 73 51 73" id="aL"/><g id="C"><use transform="matrix(0.05,0,0,0.05,0,0)" xlink:href="#at"/><use transform="matrix(0.05,0,0,0.05,10,0)" xlink:href="#ap"/><use transform="matrix(0.05,0,0,0.05,20,0)" xlink:href="#aL"/><use transform="matrix(0.05,0,0,0.05,30,0)" xlink:href="#aL"/><use transform="matrix(0.05,0,0,0.05,40,0)" xlink:href="#ar"/><use transform="matrix(0.05,0,0,0.05,43.95,0)" xlink:href="#an"/><use transform="matrix(0.05,0,0,0.05,47.900000000000006,0)" xlink:href="#aD"/><use transform="matrix(0.05,0,0,0.05,56.900000000000006,0)" xlink:href="#ay"/></g><path d="M212-179c-10-28-35-45-73-45-59 0-87 40-87 99 0 60 29 101 89 101 43 0 62-24 78-52l27 14C228-24 195 4 139 4 59 4 22-46 18-125c-6-104 99-153 187-111 19 9 31 26 39 46" id="aM"/><g id="D"><use transform="matrix(0.05,0,0,0.05,0,0)" xlink:href="#aM"/><use transform="matrix(0.05,0,0,0.05,12.950000000000001,0)" xlink:href="#ay"/><use transform="matrix(0.05,0,0,0.05,22.950000000000003,0)" xlink:href="#ax"/><use transform="matrix(0.05,0,0,0.05,32.95,0)" xlink:href="#aE"/><use transform="matrix(0.05,0,0,0.05,37.95,0)" xlink:href="#aw"/><use transform="matrix(0.05,0,0,0.05,47.95,0)" xlink:href="#aA"/><use transform="matrix(0.05,0,0,0.05,53.900000000000006,0)" xlink:href="#aC"/><use transform="matrix(0.05,0,0,0.05,68.85000000000001,0)" xlink:href="#aq"/></g><g id="E"><use transform="matrix(0.05,0,0,0.05,0,0)" xlink:href="#aG"/><use transform="matrix(0.05,0,0,0.05,12,0)" xlink:href="#aw"/><use transform="matrix(0.05,0,0,0.05,22,0)" xlink:href="#aI"/><use transform="matrix(0.05,0,0,0.05,32,0)" xlink:href="#aA"/><use transform="matrix(0.05,0,0,0.05,37.95,0)" xlink:href="#aw"/><use transform="matrix(0.05,0,0,0.05,47.95,0)" xlink:href="#av"/><use transform="matrix(0.05,0,0,0.05,52.95,0)" xlink:href="#aw"/><use transform="matrix(0.05,0,0,0.05,62.95,0)" xlink:href="#aA"/><use transform="matrix(0.05,0,0,0.05,68.9,0)" xlink:href="#an"/><use transform="matrix(0.05,0,0,0.05,72.85000000000001,0)" xlink:href="#aq"/></g><g id="F"><use transform="matrix(0.05,0,0,0.05,0,0)" xlink:href="#aH"/><use transform="matrix(0.05,0,0,0.05,9,0)" xlink:href="#aq"/><use transform="matrix(0.05,0,0,0.05,19,0)" xlink:href="#ar"/><use transform="matrix(0.05,0,0,0.05,22.95,0)" xlink:href="#an"/><use transform="matrix(0.05,0,0,0.05,26.899999999999995,0)" xlink:href="#az"/><use transform="matrix(0.05,0,0,0.05,36.9,0)" xlink:href="#aq"/></g><path d="M240 0l2-218c-23 76-54 145-80 218h-23L58-218 59 0H30v-248h44l77 211c21-75 51-140 76-211h43V0h-30" id="aN"/><g id="G"><use transform="matrix(0.05,0,0,0.05,0,0)" xlink:href="#aN"/><use transform="matrix(0.05,0,0,0.05,14.950000000000001,0)" xlink:href="#ay"/><use transform="matrix(0.05,0,0,0.05,24.950000000000003,0)" xlink:href="#az"/><use transform="matrix(0.05,0,0,0.05,34.95,0)" xlink:href="#an"/><use transform="matrix(0.05,0,0,0.05,38.900000000000006,0)" xlink:href="#aE"/><use transform="matrix(0.05,0,0,0.05,43.900000000000006,0)" xlink:href="#an"/><use transform="matrix(0.05,0,0,0.05,47.85000000000001,0)" xlink:href="#aD"/><use transform="matrix(0.05,0,0,0.05,56.85,0)" xlink:href="#aq"/></g><g id="H"><use transform="matrix(0.05,0,0,0.05,0,0)" xlink:href="#aA"/><use transform="matrix(0.05,0,0,0.05,5.95,0)" xlink:href="#an"/><use transform="matrix(0.05,0,0,0.05,9.9,0)" xlink:href="#aD"/><use transform="matrix(0.05,0,0,0.05,18.9,0)" xlink:href="#aK"/><use transform="matrix(0.05,0,0,0.05,28.899999999999995,0)" xlink:href="#an"/><use transform="matrix(0.05,0,0,0.05,32.85,0)" xlink:href="#aw"/><use transform="matrix(0.05,0,0,0.05,42.85,0)" xlink:href="#ao"/><use transform="matrix(0.05,0,0,0.05,51.85,0)" xlink:href="#av"/><use transform="matrix(0.05,0,0,0.05,56.85,0)" xlink:href="#aq"/></g><g id="I"><use transform="matrix(0.04938271604938272,0,0,0.04938271604938272,0,0)" xlink:href="#ai"/><use transform="matrix(0.04938271604938272,0,0,0.04938271604938272,11.851851851851853,0)" xlink:href="#aj"/><use transform="matrix(0.04938271604938272,0,0,0.04938271604938272,18.765432098765434,0)" xlink:href="#ah"/><use transform="matrix(0.04938271604938272,0,0,0.04938271604938272,28.641975308641978,0)" xlink:href="#ac"/><use transform="matrix(0.04938271604938272,0,0,0.04938271604938272,39.45679012345679,0)" xlink:href="#ab"/><use transform="matrix(0.04938271604938272,0,0,0.04938271604938272,50.27160493827161,0)" xlink:href="#ak"/><use transform="matrix(0.04938271604938272,0,0,0.04938271604938272,56.14814814814815,0)" xlink:href="#Y"/><use transform="matrix(0.04938271604938272,0,0,0.04938271604938272,66.0246913580247,0)" xlink:href="#Z"/><use transform="matrix(0.04938271604938272,0,0,0.04938271604938272,74.91358024691358,0)" xlink:href="#aa"/><use transform="matrix(0.04938271604938272,0,0,0.04938271604938272,79.85185185185185,0)" xlink:href="#ab"/><use transform="matrix(0.04938271604938272,0,0,0.04938271604938272,90.66666666666666,0)" xlink:href="#ac"/><use transform="matrix(0.04938271604938272,0,0,0.04938271604938272,101.48148148148147,0)" xlink:href="#ah"/></g><path fill="#333" d="M220-157c-53 9-28 100-34 157h-49v-107c1-27-5-49-29-50C55-147 81-57 75 0H25l-1-190h47c2 12-1 28 3 38 10-53 101-56 108 0 13-22 24-43 59-42 82 1 51 116 57 194h-49v-107c-1-25-5-48-29-50" id="aO"/><g id="J"><use transform="matrix(0.04938271604938272,0,0,0.04938271604938272,0,0)" xlink:href="#ae"/><use transform="matrix(0.04938271604938272,0,0,0.04938271604938272,9.876543209876544,0)" xlink:href="#ah"/><use transform="matrix(0.04938271604938272,0,0,0.04938271604938272,19.75308641975309,0)" xlink:href="#aO"/><use transform="matrix(0.04938271604938272,0,0,0.04938271604938272,35.55555555555556,0)" xlink:href="#X"/><use transform="matrix(0.04938271604938272,0,0,0.04938271604938272,46.370370370370374,0)" xlink:href="#ag"/><use transform="matrix(0.04938271604938272,0,0,0.04938271604938272,51.308641975308646,0)" xlink:href="#aa"/><use transform="matrix(0.04938271604938272,0,0,0.04938271604938272,56.24691358024692,0)" xlink:href="#al"/><use transform="matrix(0.04938271604938272,0,0,0.04938271604938272,66.12345679012347,0)" xlink:href="#ah"/></g><g id="K"><use transform="matrix(0.04938271604938272,0,0,0.04938271604938272,0,0)" xlink:href="#al"/><use transform="matrix(0.04938271604938272,0,0,0.04938271604938272,9.876543209876544,0)" xlink:href="#ab"/><use transform="matrix(0.04938271604938272,0,0,0.04938271604938272,20.69135802469136,0)" xlink:href="#ac"/></g><path fill="#333" d="M128 0H69L1-190h53L99-40l48-150h52" id="aP"/><g id="L"><use transform="matrix(0.04938271604938272,0,0,0.04938271604938272,0,0)" xlink:href="#ah"/><use transform="matrix(0.04938271604938272,0,0,0.04938271604938272,9.876543209876544,0)" xlink:href="#aP"/><use transform="matrix(0.04938271604938272,0,0,0.04938271604938272,19.75308641975309,0)" xlink:href="#ah"/><use transform="matrix(0.04938271604938272,0,0,0.04938271604938272,29.629629629629633,0)" xlink:href="#ac"/><use transform="matrix(0.04938271604938272,0,0,0.04938271604938272,40.44444444444445,0)" xlink:href="#ak"/><use transform="matrix(0.04938271604938272,0,0,0.04938271604938272,46.320987654320994,0)" xlink:href="#ab"/></g><path fill="#333" d="M85 4C-2 5 27-109 22-190h50c7 57-23 150 33 157 60-5 35-97 40-157h50l1 190h-47c-2-12 1-28-3-38-12 25-28 42-61 42" id="aQ"/><g id="M"><use transform="matrix(0.04938271604938272,0,0,0.04938271604938272,0,0)" xlink:href="#X"/><use transform="matrix(0.04938271604938272,0,0,0.04938271604938272,10.814814814814815,0)" xlink:href="#aQ"/><use transform="matrix(0.04938271604938272,0,0,0.04938271604938272,21.62962962962963,0)" xlink:href="#af"/><use transform="matrix(0.04938271604938272,0,0,0.04938271604938272,32.44444444444444,0)" xlink:href="#af"/><use transform="matrix(0.04938271604938272,0,0,0.04938271604938272,43.25925925925926,0)" xlink:href="#ag"/><use transform="matrix(0.04938271604938272,0,0,0.04938271604938272,48.19753086419753,0)" xlink:href="#aa"/><use transform="matrix(0.04938271604938272,0,0,0.04938271604938272,53.135802469135804,0)" xlink:href="#al"/><use transform="matrix(0.04938271604938272,0,0,0.04938271604938272,63.01234567901235,0)" xlink:href="#ab"/></g><path fill="#333" d="M195-6C206 82 75 100 31 46c-4-6-6-13-8-21l49-6c3 16 16 24 34 25 40 0 42-37 40-79-11 22-30 35-61 35-53 0-70-43-70-97 0-56 18-96 73-97 30 0 46 14 59 34l2-30h47zm-90-29c32 0 41-27 41-63 0-35-9-62-40-62-32 0-39 29-40 63 0 36 9 62 39 62" id="aR"/><g id="N"><use transform="matrix(0.04938271604938272,0,0,0.04938271604938272,0,0)" xlink:href="#W"/><use transform="matrix(0.04938271604938272,0,0,0.04938271604938272,11.851851851851853,0)" xlink:href="#ah"/><use transform="matrix(0.04938271604938272,0,0,0.04938271604938272,21.7283950617284,0)" xlink:href="#aR"/><use transform="matrix(0.04938271604938272,0,0,0.04938271604938272,32.543209876543216,0)" xlink:href="#aj"/><use transform="matrix(0.04938271604938272,0,0,0.04938271604938272,39.4567901234568,0)" xlink:href="#ah"/><use transform="matrix(0.04938271604938272,0,0,0.04938271604938272,49.33333333333334,0)" xlink:href="#ak"/><use transform="matrix(0.04938271604938272,0,0,0.04938271604938272,55.209876543209894,0)" xlink:href="#ah"/><use transform="matrix(0.04938271604938272,0,0,0.04938271604938272,65.08641975308643,0)" xlink:href="#aj"/><use transform="matrix(0.04938271604938272,0,0,0.04938271604938272,72.00000000000001,0)" xlink:href="#aa"/><use transform="matrix(0.04938271604938272,0,0,0.04938271604938272,76.93827160493828,0)" xlink:href="#Y"/></g><path fill="#333" d="M121-226c-27-7-43 5-38 36h38v33H83V0H34v-157H6v-33h28c-9-59 32-81 87-68v32" id="aS"/><g id="O"><use transform="matrix(0.04938271604938272,0,0,0.04938271604938272,0,0)" xlink:href="#aj"/><use transform="matrix(0.04938271604938272,0,0,0.04938271604938272,6.913580246913581,0)" xlink:href="#aa"/><use transform="matrix(0.04938271604938272,0,0,0.04938271604938272,11.851851851851853,0)" xlink:href="#aS"/><use transform="matrix(0.04938271604938272,0,0,0.04938271604938272,17.728395061728396,0)" xlink:href="#aa"/><use transform="matrix(0.04938271604938272,0,0,0.04938271604938272,22.666666666666668,0)" xlink:href="#aQ"/><use transform="matrix(0.04938271604938272,0,0,0.04938271604938272,33.48148148148148,0)" xlink:href="#ak"/><use transform="matrix(0.04938271604938272,0,0,0.04938271604938272,39.358024691358025,0)" xlink:href="#Y"/></g><g id="P"><use transform="matrix(0.04938271604938272,0,0,0.04938271604938272,0,0)" xlink:href="#ah"/><use transform="matrix(0.04938271604938272,0,0,0.04938271604938272,9.876543209876544,0)" xlink:href="#aP"/><use transform="matrix(0.04938271604938272,0,0,0.04938271604938272,19.75308641975309,0)" xlink:href="#ah"/><use transform="matrix(0.04938271604938272,0,0,0.04938271604938272,29.629629629629633,0)" xlink:href="#ac"/><use transform="matrix(0.04938271604938272,0,0,0.04938271604938272,40.44444444444445,0)" xlink:href="#ak"/><use transform="matrix(0.04938271604938272,0,0,0.04938271604938272,46.320987654320994,0)" xlink:href="#ab"/></g><g id="Q"><use transform="matrix(0.04938271604938272,0,0,0.04938271604938272,0,0)" xlink:href="#ad"/><use transform="matrix(0.04938271604938272,0,0,0.04938271604938272,10.814814814814815,0)" xlink:href="#aa"/><use transform="matrix(0.04938271604938272,0,0,0.04938271604938272,15.753086419753087,0)" xlink:href="#ae"/><use transform="matrix(0.04938271604938272,0,0,0.04938271604938272,25.629629629629633,0)" xlink:href="#X"/><use transform="matrix(0.04938271604938272,0,0,0.04938271604938272,36.44444444444445,0)" xlink:href="#ab"/><use transform="matrix(0.04938271604938272,0,0,0.04938271604938272,47.25925925925927,0)" xlink:href="#ac"/><use transform="matrix(0.04938271604938272,0,0,0.04938271604938272,58.074074074074076,0)" xlink:href="#aa"/><use transform="matrix(0.04938271604938272,0,0,0.04938271604938272,63.01234567901235,0)" xlink:href="#af"/><use transform="matrix(0.04938271604938272,0,0,0.04938271604938272,73.82716049382717,0)" xlink:href="#aa"/><use transform="matrix(0.04938271604938272,0,0,0.04938271604938272,78.76543209876544,0)" xlink:href="#ag"/><use transform="matrix(0.04938271604938272,0,0,0.04938271604938272,83.70370370370372,0)" xlink:href="#ah"/></g><g id="R"><use transform="matrix(0.04938271604938272,0,0,0.04938271604938272,0,0)" xlink:href="#ac"/><use transform="matrix(0.04938271604938272,0,0,0.04938271604938272,10.814814814814815,0)" xlink:href="#ah"/><use transform="matrix(0.04938271604938272,0,0,0.04938271604938272,20.69135802469136,0)" xlink:href="#ag"/><use transform="matrix(0.04938271604938272,0,0,0.04938271604938272,25.629629629629633,0)" xlink:href="#ag"/><use transform="matrix(0.04938271604938272,0,0,0.04938271604938272,30.567901234567906,0)" xlink:href="#ah"/></g><g id="S"><use transform="matrix(0.04938271604938272,0,0,0.04938271604938272,0,0)" xlink:href="#ad"/><use transform="matrix(0.04938271604938272,0,0,0.04938271604938272,10.814814814814815,0)" xlink:href="#Y"/><use transform="matrix(0.04938271604938272,0,0,0.04938271604938272,20.69135802469136,0)" xlink:href="#ak"/><use transform="matrix(0.04938271604938272,0,0,0.04938271604938272,26.567901234567902,0)" xlink:href="#ah"/></g><g id="T"><use transform="matrix(0.04938271604938272,0,0,0.04938271604938272,0,0)" xlink:href="#aa"/><use transform="matrix(0.04938271604938272,0,0,0.04938271604938272,4.938271604938272,0)" xlink:href="#ac"/><use transform="matrix(0.04938271604938272,0,0,0.04938271604938272,15.753086419753087,0)" xlink:href="#ad"/><use transform="matrix(0.04938271604938272,0,0,0.04938271604938272,26.567901234567902,0)" xlink:href="#aa"/><use transform="matrix(0.04938271604938272,0,0,0.04938271604938272,31.506172839506174,0)" xlink:href="#al"/><use transform="matrix(0.04938271604938272,0,0,0.04938271604938272,41.38271604938272,0)" xlink:href="#Y"/><use transform="matrix(0.04938271604938272,0,0,0.04938271604938272,51.25925925925927,0)" xlink:href="#ak"/><use transform="matrix(0.04938271604938272,0,0,0.04938271604938272,57.135802469135804,0)" xlink:href="#ah"/></g><g id="U"><use transform="matrix(0.04938271604938272,0,0,0.04938271604938272,0,0)" xlink:href="#ac"/><use transform="matrix(0.04938271604938272,0,0,0.04938271604938272,10.814814814814815,0)" xlink:href="#ab"/><use transform="matrix(0.04938271604938272,0,0,0.04938271604938272,21.62962962962963,0)" xlink:href="#ac"/></g><g id="V"><use transform="matrix(0.04938271604938272,0,0,0.04938271604938272,0,0)" xlink:href="#ad"/><use transform="matrix(0.04938271604938272,0,0,0.04938271604938272,10.814814814814815,0)" xlink:href="#aa"/><use transform="matrix(0.04938271604938272,0,0,0.04938271604938272,15.753086419753087,0)" xlink:href="#ae"/><use transform="matrix(0.04938271604938272,0,0,0.04938271604938272,25.629629629629633,0)" xlink:href="#X"/><use transform="matrix(0.04938271604938272,0,0,0.04938271604938272,36.44444444444445,0)" xlink:href="#ab"/><use transform="matrix(0.04938271604938272,0,0,0.04938271604938272,47.25925925925927,0)" xlink:href="#ac"/><use transform="matrix(0.04938271604938272,0,0,0.04938271604938272,58.074074074074076,0)" xlink:href="#aa"/><use transform="matrix(0.04938271604938272,0,0,0.04938271604938272,63.01234567901235,0)" xlink:href="#af"/><use transform="matrix(0.04938271604938272,0,0,0.04938271604938272,73.82716049382717,0)" xlink:href="#aa"/><use transform="matrix(0.04938271604938272,0,0,0.04938271604938272,78.76543209876544,0)" xlink:href="#ag"/><use transform="matrix(0.04938271604938272,0,0,0.04938271604938272,83.70370370370372,0)" xlink:href="#ah"/></g></defs></g></svg>