<svg xmlns="http://www.w3.org/2000/svg" xmlns:xlink="http://www.w3.org/1999/xlink" xmlns:lucid="lucid" width="760.45" height="600"><g transform="translate(-3399.5507211212735 -3160)" lucid:page-tab-id="6uVdhBcGkP_R"><path d="M1258.84 0h8875.84v7291.47H1258.83z" fill="#fff"/><path d="M3680.27 3486a6 6 0 0 1 6-6h188a6 6 0 0 1 6 6v238a6 6 0 0 1-6 6h-188a6 6 0 0 1-6-6z" stroke="#000" fill="#fff"/><path d="M3680.27 3517.6h200" stroke="#000" fill="none"/><use xlink:href="#a" transform="matrix(1,0,0,1,3688.2734878316,3488) translate(63.05 14.6)"/><use xlink:href="#b" transform="matrix(1,0,0,1,3692.2734878316,3525.6) translate(0 27.388888888888893)"/><use xlink:href="#c" transform="matrix(1,0,0,1,3692.2734878316,3525.6) translate(10.814814814814813 27.388888888888893)"/><use xlink:href="#d" transform="matrix(1,0,0,1,3692.2734878316,3525.6) translate(44.34567901234567 27.388888888888893)"/><use xlink:href="#b" transform="matrix(1,0,0,1,3692.2734878316,3525.6) translate(0 48.72222222222222)"/><use xlink:href="#e" transform="matrix(1,0,0,1,3692.2734878316,3525.6) translate(10.814814814814813 48.72222222222222)"/><use xlink:href="#d" transform="matrix(1,0,0,1,3692.2734878316,3525.6) translate(65.0864197530864 48.72222222222222)"/><use xlink:href="#b" transform="matrix(1,0,0,1,3692.2734878316,3525.6) translate(0 70.05555555555556)"/><use xlink:href="#f" transform="matrix(1,0,0,1,3692.2734878316,3525.6) translate(10.814814814814813 70.05555555555556)"/><use xlink:href="#d" transform="matrix(1,0,0,1,3692.2734878316,3525.6) translate(110.41975308641972 70.05555555555556)"/><use xlink:href="#b" transform="matrix(1,0,0,1,3692.2734878316,3525.6) translate(0 91.38888888888889)"/><use xlink:href="#g" transform="matrix(1,0,0,1,3692.2734878316,3525.6) translate(10.814814814814813 91.38888888888889)"/><use xlink:href="#h" transform="matrix(1,0,0,1,3692.2734878316,3525.6) translate(86.71604938271601 91.38888888888889)"/><use xlink:href="#b" transform="matrix(1,0,0,1,3692.2734878316,3525.6) translate(0 112.72222222222223)"/><use xlink:href="#i" transform="matrix(1,0,0,1,3692.2734878316,3525.6) translate(10.814814814814813 112.72222222222223)"/><use xlink:href="#j" transform="matrix(1,0,0,1,3692.2734878316,3525.6) translate(129.13580246913574 112.72222222222223)"/><use xlink:href="#b" transform="matrix(1,0,0,1,3692.2734878316,3525.6) translate(0 134.05555555555554)"/><use xlink:href="#k" transform="matrix(1,0,0,1,3692.2734878316,3525.6) translate(10.814814814814813 134.05555555555554)"/><use xlink:href="#j" transform="matrix(1,0,0,1,3692.2734878316,3525.6) translate(103.55555555555551 134.05555555555554)"/><use xlink:href="#b" transform="matrix(1,0,0,1,3692.2734878316,3525.6) translate(0 155.38888888888889)"/><use xlink:href="#l" transform="matrix(1,0,0,1,3692.2734878316,3525.6) translate(10.814814814814813 155.38888888888889)"/><use xlink:href="#d" transform="matrix(1,0,0,1,3692.2734878316,3525.6) translate(85.77777777777774 155.38888888888889)"/><use xlink:href="#b" transform="matrix(1,0,0,1,3692.2734878316,3525.6) translate(0 176.72222222222223)"/><use xlink:href="#m" transform="matrix(1,0,0,1,3692.2734878316,3525.6) translate(10.814814814814813 176.72222222222223)"/><use xlink:href="#n" transform="matrix(1,0,0,1,3692.2734878316,3525.6) translate(70.91358024691357 176.72222222222223)"/><use xlink:href="#o" transform="matrix(1,0,0,1,3692.2734878316,3525.6) translate(143.85185185185182 176.72222222222223)"/><path d="M3780.27 3479v-52.9a6 6 0 0 0-6-6h-78.94a6 6 0 0 1-6-6v-52.92" stroke="#000" fill="none"/><path d="M3780.77 3479.5h-1v-.5h1zM3689.83 3361.2h-1v-.97l.5.45.5-.45z" stroke="#000" stroke-width=".05"/><use xlink:href="#p" transform="matrix(1,0,0,1,3788.2734878316,3454.666666666667) translate(0 14.222222222222223)"/><use xlink:href="#q" transform="matrix(1,0,0,1,3717.8860504747045,3394.754300767844) translate(0 14.222222222222223)"/><use xlink:href="#r" transform="matrix(1,0,0,1,3717.8860504747045,3394.754300767844) translate(34.567901234567906 14.222222222222223)"/><use xlink:href="#s" transform="matrix(1,0,0,1,3717.8860504747045,3394.754300767844) translate(45.38271604938272 14.222222222222223)"/><path d="M3459.33 3486.27a6 6 0 0 1 6-6h168a6 6 0 0 1 6 6v110a6 6 0 0 1-6 6h-168a6 6 0 0 1-6-6z" stroke="#000" fill="#fff"/><path d="M3459.33 3517.87h180" stroke="#000" fill="none"/><use xlink:href="#t" transform="matrix(1,0,0,1,3467.3289679792347,3488.273471989971) translate(37.55 14.6)"/><use xlink:href="#u" transform="matrix(1,0,0,1,3467.3289679792347,3488.273471989971) translate(96.5 14.6)"/><use xlink:href="#b" transform="matrix(1,0,0,1,3471.3289679792347,3525.8734719899708) translate(0 27.388888888888886)"/><use xlink:href="#v" transform="matrix(1,0,0,1,3471.3289679792347,3525.8734719899708) translate(10.814814814814813 27.388888888888886)"/><use xlink:href="#h" transform="matrix(1,0,0,1,3471.3289679792347,3525.8734719899708) translate(59.20987654320987 27.388888888888886)"/><use xlink:href="#b" transform="matrix(1,0,0,1,3471.3289679792347,3525.8734719899708) translate(0 48.72222222222222)"/><use xlink:href="#w" transform="matrix(1,0,0,1,3471.3289679792347,3525.8734719899708) translate(10.814814814814813 48.72222222222222)"/><use xlink:href="#x" transform="matrix(1,0,0,1,3471.3289679792347,3525.8734719899708) translate(92.7407407407407 48.72222222222222)"/><path d="M3568.88 3479.27h-1v-15.94h1zm80.95-65.03l-.08 1-.24 1-.38.94-.53.87-.67.77-.78.66-.87.54-.94.4-1 .23-1 .07h-68.94l-.88.07-.84.2-.8.32-.73.46-.65.56-.56.65-.45.73-.34.8-.2.83-.08.88V3442h-1v-15.8l.08-1 .24-.98.4-.95.53-.87.66-.77.76-.66.87-.54.95-.4 1-.23.98-.08h68.95l.9-.06.83-.2.8-.34.73-.45.66-.56.56-.64.45-.74.33-.8.2-.84.07-.88v-53.02h1z" stroke="#000" stroke-width=".05"/><path d="M3568.88 3479.77h-1v-.5h1z"/><path d="M3568.9 3479.8h-1.04v-.56h1.05zm-1-.5v.45h.96v-.46z" stroke="#000" stroke-width=".05"/><path d="M3649.83 3361.2h-1v-.97l.5.45.5-.45z"/><path d="M3649.85 3361.2h-1.05v-1.03l.53.47.52-.47zm-.52-.5l-.48-.42v.88h.95v-.88z" stroke="#000" stroke-width=".05"/><g><use xlink:href="#y" transform="matrix(1,0,0,1,3503.9153123244,3442) translate(0 14.222222222222223)"/><use xlink:href="#r" transform="matrix(1,0,0,1,3503.9153123244,3442) translate(34.567901234567906 14.222222222222223)"/><use xlink:href="#z" transform="matrix(1,0,0,1,3503.9153123244,3442) translate(45.38271604938272 14.222222222222223)"/><use xlink:href="#A" transform="matrix(1,0,0,1,3503.9153123244,3442) translate(79.80246913580248 14.222222222222223)"/></g><path d="M3492 3179.73c-17.68 0-32 14.32-32 32v95.96c0 17.66 14.32 32 32 32h215.67c17.67 0 32-14.34 32-32v-95.98c0-17.67-14.33-32-32-32z" stroke="#000" fill="#fff"/><path d="M3460 3223.73h279.66" stroke="#000" fill="none"/><g><use xlink:href="#B" transform="matrix(1,0,0,1,3515.9327524830555,3179.72652801003) translate(17.40740740740742 14.888888888888886)"/><use xlink:href="#C" transform="matrix(1,0,0,1,3515.9327524830555,3179.72652801003) translate(14.617283950617306 36.222222222222214)"/><use xlink:href="#D" transform="matrix(1,0,0,1,3515.9327524830555,3179.72652801003) translate(55.70370370370372 36.222222222222214)"/></g><g><use xlink:href="#b" transform="matrix(1,0,0,1,3487.966376241528,3239.72652801003) translate(0 14.222222222222221)"/><use xlink:href="#E" transform="matrix(1,0,0,1,3487.966376241528,3239.72652801003) translate(10.814814814814813 14.222222222222221)"/><use xlink:href="#x" transform="matrix(1,0,0,1,3487.966376241528,3239.72652801003) translate(34.469135802469125 14.222222222222221)"/></g><g><path d="M3694.33 3320v31h5l-10 9-10-9h5v-31z" stroke="#000"/></g><g><path d="M3654.33 3320v31h5l-10 9-10-9h5v-31z" stroke="#000"/></g><g><path d="M3614.33 3320v31h5l-10 9-10-9h5v-31z" stroke="#000"/></g><path d="M3528.88 3479.27h-1v-15.94h1zm80.95-105.25l-.08 1-.24 1-.38.93-.53.87-.67.78-.78.66-.87.53-.94.38-1 .24-1 .08h-68.94l-.88.07-.84.2-.8.33-.73.45-.65.56-.56.67-.45.73-.34.8-.2.84-.08.88V3442h-1v-56.02l.08-1 .24-1 .4-.93.53-.87.66-.78.76-.66.87-.53.95-.38 1-.24.98-.08h68.95l.9-.07.83-.2.8-.33.73-.45.66-.56.56-.67.45-.73.33-.8.2-.84.07-.88v-12.8h1z" stroke="#000" stroke-width=".05"/><path d="M3528.88 3479.77h-1v-.5h1z"/><path d="M3528.9 3479.8h-1.04v-.56h1.05zm-1-.5v.45h.96v-.46z" stroke="#000" stroke-width=".05"/><path d="M3609.83 3361.2h-1v-.97l.5.45.5-.45z"/><path d="M3609.85 3361.22h-1.05v-1.04l.53.47.52-.47zm-.52-.5l-.48-.43v.87h.95v-.88z" stroke="#000" stroke-width=".05"/><g><use xlink:href="#F" transform="matrix(1,0,0,1,3410.952349361482,3382.6666666666665) translate(0 14.222222222222223)"/><use xlink:href="#r" transform="matrix(1,0,0,1,3410.952349361482,3382.6666666666665) translate(34.567901234567906 14.222222222222223)"/><use xlink:href="#G" transform="matrix(1,0,0,1,3410.952349361482,3382.6666666666665) translate(45.38271604938272 14.222222222222223)"/><use xlink:href="#H" transform="matrix(1,0,0,1,3410.952349361482,3382.6666666666665) translate(0 35.55555555555556)"/><use xlink:href="#I" transform="matrix(1,0,0,1,3410.952349361482,3382.6666666666665) translate(58.271604938271615 35.55555555555556)"/></g><path d="M3940.24 3486.27a6 6 0 0 1 6-6h188.92a6 6 0 0 1 6 6v217a6 6 0 0 1-6 6h-188.92a6 6 0 0 1-6-6z" stroke="#000" fill="#fff"/><path d="M3940.24 3517.87h200.92" stroke="#000" fill="none"/><g><use xlink:href="#J" transform="matrix(1,0,0,1,3948.2431002541057,3488.273471989971) translate(58.025 14.6)"/></g><g><use xlink:href="#b" transform="matrix(1,0,0,1,3952.2431002541057,3525.8734719899708) translate(0 27.555555555555564)"/><use xlink:href="#c" transform="matrix(1,0,0,1,3952.2431002541057,3525.8734719899708) translate(10.814814814814813 27.555555555555564)"/><use xlink:href="#d" transform="matrix(1,0,0,1,3952.2431002541057,3525.8734719899708) translate(44.34567901234567 27.555555555555564)"/><use xlink:href="#b" transform="matrix(1,0,0,1,3952.2431002541057,3525.8734719899708) translate(0 48.88888888888889)"/><use xlink:href="#e" transform="matrix(1,0,0,1,3952.2431002541057,3525.8734719899708) translate(10.814814814814813 48.88888888888889)"/><use xlink:href="#d" transform="matrix(1,0,0,1,3952.2431002541057,3525.8734719899708) translate(65.0864197530864 48.88888888888889)"/><use xlink:href="#b" transform="matrix(1,0,0,1,3952.2431002541057,3525.8734719899708) translate(0 70.22222222222223)"/><use xlink:href="#f" transform="matrix(1,0,0,1,3952.2431002541057,3525.8734719899708) translate(10.814814814814813 70.22222222222223)"/><use xlink:href="#d" transform="matrix(1,0,0,1,3952.2431002541057,3525.8734719899708) translate(110.41975308641972 70.22222222222223)"/><use xlink:href="#b" transform="matrix(1,0,0,1,3952.2431002541057,3525.8734719899708) translate(0 91.55555555555557)"/><use xlink:href="#g" transform="matrix(1,0,0,1,3952.2431002541057,3525.8734719899708) translate(10.814814814814813 91.55555555555557)"/><use xlink:href="#h" transform="matrix(1,0,0,1,3952.2431002541057,3525.8734719899708) translate(86.71604938271601 91.55555555555557)"/><use xlink:href="#b" transform="matrix(1,0,0,1,3952.2431002541057,3525.8734719899708) translate(0 112.88888888888889)"/><use xlink:href="#i" transform="matrix(1,0,0,1,3952.2431002541057,3525.8734719899708) translate(10.814814814814813 112.88888888888889)"/><use xlink:href="#j" transform="matrix(1,0,0,1,3952.2431002541057,3525.8734719899708) translate(129.13580246913574 112.88888888888889)"/><use xlink:href="#b" transform="matrix(1,0,0,1,3952.2431002541057,3525.8734719899708) translate(0 134.22222222222223)"/><use xlink:href="#k" transform="matrix(1,0,0,1,3952.2431002541057,3525.8734719899708) translate(10.814814814814813 134.22222222222223)"/><use xlink:href="#j" transform="matrix(1,0,0,1,3952.2431002541057,3525.8734719899708) translate(103.55555555555551 134.22222222222223)"/><use xlink:href="#K" transform="matrix(1,0,0,1,3952.2431002541057,3525.8734719899708) translate(0 155.55555555555554)"/><use xlink:href="#L" transform="matrix(1,0,0,1,3952.2431002541057,3525.8734719899708) translate(10.814814814814813 155.55555555555554)"/><use xlink:href="#M" transform="matrix(1,0,0,1,3952.2431002541057,3525.8734719899708) translate(85.77777777777774 155.55555555555554)"/></g><path d="M3881.27 3605h57.97" stroke="#000" fill="none"/><path d="M3881.3 3605.5h-.53v-1h.52zM3939.74 3605.5h-.5v-1h.5z" stroke="#000" stroke-width=".05"/><g><use xlink:href="#N" transform="matrix(1,0,0,1,3912.2431549667913,3579.3999999999996) translate(0 14.4)"/></g><path d="M3399.55 3166a6 6 0 0 1 6-6H4154a6 6 0 0 1 6 6v588a6 6 0 0 1-6 6h-748.45a6 6 0 0 1-6-6z" fill-opacity="0"/><defs><path d="M169-182c-1-43-94-46-97-3 18 66 151 10 154 114 3 95-165 93-204 36-6-8-10-19-12-30l50-8c3 46 112 56 116 5-17-69-150-10-154-114-4-87 153-88 188-35 5 8 8 18 10 28" id="O"/><path d="M135-194c53 0 70 44 70 98 0 56-19 98-73 100-31 1-45-17-59-34 3 33 2 69 2 105H25l-1-265h48c2 10 0 23 3 31 11-24 29-35 60-35zM114-30c33 0 39-31 40-66 0-38-9-64-40-64-56 0-55 130 0 130" id="P"/><path d="M133-34C117-15 103 5 69 4 32 3 11-16 11-54c-1-60 55-63 116-61 1-26-3-47-28-47-18 1-26 9-28 27l-52-2c7-38 36-58 82-57s74 22 75 68l1 82c-1 14 12 18 25 15v27c-30 8-71 5-69-32zm-48 3c29 0 43-24 42-57-32 0-66-3-65 30 0 17 8 27 23 27" id="Q"/><path d="M12 0v-35l95-120H19v-35h142v35L67-36h103V0H12" id="R"/><path d="M25-224v-37h50v37H25zM25 0v-190h50V0H25" id="S"/><path d="M110-194c64 0 96 36 96 99 0 64-35 99-97 99-61 0-95-36-95-99 0-62 34-99 96-99zm-1 164c35 0 45-28 45-65 0-40-10-65-43-65-34 0-45 26-45 65 0 36 10 65 43 65" id="T"/><g id="a"><use transform="matrix(0.05,0,0,0.05,0,0)" xlink:href="#O"/><use transform="matrix(0.05,0,0,0.05,12,0)" xlink:href="#P"/><use transform="matrix(0.05,0,0,0.05,22.950000000000003,0)" xlink:href="#Q"/><use transform="matrix(0.05,0,0,0.05,32.95,0)" xlink:href="#R"/><use transform="matrix(0.05,0,0,0.05,41.95,0)" xlink:href="#S"/><use transform="matrix(0.05,0,0,0.05,46.95,0)" xlink:href="#T"/></g><path d="M16-82v-28h88v28H16" id="U"/><use transform="matrix(0.049382716049382706,0,0,0.049382716049382706,0,0)" xlink:href="#U" id="b"/><path d="M-5 72V49h209v23H-5" id="V"/><path d="M24-231v-30h32v30H24zM24 0v-190h32V0H24" id="W"/><path d="M85-194c31 0 48 13 60 33l-1-100h32l1 261h-30c-2-10 0-23-3-31C134-8 116 4 85 4 32 4 16-35 15-94c0-66 23-100 70-100zm9 24c-40 0-46 34-46 75 0 40 6 74 45 74 42 0 51-32 51-76 0-42-9-74-50-73" id="X"/><path d="M33-154v-36h34v36H33zM33 0v-36h34V0H33" id="Y"/><g id="c"><use transform="matrix(0.049382716049382706,0,0,0.049382716049382706,0,0)" xlink:href="#V"/><use transform="matrix(0.049382716049382706,0,0,0.049382716049382706,9.87654320987654,0)" xlink:href="#W"/><use transform="matrix(0.049382716049382706,0,0,0.049382716049382706,13.777777777777775,0)" xlink:href="#X"/><use transform="matrix(0.049382716049382706,0,0,0.049382716049382706,23.654320987654316,0)" xlink:href="#Y"/></g><path d="M135-143c-3-34-86-38-87 0 15 53 115 12 119 90S17 21 10-45l28-5c4 36 97 45 98 0-10-56-113-15-118-90-4-57 82-63 122-42 12 7 21 19 24 35" id="Z"/><path d="M59-47c-2 24 18 29 38 22v24C64 9 27 4 27-40v-127H5v-23h24l9-43h21v43h35v23H59v120" id="aa"/><path d="M114-163C36-179 61-72 57 0H25l-1-190h30c1 12-1 29 2 39 6-27 23-49 58-41v29" id="ab"/><path d="M117-194c89-4 53 116 60 194h-32v-121c0-31-8-49-39-48C34-167 62-67 57 0H25l-1-190h30c1 10-1 24 2 32 11-22 29-35 61-36" id="ac"/><path d="M177-190C167-65 218 103 67 71c-23-6-38-20-44-43l32-5c15 47 100 32 89-28v-30C133-14 115 1 83 1 29 1 15-40 15-95c0-56 16-97 71-98 29-1 48 16 59 35 1-10 0-23 2-32h30zM94-22c36 0 50-32 50-73 0-42-14-75-50-75-39 0-46 34-46 75s6 73 46 73" id="ad"/><g id="d"><use transform="matrix(0.049382716049382706,0,0,0.049382716049382706,0,0)" xlink:href="#Z"/><use transform="matrix(0.049382716049382706,0,0,0.049382716049382706,8.888888888888888,0)" xlink:href="#aa"/><use transform="matrix(0.049382716049382706,0,0,0.049382716049382706,13.827160493827158,0)" xlink:href="#ab"/><use transform="matrix(0.049382716049382706,0,0,0.049382716049382706,19.7037037037037,0)" xlink:href="#W"/><use transform="matrix(0.049382716049382706,0,0,0.049382716049382706,23.604938271604933,0)" xlink:href="#ac"/><use transform="matrix(0.049382716049382706,0,0,0.049382716049382706,33.481481481481474,0)" xlink:href="#ad"/></g><path d="M100-194c62-1 85 37 85 99 1 63-27 99-86 99S16-35 15-95c0-66 28-99 85-99zM99-20c44 1 53-31 53-75 0-43-8-75-51-75s-53 32-53 75 10 74 51 75" id="ae"/><path d="M210-169c-67 3-38 105-44 169h-31v-121c0-29-5-50-35-48C34-165 62-65 56 0H25l-1-190h30c1 10-1 24 2 32 10-44 99-50 107 0 11-21 27-35 58-36 85-2 47 119 55 194h-31v-121c0-29-5-49-35-48" id="af"/><path d="M100-194c63 0 86 42 84 106H49c0 40 14 67 53 68 26 1 43-12 49-29l28 8c-11 28-37 45-77 45C44 4 14-33 15-96c1-61 26-98 85-98zm52 81c6-60-76-77-97-28-3 7-6 17-6 28h103" id="ag"/><g id="e"><use transform="matrix(0.049382716049382706,0,0,0.049382716049382706,0,0)" xlink:href="#ac"/><use transform="matrix(0.049382716049382706,0,0,0.049382716049382706,9.87654320987654,0)" xlink:href="#ae"/><use transform="matrix(0.049382716049382706,0,0,0.049382716049382706,19.75308641975308,0)" xlink:href="#af"/><use transform="matrix(0.049382716049382706,0,0,0.049382716049382706,34.51851851851851,0)" xlink:href="#ag"/><use transform="matrix(0.049382716049382706,0,0,0.049382716049382706,44.39506172839505,0)" xlink:href="#Y"/></g><path d="M96-169c-40 0-48 33-48 73s9 75 48 75c24 0 41-14 43-38l32 2c-6 37-31 61-74 61-59 0-76-41-82-99-10-93 101-131 147-64 4 7 5 14 7 22l-32 3c-4-21-16-35-41-35" id="ah"/><path d="M9 0v-24l116-142H16v-24h144v24L44-24h123V0H9" id="ai"/><g id="f"><use transform="matrix(0.049382716049382706,0,0,0.049382716049382706,0,0)" xlink:href="#X"/><use transform="matrix(0.049382716049382706,0,0,0.049382716049382706,9.87654320987654,0)" xlink:href="#ag"/><use transform="matrix(0.049382716049382706,0,0,0.049382716049382706,19.75308641975308,0)" xlink:href="#Z"/><use transform="matrix(0.049382716049382706,0,0,0.049382716049382706,28.64197530864197,0)" xlink:href="#ah"/><use transform="matrix(0.049382716049382706,0,0,0.049382716049382706,37.53086419753085,0)" xlink:href="#ab"/><use transform="matrix(0.049382716049382706,0,0,0.049382716049382706,43.4074074074074,0)" xlink:href="#W"/><use transform="matrix(0.049382716049382706,0,0,0.049382716049382706,47.30864197530863,0)" xlink:href="#ai"/><use transform="matrix(0.049382716049382706,0,0,0.049382716049382706,56.19753086419752,0)" xlink:href="#W"/><use transform="matrix(0.049382716049382706,0,0,0.049382716049382706,60.09876543209875,0)" xlink:href="#ae"/><use transform="matrix(0.049382716049382706,0,0,0.049382716049382706,69.97530864197529,0)" xlink:href="#ac"/><use transform="matrix(0.049382716049382706,0,0,0.049382716049382706,79.85185185185183,0)" xlink:href="#ag"/><use transform="matrix(0.049382716049382706,0,0,0.049382716049382706,89.72839506172838,0)" xlink:href="#Y"/></g><path d="M115-194c55 1 70 41 70 98S169 2 115 4C84 4 66-9 55-30l1 105H24l-1-265h31l2 30c10-21 28-34 59-34zm-8 174c40 0 45-34 45-75s-6-73-45-74c-42 0-51 32-51 76 0 43 10 73 51 73" id="aj"/><path d="M24 0v-261h32V0H24" id="ak"/><path d="M141-36C126-15 110 5 73 4 37 3 15-17 15-53c-1-64 63-63 125-63 3-35-9-54-41-54-24 1-41 7-42 31l-33-3c5-37 33-52 76-52 45 0 72 20 72 64v82c-1 20 7 32 28 27v20c-31 9-61-2-59-35zM48-53c0 20 12 33 32 33 41-3 63-29 60-74-43 2-92-5-92 41" id="al"/><g id="g"><use transform="matrix(0.049382716049382706,0,0,0.049382716049382706,0,0)" xlink:href="#aa"/><use transform="matrix(0.049382716049382706,0,0,0.049382716049382706,4.93827160493827,0)" xlink:href="#W"/><use transform="matrix(0.049382716049382706,0,0,0.049382716049382706,8.839506172839505,0)" xlink:href="#aj"/><use transform="matrix(0.049382716049382706,0,0,0.049382716049382706,18.716049382716044,0)" xlink:href="#ae"/><use transform="matrix(0.049382716049382706,0,0,0.049382716049382706,28.592592592592588,0)" xlink:href="#ak"/><use transform="matrix(0.049382716049382706,0,0,0.049382716049382706,32.493827160493815,0)" xlink:href="#ae"/><use transform="matrix(0.049382716049382706,0,0,0.049382716049382706,42.37037037037035,0)" xlink:href="#ad"/><use transform="matrix(0.049382716049382706,0,0,0.049382716049382706,52.24691358024689,0)" xlink:href="#W"/><use transform="matrix(0.049382716049382706,0,0,0.049382716049382706,56.148148148148124,0)" xlink:href="#al"/><use transform="matrix(0.049382716049382706,0,0,0.049382716049382706,66.02469135802467,0)" xlink:href="#Y"/></g><g id="h"><use transform="matrix(0.049382716049382706,0,0,0.049382716049382706,0,0)" xlink:href="#W"/><use transform="matrix(0.049382716049382706,0,0,0.049382716049382706,3.9012345679012337,0)" xlink:href="#ac"/><use transform="matrix(0.049382716049382706,0,0,0.049382716049382706,13.777777777777775,0)" xlink:href="#aa"/></g><path d="M33 0v-248h34V0H33" id="am"/><g id="i"><use transform="matrix(0.049382716049382706,0,0,0.049382716049382706,0,0)" xlink:href="#aj"/><use transform="matrix(0.049382716049382706,0,0,0.049382716049382706,9.87654320987654,0)" xlink:href="#ab"/><use transform="matrix(0.049382716049382706,0,0,0.049382716049382706,15.75308641975308,0)" xlink:href="#ag"/><use transform="matrix(0.049382716049382706,0,0,0.049382716049382706,25.629629629629626,0)" xlink:href="#ai"/><use transform="matrix(0.049382716049382706,0,0,0.049382716049382706,34.51851851851851,0)" xlink:href="#ai"/><use transform="matrix(0.049382716049382706,0,0,0.049382716049382706,43.4074074074074,0)" xlink:href="#ae"/><use transform="matrix(0.049382716049382706,0,0,0.049382716049382706,53.28395061728394,0)" xlink:href="#am"/><use transform="matrix(0.049382716049382706,0,0,0.049382716049382706,58.222222222222214,0)" xlink:href="#ac"/><use transform="matrix(0.049382716049382706,0,0,0.049382716049382706,68.09876543209874,0)" xlink:href="#W"/><use transform="matrix(0.049382716049382706,0,0,0.049382716049382706,71.99999999999997,0)" xlink:href="#ai"/><use transform="matrix(0.049382716049382706,0,0,0.049382716049382706,80.88888888888886,0)" xlink:href="#W"/><use transform="matrix(0.049382716049382706,0,0,0.049382716049382706,84.79012345679008,0)" xlink:href="#al"/><use transform="matrix(0.049382716049382706,0,0,0.049382716049382706,94.66666666666663,0)" xlink:href="#ak"/><use transform="matrix(0.049382716049382706,0,0,0.049382716049382706,98.56790123456786,0)" xlink:href="#ag"/><use transform="matrix(0.049382716049382706,0,0,0.049382716049382706,108.4444444444444,0)" xlink:href="#Y"/></g><path d="M101-234c-31-9-42 10-38 44h38v23H63V0H32v-167H5v-23h27c-7-52 17-82 69-68v24" id="an"/><g id="j"><use transform="matrix(0.049382716049382706,0,0,0.049382716049382706,0,0)" xlink:href="#an"/><use transform="matrix(0.049382716049382706,0,0,0.049382716049382706,4.93827160493827,0)" xlink:href="#ak"/><use transform="matrix(0.049382716049382706,0,0,0.049382716049382706,8.839506172839505,0)" xlink:href="#ae"/><use transform="matrix(0.049382716049382706,0,0,0.049382716049382706,18.716049382716044,0)" xlink:href="#al"/><use transform="matrix(0.049382716049382706,0,0,0.049382716049382706,28.592592592592588,0)" xlink:href="#aa"/></g><path d="M140-251c81 0 123 46 123 126C263-46 219 4 140 4 59 4 17-45 17-125s42-126 123-126zm0 227c63 0 89-41 89-101s-29-99-89-99c-61 0-89 39-89 99S79-25 140-24" id="ao"/><g id="k"><use transform="matrix(0.049382716049382706,0,0,0.049382716049382706,0,0)" xlink:href="#aj"/><use transform="matrix(0.049382716049382706,0,0,0.049382716049382706,9.87654320987654,0)" xlink:href="#ab"/><use transform="matrix(0.049382716049382706,0,0,0.049382716049382706,15.75308641975308,0)" xlink:href="#ag"/><use transform="matrix(0.049382716049382706,0,0,0.049382716049382706,25.629629629629626,0)" xlink:href="#ai"/><use transform="matrix(0.049382716049382706,0,0,0.049382716049382706,34.51851851851851,0)" xlink:href="#ai"/><use transform="matrix(0.049382716049382706,0,0,0.049382716049382706,43.4074074074074,0)" xlink:href="#ae"/><use transform="matrix(0.049382716049382706,0,0,0.049382716049382706,53.28395061728394,0)" xlink:href="#ao"/><use transform="matrix(0.049382716049382706,0,0,0.049382716049382706,67.11111111111109,0)" xlink:href="#ab"/><use transform="matrix(0.049382716049382706,0,0,0.049382716049382706,72.98765432098763,0)" xlink:href="#al"/><use transform="matrix(0.049382716049382706,0,0,0.049382716049382706,82.86419753086417,0)" xlink:href="#Y"/></g><path d="M232-93c-1 65-40 97-104 97C67 4 28-28 28-90v-158h33c8 89-33 224 67 224 102 0 64-133 71-224h33v155" id="ap"/><path d="M233-177c-1 41-23 64-60 70L243 0h-38l-65-103H63V0H30v-248c88 3 205-21 203 71zM63-129c60-2 137 13 137-47 0-61-80-42-137-45v92" id="aq"/><path d="M30 0v-248h33v221h125V0H30" id="ar"/><g id="l"><use transform="matrix(0.049382716049382706,0,0,0.049382716049382706,0,0)" xlink:href="#ap"/><use transform="matrix(0.049382716049382706,0,0,0.049382716049382706,12.790123456790122,0)" xlink:href="#aq"/><use transform="matrix(0.049382716049382706,0,0,0.049382716049382706,25.580246913580243,0)" xlink:href="#ar"/><use transform="matrix(0.049382716049382706,0,0,0.049382716049382706,35.456790123456784,0)" xlink:href="#an"/><use transform="matrix(0.049382716049382706,0,0,0.049382716049382706,40.395061728395056,0)" xlink:href="#ae"/><use transform="matrix(0.049382716049382706,0,0,0.049382716049382706,50.271604938271594,0)" xlink:href="#aa"/><use transform="matrix(0.049382716049382706,0,0,0.049382716049382706,55.209876543209866,0)" xlink:href="#ae"/><use transform="matrix(0.049382716049382706,0,0,0.049382716049382706,65.0864197530864,0)" xlink:href="#Y"/></g><path d="M108 0H70L1-190h34L89-25l56-165h34" id="as"/><g id="m"><use transform="matrix(0.049382716049382706,0,0,0.049382716049382706,0,0)" xlink:href="#Z"/><use transform="matrix(0.049382716049382706,0,0,0.049382716049382706,8.888888888888888,0)" xlink:href="#ag"/><use transform="matrix(0.049382716049382706,0,0,0.049382716049382706,18.76543209876543,0)" xlink:href="#ab"/><use transform="matrix(0.049382716049382706,0,0,0.049382716049382706,24.64197530864197,0)" xlink:href="#as"/><use transform="matrix(0.049382716049382706,0,0,0.049382716049382706,33.53086419753086,0)" xlink:href="#W"/><use transform="matrix(0.049382716049382706,0,0,0.049382716049382706,37.432098765432094,0)" xlink:href="#ai"/><use transform="matrix(0.049382716049382706,0,0,0.049382716049382706,46.32098765432098,0)" xlink:href="#W"/><use transform="matrix(0.049382716049382706,0,0,0.049382716049382706,50.222222222222214,0)" xlink:href="#Y"/></g><path d="M185-189c-5-48-123-54-124 2 14 75 158 14 163 119 3 78-121 87-175 55-17-10-28-26-33-46l33-7c5 56 141 63 141-1 0-78-155-14-162-118-5-82 145-84 179-34 5 7 8 16 11 25" id="at"/><path d="M26 75v-336h71v23H56V52h41v23H26" id="au"/><g id="n"><use transform="matrix(0.049382716049382706,0,0,0.049382716049382706,0,0)" xlink:href="#at"/><use transform="matrix(0.049382716049382706,0,0,0.049382716049382706,11.85185185185185,0)" xlink:href="#ag"/><use transform="matrix(0.049382716049382706,0,0,0.049382716049382706,21.728395061728392,0)" xlink:href="#ab"/><use transform="matrix(0.049382716049382706,0,0,0.049382716049382706,27.604938271604933,0)" xlink:href="#as"/><use transform="matrix(0.049382716049382706,0,0,0.049382716049382706,36.49382716049382,0)" xlink:href="#W"/><use transform="matrix(0.049382716049382706,0,0,0.049382716049382706,40.395061728395056,0)" xlink:href="#ai"/><use transform="matrix(0.049382716049382706,0,0,0.049382716049382706,49.28395061728394,0)" xlink:href="#W"/><use transform="matrix(0.049382716049382706,0,0,0.049382716049382706,53.185185185185176,0)" xlink:href="#ae"/><use transform="matrix(0.049382716049382706,0,0,0.049382716049382706,63.061728395061714,0)" xlink:href="#au"/></g><path d="M3 75V52h41v-290H3v-23h71V75H3" id="av"/><use transform="matrix(0.049382716049382706,0,0,0.049382716049382706,0,0)" xlink:href="#av" id="o"/><path fill="#333" d="M27 0v-27h64v-190l-56 39v-29l58-41h29v221h61V0H27" id="aw"/><use transform="matrix(0.04938271604938272,0,0,0.04938271604938272,0,0)" xlink:href="#aw" id="p"/><path fill="#333" d="M182-182c0 78-84 86-111 141h115V0H12c-6-101 99-100 120-180 1-22-12-31-33-32-23 0-32 14-35 34l-49-3c5-45 32-70 84-70 51 0 83 22 83 69" id="ax"/><path fill="#333" d="M101-251c68 0 84 54 84 127C185-50 166 4 99 4S15-52 14-124c-1-75 17-127 87-127zm-1 216c37-5 36-46 36-89s4-89-36-89c-39 0-36 45-36 89 0 43-3 85 36 89" id="ay"/><g id="q"><use transform="matrix(0.04938271604938272,0,0,0.04938271604938272,0,0)" xlink:href="#ax"/><use transform="matrix(0.04938271604938272,0,0,0.04938271604938272,9.876543209876544,0)" xlink:href="#ay"/><use transform="matrix(0.04938271604938272,0,0,0.04938271604938272,19.75308641975309,0)" xlink:href="#ay"/></g><path fill="#333" d="M14-72v-43h91v43H14" id="az"/><use transform="matrix(0.04938271604938272,0,0,0.04938271604938272,0,0)" xlink:href="#az" id="r"/><path fill="#333" d="M140-251c80 0 125 45 125 126S219 4 139 4C58 4 15-44 15-125s44-126 125-126zm-1 214c52 0 73-35 73-88 0-50-21-86-72-86-52 0-73 35-73 86s22 88 72 88" id="aA"/><path fill="#333" d="M195 0l-88-114-31 24V0H24v-248h52v113l112-113h60L142-143 257 0h-62" id="aB"/><g id="s"><use transform="matrix(0.04938271604938272,0,0,0.04938271604938272,0,0)" xlink:href="#aA"/><use transform="matrix(0.04938271604938272,0,0,0.04938271604938272,13.827160493827162,0)" xlink:href="#aB"/></g><path d="M24 0v-248h195v40H76v63h132v40H76v65h150V0H24" id="aC"/><path d="M135-150c-39-12-60 13-60 57V0H25l-1-190h47c2 13-1 29 3 40 6-28 27-53 61-41v41" id="aD"/><path d="M185-48c-13 30-37 53-82 52C43 2 14-33 14-96s30-98 90-98c62 0 83 45 84 108H66c0 31 8 55 39 56 18 0 30-7 34-22zm-45-69c5-46-57-63-70-21-2 6-4 13-4 21h74" id="aE"/><g id="t"><use transform="matrix(0.05,0,0,0.05,0,0)" xlink:href="#aC"/><use transform="matrix(0.05,0,0,0.05,12,0)" xlink:href="#aD"/><use transform="matrix(0.05,0,0,0.05,19,0)" xlink:href="#aD"/><use transform="matrix(0.05,0,0,0.05,26,0)" xlink:href="#T"/><use transform="matrix(0.05,0,0,0.05,36.95,0)" xlink:href="#aD"/><use transform="matrix(0.05,0,0,0.05,43.95,0)" xlink:href="#aE"/></g><path d="M199 0l-22-63H83L61 0H9l90-248h61L250 0h-51zm-33-102l-36-108c-10 38-24 72-36 108h72" id="aF"/><path d="M24-248c93 1 206-16 204 79-1 75-69 88-152 82V0H24v-248zm52 121c47 0 100 7 100-41 0-47-54-39-100-39v80" id="aG"/><path d="M24 0v-248h52V0H24" id="aH"/><g id="u"><use transform="matrix(0.05,0,0,0.05,0,0)" xlink:href="#aF"/><use transform="matrix(0.05,0,0,0.05,12.950000000000001,0)" xlink:href="#aG"/><use transform="matrix(0.05,0,0,0.05,24.950000000000003,0)" xlink:href="#aH"/></g><g id="v"><use transform="matrix(0.049382716049382706,0,0,0.049382716049382706,0,0)" xlink:href="#ah"/><use transform="matrix(0.049382716049382706,0,0,0.049382716049382706,8.888888888888888,0)" xlink:href="#ae"/><use transform="matrix(0.049382716049382706,0,0,0.049382716049382706,18.76543209876543,0)" xlink:href="#X"/><use transform="matrix(0.049382716049382706,0,0,0.049382716049382706,28.64197530864197,0)" xlink:href="#ag"/><use transform="matrix(0.049382716049382706,0,0,0.049382716049382706,38.51851851851851,0)" xlink:href="#Y"/></g><g id="w"><use transform="matrix(0.049382716049382706,0,0,0.049382716049382706,0,0)" xlink:href="#af"/><use transform="matrix(0.049382716049382706,0,0,0.049382716049382706,14.765432098765428,0)" xlink:href="#ag"/><use transform="matrix(0.049382716049382706,0,0,0.049382716049382706,24.641975308641968,0)" xlink:href="#Z"/><use transform="matrix(0.049382716049382706,0,0,0.049382716049382706,33.53086419753085,0)" xlink:href="#Z"/><use transform="matrix(0.049382716049382706,0,0,0.049382716049382706,42.41975308641974,0)" xlink:href="#al"/><use transform="matrix(0.049382716049382706,0,0,0.049382716049382706,52.296296296296276,0)" xlink:href="#ad"/><use transform="matrix(0.049382716049382706,0,0,0.049382716049382706,62.172839506172814,0)" xlink:href="#ag"/><use transform="matrix(0.049382716049382706,0,0,0.049382716049382706,72.04938271604937,0)" xlink:href="#Y"/></g><g id="x"><use transform="matrix(0.049382716049382706,0,0,0.049382716049382706,0,0)" xlink:href="#Z"/><use transform="matrix(0.049382716049382706,0,0,0.049382716049382706,8.888888888888888,0)" xlink:href="#aa"/><use transform="matrix(0.049382716049382706,0,0,0.049382716049382706,13.827160493827158,0)" xlink:href="#ab"/><use transform="matrix(0.049382716049382706,0,0,0.049382716049382706,19.7037037037037,0)" xlink:href="#W"/><use transform="matrix(0.049382716049382706,0,0,0.049382716049382706,23.604938271604933,0)" xlink:href="#ac"/><use transform="matrix(0.049382716049382706,0,0,0.049382716049382706,33.481481481481474,0)" xlink:href="#ad"/></g><path fill="#333" d="M165-50V0h-47v-50H5v-38l105-160h55v161h33v37h-33zm-47-37l2-116L46-87h72" id="aI"/><g id="y"><use transform="matrix(0.04938271604938272,0,0,0.04938271604938272,0,0)" xlink:href="#aI"/><use transform="matrix(0.04938271604938272,0,0,0.04938271604938272,9.876543209876544,0)" xlink:href="#ay"/><use transform="matrix(0.04938271604938272,0,0,0.04938271604938272,19.75308641975309,0)" xlink:href="#aI"/></g><path fill="#333" d="M175 0L67-191c6 58 2 128 3 191H24v-248h59L193-55c-6-58-2-129-3-193h46V0h-61" id="aJ"/><path fill="#333" d="M110-194c64 0 96 36 96 99 0 64-35 99-97 99-61 0-95-36-95-99 0-62 34-99 96-99zm-1 164c35 0 45-28 45-65 0-40-10-65-43-65-34 0-45 26-45 65 0 36 10 65 43 65" id="aK"/><path fill="#333" d="M115-3C79 11 28 4 28-45v-112H4v-33h27l15-45h31v45h36v33H77v99c-1 23 16 31 38 25v30" id="aL"/><g id="z"><use transform="matrix(0.04938271604938272,0,0,0.04938271604938272,0,0)" xlink:href="#aJ"/><use transform="matrix(0.04938271604938272,0,0,0.04938271604938272,12.790123456790125,0)" xlink:href="#aK"/><use transform="matrix(0.04938271604938272,0,0,0.04938271604938272,23.60493827160494,0)" xlink:href="#aL"/></g><path fill="#333" d="M121-226c-27-7-43 5-38 36h38v33H83V0H34v-157H6v-33h28c-9-59 32-81 87-68v32" id="aM"/><path fill="#333" d="M85 4C-2 5 27-109 22-190h50c7 57-23 150 33 157 60-5 35-97 40-157h50l1 190h-47c-2-12 1-28-3-38-12 25-28 42-61 42" id="aN"/><path fill="#333" d="M135-194c87-1 58 113 63 194h-50c-7-57 23-157-34-157-59 0-34 97-39 157H25l-1-190h47c2 12-1 28 3 38 12-26 28-41 61-42" id="aO"/><path fill="#333" d="M88-194c31-1 46 15 58 34l-1-101h50l1 261h-48c-2-10 0-23-3-31C134-8 116 4 84 4 32 4 16-41 15-95c0-56 19-97 73-99zm17 164c33 0 40-30 41-66 1-37-9-64-41-64s-38 30-39 65c0 43 13 65 39 65" id="aP"/><g id="A"><use transform="matrix(0.04938271604938272,0,0,0.04938271604938272,0,0)" xlink:href="#aM"/><use transform="matrix(0.04938271604938272,0,0,0.04938271604938272,5.8765432098765435,0)" xlink:href="#aK"/><use transform="matrix(0.04938271604938272,0,0,0.04938271604938272,16.691358024691358,0)" xlink:href="#aN"/><use transform="matrix(0.04938271604938272,0,0,0.04938271604938272,27.50617283950617,0)" xlink:href="#aO"/><use transform="matrix(0.04938271604938272,0,0,0.04938271604938272,38.32098765432099,0)" xlink:href="#aP"/></g><path d="M143 4C61 4 22-44 18-125c-5-107 100-154 193-111 17 8 29 25 37 43l-32 9c-13-25-37-40-76-40-61 0-88 39-88 99 0 61 29 100 91 101 35 0 62-11 79-27v-45h-74v-28h105v86C228-13 192 4 143 4" id="aQ"/><path d="M212-179c-10-28-35-45-73-45-59 0-87 40-87 99 0 60 29 101 89 101 43 0 62-24 78-52l27 14C228-24 195 4 139 4 59 4 22-46 18-125c-6-104 99-153 187-111 19 9 31 26 39 46" id="aR"/><path d="M30-248c118-7 216 8 213 122C240-48 200 0 122 0H30v-248zM63-27c89 8 146-16 146-99s-60-101-146-95v194" id="aS"/><g id="B"><use transform="matrix(0.049382716049382706,0,0,0.049382716049382706,0,0)" xlink:href="#aQ"/><use transform="matrix(0.049382716049382706,0,0,0.049382716049382706,13.827160493827158,0)" xlink:href="#ag"/><use transform="matrix(0.049382716049382706,0,0,0.049382716049382706,23.7037037037037,0)" xlink:href="#aa"/><use transform="matrix(0.049382716049382706,0,0,0.049382716049382706,28.64197530864197,0)" xlink:href="#at"/><use transform="matrix(0.049382716049382706,0,0,0.049382716049382706,40.493827160493815,0)" xlink:href="#aj"/><use transform="matrix(0.049382716049382706,0,0,0.049382716049382706,50.37037037037035,0)" xlink:href="#al"/><use transform="matrix(0.049382716049382706,0,0,0.049382716049382706,60.246913580246904,0)" xlink:href="#ai"/><use transform="matrix(0.049382716049382706,0,0,0.049382716049382706,69.13580246913578,0)" xlink:href="#W"/><use transform="matrix(0.049382716049382706,0,0,0.049382716049382706,73.03703703703701,0)" xlink:href="#ae"/><use transform="matrix(0.049382716049382706,0,0,0.049382716049382706,82.91358024691355,0)" xlink:href="#aR"/><use transform="matrix(0.049382716049382706,0,0,0.049382716049382706,95.70370370370368,0)" xlink:href="#ae"/><use transform="matrix(0.049382716049382706,0,0,0.049382716049382706,105.58024691358023,0)" xlink:href="#ac"/><use transform="matrix(0.049382716049382706,0,0,0.049382716049382706,115.45679012345677,0)" xlink:href="#am"/><use transform="matrix(0.049382716049382706,0,0,0.049382716049382706,120.39506172839504,0)" xlink:href="#aS"/></g><path d="M30 0v-248h187v28H63v79h144v27H63v87h162V0H30" id="aT"/><path d="M127-220V0H93v-220H8v-28h204v28h-85" id="aU"/><g id="C"><use transform="matrix(0.049382716049382706,0,0,0.049382716049382706,0,0)" xlink:href="#aQ"/><use transform="matrix(0.049382716049382706,0,0,0.049382716049382706,13.827160493827158,0)" xlink:href="#aT"/><use transform="matrix(0.049382716049382706,0,0,0.049382716049382706,25.679012345679006,0)" xlink:href="#aU"/></g><path d="M0 4l72-265h28L28 4H0" id="aV"/><path d="M115-194c53 0 69 39 70 98 0 66-23 100-70 100C84 3 66-7 56-30L54 0H23l1-261h32v101c10-23 28-34 59-34zm-8 174c40 0 45-34 45-75 0-40-5-75-45-74-42 0-51 32-51 76 0 43 10 73 51 73" id="aW"/><path d="M179-190L93 31C79 59 56 82 12 73V49c39 6 53-20 64-50L1-190h34L92-34l54-156h33" id="aX"/><g id="D"><use transform="matrix(0.049382716049382706,0,0,0.049382716049382706,0,0)" xlink:href="#aV"/><use transform="matrix(0.049382716049382706,0,0,0.049382716049382706,4.93827160493827,0)" xlink:href="#Z"/><use transform="matrix(0.049382716049382706,0,0,0.049382716049382706,13.827160493827158,0)" xlink:href="#aj"/><use transform="matrix(0.049382716049382706,0,0,0.049382716049382706,23.7037037037037,0)" xlink:href="#al"/><use transform="matrix(0.049382716049382706,0,0,0.049382716049382706,33.58024691358024,0)" xlink:href="#ai"/><use transform="matrix(0.049382716049382706,0,0,0.049382716049382706,42.469135802469125,0)" xlink:href="#W"/><use transform="matrix(0.049382716049382706,0,0,0.049382716049382706,46.37037037037036,0)" xlink:href="#ae"/><use transform="matrix(0.049382716049382706,0,0,0.049382716049382706,56.24691358024689,0)" xlink:href="#aV"/><use transform="matrix(0.049382716049382706,0,0,0.049382716049382706,61.185185185185176,0)" xlink:href="#aW"/><use transform="matrix(0.049382716049382706,0,0,0.049382716049382706,71.0617283950617,0)" xlink:href="#aX"/><use transform="matrix(0.049382716049382706,0,0,0.049382716049382706,79.95061728395059,0)" xlink:href="#am"/><use transform="matrix(0.049382716049382706,0,0,0.049382716049382706,84.88888888888886,0)" xlink:href="#aS"/></g><g id="E"><use transform="matrix(0.049382716049382706,0,0,0.049382716049382706,0,0)" xlink:href="#W"/><use transform="matrix(0.049382716049382706,0,0,0.049382716049382706,3.9012345679012337,0)" xlink:href="#X"/><use transform="matrix(0.049382716049382706,0,0,0.049382716049382706,13.777777777777775,0)" xlink:href="#Y"/></g><path fill="#333" d="M139-81c0-46-55-55-73-27H18l9-140h149v37H72l-4 63c44-38 133-4 122 66C201 21 21 35 11-62l49-4c5 18 15 30 39 30 26 0 40-18 40-45" id="aY"/><g id="F"><use transform="matrix(0.04938271604938272,0,0,0.04938271604938272,0,0)" xlink:href="#aY"/><use transform="matrix(0.04938271604938272,0,0,0.04938271604938272,9.876543209876544,0)" xlink:href="#ay"/><use transform="matrix(0.04938271604938272,0,0,0.04938271604938272,19.75308641975309,0)" xlink:href="#ay"/></g><path fill="#333" d="M24 0v-248h52V0H24" id="aZ"/><path fill="#333" d="M185-48c-13 30-37 53-82 52C43 2 14-33 14-96s30-98 90-98c62 0 83 45 84 108H66c0 31 8 55 39 56 18 0 30-7 34-22zm-45-69c5-46-57-63-70-21-2 6-4 13-4 21h74" id="ba"/><path fill="#333" d="M135-150c-39-12-60 13-60 57V0H25l-1-190h47c2 13-1 29 3 40 6-28 27-53 61-41v41" id="bb"/><path fill="#333" d="M133-34C117-15 103 5 69 4 32 3 11-16 11-54c-1-60 55-63 116-61 1-26-3-47-28-47-18 1-26 9-28 27l-52-2c7-38 36-58 82-57s74 22 75 68l1 82c-1 14 12 18 25 15v27c-30 8-71 5-69-32zm-48 3c29 0 43-24 42-57-32 0-66-3-65 30 0 17 8 27 23 27" id="bc"/><path fill="#333" d="M25 0v-261h50V0H25" id="bd"/><g id="G"><use transform="matrix(0.04938271604938272,0,0,0.04938271604938272,0,0)" xlink:href="#aZ"/><use transform="matrix(0.04938271604938272,0,0,0.04938271604938272,4.938271604938272,0)" xlink:href="#aO"/><use transform="matrix(0.04938271604938272,0,0,0.04938271604938272,15.753086419753087,0)" xlink:href="#aL"/><use transform="matrix(0.04938271604938272,0,0,0.04938271604938272,21.62962962962963,0)" xlink:href="#ba"/><use transform="matrix(0.04938271604938272,0,0,0.04938271604938272,31.506172839506174,0)" xlink:href="#bb"/><use transform="matrix(0.04938271604938272,0,0,0.04938271604938272,38.41975308641975,0)" xlink:href="#aO"/><use transform="matrix(0.04938271604938272,0,0,0.04938271604938272,49.23456790123457,0)" xlink:href="#bc"/><use transform="matrix(0.04938271604938272,0,0,0.04938271604938272,59.111111111111114,0)" xlink:href="#bd"/></g><path fill="#333" d="M137-138c1-29-70-34-71-4 15 46 118 7 119 86 1 83-164 76-172 9l43-7c4 19 20 25 44 25 33 8 57-30 24-41C81-84 22-81 20-136c-2-80 154-74 161-7" id="be"/><path fill="#333" d="M128 0H69L1-190h53L99-40l48-150h52" id="bf"/><g id="H"><use transform="matrix(0.04938271604938272,0,0,0.04938271604938272,0,0)" xlink:href="#be"/><use transform="matrix(0.04938271604938272,0,0,0.04938271604938272,9.876543209876544,0)" xlink:href="#ba"/><use transform="matrix(0.04938271604938272,0,0,0.04938271604938272,19.75308641975309,0)" xlink:href="#bb"/><use transform="matrix(0.04938271604938272,0,0,0.04938271604938272,26.666666666666668,0)" xlink:href="#bf"/><use transform="matrix(0.04938271604938272,0,0,0.04938271604938272,36.543209876543216,0)" xlink:href="#ba"/><use transform="matrix(0.04938271604938272,0,0,0.04938271604938272,46.41975308641976,0)" xlink:href="#bb"/></g><g id="I"><use transform="matrix(0.04938271604938272,0,0,0.04938271604938272,0,0)" xlink:href="#ba"/><use transform="matrix(0.04938271604938272,0,0,0.04938271604938272,9.876543209876544,0)" xlink:href="#bb"/><use transform="matrix(0.04938271604938272,0,0,0.04938271604938272,16.790123456790127,0)" xlink:href="#bb"/><use transform="matrix(0.04938271604938272,0,0,0.04938271604938272,23.70370370370371,0)" xlink:href="#aK"/><use transform="matrix(0.04938271604938272,0,0,0.04938271604938272,34.518518518518526,0)" xlink:href="#bb"/></g><path d="M128 0H69L1-190h53L99-40l48-150h52" id="bg"/><g id="J"><use transform="matrix(0.05,0,0,0.05,0,0)" xlink:href="#O"/><use transform="matrix(0.05,0,0,0.05,12,0)" xlink:href="#aE"/><use transform="matrix(0.05,0,0,0.05,22,0)" xlink:href="#aD"/><use transform="matrix(0.05,0,0,0.05,29,0)" xlink:href="#bg"/><use transform="matrix(0.05,0,0,0.05,39,0)" xlink:href="#S"/><use transform="matrix(0.05,0,0,0.05,44,0)" xlink:href="#R"/><use transform="matrix(0.05,0,0,0.05,53,0)" xlink:href="#S"/><use transform="matrix(0.05,0,0,0.05,58,0)" xlink:href="#T"/></g><path d="M14-72v-43h91v43H14" id="bh"/><use transform="matrix(0.049382716049382706,0,0,0.049382716049382706,0,0)" xlink:href="#bh" id="K"/><g id="L"><use transform="matrix(0.049382716049382706,0,0,0.049382716049382706,0,0)" xlink:href="#ap"/><use transform="matrix(0.049382716049382706,0,0,0.049382716049382706,12.790123456790122,0)" xlink:href="#aq"/><use transform="matrix(0.049382716049382706,0,0,0.049382716049382706,25.580246913580243,0)" xlink:href="#ar"/><use transform="matrix(0.049382716049382706,0,0,0.049382716049382706,35.456790123456784,0)" xlink:href="#an"/><use transform="matrix(0.049382716049382706,0,0,0.049382716049382706,40.395061728395056,0)" xlink:href="#ae"/><use transform="matrix(0.049382716049382706,0,0,0.049382716049382706,50.271604938271594,0)" xlink:href="#aa"/><use transform="matrix(0.049382716049382706,0,0,0.049382716049382706,55.209876543209866,0)" xlink:href="#ae"/><use transform="matrix(0.049382716049382706,0,0,0.049382716049382706,65.0864197530864,0)" xlink:href="#Y"/></g><g id="M"><use transform="matrix(0.049382716049382706,0,0,0.049382716049382706,0,0)" xlink:href="#Z"/><use transform="matrix(0.049382716049382706,0,0,0.049382716049382706,8.888888888888888,0)" xlink:href="#aa"/><use transform="matrix(0.049382716049382706,0,0,0.049382716049382706,13.827160493827158,0)" xlink:href="#ab"/><use transform="matrix(0.049382716049382706,0,0,0.049382716049382706,19.7037037037037,0)" xlink:href="#W"/><use transform="matrix(0.049382716049382706,0,0,0.049382716049382706,23.604938271604933,0)" xlink:href="#ac"/><use transform="matrix(0.049382716049382706,0,0,0.049382716049382706,33.481481481481474,0)" xlink:href="#ad"/></g><path d="M101-251c68 0 85 55 85 127S166 4 100 4C33 4 14-52 14-124c0-73 17-127 87-127zm-1 229c47 0 54-49 54-102s-4-102-53-102c-51 0-55 48-55 102 0 53 5 102 54 102" id="bi"/><path d="M33 0v-38h34V0H33" id="bj"/><path d="M80-196l47-18 7 23-49 13 32 44-20 13-27-46-27 45-21-12 33-44-49-13 8-23 47 19-2-53h23" id="bk"/><g id="N"><use transform="matrix(0.05,0,0,0.05,0,0)" xlink:href="#bi"/><use transform="matrix(0.05,0,0,0.05,10,0)" xlink:href="#bj"/><use transform="matrix(0.05,0,0,0.05,15,0)" xlink:href="#bj"/><use transform="matrix(0.05,0,0,0.05,20,0)" xlink:href="#bk"/></g></defs></g></svg>