<svg xmlns="http://www.w3.org/2000/svg" xmlns:xlink="http://www.w3.org/1999/xlink" xmlns:lucid="lucid" width="540" height="540.89"><g transform="translate(-6720 -1719.1132640049327)" lucid:page-tab-id="6uVdhBcGkP_R"><path d="M1258.84 0h8875.84v7291.47H1258.83z" fill="#fff"/><path d="M6852.05 1740c-17.7 0-32.05 14.35-32.05 32.05v96.13c0 17.7 14.35 32.05 32.05 32.05h235.23c17.7 0 32.04-14.35 32.04-32.05v-96.13c0-17.7-14.34-32.05-32.04-32.05z" stroke="#000" fill="#fff"/><path d="M6820 1784h299.32" stroke="#000" fill="none"/><use xlink:href="#a" transform="matrix(1,0,0,1,6879.864708902128,1740) translate(29.432098765432116 14.888888888888886)"/><use xlink:href="#b" transform="matrix(1,0,0,1,6879.864708902128,1740) translate(5.2098765432099015 36.222222222222214)"/><use xlink:href="#c" transform="matrix(1,0,0,1,6879.864708902128,1740) translate(79.18518518518519 36.222222222222214)"/><path d="M6994.4 1879.5v31.02h5l-10 9-10-9h5v-31zM7033.83 1879.52v31h5l-10 9-10-9h5v-31zM7073.94 1879.78v31h5l-10 9-10-9h5v-31zM6954.4 1879.5v31.02h5l-10 9-10-9h5v-31zM6914.4 1879.5v31.02h5l-10 9-10-9h5v-31z" stroke="#000"/><path d="M7059.4 2046.46a6 6 0 0 1 6-6h168a6 6 0 0 1 6 6v110a6 6 0 0 1-6 6h-168a6 6 0 0 1-6-6z" stroke="#000" fill="#fff"/><path d="M7059.4 2078.06h180" stroke="#000" fill="none"/><use xlink:href="#d" transform="matrix(1,0,0,1,7067.387737412439,2048.456862117746) translate(68.525 14.6)"/><use xlink:href="#e" transform="matrix(1,0,0,1,7071.387737412439,2086.056862117746) translate(0 27.388888888888886)"/><use xlink:href="#f" transform="matrix(1,0,0,1,7071.387737412439,2086.056862117746) translate(10.814814814814813 27.388888888888886)"/><use xlink:href="#g" transform="matrix(1,0,0,1,7071.387737412439,2086.056862117746) translate(92.7407407407407 27.388888888888886)"/><use xlink:href="#e" transform="matrix(1,0,0,1,7071.387737412439,2086.056862117746) translate(0 48.72222222222222)"/><use xlink:href="#h" transform="matrix(1,0,0,1,7071.387737412439,2086.056862117746) translate(10.814814814814813 48.72222222222222)"/><use xlink:href="#i" transform="matrix(1,0,0,1,7071.387737412439,2086.056862117746) translate(38.419753086419746 48.72222222222222)"/><path d="M7149.4 2039.46v-53.25a6 6 0 0 0-6-6h-68.46a6 6 0 0 1-6-6v-53.24" stroke="#000" fill="none"/><path d="M7149.9 2039.96h-1v-.52h1zM7069.44 1920.97h-1v-.96l.5.46.5-.45z" stroke="#000" stroke-width=".05"/><use xlink:href="#j" transform="matrix(1,0,0,1,7084.92179753181,1954.8744704287337) translate(0 14.222222222222223)"/><use xlink:href="#k" transform="matrix(1,0,0,1,7084.92179753181,1954.8744704287337) translate(34.567901234567906 14.222222222222223)"/><use xlink:href="#l" transform="matrix(1,0,0,1,7084.92179753181,1954.8744704287337) translate(45.38271604938272 14.222222222222223)"/><path d="M6820 2126a6 6 0 0 1 6-6h168a6 6 0 0 1 6 6v110a6 6 0 0 1-6 6h-168a6 6 0 0 1-6-6z" stroke="#000" fill="#fff"/><path d="M6820 2157.6h180" stroke="#000" fill="none"/><use xlink:href="#m" transform="matrix(1,0,0,1,6828.000000000001,2128) translate(37.55 14.6)"/><use xlink:href="#n" transform="matrix(1,0,0,1,6828.000000000001,2128) translate(96.5 14.6)"/><use xlink:href="#e" transform="matrix(1,0,0,1,6832.000000000001,2165.6) translate(0 27.388888888888886)"/><use xlink:href="#o" transform="matrix(1,0,0,1,6832.000000000001,2165.6) translate(10.814814814814813 27.388888888888886)"/><use xlink:href="#p" transform="matrix(1,0,0,1,6832.000000000001,2165.6) translate(59.20987654320987 27.388888888888886)"/><use xlink:href="#e" transform="matrix(1,0,0,1,6832.000000000001,2165.6) translate(0 48.72222222222222)"/><use xlink:href="#f" transform="matrix(1,0,0,1,6832.000000000001,2165.6) translate(10.814814814814813 48.72222222222222)"/><use xlink:href="#i" transform="matrix(1,0,0,1,6832.000000000001,2165.6) translate(92.7407407407407 48.72222222222222)"/><path d="M6969.02 2119h-1v-16.83h1zm60.3-64.98l-.07 1-.24 1-.38.93-.53.87-.68.78-.77.66-.87.53-.94.38-1 .24-1 .08h-48.3l-.88.07-.84.2-.8.33-.73.45-.66.56-.56.67-.45.73-.34.8-.2.84-.08.88v14.8h-1V2066l.08-1 .24-1 .4-.93.52-.87.67-.78.77-.66.87-.53.95-.38 1-.24.98-.08h48.3l.9-.07.82-.2.8-.33.74-.45.65-.56.57-.67.45-.73.34-.8.2-.84.07-.88v-133.3h1z" stroke="#000" stroke-width=".05"/><path d="M6969.02 2119.5h-1v-.5h1z"/><path d="M6969.05 2119.53H6968v-.57h1.05zm-1-.52v.47h.95v-.46z" stroke="#000" stroke-width=".05"/><path d="M7029.33 1920.7h-1v-.96l.5.45.5-.46z"/><path d="M7029.35 1920.73h-1.05v-1.05l.53.48.52-.48zm-.52-.5l-.48-.43v.88h.95v-.88z" stroke="#000" stroke-width=".05"/><use xlink:href="#q" transform="matrix(1,0,0,1,6894.59834320088,2080.8333333333335) translate(0 14.222222222222223)"/><use xlink:href="#k" transform="matrix(1,0,0,1,6894.59834320088,2080.8333333333335) translate(34.567901234567906 14.222222222222223)"/><use xlink:href="#r" transform="matrix(1,0,0,1,6894.59834320088,2080.8333333333335) translate(45.38271604938272 14.222222222222223)"/><use xlink:href="#s" transform="matrix(1,0,0,1,6894.59834320088,2080.8333333333335) translate(83.80246913580248 14.222222222222223)"/><path d="M6929.6 2119h-1v-16.83h1zm0-38.17h-1v-24.66h1zm60.3-66.8l-.1 1-.23.98-.4.95-.52.87-.66.78-.8.66-.86.53-.94.38-1 .24-1 .08h-48.3l-.87.07-.84.2-.8.33-.75.45-.65.56-.56.67-.45.73-.34.8-.2.84-.07.88v8.8h-1V2026l.06-1 .24-1 .4-.93.53-.87.66-.78.76-.66.87-.53.95-.38 1-.24 1-.08h48.3l.87-.07.84-.2.78-.33.74-.45.66-.56.56-.67.45-.73.32-.8.2-.84.07-.88v-93.3h1z" stroke="#000" stroke-width=".05"/><path d="M6929.6 2119.5h-1v-.5h1z"/><path d="M6929.6 2119.53h-1.04v-.57h1.05zm-1-.52v.47h.96v-.46z" stroke="#000" stroke-width=".05"/><path d="M6989.9 1920.7h-1v-.96l.5.45.5-.46z"/><path d="M6989.9 1920.73h-1.04v-1.05l.53.48.5-.48zm-1-.05h.96v-.88l-.47.42-.5-.42z" stroke="#000" stroke-width=".05"/><g><use xlink:href="#t" transform="matrix(1,0,0,1,6849.777225749872,2034.8333333333333) translate(0 14.222222222222223)"/><use xlink:href="#k" transform="matrix(1,0,0,1,6849.777225749872,2034.8333333333333) translate(34.567901234567906 14.222222222222223)"/><use xlink:href="#u" transform="matrix(1,0,0,1,6849.777225749872,2034.8333333333333) translate(45.38271604938272 14.222222222222223)"/></g><path d="M6889.6 2119h-1v-62.83h1zm0-84.17h-1v-17.16h1zm60.3-60.8l-.1 1-.23.98-.4.95-.52.87-.66.78-.8.66-.86.53-.94.38-1 .24-1 .08h-48.3l-.87.07-.84.2-.8.33-.75.45-.65.56-.56.67-.45.73-.34.8-.2.84-.07.88v10.3h-1V1986l.06-1 .24-1 .4-.93.53-.87.66-.78.76-.66.87-.53.95-.38 1-.24 1-.08h48.3l.87-.07.84-.2.78-.33.74-.45.66-.56.56-.67.45-.73.32-.8.2-.84.07-.88v-53.3h1z" stroke="#000" stroke-width=".05"/><path d="M6889.6 2119.5h-1v-.5h1z"/><path d="M6889.6 2119.53h-1.04v-.57h1.05zm-1-.52v.47h.96v-.46z" stroke="#000" stroke-width=".05"/><path d="M6949.9 1920.7h-1v-.96l.5.45.5-.46z"/><path d="M6949.9 1920.73h-1.04v-1.05l.53.48.5-.48zm-1-.05h.96v-.88l-.47.42-.5-.42z" stroke="#000" stroke-width=".05"/><g><use xlink:href="#v" transform="matrix(1,0,0,1,6823.085867725181,1996.3333333333333) translate(0 14.222222222222223)"/><use xlink:href="#k" transform="matrix(1,0,0,1,6823.085867725181,1996.3333333333333) translate(34.567901234567906 14.222222222222223)"/><use xlink:href="#w" transform="matrix(1,0,0,1,6823.085867725181,1996.3333333333333) translate(45.38271604938272 14.222222222222223)"/></g><path d="M6849.6 2119h-1v-101.33h1zm60.3-184.98l-.1 1-.23 1-.4.93-.52.87-.66.78-.8.66-.86.53-.94.38-1 .24-1 .08h-48.3l-.87.07-.84.2-.8.33-.75.45-.65.56-.56.67-.45.73-.34.8-.2.84-.07.88v50.3h-1V1946l.06-1 .24-1 .4-.93.53-.87.66-.78.76-.66.87-.53.95-.38 1-.24 1-.08h48.3l.87-.07.84-.2.78-.33.74-.45.66-.56.56-.67.45-.73.32-.8.2-.84.07-.88v-13.3h1z" stroke="#000" stroke-width=".05"/><path d="M6849.6 2119.5h-1v-.5h1z"/><path d="M6849.6 2119.53h-1.04v-.57h1.05zm-1-.52v.47h.96v-.46z" stroke="#000" stroke-width=".05"/><path d="M6909.9 1920.7h-1v-.96l.5.45.5-.46z"/><path d="M6909.9 1920.73h-1.04v-1.05l.53.48.5-.48zm-1-.05h.96v-.88l-.47.42-.5-.42z" stroke="#000" stroke-width=".05"/><g><use xlink:href="#x" transform="matrix(1,0,0,1,6731.653768959749,1941.1666666666667) translate(0 14.222222222222223)"/><use xlink:href="#k" transform="matrix(1,0,0,1,6731.653768959749,1941.1666666666667) translate(34.567901234567906 14.222222222222223)"/><use xlink:href="#y" transform="matrix(1,0,0,1,6731.653768959749,1941.1666666666667) translate(45.38271604938272 14.222222222222223)"/><use xlink:href="#z" transform="matrix(1,0,0,1,6731.653768959749,1941.1666666666667) translate(0 35.55555555555556)"/><use xlink:href="#A" transform="matrix(1,0,0,1,6731.653768959749,1941.1666666666667) translate(58.271604938271615 35.55555555555556)"/></g><path d="M6720 1725.1a6 6 0 0 1 6-6h528a6 6 0 0 1 6 6V2254a6 6 0 0 1-6 6h-528a6 6 0 0 1-6-6z" fill-opacity="0"/><defs><path d="M30 0v-248h187v28H63v79h144v27H63v87h162V0H30" id="B"/><path d="M24 0v-261h32V0H24" id="C"/><path d="M24-231v-30h32v30H24zM24 0v-190h32V0H24" id="D"/><path d="M210-169c-67 3-38 105-44 169h-31v-121c0-29-5-50-35-48C34-165 62-65 56 0H25l-1-190h30c1 10-1 24 2 32 10-44 99-50 107 0 11-21 27-35 58-36 85-2 47 119 55 194h-31v-121c0-29-5-49-35-48" id="E"/><path d="M117-194c89-4 53 116 60 194h-32v-121c0-31-8-49-39-48C34-167 62-67 57 0H25l-1-190h30c1 10-1 24 2 32 11-22 29-35 61-36" id="F"/><path d="M141-36C126-15 110 5 73 4 37 3 15-17 15-53c-1-64 63-63 125-63 3-35-9-54-41-54-24 1-41 7-42 31l-33-3c5-37 33-52 76-52 45 0 72 20 72 64v82c-1 20 7 32 28 27v20c-31 9-61-2-59-35zM48-53c0 20 12 33 32 33 41-3 63-29 60-74-43 2-92-5-92 41" id="G"/><path d="M185-189c-5-48-123-54-124 2 14 75 158 14 163 119 3 78-121 87-175 55-17-10-28-26-33-46l33-7c5 56 141 63 141-1 0-78-155-14-162-118-5-82 145-84 179-34 5 7 8 16 11 25" id="H"/><path d="M100-194c63 0 86 42 84 106H49c0 40 14 67 53 68 26 1 43-12 49-29l28 8c-11 28-37 45-77 45C44 4 14-33 15-96c1-61 26-98 85-98zm52 81c6-60-76-77-97-28-3 7-6 17-6 28h103" id="I"/><path d="M114-163C36-179 61-72 57 0H25l-1-190h30c1 12-1 29 2 39 6-27 23-49 58-41v29" id="J"/><path d="M108 0H70L1-190h34L89-25l56-165h34" id="K"/><path d="M9 0v-24l116-142H16v-24h144v24L44-24h123V0H9" id="L"/><path d="M100-194c62-1 85 37 85 99 1 63-27 99-86 99S16-35 15-95c0-66 28-99 85-99zM99-20c44 1 53-31 53-75 0-43-8-75-51-75s-53 32-53 75 10 74 51 75" id="M"/><g id="a"><use transform="matrix(0.049382716049382706,0,0,0.049382716049382706,0,0)" xlink:href="#B"/><use transform="matrix(0.049382716049382706,0,0,0.049382716049382706,11.85185185185185,0)" xlink:href="#C"/><use transform="matrix(0.049382716049382706,0,0,0.049382716049382706,15.753086419753084,0)" xlink:href="#D"/><use transform="matrix(0.049382716049382706,0,0,0.049382716049382706,19.654320987654316,0)" xlink:href="#E"/><use transform="matrix(0.049382716049382706,0,0,0.049382716049382706,34.419753086419746,0)" xlink:href="#D"/><use transform="matrix(0.049382716049382706,0,0,0.049382716049382706,38.32098765432098,0)" xlink:href="#F"/><use transform="matrix(0.049382716049382706,0,0,0.049382716049382706,48.19753086419752,0)" xlink:href="#G"/><use transform="matrix(0.049382716049382706,0,0,0.049382716049382706,58.07407407407406,0)" xlink:href="#H"/><use transform="matrix(0.049382716049382706,0,0,0.049382716049382706,69.92592592592591,0)" xlink:href="#I"/><use transform="matrix(0.049382716049382706,0,0,0.049382716049382706,79.80246913580245,0)" xlink:href="#J"/><use transform="matrix(0.049382716049382706,0,0,0.049382716049382706,85.679012345679,0)" xlink:href="#K"/><use transform="matrix(0.049382716049382706,0,0,0.049382716049382706,94.56790123456788,0)" xlink:href="#D"/><use transform="matrix(0.049382716049382706,0,0,0.049382716049382706,98.46913580246911,0)" xlink:href="#L"/><use transform="matrix(0.049382716049382706,0,0,0.049382716049382706,107.358024691358,0)" xlink:href="#D"/><use transform="matrix(0.049382716049382706,0,0,0.049382716049382706,111.25925925925921,0)" xlink:href="#M"/></g><path d="M30-248c118-7 216 8 213 122C240-48 200 0 122 0H30v-248zM63-27c89 8 146-16 146-99s-60-101-146-95v194" id="N"/><path d="M30 0v-248h33v221h125V0H30" id="O"/><path d="M127-220V0H93v-220H8v-28h204v28h-85" id="P"/><g id="b"><use transform="matrix(0.049382716049382706,0,0,0.049382716049382706,0,0)" xlink:href="#N"/><use transform="matrix(0.049382716049382706,0,0,0.049382716049382706,12.790123456790122,0)" xlink:href="#B"/><use transform="matrix(0.049382716049382706,0,0,0.049382716049382706,24.64197530864197,0)" xlink:href="#O"/><use transform="matrix(0.049382716049382706,0,0,0.049382716049382706,34.51851851851851,0)" xlink:href="#B"/><use transform="matrix(0.049382716049382706,0,0,0.049382716049382706,46.37037037037036,0)" xlink:href="#P"/><use transform="matrix(0.049382716049382706,0,0,0.049382716049382706,57.185185185185176,0)" xlink:href="#B"/></g><path d="M0 4l72-265h28L28 4H0" id="Q"/><path d="M135-143c-3-34-86-38-87 0 15 53 115 12 119 90S17 21 10-45l28-5c4 36 97 45 98 0-10-56-113-15-118-90-4-57 82-63 122-42 12 7 21 19 24 35" id="R"/><path d="M39-94c74 12-11 154 75 146v23c-44 4-70-10-70-52C44-23 55-84 6-82v-22c81 4-7-162 84-157h24v23c-82-15-2 131-75 144" id="S"/><path d="M85-194c31 0 48 13 60 33l-1-100h32l1 261h-30c-2-10 0-23-3-31C134-8 116 4 85 4 32 4 16-35 15-94c0-66 23-100 70-100zm9 24c-40 0-46 34-46 75 0 40 6 74 45 74 42 0 51-32 51-76 0-42-9-74-50-73" id="T"/><path d="M76-40C78 24 84 88 6 75V52C86 64 9-79 80-94c-40-6-34-59-34-106 1-29-11-41-40-38v-23c44-4 70 10 70 52 0 47-12 108 38 105v22c-26 1-39 14-38 42" id="U"/><g id="c"><use transform="matrix(0.049382716049382706,0,0,0.049382716049382706,0,0)" xlink:href="#Q"/><use transform="matrix(0.049382716049382706,0,0,0.049382716049382706,4.93827160493827,0)" xlink:href="#R"/><use transform="matrix(0.049382716049382706,0,0,0.049382716049382706,13.827160493827158,0)" xlink:href="#I"/><use transform="matrix(0.049382716049382706,0,0,0.049382716049382706,23.7037037037037,0)" xlink:href="#J"/><use transform="matrix(0.049382716049382706,0,0,0.049382716049382706,29.58024691358024,0)" xlink:href="#K"/><use transform="matrix(0.049382716049382706,0,0,0.049382716049382706,38.469135802469125,0)" xlink:href="#D"/><use transform="matrix(0.049382716049382706,0,0,0.049382716049382706,42.37037037037036,0)" xlink:href="#L"/><use transform="matrix(0.049382716049382706,0,0,0.049382716049382706,51.25925925925925,0)" xlink:href="#D"/><use transform="matrix(0.049382716049382706,0,0,0.049382716049382706,55.16049382716049,0)" xlink:href="#M"/><use transform="matrix(0.049382716049382706,0,0,0.049382716049382706,65.03703703703702,0)" xlink:href="#Q"/><use transform="matrix(0.049382716049382706,0,0,0.049382716049382706,69.97530864197529,0)" xlink:href="#S"/><use transform="matrix(0.049382716049382706,0,0,0.049382716049382706,75.90123456790121,0)" xlink:href="#D"/><use transform="matrix(0.049382716049382706,0,0,0.049382716049382706,79.80246913580244,0)" xlink:href="#T"/><use transform="matrix(0.049382716049382706,0,0,0.049382716049382706,89.67901234567898,0)" xlink:href="#U"/></g><path d="M140-251c80 0 125 45 125 126S219 4 139 4C58 4 15-44 15-125s44-126 125-126zm-1 214c52 0 73-35 73-88 0-50-21-86-72-86-52 0-73 35-73 86s22 88 72 88" id="V"/><path d="M195 0l-88-114-31 24V0H24v-248h52v113l112-113h60L142-143 257 0h-62" id="W"/><g id="d"><use transform="matrix(0.05,0,0,0.05,0,0)" xlink:href="#V"/><use transform="matrix(0.05,0,0,0.05,14,0)" xlink:href="#W"/></g><path d="M16-82v-28h88v28H16" id="X"/><use transform="matrix(0.049382716049382706,0,0,0.049382716049382706,0,0)" xlink:href="#X" id="e"/><path d="M177-190C167-65 218 103 67 71c-23-6-38-20-44-43l32-5c15 47 100 32 89-28v-30C133-14 115 1 83 1 29 1 15-40 15-95c0-56 16-97 71-98 29-1 48 16 59 35 1-10 0-23 2-32h30zM94-22c36 0 50-32 50-73 0-42-14-75-50-75-39 0-46 34-46 75s6 73 46 73" id="Y"/><path d="M33-154v-36h34v36H33zM33 0v-36h34V0H33" id="Z"/><g id="f"><use transform="matrix(0.049382716049382706,0,0,0.049382716049382706,0,0)" xlink:href="#E"/><use transform="matrix(0.049382716049382706,0,0,0.049382716049382706,14.765432098765428,0)" xlink:href="#I"/><use transform="matrix(0.049382716049382706,0,0,0.049382716049382706,24.641975308641968,0)" xlink:href="#R"/><use transform="matrix(0.049382716049382706,0,0,0.049382716049382706,33.53086419753085,0)" xlink:href="#R"/><use transform="matrix(0.049382716049382706,0,0,0.049382716049382706,42.41975308641974,0)" xlink:href="#G"/><use transform="matrix(0.049382716049382706,0,0,0.049382716049382706,52.296296296296276,0)" xlink:href="#Y"/><use transform="matrix(0.049382716049382706,0,0,0.049382716049382706,62.172839506172814,0)" xlink:href="#I"/><use transform="matrix(0.049382716049382706,0,0,0.049382716049382706,72.04938271604937,0)" xlink:href="#Z"/></g><path d="M59-47c-2 24 18 29 38 22v24C64 9 27 4 27-40v-127H5v-23h24l9-43h21v43h35v23H59v120" id="aa"/><g id="g"><use transform="matrix(0.049382716049382706,0,0,0.049382716049382706,0,0)" xlink:href="#R"/><use transform="matrix(0.049382716049382706,0,0,0.049382716049382706,8.888888888888888,0)" xlink:href="#aa"/><use transform="matrix(0.049382716049382706,0,0,0.049382716049382706,13.827160493827158,0)" xlink:href="#J"/><use transform="matrix(0.049382716049382706,0,0,0.049382716049382706,19.7037037037037,0)" xlink:href="#D"/><use transform="matrix(0.049382716049382706,0,0,0.049382716049382706,23.604938271604933,0)" xlink:href="#F"/><use transform="matrix(0.049382716049382706,0,0,0.049382716049382706,33.481481481481474,0)" xlink:href="#Y"/></g><path d="M33 0v-248h34V0H33" id="ab"/><g id="h"><use transform="matrix(0.049382716049382706,0,0,0.049382716049382706,0,0)" xlink:href="#ab"/><use transform="matrix(0.049382716049382706,0,0,0.049382716049382706,4.93827160493827,0)" xlink:href="#N"/><use transform="matrix(0.049382716049382706,0,0,0.049382716049382706,17.728395061728392,0)" xlink:href="#Z"/></g><g id="i"><use transform="matrix(0.049382716049382706,0,0,0.049382716049382706,0,0)" xlink:href="#R"/><use transform="matrix(0.049382716049382706,0,0,0.049382716049382706,8.888888888888888,0)" xlink:href="#aa"/><use transform="matrix(0.049382716049382706,0,0,0.049382716049382706,13.827160493827158,0)" xlink:href="#J"/><use transform="matrix(0.049382716049382706,0,0,0.049382716049382706,19.7037037037037,0)" xlink:href="#D"/><use transform="matrix(0.049382716049382706,0,0,0.049382716049382706,23.604938271604933,0)" xlink:href="#F"/><use transform="matrix(0.049382716049382706,0,0,0.049382716049382706,33.481481481481474,0)" xlink:href="#Y"/></g><path fill="#333" d="M182-182c0 78-84 86-111 141h115V0H12c-6-101 99-100 120-180 1-22-12-31-33-32-23 0-32 14-35 34l-49-3c5-45 32-70 84-70 51 0 83 22 83 69" id="ac"/><path fill="#333" d="M101-251c68 0 84 54 84 127C185-50 166 4 99 4S15-52 14-124c-1-75 17-127 87-127zm-1 216c37-5 36-46 36-89s4-89-36-89c-39 0-36 45-36 89 0 43-3 85 36 89" id="ad"/><g id="j"><use transform="matrix(0.04938271604938272,0,0,0.04938271604938272,0,0)" xlink:href="#ac"/><use transform="matrix(0.04938271604938272,0,0,0.04938271604938272,9.876543209876544,0)" xlink:href="#ad"/><use transform="matrix(0.04938271604938272,0,0,0.04938271604938272,19.75308641975309,0)" xlink:href="#ad"/></g><path fill="#333" d="M14-72v-43h91v43H14" id="ae"/><use transform="matrix(0.04938271604938272,0,0,0.04938271604938272,0,0)" xlink:href="#ae" id="k"/><path fill="#333" d="M140-251c80 0 125 45 125 126S219 4 139 4C58 4 15-44 15-125s44-126 125-126zm-1 214c52 0 73-35 73-88 0-50-21-86-72-86-52 0-73 35-73 86s22 88 72 88" id="af"/><path fill="#333" d="M195 0l-88-114-31 24V0H24v-248h52v113l112-113h60L142-143 257 0h-62" id="ag"/><g id="l"><use transform="matrix(0.04938271604938272,0,0,0.04938271604938272,0,0)" xlink:href="#af"/><use transform="matrix(0.04938271604938272,0,0,0.04938271604938272,13.827160493827162,0)" xlink:href="#ag"/></g><path d="M24 0v-248h195v40H76v63h132v40H76v65h150V0H24" id="ah"/><path d="M135-150c-39-12-60 13-60 57V0H25l-1-190h47c2 13-1 29 3 40 6-28 27-53 61-41v41" id="ai"/><path d="M110-194c64 0 96 36 96 99 0 64-35 99-97 99-61 0-95-36-95-99 0-62 34-99 96-99zm-1 164c35 0 45-28 45-65 0-40-10-65-43-65-34 0-45 26-45 65 0 36 10 65 43 65" id="aj"/><path d="M185-48c-13 30-37 53-82 52C43 2 14-33 14-96s30-98 90-98c62 0 83 45 84 108H66c0 31 8 55 39 56 18 0 30-7 34-22zm-45-69c5-46-57-63-70-21-2 6-4 13-4 21h74" id="ak"/><g id="m"><use transform="matrix(0.05,0,0,0.05,0,0)" xlink:href="#ah"/><use transform="matrix(0.05,0,0,0.05,12,0)" xlink:href="#ai"/><use transform="matrix(0.05,0,0,0.05,19,0)" xlink:href="#ai"/><use transform="matrix(0.05,0,0,0.05,26,0)" xlink:href="#aj"/><use transform="matrix(0.05,0,0,0.05,36.95,0)" xlink:href="#ai"/><use transform="matrix(0.05,0,0,0.05,43.95,0)" xlink:href="#ak"/></g><path d="M199 0l-22-63H83L61 0H9l90-248h61L250 0h-51zm-33-102l-36-108c-10 38-24 72-36 108h72" id="al"/><path d="M24-248c93 1 206-16 204 79-1 75-69 88-152 82V0H24v-248zm52 121c47 0 100 7 100-41 0-47-54-39-100-39v80" id="am"/><path d="M24 0v-248h52V0H24" id="an"/><g id="n"><use transform="matrix(0.05,0,0,0.05,0,0)" xlink:href="#al"/><use transform="matrix(0.05,0,0,0.05,12.950000000000001,0)" xlink:href="#am"/><use transform="matrix(0.05,0,0,0.05,24.950000000000003,0)" xlink:href="#an"/></g><path d="M96-169c-40 0-48 33-48 73s9 75 48 75c24 0 41-14 43-38l32 2c-6 37-31 61-74 61-59 0-76-41-82-99-10-93 101-131 147-64 4 7 5 14 7 22l-32 3c-4-21-16-35-41-35" id="ao"/><g id="o"><use transform="matrix(0.049382716049382706,0,0,0.049382716049382706,0,0)" xlink:href="#ao"/><use transform="matrix(0.049382716049382706,0,0,0.049382716049382706,8.888888888888888,0)" xlink:href="#M"/><use transform="matrix(0.049382716049382706,0,0,0.049382716049382706,18.76543209876543,0)" xlink:href="#T"/><use transform="matrix(0.049382716049382706,0,0,0.049382716049382706,28.64197530864197,0)" xlink:href="#I"/><use transform="matrix(0.049382716049382706,0,0,0.049382716049382706,38.51851851851851,0)" xlink:href="#Z"/></g><g id="p"><use transform="matrix(0.049382716049382706,0,0,0.049382716049382706,0,0)" xlink:href="#D"/><use transform="matrix(0.049382716049382706,0,0,0.049382716049382706,3.9012345679012337,0)" xlink:href="#F"/><use transform="matrix(0.049382716049382706,0,0,0.049382716049382706,13.777777777777775,0)" xlink:href="#aa"/></g><path fill="#333" d="M165-50V0h-47v-50H5v-38l105-160h55v161h33v37h-33zm-47-37l2-116L46-87h72" id="ap"/><g id="q"><use transform="matrix(0.04938271604938272,0,0,0.04938271604938272,0,0)" xlink:href="#ap"/><use transform="matrix(0.04938271604938272,0,0,0.04938271604938272,9.876543209876544,0)" xlink:href="#ad"/><use transform="matrix(0.04938271604938272,0,0,0.04938271604938272,19.75308641975309,0)" xlink:href="#ad"/></g><path fill="#333" d="M182-130c37 4 62 22 62 59C244 23 116-4 24 0v-248c84 5 203-23 205 63 0 31-19 50-47 55zM76-148c40-3 101 13 101-30 0-44-60-28-101-31v61zm0 110c48-3 116 14 116-37 0-48-69-32-116-35v72" id="aq"/><path fill="#333" d="M133-34C117-15 103 5 69 4 32 3 11-16 11-54c-1-60 55-63 116-61 1-26-3-47-28-47-18 1-26 9-28 27l-52-2c7-38 36-58 82-57s74 22 75 68l1 82c-1 14 12 18 25 15v27c-30 8-71 5-69-32zm-48 3c29 0 43-24 42-57-32 0-66-3-65 30 0 17 8 27 23 27" id="ar"/><path fill="#333" d="M88-194c31-1 46 15 58 34l-1-101h50l1 261h-48c-2-10 0-23-3-31C134-8 116 4 84 4 32 4 16-41 15-95c0-56 19-97 73-99zm17 164c33 0 40-30 41-66 1-37-9-64-41-64s-38 30-39 65c0 43 13 65 39 65" id="as"/><g id="r"><use transform="matrix(0.04938271604938272,0,0,0.04938271604938272,0,0)" xlink:href="#aq"/><use transform="matrix(0.04938271604938272,0,0,0.04938271604938272,12.790123456790125,0)" xlink:href="#ar"/><use transform="matrix(0.04938271604938272,0,0,0.04938271604938272,22.66666666666667,0)" xlink:href="#as"/></g><path fill="#333" d="M135-150c-39-12-60 13-60 57V0H25l-1-190h47c2 13-1 29 3 40 6-28 27-53 61-41v41" id="at"/><path fill="#333" d="M185-48c-13 30-37 53-82 52C43 2 14-33 14-96s30-98 90-98c62 0 83 45 84 108H66c0 31 8 55 39 56 18 0 30-7 34-22zm-45-69c5-46-57-63-70-21-2 6-4 13-4 21h74" id="au"/><path fill="#333" d="M84 4C32 4 15-41 15-95c0-55 18-99 73-99 29 0 47 12 58 34l2-30h48l-1 265h-49V-32C136-9 114 4 84 4zm21-34c32 0 41-29 41-66 0-36-9-64-40-64-33 0-39 30-40 65 0 43 13 65 39 65" id="av"/><path fill="#333" d="M85 4C-2 5 27-109 22-190h50c7 57-23 150 33 157 60-5 35-97 40-157h50l1 190h-47c-2-12 1-28-3-38-12 25-28 42-61 42" id="aw"/><path fill="#333" d="M137-138c1-29-70-34-71-4 15 46 118 7 119 86 1 83-164 76-172 9l43-7c4 19 20 25 44 25 33 8 57-30 24-41C81-84 22-81 20-136c-2-80 154-74 161-7" id="ax"/><path fill="#333" d="M115-3C79 11 28 4 28-45v-112H4v-33h27l15-45h31v45h36v33H77v99c-1 23 16 31 38 25v30" id="ay"/><g id="s"><use transform="matrix(0.04938271604938272,0,0,0.04938271604938272,0,0)" xlink:href="#at"/><use transform="matrix(0.04938271604938272,0,0,0.04938271604938272,6.913580246913581,0)" xlink:href="#au"/><use transform="matrix(0.04938271604938272,0,0,0.04938271604938272,16.790123456790127,0)" xlink:href="#av"/><use transform="matrix(0.04938271604938272,0,0,0.04938271604938272,27.604938271604947,0)" xlink:href="#aw"/><use transform="matrix(0.04938271604938272,0,0,0.04938271604938272,38.41975308641976,0)" xlink:href="#au"/><use transform="matrix(0.04938271604938272,0,0,0.04938271604938272,48.296296296296305,0)" xlink:href="#ax"/><use transform="matrix(0.04938271604938272,0,0,0.04938271604938272,58.17283950617284,0)" xlink:href="#ay"/></g><path fill="#333" d="M23 0v-37h61v-169l-59 37v-38l62-41h46v211h57V0H23" id="az"/><g id="t"><use transform="matrix(0.04938271604938272,0,0,0.04938271604938272,0,0)" xlink:href="#ap"/><use transform="matrix(0.04938271604938272,0,0,0.04938271604938272,9.876543209876544,0)" xlink:href="#ad"/><use transform="matrix(0.04938271604938272,0,0,0.04938271604938272,19.75308641975309,0)" xlink:href="#az"/></g><path fill="#333" d="M238-95c0 69-44 99-111 99C63 4 22-25 22-93v-155h51v151c-1 38 19 59 55 60 90 1 49-130 58-211h52v153" id="aA"/><path fill="#333" d="M135-194c87-1 58 113 63 194h-50c-7-57 23-157-34-157-59 0-34 97-39 157H25l-1-190h47c2 12-1 28 3 38 12-26 28-41 61-42" id="aB"/><path fill="#333" d="M114-157C55-157 80-60 75 0H25v-261h50l-1 109c12-26 28-41 61-42 86-1 58 113 63 194h-50c-7-57 23-157-34-157" id="aC"/><path fill="#333" d="M110-194c64 0 96 36 96 99 0 64-35 99-97 99-61 0-95-36-95-99 0-62 34-99 96-99zm-1 164c35 0 45-28 45-65 0-40-10-65-43-65-34 0-45 26-45 65 0 36 10 65 43 65" id="aD"/><path fill="#333" d="M25-224v-37h50v37H25zM25 0v-190h50V0H25" id="aE"/><path fill="#333" d="M12 0v-35l95-120H19v-35h142v35L67-36h103V0H12" id="aF"/><g id="u"><use transform="matrix(0.04938271604938272,0,0,0.04938271604938272,0,0)" xlink:href="#aA"/><use transform="matrix(0.04938271604938272,0,0,0.04938271604938272,12.790123456790125,0)" xlink:href="#aB"/><use transform="matrix(0.04938271604938272,0,0,0.04938271604938272,23.60493827160494,0)" xlink:href="#ar"/><use transform="matrix(0.04938271604938272,0,0,0.04938271604938272,33.48148148148148,0)" xlink:href="#aw"/><use transform="matrix(0.04938271604938272,0,0,0.04938271604938272,44.2962962962963,0)" xlink:href="#ay"/><use transform="matrix(0.04938271604938272,0,0,0.04938271604938272,50.17283950617284,0)" xlink:href="#aC"/><use transform="matrix(0.04938271604938272,0,0,0.04938271604938272,60.98765432098766,0)" xlink:href="#aD"/><use transform="matrix(0.04938271604938272,0,0,0.04938271604938272,71.80246913580247,0)" xlink:href="#at"/><use transform="matrix(0.04938271604938272,0,0,0.04938271604938272,78.71604938271605,0)" xlink:href="#aE"/><use transform="matrix(0.04938271604938272,0,0,0.04938271604938272,83.65432098765433,0)" xlink:href="#aF"/><use transform="matrix(0.04938271604938272,0,0,0.04938271604938272,92.54320987654322,0)" xlink:href="#au"/><use transform="matrix(0.04938271604938272,0,0,0.04938271604938272,102.41975308641976,0)" xlink:href="#as"/></g><path fill="#333" d="M128-127c34 4 56 21 59 58 7 91-148 94-172 28-4-9-6-17-7-26l51-5c1 24 16 35 40 36 23 0 39-12 38-36-1-31-31-36-65-34v-40c32 2 59-3 59-33 0-20-13-33-34-33s-33 13-35 32l-50-3c6-44 37-68 86-68 50 0 83 20 83 66 0 35-22 52-53 58" id="aG"/><g id="v"><use transform="matrix(0.04938271604938272,0,0,0.04938271604938272,0,0)" xlink:href="#ap"/><use transform="matrix(0.04938271604938272,0,0,0.04938271604938272,9.876543209876544,0)" xlink:href="#ad"/><use transform="matrix(0.04938271604938272,0,0,0.04938271604938272,19.75308641975309,0)" xlink:href="#aG"/></g><path fill="#333" d="M76-208v77h127v40H76V0H24v-248h183v40H76" id="aH"/><path fill="#333" d="M135-194c52 0 70 43 70 98 0 56-19 99-73 100-30 1-46-15-58-35L72 0H24l1-261h50v104c11-23 29-37 60-37zM114-30c31 0 40-27 40-66 0-37-7-63-39-63s-41 28-41 65c0 36 8 64 40 64" id="aI"/><g id="w"><use transform="matrix(0.04938271604938272,0,0,0.04938271604938272,0,0)" xlink:href="#aH"/><use transform="matrix(0.04938271604938272,0,0,0.04938271604938272,10.814814814814815,0)" xlink:href="#aD"/><use transform="matrix(0.04938271604938272,0,0,0.04938271604938272,21.62962962962963,0)" xlink:href="#at"/><use transform="matrix(0.04938271604938272,0,0,0.04938271604938272,28.543209876543205,0)" xlink:href="#aI"/><use transform="matrix(0.04938271604938272,0,0,0.04938271604938272,39.358024691358025,0)" xlink:href="#aE"/><use transform="matrix(0.04938271604938272,0,0,0.04938271604938272,44.2962962962963,0)" xlink:href="#as"/><use transform="matrix(0.04938271604938272,0,0,0.04938271604938272,55.111111111111114,0)" xlink:href="#as"/><use transform="matrix(0.04938271604938272,0,0,0.04938271604938272,65.92592592592592,0)" xlink:href="#au"/><use transform="matrix(0.04938271604938272,0,0,0.04938271604938272,75.80246913580247,0)" xlink:href="#aB"/></g><path fill="#333" d="M139-81c0-46-55-55-73-27H18l9-140h149v37H72l-4 63c44-38 133-4 122 66C201 21 21 35 11-62l49-4c5 18 15 30 39 30 26 0 40-18 40-45" id="aJ"/><g id="x"><use transform="matrix(0.04938271604938272,0,0,0.04938271604938272,0,0)" xlink:href="#aJ"/><use transform="matrix(0.04938271604938272,0,0,0.04938271604938272,9.876543209876544,0)" xlink:href="#ad"/><use transform="matrix(0.04938271604938272,0,0,0.04938271604938272,19.75308641975309,0)" xlink:href="#ad"/></g><path fill="#333" d="M24 0v-248h52V0H24" id="aK"/><path fill="#333" d="M25 0v-261h50V0H25" id="aL"/><g id="y"><use transform="matrix(0.04938271604938272,0,0,0.04938271604938272,0,0)" xlink:href="#aK"/><use transform="matrix(0.04938271604938272,0,0,0.04938271604938272,4.938271604938272,0)" xlink:href="#aB"/><use transform="matrix(0.04938271604938272,0,0,0.04938271604938272,15.753086419753087,0)" xlink:href="#ay"/><use transform="matrix(0.04938271604938272,0,0,0.04938271604938272,21.62962962962963,0)" xlink:href="#au"/><use transform="matrix(0.04938271604938272,0,0,0.04938271604938272,31.506172839506174,0)" xlink:href="#at"/><use transform="matrix(0.04938271604938272,0,0,0.04938271604938272,38.41975308641975,0)" xlink:href="#aB"/><use transform="matrix(0.04938271604938272,0,0,0.04938271604938272,49.23456790123457,0)" xlink:href="#ar"/><use transform="matrix(0.04938271604938272,0,0,0.04938271604938272,59.111111111111114,0)" xlink:href="#aL"/></g><path fill="#333" d="M128 0H69L1-190h53L99-40l48-150h52" id="aM"/><g id="z"><use transform="matrix(0.04938271604938272,0,0,0.04938271604938272,0,0)" xlink:href="#ax"/><use transform="matrix(0.04938271604938272,0,0,0.04938271604938272,9.876543209876544,0)" xlink:href="#au"/><use transform="matrix(0.04938271604938272,0,0,0.04938271604938272,19.75308641975309,0)" xlink:href="#at"/><use transform="matrix(0.04938271604938272,0,0,0.04938271604938272,26.666666666666668,0)" xlink:href="#aM"/><use transform="matrix(0.04938271604938272,0,0,0.04938271604938272,36.543209876543216,0)" xlink:href="#au"/><use transform="matrix(0.04938271604938272,0,0,0.04938271604938272,46.41975308641976,0)" xlink:href="#at"/></g><g id="A"><use transform="matrix(0.04938271604938272,0,0,0.04938271604938272,0,0)" xlink:href="#au"/><use transform="matrix(0.04938271604938272,0,0,0.04938271604938272,9.876543209876544,0)" xlink:href="#at"/><use transform="matrix(0.04938271604938272,0,0,0.04938271604938272,16.790123456790127,0)" xlink:href="#at"/><use transform="matrix(0.04938271604938272,0,0,0.04938271604938272,23.70370370370371,0)" xlink:href="#aD"/><use transform="matrix(0.04938271604938272,0,0,0.04938271604938272,34.518518518518526,0)" xlink:href="#at"/></g></defs></g></svg>