<svg xmlns="http://www.w3.org/2000/svg" xmlns:xlink="http://www.w3.org/1999/xlink" xmlns:lucid="lucid" width="1081.01" height="700"><g transform="translate(-1192.3432729385775 1247.3333333333333)" lucid:page-tab-id="kkl-xEImwlm-"><path d="M-1806.87-3776.5h5484.6v8875.84h-5484.6z" fill="#fff"/><path d="M1192.34-1241.33a6 6 0 0 1 6-6h1069a6 6 0 0 1 6 6v688a6 6 0 0 1-6 6h-1069a6 6 0 0 1-6-6z" fill-opacity="0"/><path d="M2213.1-967.58c0 10.9-8.84 19.75-19.75 19.75-10.9 0-19.75-8.85-19.75-19.75s8.85-19.75 19.75-19.75 19.75 8.84 19.75 19.75z" stroke="#3a414a" fill="#fff"/><path d="M2193.35-947.83v49.3a20.7 20.7 0 0 0 3.2 11.07l36.8 58.13m-40-63.2l-40 63.2m0-98.75h80" stroke="#3a414a" fill="none"/><path d="M2153.35-981.33a6 6 0 0 1 6-6h68a6 6 0 0 1 6 6v168a6 6 0 0 1-6 6h-68a6 6 0 0 1-6-6z" fill="none"/><use xlink:href="#a" transform="matrix(1,0,0,1,2073.3544522212496,-829.3333333333333) translate(70.67901234567901 17.77777777777778)"/><path d="M2213.1-744.17c0 10.9-8.84 19.75-19.75 19.75-10.9 0-19.75-8.84-19.75-19.75 0-10.9 8.85-19.75 19.75-19.75s19.75 8.85 19.75 19.75z" stroke="#3a414a" fill="#fff"/><path d="M2193.35-724.42v49.3a20.7 20.7 0 0 0 3.2 11.07l36.8 58.13m-40-63.2l-40 63.2m0-98.75h80" stroke="#3a414a" fill="none"/><path d="M2153.35-757.92a6 6 0 0 1 6-6h68a6 6 0 0 1 6 6v168a6 6 0 0 1-6 6h-68a6 6 0 0 1-6-6z" fill="none"/><use xlink:href="#b" transform="matrix(1,0,0,1,2073.3544522212496,-605.9171151701535) translate(68.24074074074075 17.77777777777778)"/><use xlink:href="#c" transform="matrix(1,0,0,1,2073.3544522212496,-605.9171151701535) translate(154.53703703703704 17.77777777777778)"/><use xlink:href="#d" transform="matrix(1,0,0,1,2073.3544522212496,-605.9171151701535) translate(65.80246913580247 44.44444444444444)"/><use xlink:href="#e" transform="matrix(1,0,0,1,2073.3544522212496,-605.9171151701535) translate(118.82716049382717 44.44444444444444)"/><path d="M1293.1-967.58c0 10.9-8.84 19.75-19.75 19.75-10.9 0-19.75-8.85-19.75-19.75s8.85-19.75 19.75-19.75 19.75 8.84 19.75 19.75z" stroke="#3a414a" fill="#fff"/><path d="M1273.35-947.83v49.3a20.7 20.7 0 0 0 3.2 11.07l36.8 58.13m-40-63.2l-40 63.2m0-98.75h80" stroke="#3a414a" fill="none"/><path d="M1233.35-981.33a6 6 0 0 1 6-6h68a6 6 0 0 1 6 6v168a6 6 0 0 1-6 6h-68a6 6 0 0 1-6-6z" fill="none"/><use xlink:href="#f" transform="matrix(1,0,0,1,1153.3544522212499,-829.3333333333333) translate(87.31481481481481 17.77777777777778)"/><use xlink:href="#g" transform="matrix(1,0,0,1,1153.3544522212499,-829.3333333333333) translate(52.191358024691354 44.44444444444444)"/><use xlink:href="#h" transform="matrix(1,0,0,1,1153.3544522212499,-829.3333333333333) translate(95.40123456790124 44.44444444444444)"/><path d="M1672.34-897.33c0 33.13-35.8 60-80 60-44.18 0-80-26.87-80-60 0-33.14 35.82-60 80-60 44.2 0 80 26.86 80 60z" stroke="#3a414a" fill="#fff"/><use xlink:href="#i" transform="matrix(1,0,0,1,1512.3432729385775,-957.3333333333333) translate(39.07999999999999 51.9)"/><use xlink:href="#j" transform="matrix(1,0,0,1,1512.3432729385775,-957.3333333333333) translate(48.504999999999995 73.5)"/><path d="M1511.34-897.33h-197.5" stroke="#3a414a" stroke-linejoin="round" fill="none"/><path d="M1511.84-897.34v.5h-.5v-1h.52zM1313.87-896.83h-3.52v-1h3.52z" stroke="#3a414a" stroke-width=".05" fill="#3a414a"/><path d="M1953.15-673.92c0 33.14-35.8 60-80 60-44.18 0-80-26.86-80-60 0-33.13 35.82-60 80-60 44.2 0 80 26.87 80 60z" stroke="#3a414a" fill="#fff"/><use xlink:href="#k" transform="matrix(1,0,0,1,1793.154977155633,-733.9171151701535) translate(37.105 51.9)"/><use xlink:href="#l" transform="matrix(1,0,0,1,1793.154977155633,-733.9171151701535) translate(80.055 51.9)"/><use xlink:href="#m" transform="matrix(1,0,0,1,1793.154977155633,-733.9171151701535) translate(42.55499999999999 73.5)"/><path d="M1787.34-674.7l2.54.18 2.3.1-.05.98-2.3-.08-2.6-.2h-.12l.13-1zm-13.43-3.25l1.6.62 1.68.57 1.77.53 1.88.47 1.5.3-.2 1-1.52-.33-1.9-.47-1.83-.53-1.7-.6-1.64-.62-1-.44.4-.92zm-11.9-7.8l1.18 1.1 1.2 1.03 1.25.97 1.26.9 1.3.87.37.22-.52.86-.38-.24-1.34-.87-1.3-.95-1.28-1-1.24-1.05-1.2-1.14-1.1-1.1.72-.7zm-9.2-12.8l1.16 2.15 1.14 1.95 1.13 1.77 1.14 1.62.36.47-.8.62-.37-.5-1.16-1.64-1.16-1.8-1.16-2-1.16-2.2-.22-.46.9-.43zm-4.7-11.92l1.2 3.63 1.2 3.13.06.16-.92.4-.08-.2-1.2-3.16-1.2-3.68-.72-2.48.96-.28zm-3.78-16.2l1.3 6.66.55 2.25-.98.24-.55-2.3-1.32-6.7-.12-.84 1-.15zm-1.4-9.12l.52 3.38-1 .15-.5-3.4-.7-6.53.98-.1zm-1.7-15.63l.46 4.17-1 .1-.44-4.17-.52-5.77 1-.1zm-.94-10.73l-1 .1-.86-9.73h1zm-2.76-30.96h-1l-.78-8.72 1-.1zm-2.65-22.3l1.3 8.5-1 .16-1.3-8.5-.25-1.34.98-.2zm-3.07-14.22l1.53 6.35.3 1.6-.97.2-.3-1.58-1.52-6.3-.5-1.78.95-.27zm-4.55-13.93l1.52 4 1.1 3.34-.95.3-1.1-3.3-1.5-3.97-.87-2.03.92-.4zm-7.7-14.73l1.57 2.43 1.54 2.64 1.54 2.9.08.16-.9.43-.07-.14-1.5-2.86-1.53-2.6-1.54-2.4-.37-.53.82-.57zm-9.88-11.4l1.74 1.6 1.7 1.7 1.65 1.83 1.42 1.7-.77.63-1.4-1.67-1.63-1.8-1.66-1.68-1.7-1.57-.46-.4.65-.76zm-11.65-7.98l2.14 1.16 2.04 1.22 1.97 1.3 1.08.76-.58.82-1.07-.77-1.93-1.26-2-1.2-2.1-1.13-1.4-.67.44-.9zm-9.7-4l2.62.9 1.05.4-.37.95-1.03-.4-2.6-.9-1.05-.3.28-.96z" stroke="#3a414a" stroke-width=".05" fill="#3a414a"/><path d="M1792.67-674.42l-.02.5v.5l-.53-.02.04-1z" fill="#3a414a"/><path d="M1792.7-674.44l-.02.52v.53h-.58l.03-1.06zm-.55.98l.48.02v-.95h-.45z" stroke="#3a414a" stroke-width=".05" fill="#3a414a"/><path d="M1685.77-877.05l-13.16-7.2 14.9-1.9z" fill="#3a414a"/><path d="M1686.13-876.28l-15.1-8.26 17.07-2.2zm-11.93-7.66l11.2 6.13 1.47-7.77z" stroke="#3a414a" stroke-width=".05" fill="#3a414a"/><use xlink:href="#n" transform="matrix(1,0,0,1,1696.5608724680135,-793.1202273937722) translate(0 14.222222222222223)"/><path d="M2152.85-897.33h-479.5" stroke="#3a414a" stroke-linejoin="round" fill="none"/><path d="M2156.35-896.83h-3.52v-1h3.52zM1673.36-896.83h-.53v-1h.53z" stroke="#3a414a" stroke-width=".05" fill="#3a414a"/><path d="M2152.85-673.92h-198.7" stroke="#3a414a" stroke-linejoin="round" fill="none"/><path d="M2156.35-673.42h-3.5v-1h3.5zM1954.17-673.42h-.53l.02-.5v-.5h.5z" stroke="#3a414a" stroke-width=".05" fill="#3a414a"/><path d="M1672.34-1137.33c0 33.13-35.8 60-80 60-44.18 0-80-26.87-80-60 0-33.14 35.82-60 80-60 44.2 0 80 26.86 80 60z" stroke="#3a414a" fill="#fff"/><use xlink:href="#i" transform="matrix(1,0,0,1,1512.3432729385775,-1197.3333333333333) translate(39.08 40.65)"/><use xlink:href="#o" transform="matrix(1,0,0,1,1512.3432729385775,-1197.3333333333333) translate(31.504999999999995 62.25)"/><use xlink:href="#p" transform="matrix(1,0,0,1,1512.3432729385775,-1197.3333333333333) translate(99.505 62.25)"/><use xlink:href="#q" transform="matrix(1,0,0,1,1512.3432729385775,-1197.3333333333333) translate(53.03 83.85000000000001)"/><path d="M1313.86-897.34l2.03-.05 2.45-.14 2.4-.25 2.35-.34 2.3-.44 2.27-.53 2.25-.64 2.24-.73 2.23-.83 2.23-.94 2.25-1.06 2.27-1.2 2.3-1.32 2.36-1.5 2.42-1.67 2.48-1.87 2.57-2.13 2.67-2.4 2.8-2.75 2.96-3.15 3.14-3.65 3.4-4.28 3.68-5.08 4.1-6.18 4.65-7.7 5.52-10.07 7.1-14.36 12.57-28.54 26.03-60.9 7.1-14.38 5.53-10.06 4.65-7.7 4.1-6.18 3.7-5.08 3.37-4.28 3.15-3.65 2.96-3.15 2.8-2.74 2.67-2.4 2.57-2.13 2.48-1.88 2.4-1.67 2.36-1.5 2.3-1.33 2.28-1.2 2.25-1.05 2.24-.94 2.24-.83 2.24-.73 2.25-.63 2.27-.53 2.3-.43 2.35-.34 2.4-.26 2.45-.15 2.04-.04" stroke="#3a414a" stroke-linejoin="round" fill="none"/><path d="M1313.88-896.84l-3.5.07-.03-1 3.5-.07zM1511.84-1137.34v.5h-.5v-1h.52z" stroke="#3a414a" stroke-width=".05" fill="#3a414a"/><path d="M2213.1-1207.58c0 10.9-8.84 19.75-19.75 19.75-10.9 0-19.75-8.85-19.75-19.75s8.85-19.75 19.75-19.75 19.75 8.84 19.75 19.75z" stroke="#3a414a" fill="#fff"/><path d="M2193.35-1187.83v49.3a20.7 20.7 0 0 0 3.2 11.07l36.8 58.13m-40-63.2l-40 63.2m0-98.75h80" stroke="#3a414a" fill="none"/><path d="M2153.35-1221.33a6 6 0 0 1 6-6h68a6 6 0 0 1 6 6v168a6 6 0 0 1-6 6h-68a6 6 0 0 1-6-6z" fill="none"/><g><use xlink:href="#r" transform="matrix(1,0,0,1,2073.3544522212496,-1069.3333333333333) translate(90.40123456790124 17.77777777777778)"/><use xlink:href="#s" transform="matrix(1,0,0,1,2073.3544522212496,-1069.3333333333333) translate(88.51851851851852 44.44444444444444)"/></g><path d="M2152.85-1137.33h-479.5" stroke="#3a414a" stroke-linejoin="round" fill="none"/><path d="M2156.35-1136.83h-3.52v-1h3.52zM1673.36-1136.83h-.53v-1h.53z" stroke="#3a414a" stroke-width=".05" fill="#3a414a"/><defs><path fill="#3a414a" d="M240 0l2-218c-23 76-54 145-80 218h-23L58-218 59 0H30v-248h44l77 211c21-75 51-140 76-211h43V0h-30" id="t"/><path fill="#3a414a" d="M100-194c62-1 85 37 85 99 1 63-27 99-86 99S16-35 15-95c0-66 28-99 85-99zM99-20c44 1 53-31 53-75 0-43-8-75-51-75s-53 32-53 75 10 74 51 75" id="u"/><path fill="#3a414a" d="M117-194c89-4 53 116 60 194h-32v-121c0-31-8-49-39-48C34-167 62-67 57 0H25l-1-190h30c1 10-1 24 2 32 11-22 29-35 61-36" id="v"/><path fill="#3a414a" d="M177-190C167-65 218 103 67 71c-23-6-38-20-44-43l32-5c15 47 100 32 89-28v-30C133-14 115 1 83 1 29 1 15-40 15-95c0-56 16-97 71-98 29-1 48 16 59 35 1-10 0-23 2-32h30zM94-22c36 0 50-32 50-73 0-42-14-75-50-75-39 0-46 34-46 75s6 73 46 73" id="w"/><path fill="#3a414a" d="M30-248c118-7 216 8 213 122C240-48 200 0 122 0H30v-248zM63-27c89 8 146-16 146-99s-60-101-146-95v194" id="x"/><path fill="#3a414a" d="M160-131c35 5 61 23 61 61C221 17 115-2 30 0v-248c76 3 177-17 177 60 0 33-19 50-47 57zm-97-11c50-1 110 9 110-42 0-47-63-36-110-37v79zm0 115c55-2 124 14 124-45 0-56-70-42-124-44v89" id="y"/><g id="a"><use transform="matrix(0.06172839506172839,0,0,0.06172839506172839,0,0)" xlink:href="#t"/><use transform="matrix(0.06172839506172839,0,0,0.06172839506172839,18.456790123456788,0)" xlink:href="#u"/><use transform="matrix(0.06172839506172839,0,0,0.06172839506172839,30.80246913580247,0)" xlink:href="#v"/><use transform="matrix(0.06172839506172839,0,0,0.06172839506172839,43.148148148148145,0)" xlink:href="#w"/><use transform="matrix(0.06172839506172839,0,0,0.06172839506172839,55.49382716049382,0)" xlink:href="#u"/><use transform="matrix(0.06172839506172839,0,0,0.06172839506172839,67.8395061728395,0)" xlink:href="#x"/><use transform="matrix(0.06172839506172839,0,0,0.06172839506172839,83.82716049382717,0)" xlink:href="#y"/></g><path fill="#3a414a" d="M185-189c-5-48-123-54-124 2 14 75 158 14 163 119 3 78-121 87-175 55-17-10-28-26-33-46l33-7c5 56 141 63 141-1 0-78-155-14-162-118-5-82 145-84 179-34 5 7 8 16 11 25" id="z"/><path fill="#3a414a" d="M24-231v-30h32v30H24zM24 0v-190h32V0H24" id="A"/><path fill="#3a414a" d="M135-143c-3-34-86-38-87 0 15 53 115 12 119 90S17 21 10-45l28-5c4 36 97 45 98 0-10-56-113-15-118-90-4-57 82-63 122-42 12 7 21 19 24 35" id="B"/><path fill="#3a414a" d="M59-47c-2 24 18 29 38 22v24C64 9 27 4 27-40v-127H5v-23h24l9-43h21v43h35v23H59v120" id="C"/><path fill="#3a414a" d="M100-194c63 0 86 42 84 106H49c0 40 14 67 53 68 26 1 43-12 49-29l28 8c-11 28-37 45-77 45C44 4 14-33 15-96c1-61 26-98 85-98zm52 81c6-60-76-77-97-28-3 7-6 17-6 28h103" id="D"/><path fill="#3a414a" d="M210-169c-67 3-38 105-44 169h-31v-121c0-29-5-50-35-48C34-165 62-65 56 0H25l-1-190h30c1 10-1 24 2 32 10-44 99-50 107 0 11-21 27-35 58-36 85-2 47 119 55 194h-31v-121c0-29-5-49-35-48" id="E"/><path fill="#3a414a" d="M141-36C126-15 110 5 73 4 37 3 15-17 15-53c-1-64 63-63 125-63 3-35-9-54-41-54-24 1-41 7-42 31l-33-3c5-37 33-52 76-52 45 0 72 20 72 64v82c-1 20 7 32 28 27v20c-31 9-61-2-59-35zM48-53c0 20 12 33 32 33 41-3 63-29 60-74-43 2-92-5-92 41" id="F"/><g id="b"><use transform="matrix(0.06172839506172839,0,0,0.06172839506172839,0,0)" xlink:href="#z"/><use transform="matrix(0.06172839506172839,0,0,0.06172839506172839,14.814814814814813,0)" xlink:href="#A"/><use transform="matrix(0.06172839506172839,0,0,0.06172839506172839,19.691358024691354,0)" xlink:href="#B"/><use transform="matrix(0.06172839506172839,0,0,0.06172839506172839,30.802469135802465,0)" xlink:href="#C"/><use transform="matrix(0.06172839506172839,0,0,0.06172839506172839,36.9753086419753,0)" xlink:href="#D"/><use transform="matrix(0.06172839506172839,0,0,0.06172839506172839,49.32098765432098,0)" xlink:href="#E"/><use transform="matrix(0.06172839506172839,0,0,0.06172839506172839,67.77777777777777,0)" xlink:href="#F"/></g><path fill="#3a414a" d="M85-194c31 0 48 13 60 33l-1-100h32l1 261h-30c-2-10 0-23-3-31C134-8 116 4 85 4 32 4 16-35 15-94c0-66 23-100 70-100zm9 24c-40 0-46 34-46 75 0 40 6 74 45 74 42 0 51-32 51-76 0-42-9-74-50-73" id="G"/><g id="c"><use transform="matrix(0.06172839506172839,0,0,0.06172839506172839,0,0)" xlink:href="#G"/><use transform="matrix(0.06172839506172839,0,0,0.06172839506172839,12.345679012345679,0)" xlink:href="#A"/></g><path fill="#3a414a" d="M33 0v-248h34V0H33" id="H"/><path fill="#3a414a" d="M108 0H70L1-190h34L89-25l56-165h34" id="I"/><g id="d"><use transform="matrix(0.06172839506172839,0,0,0.06172839506172839,0,0)" xlink:href="#H"/><use transform="matrix(0.06172839506172839,0,0,0.06172839506172839,6.172839506172839,0)" xlink:href="#v"/><use transform="matrix(0.06172839506172839,0,0,0.06172839506172839,18.51851851851852,0)" xlink:href="#I"/><use transform="matrix(0.06172839506172839,0,0,0.06172839506172839,29.62962962962963,0)" xlink:href="#A"/><use transform="matrix(0.06172839506172839,0,0,0.06172839506172839,34.50617283950617,0)" xlink:href="#u"/></g><path fill="#3a414a" d="M30 0v-248h187v28H63v79h144v27H63v87h162V0H30" id="J"/><path fill="#3a414a" d="M24 0v-261h32V0H24" id="K"/><g id="e"><use transform="matrix(0.06172839506172839,0,0,0.06172839506172839,0,0)" xlink:href="#J"/><use transform="matrix(0.06172839506172839,0,0,0.06172839506172839,14.814814814814813,0)" xlink:href="#E"/><use transform="matrix(0.06172839506172839,0,0,0.06172839506172839,33.2716049382716,0)" xlink:href="#F"/><use transform="matrix(0.06172839506172839,0,0,0.06172839506172839,45.61728395061728,0)" xlink:href="#A"/><use transform="matrix(0.06172839506172839,0,0,0.06172839506172839,50.49382716049382,0)" xlink:href="#K"/></g><path fill="#3a414a" d="M232-93c-1 65-40 97-104 97C67 4 28-28 28-90v-158h33c8 89-33 224 67 224 102 0 64-133 71-224h33v155" id="L"/><g id="f"><use transform="matrix(0.06172839506172839,0,0,0.06172839506172839,0,0)" xlink:href="#L"/><use transform="matrix(0.06172839506172839,0,0,0.06172839506172839,15.987654320987653,0)" xlink:href="#C"/><use transform="matrix(0.06172839506172839,0,0,0.06172839506172839,22.160493827160494,0)" xlink:href="#D"/><use transform="matrix(0.06172839506172839,0,0,0.06172839506172839,34.50617283950617,0)" xlink:href="#v"/><use transform="matrix(0.06172839506172839,0,0,0.06172839506172839,46.85185185185185,0)" xlink:href="#C"/><use transform="matrix(0.06172839506172839,0,0,0.06172839506172839,53.02469135802469,0)" xlink:href="#D"/></g><g id="g"><use transform="matrix(0.06172839506172839,0,0,0.06172839506172839,0,0)" xlink:href="#v"/><use transform="matrix(0.06172839506172839,0,0,0.06172839506172839,12.345679012345679,0)" xlink:href="#u"/><use transform="matrix(0.06172839506172839,0,0,0.06172839506172839,24.691358024691358,0)" xlink:href="#v"/></g><path fill="#3a414a" d="M114-163C36-179 61-72 57 0H25l-1-190h30c1 12-1 29 2 39 6-27 23-49 58-41v29" id="M"/><g id="h"><use transform="matrix(0.06172839506172839,0,0,0.06172839506172839,0,0)" xlink:href="#M"/><use transform="matrix(0.06172839506172839,0,0,0.06172839506172839,7.345679012345679,0)" xlink:href="#D"/><use transform="matrix(0.06172839506172839,0,0,0.06172839506172839,19.691358024691358,0)" xlink:href="#w"/><use transform="matrix(0.06172839506172839,0,0,0.06172839506172839,32.03703703703704,0)" xlink:href="#A"/><use transform="matrix(0.06172839506172839,0,0,0.06172839506172839,36.91358024691358,0)" xlink:href="#B"/><use transform="matrix(0.06172839506172839,0,0,0.06172839506172839,48.0246913580247,0)" xlink:href="#C"/><use transform="matrix(0.06172839506172839,0,0,0.06172839506172839,54.19753086419754,0)" xlink:href="#M"/><use transform="matrix(0.06172839506172839,0,0,0.06172839506172839,61.543209876543216,0)" xlink:href="#F"/><use transform="matrix(0.06172839506172839,0,0,0.06172839506172839,73.8888888888889,0)" xlink:href="#C"/><use transform="matrix(0.06172839506172839,0,0,0.06172839506172839,80.06172839506173,0)" xlink:href="#u"/></g><path d="M212-179c-10-28-35-45-73-45-59 0-87 40-87 99 0 60 29 101 89 101 43 0 62-24 78-52l27 14C228-24 195 4 139 4 59 4 22-46 18-125c-6-104 99-153 187-111 19 9 31 26 39 46" id="N"/><path d="M114-163C36-179 61-72 57 0H25l-1-190h30c1 12-1 29 2 39 6-27 23-49 58-41v29" id="O"/><path d="M100-194c63 0 86 42 84 106H49c0 40 14 67 53 68 26 1 43-12 49-29l28 8c-11 28-37 45-77 45C44 4 14-33 15-96c1-61 26-98 85-98zm52 81c6-60-76-77-97-28-3 7-6 17-6 28h103" id="P"/><path d="M141-36C126-15 110 5 73 4 37 3 15-17 15-53c-1-64 63-63 125-63 3-35-9-54-41-54-24 1-41 7-42 31l-33-3c5-37 33-52 76-52 45 0 72 20 72 64v82c-1 20 7 32 28 27v20c-31 9-61-2-59-35zM48-53c0 20 12 33 32 33 41-3 63-29 60-74-43 2-92-5-92 41" id="Q"/><path d="M9 0v-24l116-142H16v-24h144v24L44-24h123V0H9" id="R"/><path d="M24-231v-30h32v30H24zM24 0v-190h32V0H24" id="S"/><path d="M100-194c62-1 85 37 85 99 1 63-27 99-86 99S16-35 15-95c0-66 28-99 85-99zM99-20c44 1 53-31 53-75 0-43-8-75-51-75s-53 32-53 75 10 74 51 75" id="T"/><path d="M117-194c89-4 53 116 60 194h-32v-121c0-31-8-49-39-48C34-167 62-67 57 0H25l-1-190h30c1 10-1 24 2 32 11-22 29-35 61-36" id="U"/><g id="i"><use transform="matrix(0.05,0,0,0.05,0,0)" xlink:href="#N"/><use transform="matrix(0.05,0,0,0.05,12.950000000000001,0)" xlink:href="#O"/><use transform="matrix(0.05,0,0,0.05,18.900000000000002,0)" xlink:href="#P"/><use transform="matrix(0.05,0,0,0.05,28.900000000000002,0)" xlink:href="#Q"/><use transform="matrix(0.05,0,0,0.05,38.900000000000006,0)" xlink:href="#R"/><use transform="matrix(0.05,0,0,0.05,47.900000000000006,0)" xlink:href="#S"/><use transform="matrix(0.05,0,0,0.05,51.85,0)" xlink:href="#T"/><use transform="matrix(0.05,0,0,0.05,61.85,0)" xlink:href="#U"/><use transform="matrix(0.05,0,0,0.05,71.85000000000001,0)" xlink:href="#P"/></g><path d="M96-169c-40 0-48 33-48 73s9 75 48 75c24 0 41-14 43-38l32 2c-6 37-31 61-74 61-59 0-76-41-82-99-10-93 101-131 147-64 4 7 5 14 7 22l-32 3c-4-21-16-35-41-35" id="V"/><path d="M84 4C-5 8 30-112 23-190h32v120c0 31 7 50 39 49 72-2 45-101 50-169h31l1 190h-30c-1-10 1-25-2-33-11 22-28 36-60 37" id="W"/><path d="M59-47c-2 24 18 29 38 22v24C64 9 27 4 27-40v-127H5v-23h24l9-43h21v43h35v23H59v120" id="X"/><g id="j"><use transform="matrix(0.05,0,0,0.05,0,0)" xlink:href="#Q"/><use transform="matrix(0.05,0,0,0.05,10,0)" xlink:href="#V"/><use transform="matrix(0.05,0,0,0.05,19,0)" xlink:href="#V"/><use transform="matrix(0.05,0,0,0.05,28,0)" xlink:href="#T"/><use transform="matrix(0.05,0,0,0.05,38,0)" xlink:href="#W"/><use transform="matrix(0.05,0,0,0.05,48,0)" xlink:href="#U"/><use transform="matrix(0.05,0,0,0.05,58,0)" xlink:href="#X"/></g><path d="M33 0v-248h34V0H33" id="Y"/><path d="M108 0H70L1-190h34L89-25l56-165h34" id="Z"/><g id="k"><use transform="matrix(0.05,0,0,0.05,0,0)" xlink:href="#Y"/><use transform="matrix(0.05,0,0,0.05,5,0)" xlink:href="#U"/><use transform="matrix(0.05,0,0,0.05,15,0)" xlink:href="#Z"/><use transform="matrix(0.05,0,0,0.05,24,0)" xlink:href="#S"/><use transform="matrix(0.05,0,0,0.05,27.950000000000003,0)" xlink:href="#T"/></g><path d="M210-169c-67 3-38 105-44 169h-31v-121c0-29-5-50-35-48C34-165 62-65 56 0H25l-1-190h30c1 10-1 24 2 32 10-44 99-50 107 0 11-21 27-35 58-36 85-2 47 119 55 194h-31v-121c0-29-5-49-35-48" id="aa"/><path d="M24 0v-261h32V0H24" id="ab"/><g id="l"><use transform="matrix(0.05,0,0,0.05,0,0)" xlink:href="#P"/><use transform="matrix(0.05,0,0,0.05,10,0)" xlink:href="#aa"/><use transform="matrix(0.05,0,0,0.05,24.950000000000003,0)" xlink:href="#Q"/><use transform="matrix(0.05,0,0,0.05,34.95,0)" xlink:href="#S"/><use transform="matrix(0.05,0,0,0.05,38.900000000000006,0)" xlink:href="#ab"/></g><path d="M101-234c-31-9-42 10-38 44h38v23H63V0H32v-167H5v-23h27c-7-52 17-82 69-68v24" id="ac"/><g id="m"><use transform="matrix(0.05,0,0,0.05,0,0)" xlink:href="#V"/><use transform="matrix(0.05,0,0,0.05,9,0)" xlink:href="#T"/><use transform="matrix(0.05,0,0,0.05,19,0)" xlink:href="#U"/><use transform="matrix(0.05,0,0,0.05,29,0)" xlink:href="#ac"/><use transform="matrix(0.05,0,0,0.05,34,0)" xlink:href="#P"/><use transform="matrix(0.05,0,0,0.05,44,0)" xlink:href="#O"/><use transform="matrix(0.05,0,0,0.05,49.95,0)" xlink:href="#aa"/><use transform="matrix(0.05,0,0,0.05,64.9,0)" xlink:href="#Q"/></g><path fill="#333" d="M15-91v-56l181-69v40L49-119l147 57v40" id="ad"/><path fill="#333" d="M25-224v-37h50v37H25zM25 0v-190h50V0H25" id="ae"/><path fill="#333" d="M135-194c87-1 58 113 63 194h-50c-7-57 23-157-34-157-59 0-34 97-39 157H25l-1-190h47c2 12-1 28 3 38 12-26 28-41 61-42" id="af"/><path fill="#333" d="M190-63c-7 42-38 67-86 67-59 0-84-38-90-98-12-110 154-137 174-36l-49 2c-2-19-15-32-35-32-30 0-35 28-38 64-6 74 65 87 74 30" id="ag"/><path fill="#333" d="M25 0v-261h50V0H25" id="ah"/><path fill="#333" d="M85 4C-2 5 27-109 22-190h50c7 57-23 150 33 157 60-5 35-97 40-157h50l1 190h-47c-2-12 1-28-3-38-12 25-28 42-61 42" id="ai"/><path fill="#333" d="M88-194c31-1 46 15 58 34l-1-101h50l1 261h-48c-2-10 0-23-3-31C134-8 116 4 84 4 32 4 16-41 15-95c0-56 19-97 73-99zm17 164c33 0 40-30 41-66 1-37-9-64-41-64s-38 30-39 65c0 43 13 65 39 65" id="aj"/><path fill="#333" d="M185-48c-13 30-37 53-82 52C43 2 14-33 14-96s30-98 90-98c62 0 83 45 84 108H66c0 31 8 55 39 56 18 0 30-7 34-22zm-45-69c5-46-57-63-70-21-2 6-4 13-4 21h74" id="ak"/><path fill="#333" d="M15-22v-40l146-57-146-57v-40l181 69v56" id="al"/><g id="n"><use transform="matrix(0.04938271604938272,0,0,0.04938271604938272,0,0)" xlink:href="#ad"/><use transform="matrix(0.04938271604938272,0,0,0.04938271604938272,10.370370370370372,0)" xlink:href="#ae"/><use transform="matrix(0.04938271604938272,0,0,0.04938271604938272,15.308641975308642,0)" xlink:href="#af"/><use transform="matrix(0.04938271604938272,0,0,0.04938271604938272,26.12345679012346,0)" xlink:href="#ag"/><use transform="matrix(0.04938271604938272,0,0,0.04938271604938272,36,0)" xlink:href="#ah"/><use transform="matrix(0.04938271604938272,0,0,0.04938271604938272,40.93827160493827,0)" xlink:href="#ai"/><use transform="matrix(0.04938271604938272,0,0,0.04938271604938272,51.75308641975309,0)" xlink:href="#aj"/><use transform="matrix(0.04938271604938272,0,0,0.04938271604938272,62.567901234567906,0)" xlink:href="#ak"/><use transform="matrix(0.04938271604938272,0,0,0.04938271604938272,72.44444444444446,0)" xlink:href="#al"/></g><g id="o"><use transform="matrix(0.05,0,0,0.05,0,0)" xlink:href="#Q"/><use transform="matrix(0.05,0,0,0.05,10,0)" xlink:href="#V"/><use transform="matrix(0.05,0,0,0.05,19,0)" xlink:href="#V"/><use transform="matrix(0.05,0,0,0.05,28,0)" xlink:href="#T"/><use transform="matrix(0.05,0,0,0.05,38,0)" xlink:href="#W"/><use transform="matrix(0.05,0,0,0.05,48,0)" xlink:href="#U"/><use transform="matrix(0.05,0,0,0.05,58,0)" xlink:href="#X"/></g><g id="p"><use transform="matrix(0.05,0,0,0.05,0,0)" xlink:href="#V"/><use transform="matrix(0.05,0,0,0.05,9,0)" xlink:href="#T"/><use transform="matrix(0.05,0,0,0.05,19,0)" xlink:href="#U"/></g><path d="M177-190C167-65 218 103 67 71c-23-6-38-20-44-43l32-5c15 47 100 32 89-28v-30C133-14 115 1 83 1 29 1 15-40 15-95c0-56 16-97 71-98 29-1 48 16 59 35 1-10 0-23 2-32h30zM94-22c36 0 50-32 50-73 0-42-14-75-50-75-39 0-46 34-46 75s6 73 46 73" id="am"/><g id="q"><use transform="matrix(0.05,0,0,0.05,0,0)" xlink:href="#am"/><use transform="matrix(0.05,0,0,0.05,10,0)" xlink:href="#T"/><use transform="matrix(0.05,0,0,0.05,20,0)" xlink:href="#T"/><use transform="matrix(0.05,0,0,0.05,30,0)" xlink:href="#am"/><use transform="matrix(0.05,0,0,0.05,40,0)" xlink:href="#ab"/><use transform="matrix(0.05,0,0,0.05,43.95,0)" xlink:href="#P"/></g><path fill="#3a414a" d="M143 4C61 4 22-44 18-125c-5-107 100-154 193-111 17 8 29 25 37 43l-32 9c-13-25-37-40-76-40-61 0-88 39-88 99 0 61 29 100 91 101 35 0 62-11 79-27v-45h-74v-28h105v86C228-13 192 4 143 4" id="an"/><g id="r"><use transform="matrix(0.06172839506172839,0,0,0.06172839506172839,0,0)" xlink:href="#an"/><use transform="matrix(0.06172839506172839,0,0,0.06172839506172839,17.28395061728395,0)" xlink:href="#u"/><use transform="matrix(0.06172839506172839,0,0,0.06172839506172839,29.629629629629626,0)" xlink:href="#w"/><use transform="matrix(0.06172839506172839,0,0,0.06172839506172839,41.9753086419753,0)" xlink:href="#K"/><use transform="matrix(0.06172839506172839,0,0,0.06172839506172839,46.85185185185185,0)" xlink:href="#D"/></g><path fill="#3a414a" d="M140-251c81 0 123 46 123 126C263-46 219 4 140 4 59 4 17-45 17-125s42-126 123-126zm0 227c63 0 89-41 89-101s-29-99-89-99c-61 0-89 39-89 99S79-25 140-24" id="ao"/><path fill="#3a414a" d="M205 0l-28-72H64L36 0H1l101-248h38L239 0h-34zm-38-99l-47-123c-12 45-31 82-46 123h93" id="ap"/><path fill="#3a414a" d="M84 4C-5 8 30-112 23-190h32v120c0 31 7 50 39 49 72-2 45-101 50-169h31l1 190h-30c-1-10 1-25-2-33-11 22-28 36-60 37" id="aq"/><path fill="#3a414a" d="M106-169C34-169 62-67 57 0H25v-261h32l-1 103c12-21 28-36 61-36 89 0 53 116 60 194h-32v-121c2-32-8-49-39-48" id="ar"/><g id="s"><use transform="matrix(0.06172839506172839,0,0,0.06172839506172839,0,0)" xlink:href="#ao"/><use transform="matrix(0.06172839506172839,0,0,0.06172839506172839,17.28395061728395,0)" xlink:href="#ap"/><use transform="matrix(0.06172839506172839,0,0,0.06172839506172839,32.09876543209876,0)" xlink:href="#aq"/><use transform="matrix(0.06172839506172839,0,0,0.06172839506172839,44.444444444444436,0)" xlink:href="#C"/><use transform="matrix(0.06172839506172839,0,0,0.06172839506172839,50.61728395061728,0)" xlink:href="#ar"/></g></defs></g></svg>