<svg xmlns="http://www.w3.org/2000/svg" xmlns:xlink="http://www.w3.org/1999/xlink" xmlns:lucid="lucid" width="1081.01" height="760"><g transform="translate(-1192.3432729385775 527.3333333333333)" lucid:page-tab-id="kkl-xEImwlm-"><path d="M-1806.87-3776.5h5484.6v8875.84h-5484.6z" fill="#fff"/><path d="M1192.34-521.33a6 6 0 0 1 6-6h1069a6 6 0 0 1 6 6v748a6 6 0 0 1-6 6h-1069a6 6 0 0 1-6-6z" fill-opacity="0"/><path d="M1672.34-168.4c0 33.14-35.8 60-80 60-44.18 0-80-26.86-80-60s35.82-60 80-60c44.2 0 80 26.86 80 60z" stroke="#3a414a" fill="#fff"/><use xlink:href="#a" transform="matrix(1,0,0,1,1512.3432729385775,-228.40171449481045) translate(39.754999999999995 40.65)"/><use xlink:href="#b" transform="matrix(1,0,0,1,1512.3432729385775,-228.40171449481045) translate(31.629999999999995 62.25)"/><use xlink:href="#c" transform="matrix(1,0,0,1,1512.3432729385775,-228.40171449481045) translate(33.92999999999999 83.85000000000001)"/><path d="M2213.1-86.84c0 10.9-8.84 19.75-19.75 19.75-10.9 0-19.75-8.83-19.75-19.74 0-10.9 8.85-19.75 19.75-19.75s19.75 8.85 19.75 19.76z" stroke="#3a414a" fill="#fff"/><path d="M2193.35-67.1v49.3a20.7 20.7 0 0 0 3.2 11.08l36.8 58.13m-40-63.2l-40 63.2m0-98.74h80" stroke="#3a414a" fill="none"/><path d="M2153.35-100.6a6 6 0 0 1 6-6h68a6 6 0 0 1 6 6v168a6 6 0 0 1-6 6h-68a6 6 0 0 1-6-6z" fill="none"/><use xlink:href="#d" transform="matrix(1,0,0,1,2073.3544522212496,51.41193174647515) translate(84.2283950617284 17.77777777777778)"/><use xlink:href="#e" transform="matrix(1,0,0,1,2073.3544522212496,51.41193174647515) translate(92.87037037037038 44.44444444444444)"/><path d="M1953.35-16.6c0 33.15-35.8 60-80 60-44.18 0-80-26.85-80-60 0-33.13 35.82-60 80-60 44.2 0 80 26.87 80 60z" stroke="#3a414a" fill="#fff"/><use xlink:href="#a" transform="matrix(1,0,0,1,1793.3544522212499,-76.58806825352485) translate(39.754999999999995 48.15)"/><use xlink:href="#f" transform="matrix(1,0,0,1,1793.3544522212499,-76.58806825352485) translate(11.104999999999999 69.75)"/><use xlink:href="#g" transform="matrix(1,0,0,1,1793.3544522212499,-76.58806825352485) translate(71.055 69.75)"/><path d="M1788.63-17.35l1.37.14 1.4.08.97.02-.03 1-.98-.02-1.44-.1-1.4-.14-1.04-.15.15-1zm-13.05-4.62l1.33.77 1.32.7 1.3.6 1.3.54 1.27.48.92.3-.3.95-.95-.3-1.33-.5-1.32-.56-1.34-.62-1.35-.7-1.37-.8-1.13-.7.54-.85zm-10.6-9l1.7 1.83 1.65 1.6 1.55 1.4.77.64-.64.77-.77-.65-1.6-1.43-1.65-1.64-1.75-1.87-1.1-1.28.76-.65zm-8.33-11.16l2.37 3.58 1.88 2.6-.8.58-1.9-2.6-2.4-3.62-1.1-1.8.86-.53zm-5.8-10.13l2.3 4.2-.9.47-2.3-4.2-2.15-4.36.9-.44zm-4.23-8.65l-.92.37-3.68-8.9.92-.4zm-13.13-31.8h-1.1l-1.42-3.47.92-.38zm-3.44-8.3l-.92.38-3.68-8.9.92-.4zm-5.57-13.36l-.92.4-3.9-8.8.9-.4zm-8.75-18.83l2.78 5.64-.9.45-2.77-5.63-1.6-2.94.86-.48zm-8.25-13.8l2.4 3.6 1.83 3.04-.85.52-1.83-3.02-2.37-3.58-1.04-1.43.8-.6zm-9.44-11.18l1.66 1.63 1.75 1.87 1.86 2.16.18.22-.78.62-.16-.2-1.83-2.13-1.73-1.85-1.63-1.6-1.25-1.13.67-.74zm-8.8-6.48l1.38.8 1.4.88.92.64-.57.82-.9-.63-1.38-.87-1.33-.77-.46-.22.47-.9z" stroke="#3a414a" stroke-width=".05" fill="#3a414a"/><path d="M1687.13-160.05L1674.4-168l14.98-1.04z" fill="#3a414a"/><path d="M1687.45-159.26l-14.6-9.14 17.18-1.2zm-11.47-8.36l10.83 6.78 1.93-7.65z" stroke="#3a414a" stroke-width=".05" fill="#3a414a"/><path d="M1792.87-17.1l-.02.5v.5h-.5v-1z" fill="#3a414a"/><path d="M1792.9-17.1l-.02.5v.54h-.56v-1.05zm-.53 1h.46v-.96h-.46z" stroke="#3a414a" stroke-width=".05" fill="#3a414a"/><use xlink:href="#h" transform="matrix(1,0,0,1,1695.9461808103665,-92.71380386028028) translate(0 14.222222222222223)"/><path d="M1954.36-16.6h198.5" stroke="#3a414a" stroke-linejoin="round" fill="none"/><path d="M1954.37-16.1h-.53v-.98h.53zM2156.35-16.1h-3.5v-1h3.5z" stroke="#3a414a" stroke-width=".05" fill="#3a414a"/><path d="M1293.1 20.28c0 10.9-8.84 19.75-19.75 19.75-10.9 0-19.75-8.84-19.75-19.75 0-10.9 8.85-19.75 19.75-19.75s19.75 8.84 19.75 19.75z" stroke="#3a414a" fill="#fff"/><path d="M1273.35 40.03v49.3a20.7 20.7 0 0 0 3.2 11.07l36.8 58.13m-40-63.2l-40 63.2m0-98.75h80" stroke="#3a414a" fill="none"/><path d="M1233.35 6.53a6 6 0 0 1 6-6h68a6 6 0 0 1 6 6v168a6 6 0 0 1-6 6h-68a6 6 0 0 1-6-6z" fill="none"/><use xlink:href="#i" transform="matrix(1,0,0,1,1153.3544522212499,158.52990434371236) translate(87.31481481481481 17.77777777777778)"/><use xlink:href="#j" transform="matrix(1,0,0,1,1153.3544522212499,158.52990434371236) translate(52.191358024691354 44.44444444444444)"/><use xlink:href="#k" transform="matrix(1,0,0,1,1153.3544522212499,158.52990434371236) translate(95.40123456790124 44.44444444444444)"/><path d="M1313.86 90.52l1.85-.04 2.3-.14 2.24-.24 2.2-.32 2.14-.4 2.14-.5 2.1-.6 2.12-.7 2.1-.77 2.12-.88 2.13-1 2.14-1.13 2.2-1.28 2.23-1.42 2.3-1.6 2.36-1.8 2.45-2 2.55-2.3 2.67-2.63 2.82-3 3-3.48 3.2-4.07 3.5-4.82 3.85-5.8 4.33-7.14 5-9.12 6.1-12.32 8.38-18.92 40.82-101 6.1-12.3 5-9.13 4.32-7.15 3.85-5.8 3.5-4.82 3.2-4.06 3-3.48 2.83-3 2.67-2.62 2.55-2.3 2.45-2.02 2.36-1.8 2.3-1.6 2.23-1.4 2.2-1.28 2.15-1.13 2.14-1 2.12-.88 2.1-.78 2.1-.7 2.12-.58 2.13-.5 2.17-.4 2.2-.33 2.23-.24 2.3-.15 1.84-.04" stroke="#000" stroke-linejoin="round" fill="none"/><path d="M1313.88 91.02l-3.5.07-.03-1 3.5-.08zM1511.84-168.4v.5h-.5v-1h.52z" stroke="#000" stroke-width=".05"/><path d="M2213.1-376.3c0 10.9-8.84 19.75-19.75 19.75-10.9 0-19.75-8.85-19.75-19.75s8.85-19.75 19.75-19.75 19.75 8.84 19.75 19.75z" stroke="#3a414a" fill="#fff"/><path d="M2193.35-356.55v49.3a20.7 20.7 0 0 0 3.2 11.07l36.8 58.13m-40-63.2l-40 63.2m0-98.75h80" stroke="#3a414a" fill="none"/><path d="M2153.35-390.05a6 6 0 0 1 6-6h68a6 6 0 0 1 6 6v168a6 6 0 0 1-6 6h-68a6 6 0 0 1-6-6z" fill="none"/><use xlink:href="#l" transform="matrix(1,0,0,1,2073.3544522212496,-238.05387749310785) translate(70.67901234567901 17.77777777777778)"/><path d="M2152.85-306.04l-29.08.6-27.43 1.72-26 2.73-25.3 3.74-25.35 4.84-26.44 6.2-29.4 8.23-37.58 12.28-193.76 69.7-42.64 11.93-17.93 4.44" stroke="#3a414a" stroke-linejoin="round" fill="none"/><path d="M2156.36-305.62l-3.5.08-.03-1 3.5-.08zM1672.08-179.18l-.5.12-.23-.97.5-.12z" stroke="#3a414a" stroke-width=".05" fill="#3a414a"/><path d="M1293.1-487.58c0 10.9-8.84 19.75-19.75 19.75-10.9 0-19.75-8.85-19.75-19.75s8.85-19.75 19.75-19.75 19.75 8.84 19.75 19.75z" stroke="#3a414a" fill="#fff"/><path d="M1273.35-467.83v49.3a20.7 20.7 0 0 0 3.2 11.07l36.8 58.13m-40-63.2l-40 63.2m0-98.75h80" stroke="#3a414a" fill="none"/><path d="M1233.35-501.33a6 6 0 0 1 6-6h68a6 6 0 0 1 6 6v168a6 6 0 0 1-6 6h-68a6 6 0 0 1-6-6z" fill="none"/><use xlink:href="#m" transform="matrix(1,0,0,1,1153.3544522212499,-349.33333333333326) translate(87.31481481481481 17.77777777777778)"/><use xlink:href="#n" transform="matrix(1,0,0,1,1153.3544522212499,-349.33333333333326) translate(69.4753086419753 44.44444444444444)"/><path d="M1511.34-168.4l-1.95-.05-2.38-.15-2.32-.25-2.27-.33-2.23-.43-2.2-.52-2.2-.6-2.16-.72-2.17-.8-2.18-.92-2.2-1.03-2.22-1.15-2.25-1.3-2.3-1.46-2.35-1.65-2.42-1.84-2.5-2.07-2.63-2.35-2.73-2.68-2.9-3.08-3.07-3.57-3.3-4.17-3.6-4.95-3.96-5.98-4.5-7.42-5.24-9.57-6.55-13.24-9.78-22.12-34.2-82.26-6.54-13.24-5.24-9.56-4.5-7.42-3.96-6-3.6-4.94-3.3-4.17-3.07-3.55-2.9-3.08-2.74-2.68-2.6-2.37-2.52-2.08-2.42-1.84-2.36-1.62-2.3-1.46-2.24-1.3-2.22-1.16-2.2-1.03-2.17-.92-2.17-.8-2.17-.7-2.2-.6-2.2-.53-2.23-.42-2.27-.34-2.32-.23-2.38-.15-1.95-.04" stroke="#3a414a" stroke-linejoin="round" fill="none"/><path d="M1511.86-168.9l-.02.5v.5h-.52l.02-1zM1313.87-417.83v1h-3.52v-1z" stroke="#3a414a" stroke-width=".05" fill="#3a414a"/><path d="M1293.1-208.65c0 10.9-8.84 19.75-19.75 19.75-10.9 0-19.75-8.84-19.75-19.75 0-10.9 8.85-19.75 19.75-19.75s19.75 8.84 19.75 19.75z" stroke="#3a414a" fill="#fff"/><path d="M1273.35-188.9v49.3a20.7 20.7 0 0 0 3.2 11.07l36.8 58.13m-40-63.2l-40 63.2m0-98.75h80" stroke="#3a414a" fill="none"/><path d="M1233.35-222.4a6 6 0 0 1 6-6h68a6 6 0 0 1 6 6v168a6 6 0 0 1-6 6h-68a6 6 0 0 1-6-6z" fill="none"/><g><use xlink:href="#o" transform="matrix(1,0,0,1,1153.3544522212503,-70.40171449481045) translate(75.61728395061729 17.77777777777778)"/><use xlink:href="#p" transform="matrix(1,0,0,1,1153.3544522212503,-70.40171449481045) translate(147.1604938271605 17.77777777777778)"/><use xlink:href="#q" transform="matrix(1,0,0,1,1153.3544522212503,-70.40171449481045) translate(70.70987654320987 44.44444444444444)"/></g><path d="M1273.35-262.02v32.62" stroke="#3a414a" fill="none"/><path d="M1273.35-276.78l4.64 14.26h-9.28z" stroke="#3a414a" fill="#fff"/><path d="M1273.85-228.84l-.47-.06h-.53v-.5h1z" stroke="#3a414a" stroke-width=".05" fill="#3a414a"/><defs><path d="M137 0h-34L2-248h35l83 218 83-218h36" id="r"/><path d="M24-231v-30h32v30H24zM24 0v-190h32V0H24" id="s"/><path d="M135-143c-3-34-86-38-87 0 15 53 115 12 119 90S17 21 10-45l28-5c4 36 97 45 98 0-10-56-113-15-118-90-4-57 82-63 122-42 12 7 21 19 24 35" id="t"/><path d="M84 4C-5 8 30-112 23-190h32v120c0 31 7 50 39 49 72-2 45-101 50-169h31l1 190h-30c-1-10 1-25-2-33-11 22-28 36-60 37" id="u"/><path d="M141-36C126-15 110 5 73 4 37 3 15-17 15-53c-1-64 63-63 125-63 3-35-9-54-41-54-24 1-41 7-42 31l-33-3c5-37 33-52 76-52 45 0 72 20 72 64v82c-1 20 7 32 28 27v20c-31 9-61-2-59-35zM48-53c0 20 12 33 32 33 41-3 63-29 60-74-43 2-92-5-92 41" id="v"/><path d="M24 0v-261h32V0H24" id="w"/><path d="M9 0v-24l116-142H16v-24h144v24L44-24h123V0H9" id="x"/><g id="a"><use transform="matrix(0.05,0,0,0.05,0,0)" xlink:href="#r"/><use transform="matrix(0.05,0,0,0.05,11.65,0)" xlink:href="#s"/><use transform="matrix(0.05,0,0,0.05,15.600000000000001,0)" xlink:href="#t"/><use transform="matrix(0.05,0,0,0.05,24.6,0)" xlink:href="#u"/><use transform="matrix(0.05,0,0,0.05,34.6,0)" xlink:href="#v"/><use transform="matrix(0.05,0,0,0.05,44.6,0)" xlink:href="#w"/><use transform="matrix(0.05,0,0,0.05,48.550000000000004,0)" xlink:href="#s"/><use transform="matrix(0.05,0,0,0.05,52.5,0)" xlink:href="#x"/><use transform="matrix(0.05,0,0,0.05,61.5,0)" xlink:href="#x"/><use transform="matrix(0.05,0,0,0.05,70.5,0)" xlink:href="#v"/></g><path d="M117-194c89-4 53 116 60 194h-32v-121c0-31-8-49-39-48C34-167 62-67 57 0H25l-1-190h30c1 10-1 24 2 32 11-22 29-35 61-36" id="y"/><path d="M101-234c-31-9-42 10-38 44h38v23H63V0H32v-167H5v-23h27c-7-52 17-82 69-68v24" id="z"/><path d="M100-194c62-1 85 37 85 99 1 63-27 99-86 99S16-35 15-95c0-66 28-99 85-99zM99-20c44 1 53-31 53-75 0-43-8-75-51-75s-53 32-53 75 10 74 51 75" id="A"/><path d="M114-163C36-179 61-72 57 0H25l-1-190h30c1 12-1 29 2 39 6-27 23-49 58-41v29" id="B"/><path d="M210-169c-67 3-38 105-44 169h-31v-121c0-29-5-50-35-48C34-165 62-65 56 0H25l-1-190h30c1 10-1 24 2 32 10-44 99-50 107 0 11-21 27-35 58-36 85-2 47 119 55 194h-31v-121c0-29-5-49-35-48" id="C"/><g id="b"><use transform="matrix(0.05,0,0,0.05,0,0)" xlink:href="#s"/><use transform="matrix(0.05,0,0,0.05,3.95,0)" xlink:href="#y"/><use transform="matrix(0.05,0,0,0.05,13.949999999999998,0)" xlink:href="#z"/><use transform="matrix(0.05,0,0,0.05,18.95,0)" xlink:href="#A"/><use transform="matrix(0.05,0,0,0.05,28.950000000000003,0)" xlink:href="#B"/><use transform="matrix(0.05,0,0,0.05,34.9,0)" xlink:href="#C"/><use transform="matrix(0.05,0,0,0.05,49.85,0)" xlink:href="#v"/><use transform="matrix(0.05,0,0,0.05,59.85,0)" xlink:href="#x"/><use transform="matrix(0.05,0,0,0.05,68.85,0)" xlink:href="#s"/><use transform="matrix(0.05,0,0,0.05,72.8,0)" xlink:href="#A"/><use transform="matrix(0.05,0,0,0.05,82.8,0)" xlink:href="#y"/><use transform="matrix(0.05,0,0,0.05,92.8,0)" xlink:href="#s"/></g><path d="M85-194c31 0 48 13 60 33l-1-100h32l1 261h-30c-2-10 0-23-3-31C134-8 116 4 85 4 32 4 16-35 15-94c0-66 23-100 70-100zm9 24c-40 0-46 34-46 75 0 40 6 74 45 74 42 0 51-32 51-76 0-42-9-74-50-73" id="D"/><path d="M100-194c63 0 86 42 84 106H49c0 40 14 67 53 68 26 1 43-12 49-29l28 8c-11 28-37 45-77 45C44 4 14-33 15-96c1-61 26-98 85-98zm52 81c6-60-76-77-97-28-3 7-6 17-6 28h103" id="E"/><path d="M47-170H22l-4-78h33" id="F"/><path d="M59-47c-2 24 18 29 38 22v24C64 9 27 4 27-40v-127H5v-23h24l9-43h21v43h35v23H59v120" id="G"/><g id="c"><use transform="matrix(0.05,0,0,0.05,0,0)" xlink:href="#D"/><use transform="matrix(0.05,0,0,0.05,10,0)" xlink:href="#E"/><use transform="matrix(0.05,0,0,0.05,20,0)" xlink:href="#w"/><use transform="matrix(0.05,0,0,0.05,23.95,0)" xlink:href="#w"/><use transform="matrix(0.05,0,0,0.05,27.899999999999995,0)" xlink:href="#F"/><use transform="matrix(0.05,0,0,0.05,31.299999999999997,0)" xlink:href="#A"/><use transform="matrix(0.05,0,0,0.05,41.3,0)" xlink:href="#B"/><use transform="matrix(0.05,0,0,0.05,47.25,0)" xlink:href="#v"/><use transform="matrix(0.05,0,0,0.05,57.25,0)" xlink:href="#G"/><use transform="matrix(0.05,0,0,0.05,62.25,0)" xlink:href="#A"/><use transform="matrix(0.05,0,0,0.05,72.25,0)" xlink:href="#B"/><use transform="matrix(0.05,0,0,0.05,78.2,0)" xlink:href="#s"/><use transform="matrix(0.05,0,0,0.05,82.15,0)" xlink:href="#A"/></g><path fill="#3a414a" d="M143 4C61 4 22-44 18-125c-5-107 100-154 193-111 17 8 29 25 37 43l-32 9c-13-25-37-40-76-40-61 0-88 39-88 99 0 61 29 100 91 101 35 0 62-11 79-27v-45h-74v-28h105v86C228-13 192 4 143 4" id="H"/><path fill="#3a414a" d="M100-194c62-1 85 37 85 99 1 63-27 99-86 99S16-35 15-95c0-66 28-99 85-99zM99-20c44 1 53-31 53-75 0-43-8-75-51-75s-53 32-53 75 10 74 51 75" id="I"/><path fill="#3a414a" d="M177-190C167-65 218 103 67 71c-23-6-38-20-44-43l32-5c15 47 100 32 89-28v-30C133-14 115 1 83 1 29 1 15-40 15-95c0-56 16-97 71-98 29-1 48 16 59 35 1-10 0-23 2-32h30zM94-22c36 0 50-32 50-73 0-42-14-75-50-75-39 0-46 34-46 75s6 73 46 73" id="J"/><path fill="#3a414a" d="M24 0v-261h32V0H24" id="K"/><path fill="#3a414a" d="M100-194c63 0 86 42 84 106H49c0 40 14 67 53 68 26 1 43-12 49-29l28 8c-11 28-37 45-77 45C44 4 14-33 15-96c1-61 26-98 85-98zm52 81c6-60-76-77-97-28-3 7-6 17-6 28h103" id="L"/><g id="d"><use transform="matrix(0.06172839506172839,0,0,0.06172839506172839,0,0)" xlink:href="#H"/><use transform="matrix(0.06172839506172839,0,0,0.06172839506172839,17.28395061728395,0)" xlink:href="#I"/><use transform="matrix(0.06172839506172839,0,0,0.06172839506172839,29.629629629629626,0)" xlink:href="#I"/><use transform="matrix(0.06172839506172839,0,0,0.06172839506172839,41.9753086419753,0)" xlink:href="#J"/><use transform="matrix(0.06172839506172839,0,0,0.06172839506172839,54.32098765432098,0)" xlink:href="#K"/><use transform="matrix(0.06172839506172839,0,0,0.06172839506172839,59.197530864197525,0)" xlink:href="#L"/></g><path fill="#3a414a" d="M240 0l2-218c-23 76-54 145-80 218h-23L58-218 59 0H30v-248h44l77 211c21-75 51-140 76-211h43V0h-30" id="M"/><path fill="#3a414a" d="M141-36C126-15 110 5 73 4 37 3 15-17 15-53c-1-64 63-63 125-63 3-35-9-54-41-54-24 1-41 7-42 31l-33-3c5-37 33-52 76-52 45 0 72 20 72 64v82c-1 20 7 32 28 27v20c-31 9-61-2-59-35zM48-53c0 20 12 33 32 33 41-3 63-29 60-74-43 2-92-5-92 41" id="N"/><path fill="#3a414a" d="M115-194c55 1 70 41 70 98S169 2 115 4C84 4 66-9 55-30l1 105H24l-1-265h31l2 30c10-21 28-34 59-34zm-8 174c40 0 45-34 45-75s-6-73-45-74c-42 0-51 32-51 76 0 43 10 73 51 73" id="O"/><path fill="#3a414a" d="M135-143c-3-34-86-38-87 0 15 53 115 12 119 90S17 21 10-45l28-5c4 36 97 45 98 0-10-56-113-15-118-90-4-57 82-63 122-42 12 7 21 19 24 35" id="P"/><g id="e"><use transform="matrix(0.06172839506172839,0,0,0.06172839506172839,0,0)" xlink:href="#M"/><use transform="matrix(0.06172839506172839,0,0,0.06172839506172839,18.456790123456788,0)" xlink:href="#N"/><use transform="matrix(0.06172839506172839,0,0,0.06172839506172839,30.80246913580247,0)" xlink:href="#O"/><use transform="matrix(0.06172839506172839,0,0,0.06172839506172839,43.148148148148145,0)" xlink:href="#P"/></g><path d="M115-194c55 1 70 41 70 98S169 2 115 4C84 4 66-9 55-30l1 105H24l-1-265h31l2 30c10-21 28-34 59-34zm-8 174c40 0 45-34 45-75s-6-73-45-74c-42 0-51 32-51 76 0 43 10 73 51 73" id="Q"/><g id="f"><use transform="matrix(0.05,0,0,0.05,0,0)" xlink:href="#C"/><use transform="matrix(0.05,0,0,0.05,14.950000000000001,0)" xlink:href="#v"/><use transform="matrix(0.05,0,0,0.05,24.950000000000003,0)" xlink:href="#Q"/><use transform="matrix(0.05,0,0,0.05,34.95,0)" xlink:href="#Q"/><use transform="matrix(0.05,0,0,0.05,44.95,0)" xlink:href="#v"/></g><path d="M108 0H70L1-190h34L89-25l56-165h34" id="R"/><g id="g"><use transform="matrix(0.05,0,0,0.05,0,0)" xlink:href="#s"/><use transform="matrix(0.05,0,0,0.05,3.95,0)" xlink:href="#y"/><use transform="matrix(0.05,0,0,0.05,13.949999999999998,0)" xlink:href="#G"/><use transform="matrix(0.05,0,0,0.05,18.95,0)" xlink:href="#E"/><use transform="matrix(0.05,0,0,0.05,28.950000000000003,0)" xlink:href="#B"/><use transform="matrix(0.05,0,0,0.05,34.9,0)" xlink:href="#v"/><use transform="matrix(0.05,0,0,0.05,44.9,0)" xlink:href="#G"/><use transform="matrix(0.05,0,0,0.05,49.9,0)" xlink:href="#G"/><use transform="matrix(0.05,0,0,0.05,54.900000000000006,0)" xlink:href="#s"/><use transform="matrix(0.05,0,0,0.05,58.85,0)" xlink:href="#R"/><use transform="matrix(0.05,0,0,0.05,67.85,0)" xlink:href="#v"/></g><path fill="#333" d="M15-91v-56l181-69v40L49-119l147 57v40" id="S"/><path fill="#333" d="M25-224v-37h50v37H25zM25 0v-190h50V0H25" id="T"/><path fill="#333" d="M135-194c87-1 58 113 63 194h-50c-7-57 23-157-34-157-59 0-34 97-39 157H25l-1-190h47c2 12-1 28 3 38 12-26 28-41 61-42" id="U"/><path fill="#333" d="M190-63c-7 42-38 67-86 67-59 0-84-38-90-98-12-110 154-137 174-36l-49 2c-2-19-15-32-35-32-30 0-35 28-38 64-6 74 65 87 74 30" id="V"/><path fill="#333" d="M25 0v-261h50V0H25" id="W"/><path fill="#333" d="M85 4C-2 5 27-109 22-190h50c7 57-23 150 33 157 60-5 35-97 40-157h50l1 190h-47c-2-12 1-28-3-38-12 25-28 42-61 42" id="X"/><path fill="#333" d="M88-194c31-1 46 15 58 34l-1-101h50l1 261h-48c-2-10 0-23-3-31C134-8 116 4 84 4 32 4 16-41 15-95c0-56 19-97 73-99zm17 164c33 0 40-30 41-66 1-37-9-64-41-64s-38 30-39 65c0 43 13 65 39 65" id="Y"/><path fill="#333" d="M185-48c-13 30-37 53-82 52C43 2 14-33 14-96s30-98 90-98c62 0 83 45 84 108H66c0 31 8 55 39 56 18 0 30-7 34-22zm-45-69c5-46-57-63-70-21-2 6-4 13-4 21h74" id="Z"/><path fill="#333" d="M15-22v-40l146-57-146-57v-40l181 69v56" id="aa"/><g id="h"><use transform="matrix(0.04938271604938272,0,0,0.04938271604938272,0,0)" xlink:href="#S"/><use transform="matrix(0.04938271604938272,0,0,0.04938271604938272,10.370370370370372,0)" xlink:href="#T"/><use transform="matrix(0.04938271604938272,0,0,0.04938271604938272,15.308641975308642,0)" xlink:href="#U"/><use transform="matrix(0.04938271604938272,0,0,0.04938271604938272,26.12345679012346,0)" xlink:href="#V"/><use transform="matrix(0.04938271604938272,0,0,0.04938271604938272,36,0)" xlink:href="#W"/><use transform="matrix(0.04938271604938272,0,0,0.04938271604938272,40.93827160493827,0)" xlink:href="#X"/><use transform="matrix(0.04938271604938272,0,0,0.04938271604938272,51.75308641975309,0)" xlink:href="#Y"/><use transform="matrix(0.04938271604938272,0,0,0.04938271604938272,62.567901234567906,0)" xlink:href="#Z"/><use transform="matrix(0.04938271604938272,0,0,0.04938271604938272,72.44444444444446,0)" xlink:href="#aa"/></g><path fill="#3a414a" d="M232-93c-1 65-40 97-104 97C67 4 28-28 28-90v-158h33c8 89-33 224 67 224 102 0 64-133 71-224h33v155" id="ab"/><path fill="#3a414a" d="M59-47c-2 24 18 29 38 22v24C64 9 27 4 27-40v-127H5v-23h24l9-43h21v43h35v23H59v120" id="ac"/><path fill="#3a414a" d="M117-194c89-4 53 116 60 194h-32v-121c0-31-8-49-39-48C34-167 62-67 57 0H25l-1-190h30c1 10-1 24 2 32 11-22 29-35 61-36" id="ad"/><g id="i"><use transform="matrix(0.06172839506172839,0,0,0.06172839506172839,0,0)" xlink:href="#ab"/><use transform="matrix(0.06172839506172839,0,0,0.06172839506172839,15.987654320987653,0)" xlink:href="#ac"/><use transform="matrix(0.06172839506172839,0,0,0.06172839506172839,22.160493827160494,0)" xlink:href="#L"/><use transform="matrix(0.06172839506172839,0,0,0.06172839506172839,34.50617283950617,0)" xlink:href="#ad"/><use transform="matrix(0.06172839506172839,0,0,0.06172839506172839,46.85185185185185,0)" xlink:href="#ac"/><use transform="matrix(0.06172839506172839,0,0,0.06172839506172839,53.02469135802469,0)" xlink:href="#L"/></g><g id="j"><use transform="matrix(0.06172839506172839,0,0,0.06172839506172839,0,0)" xlink:href="#ad"/><use transform="matrix(0.06172839506172839,0,0,0.06172839506172839,12.345679012345679,0)" xlink:href="#I"/><use transform="matrix(0.06172839506172839,0,0,0.06172839506172839,24.691358024691358,0)" xlink:href="#ad"/></g><path fill="#3a414a" d="M114-163C36-179 61-72 57 0H25l-1-190h30c1 12-1 29 2 39 6-27 23-49 58-41v29" id="ae"/><path fill="#3a414a" d="M24-231v-30h32v30H24zM24 0v-190h32V0H24" id="af"/><g id="k"><use transform="matrix(0.06172839506172839,0,0,0.06172839506172839,0,0)" xlink:href="#ae"/><use transform="matrix(0.06172839506172839,0,0,0.06172839506172839,7.345679012345679,0)" xlink:href="#L"/><use transform="matrix(0.06172839506172839,0,0,0.06172839506172839,19.691358024691358,0)" xlink:href="#J"/><use transform="matrix(0.06172839506172839,0,0,0.06172839506172839,32.03703703703704,0)" xlink:href="#af"/><use transform="matrix(0.06172839506172839,0,0,0.06172839506172839,36.91358024691358,0)" xlink:href="#P"/><use transform="matrix(0.06172839506172839,0,0,0.06172839506172839,48.0246913580247,0)" xlink:href="#ac"/><use transform="matrix(0.06172839506172839,0,0,0.06172839506172839,54.19753086419754,0)" xlink:href="#ae"/><use transform="matrix(0.06172839506172839,0,0,0.06172839506172839,61.543209876543216,0)" xlink:href="#N"/><use transform="matrix(0.06172839506172839,0,0,0.06172839506172839,73.8888888888889,0)" xlink:href="#ac"/><use transform="matrix(0.06172839506172839,0,0,0.06172839506172839,80.06172839506173,0)" xlink:href="#I"/></g><path fill="#3a414a" d="M30-248c118-7 216 8 213 122C240-48 200 0 122 0H30v-248zM63-27c89 8 146-16 146-99s-60-101-146-95v194" id="ag"/><path fill="#3a414a" d="M160-131c35 5 61 23 61 61C221 17 115-2 30 0v-248c76 3 177-17 177 60 0 33-19 50-47 57zm-97-11c50-1 110 9 110-42 0-47-63-36-110-37v79zm0 115c55-2 124 14 124-45 0-56-70-42-124-44v89" id="ah"/><g id="l"><use transform="matrix(0.06172839506172839,0,0,0.06172839506172839,0,0)" xlink:href="#M"/><use transform="matrix(0.06172839506172839,0,0,0.06172839506172839,18.456790123456788,0)" xlink:href="#I"/><use transform="matrix(0.06172839506172839,0,0,0.06172839506172839,30.80246913580247,0)" xlink:href="#ad"/><use transform="matrix(0.06172839506172839,0,0,0.06172839506172839,43.148148148148145,0)" xlink:href="#J"/><use transform="matrix(0.06172839506172839,0,0,0.06172839506172839,55.49382716049382,0)" xlink:href="#I"/><use transform="matrix(0.06172839506172839,0,0,0.06172839506172839,67.8395061728395,0)" xlink:href="#ag"/><use transform="matrix(0.06172839506172839,0,0,0.06172839506172839,83.82716049382717,0)" xlink:href="#ah"/></g><g id="m"><use transform="matrix(0.06172839506172839,0,0,0.06172839506172839,0,0)" xlink:href="#ab"/><use transform="matrix(0.06172839506172839,0,0,0.06172839506172839,15.987654320987653,0)" xlink:href="#ac"/><use transform="matrix(0.06172839506172839,0,0,0.06172839506172839,22.160493827160494,0)" xlink:href="#L"/><use transform="matrix(0.06172839506172839,0,0,0.06172839506172839,34.50617283950617,0)" xlink:href="#ad"/><use transform="matrix(0.06172839506172839,0,0,0.06172839506172839,46.85185185185185,0)" xlink:href="#ac"/><use transform="matrix(0.06172839506172839,0,0,0.06172839506172839,53.02469135802469,0)" xlink:href="#L"/></g><path fill="#3a414a" d="M233-177c-1 41-23 64-60 70L243 0h-38l-65-103H63V0H30v-248c88 3 205-21 203 71zM63-129c60-2 137 13 137-47 0-61-80-42-137-45v92" id="ai"/><g id="n"><use transform="matrix(0.06172839506172839,0,0,0.06172839506172839,0,0)" xlink:href="#ai"/><use transform="matrix(0.06172839506172839,0,0,0.06172839506172839,15.987654320987653,0)" xlink:href="#L"/><use transform="matrix(0.06172839506172839,0,0,0.06172839506172839,28.333333333333332,0)" xlink:href="#J"/><use transform="matrix(0.06172839506172839,0,0,0.06172839506172839,40.67901234567901,0)" xlink:href="#af"/><use transform="matrix(0.06172839506172839,0,0,0.06172839506172839,45.55555555555556,0)" xlink:href="#P"/><use transform="matrix(0.06172839506172839,0,0,0.06172839506172839,56.66666666666667,0)" xlink:href="#ac"/><use transform="matrix(0.06172839506172839,0,0,0.06172839506172839,62.83950617283951,0)" xlink:href="#ae"/><use transform="matrix(0.06172839506172839,0,0,0.06172839506172839,70.18518518518519,0)" xlink:href="#N"/><use transform="matrix(0.06172839506172839,0,0,0.06172839506172839,82.53086419753087,0)" xlink:href="#ac"/><use transform="matrix(0.06172839506172839,0,0,0.06172839506172839,88.70370370370371,0)" xlink:href="#I"/></g><g id="o"><use transform="matrix(0.06172839506172839,0,0,0.06172839506172839,0,0)" xlink:href="#ab"/><use transform="matrix(0.06172839506172839,0,0,0.06172839506172839,15.987654320987653,0)" xlink:href="#ac"/><use transform="matrix(0.06172839506172839,0,0,0.06172839506172839,22.160493827160494,0)" xlink:href="#L"/><use transform="matrix(0.06172839506172839,0,0,0.06172839506172839,34.50617283950617,0)" xlink:href="#ad"/><use transform="matrix(0.06172839506172839,0,0,0.06172839506172839,46.85185185185185,0)" xlink:href="#ac"/><use transform="matrix(0.06172839506172839,0,0,0.06172839506172839,53.02469135802469,0)" xlink:href="#L"/></g><path fill="#3a414a" d="M85-194c31 0 48 13 60 33l-1-100h32l1 261h-30c-2-10 0-23-3-31C134-8 116 4 85 4 32 4 16-35 15-94c0-66 23-100 70-100zm9 24c-40 0-46 34-46 75 0 40 6 74 45 74 42 0 51-32 51-76 0-42-9-74-50-73" id="aj"/><g id="p"><use transform="matrix(0.06172839506172839,0,0,0.06172839506172839,0,0)" xlink:href="#aj"/><use transform="matrix(0.06172839506172839,0,0,0.06172839506172839,12.345679012345679,0)" xlink:href="#af"/></g><g id="q"><use transform="matrix(0.06172839506172839,0,0,0.06172839506172839,0,0)" xlink:href="#P"/><use transform="matrix(0.06172839506172839,0,0,0.06172839506172839,11.11111111111111,0)" xlink:href="#L"/><use transform="matrix(0.06172839506172839,0,0,0.06172839506172839,23.45679012345679,0)" xlink:href="#J"/><use transform="matrix(0.06172839506172839,0,0,0.06172839506172839,35.80246913580247,0)" xlink:href="#ae"/><use transform="matrix(0.06172839506172839,0,0,0.06172839506172839,43.148148148148145,0)" xlink:href="#L"/><use transform="matrix(0.06172839506172839,0,0,0.06172839506172839,55.49382716049382,0)" xlink:href="#ac"/><use transform="matrix(0.06172839506172839,0,0,0.06172839506172839,61.666666666666664,0)" xlink:href="#L"/><use transform="matrix(0.06172839506172839,0,0,0.06172839506172839,74.01234567901234,0)" xlink:href="#ae"/><use transform="matrix(0.06172839506172839,0,0,0.06172839506172839,81.35802469135803,0)" xlink:href="#af"/><use transform="matrix(0.06172839506172839,0,0,0.06172839506172839,86.23456790123457,0)" xlink:href="#N"/></g></defs></g></svg>