<svg xmlns="http://www.w3.org/2000/svg" xmlns:xlink="http://www.w3.org/1999/xlink" xmlns:lucid="lucid" width="1080" height="520"><g transform="translate(-1193.3544522212503 -392.66666666666674)" lucid:page-tab-id="kkl-xEImwlm-"><path d="M-1806.87-3776.5h5484.6v8875.84h-5484.6z" fill="#fff"/><path d="M1193.35 398.67a6 6 0 0 1 6-6h1068a6 6 0 0 1 6 6v508a6 6 0 0 1-6 6h-1068a6 6 0 0 1-6-6z" fill-opacity="0"/><path d="M1293.1 432.42c0 10.9-8.84 19.75-19.75 19.75-10.9 0-19.75-8.85-19.75-19.75s8.85-19.75 19.75-19.75 19.75 8.84 19.75 19.75z" stroke="#3a414a" fill="#fff"/><path d="M1273.35 452.17v49.3a20.7 20.7 0 0 0 3.2 11.07l36.8 58.13m-40-63.2l-40 63.2m0-98.75h80" stroke="#3a414a" fill="none"/><path d="M1233.35 418.67a6 6 0 0 1 6-6h68a6 6 0 0 1 6 6v168a6 6 0 0 1-6 6h-68a6 6 0 0 1-6-6z" fill="none"/><use xlink:href="#a" transform="matrix(1,0,0,1,1153.3544522212499,570.6666666666667) translate(87.31481481481481 17.77777777777778)"/><use xlink:href="#b" transform="matrix(1,0,0,1,1153.3544522212499,570.6666666666667) translate(69.4753086419753 44.44444444444444)"/><path d="M1953.35 472.67c0 33.13-35.8 60-80 60-44.18 0-80-26.87-80-60 0-33.14 35.82-60 80-60 44.2 0 80 26.86 80 60z" stroke="#3a414a" fill="#fff"/><use xlink:href="#c" transform="matrix(1,0,0,1,1793.3544522212503,412.66666666666674) translate(46.57999999999999 51.9)"/><use xlink:href="#d" transform="matrix(1,0,0,1,1793.3544522212503,412.66666666666674) translate(28.054999999999993 73.5)"/><path d="M1953.35 622.67c0 33.13-35.8 60-80 60-44.18 0-80-26.87-80-60 0-33.14 35.82-60 80-60 44.2 0 80 26.86 80 60z" stroke="#3a414a" fill="#fff"/><use xlink:href="#e" transform="matrix(1,0,0,1,1793.3544522212503,562.6666666666667) translate(50.605 51.9)"/><use xlink:href="#d" transform="matrix(1,0,0,1,1793.3544522212503,562.6666666666667) translate(28.054999999999993 73.5)"/><path d="M1673.35 572.67c0 33.13-35.8 60-80 60-44.18 0-80-26.87-80-60 0-33.14 35.82-60 80-60 44.2 0 80 26.86 80 60z" stroke="#3a414a" fill="#fff"/><use xlink:href="#f" transform="matrix(1,0,0,1,1513.3544522212503,512.6666666666667) translate(39.754999999999995 51.9)"/><use xlink:href="#g" transform="matrix(1,0,0,1,1513.3544522212503,512.6666666666667) translate(31.07999999999999 73.5)"/><path d="M1694.62 567.93l-1.62.77-1.75.74-1.16.43-.36-.94 1.14-.42 1.7-.72 1.62-.75zm12.16-8.42l-1 .92-1.96 1.63-1.9 1.44-1.83 1.27-1.16.73-.53-.84 1.13-.72 1.8-1.26 1.86-1.42 1.92-1.6 1-.9zm9.94-10.88l-1.82 2.32-2.57 2.98-2 2.16-.74-.68 2-2.14 2.52-2.96 1.8-2.3zm8.27-12.2l-3.7 5.98-1.65 2.28-.8-.6 1.6-2.24 3.7-5.94zm7.7-12.48l-5.14 8.32-.85-.52 5.16-8.33zm15.83-24.7h-1.17l.4-.55zm9.42-11.14l-.52.5-2.3 2.48-2.54 2.95-1.08 1.36-.78-.63 1.08-1.37 2.56-3 2.34-2.5.53-.5zm11.36-9.04l-.35.2-1.76 1.13-1.82 1.25-1.86 1.42-1.92 1.6-.1.1-.67-.75.1-.1 1.97-1.63 1.9-1.45 1.83-1.3 1.8-1.14.38-.2zm13.47-5.34l-1.68.4-1.8.5-1.73.56-1.73.64-1.72.73-.52.24-.42-.9.54-.26 1.75-.74 1.77-.66 1.78-.6 1.82-.5 1.7-.4zm9.6-1.04l-1.66.03-2.05.14-1.1.12-.12-1 1.13-.1 2.1-.15 1.7-.02z" stroke="#3a414a" stroke-width=".05" fill="#3a414a"/><path d="M1792.85 472.66l-.48.02-.03-1h.55z" fill="#3a414a"/><path d="M1792.88 472.68l-.54.02-.02-1.05h.6zm-.5-.98v.95h.45l.03-.96z" stroke="#3a414a" stroke-width=".05" fill="#3a414a"/><path d="M1690.3 574.04l-14.86-2.15 13.28-7z" fill="#3a414a"/><path d="M1690.9 574.63l-17.05-2.46 15.24-8.03zm-13.86-3l12.64 1.82-1.34-7.78z" stroke="#3a414a" stroke-width=".05" fill="#3a414a"/><use xlink:href="#h" transform="matrix(1,0,0,1,1701.85359273482,499.24159193027776) translate(0 14.222222222222223)"/><path d="M1313.86 502.68l7.93.16 7.58.48 6.92.72 6.37.94 5.95 1.13 5.62 1.33 5.38 1.5 5.2 1.7 5.13 1.9 5.14 2.16 5.27 2.47 5.6 2.94 6.35 3.68 8.3 5.3 33.27 22.47 6.33 3.67 5.6 2.94 5.3 2.48 5.13 2.16 5.12 1.9 5.2 1.7 5.4 1.5 5.6 1.32 5.96 1.13 6.37.94 6.93.72 7.58.47 7.95.16" stroke="#3a414a" stroke-linejoin="round" fill="none"/><path d="M1313.88 502.18l-.02 1-3.5-.08v-1zM1512.87 572.17l-.02.5v.5h-.5v-1zM1788.62 622.08l3.74.08-.02 1-3.76-.08-1.07-.07.07-1zm-13.9-1.7l3.13.6 3.33.48 1.6.17-.1 1-1.63-.18-3.37-.5-3.17-.6-1.37-.33.23-.97zm-13.97-4.55l2.67 1.13 2.7 1 2.62.86-.3.95-2.64-.86-2.74-1-2.72-1.15-.95-.45.42-.9zm-5.68-1.7l-.24-.13-.34-.2h.73zm-27.47-21.66h-1.6l-1.8-1.48.62-.8zm-12.82-9.45l3.14 2 3.1 2.17-.57.8-3.08-2.15-3.1-1.97-1.87-1.08.5-.87zm-13.87-6.6l2.75 1.02 2.72 1.15 2.24 1.05-.4.9-2.24-1.05-2.68-1.13-2.7-1-1.25-.42.3-.95zm-8.7-2.43l2.77.64-.23.97-2.75-.64-1.94-.37.2-1z" stroke="#3a414a" stroke-width=".05" fill="#3a414a"/><path d="M1792.87 622.17l-.02.5v.5h-.52l.02-1z" fill="#3a414a"/><path d="M1792.9 622.14l-.02.52v.53l-.58-.02.03-1.05zm-.54 1h.47v-.95l-.46-.02z" stroke="#3a414a" stroke-width=".05" fill="#3a414a"/><path d="M1689.27 578.68l-13.8-5.87 14.6-3.36z" fill="#3a414a"/><path d="M1689.7 579.4l-15.85-6.73 16.8-3.87zm-12.62-6.45l11.75 5 .7-7.86z" stroke="#3a414a" stroke-width=".05" fill="#3a414a"/><use xlink:href="#i" transform="matrix(1,0,0,1,1701.0269764754637,592.4675519831668) translate(0 14.222222222222223)"/><path d="M2213.1 432.42c0 10.9-8.84 19.75-19.75 19.75-10.9 0-19.75-8.85-19.75-19.75s8.85-19.75 19.75-19.75 19.75 8.84 19.75 19.75z" stroke="#3a414a" fill="#fff"/><path d="M2193.35 452.17v49.3a20.7 20.7 0 0 0 3.2 11.07l36.8 58.13m-40-63.2l-40 63.2m0-98.75h80" stroke="#3a414a" fill="none"/><path d="M2153.35 418.67a6 6 0 0 1 6-6h68a6 6 0 0 1 6 6v168a6 6 0 0 1-6 6h-68a6 6 0 0 1-6-6z" fill="none"/><use xlink:href="#j" transform="matrix(1,0,0,1,2073.3544522212505,570.6666666666667) translate(70.67901234567901 17.77777777777778)"/><path d="M1673.35 712.67c0 33.13-35.8 60-80 60-44.18 0-80-26.87-80-60 0-33.14 35.82-60 80-60 44.2 0 80 26.86 80 60z" stroke="#3a414a" fill="#fff"/><use xlink:href="#k" transform="matrix(1,0,0,1,1513.3544522212503,652.6666666666667) translate(20.054999999999993 63.15)"/><use xlink:href="#l" transform="matrix(1,0,0,1,1513.3544522212503,652.6666666666667) translate(88.005 63.15)"/><path d="M1789.3 772.1l3.06.06-.02 1-3.08-.07-1.97-.13.05-1zm-14.66-2.1l2.63.6 2.76.53 2.35.35-.14 1-2.38-.36-2.8-.54-2.67-.63-2.07-.57.27-.97zm-14.55-5.8l2.38 1.25 2.37 1.12 2.38 1 .64.24-.35.95-.66-.25-2.42-1.02-2.4-1.13-2.43-1.28-1.23-.7.5-.88zm-10.52-7.1l2.9 2.22 2.17 1.52-.58.82-2.18-1.53-2.95-2.24-2.9-2.4.65-.78zm-34.76-31.9l2.93 2.24 3.38 2.8.13.13-.7.72-.1-.1-3.33-2.78-2.9-2.2-1.54-1.08.57-.82zm-12.55-7.35l2.4 1.14 2.43 1.26 1.9 1.1-.5.87-1.88-1.1-2.4-1.25-2.36-1.12-2.32-.97.4-.94zm-9.95-3.47l2.58.72.24.08-.3.95-.23-.07-2.53-.7-2.07-.5.23-.97z" stroke="#3a414a" stroke-width=".05" fill="#3a414a"/><path d="M1792.87 772.17l-.02.5v.5h-.52l.02-1z" fill="#3a414a"/><path d="M1792.9 772.14l-.02.52v.53l-.58-.02.03-1.05zm-.54 1h.47v-.95l-.46-.02z" stroke="#3a414a" stroke-width=".05" fill="#3a414a"/><path d="M1689.17 718.94l-13.7-6.1 14.67-3.12z" fill="#3a414a"/><path d="M1689.6 719.67l-15.75-7 16.85-3.6zm-12.53-6.67l11.67 5.2.83-7.85z" stroke="#3a414a" stroke-width=".05" fill="#3a414a"/><use xlink:href="#h" transform="matrix(1,0,0,1,1694.3488449129457,732.0704868976222) translate(0 14.222222222222223)"/><path d="M1953.35 772.67c0 33.13-35.8 60-80 60-44.18 0-80-26.87-80-60 0-33.14 35.82-60 80-60 44.2 0 80 26.86 80 60z" stroke="#3a414a" fill="#fff"/><use xlink:href="#m" transform="matrix(1,0,0,1,1793.3544522212503,712.6666666666667) translate(49.18000000000001 44.4)"/><use xlink:href="#n" transform="matrix(1,0,0,1,1793.3544522212503,712.6666666666667) translate(35.029999999999994 66)"/><use xlink:href="#o" transform="matrix(1,0,0,1,1793.3544522212503,712.6666666666667) translate(56.05500000000001 87.60000000000001)"/><path d="M1789.4 771.46l1.72.4 1.33.23-.18.97-1.35-.24-1.76-.4-1.7-.45.27-.97zm-13.4-6.1l1.38.92 1.4.87 1.4.8 1.44.72 1.57.72-.42.9-1.6-.72-1.47-.76-1.44-.8-1.42-.9-1.42-.96-1.15-.86.6-.8zm-9.7-9.46l1.44 1.76 1.4 1.6 1.4 1.44.66.65-.7.72-.68-.66-1.42-1.47-1.43-1.62-1.45-1.8-1.43-1.9.8-.6zm-13.4-26.84l1.08 3h-1.06l-.97-2.68-.43-1.4.95-.3zm-2.25-7.2l.36 1.16-.94.3-.37-1.2-2.22-8.27.97-.26zm-3.33-13l-.97.2-2.1-9.55.96-.2zm-3.16-14.34l-.98.2-1.92-9.6.98-.2zm-2.88-14.4l-.98.2-.4-2.02h1zm-4.65-23.15h-1.02l-.12-.64.98-.2zm-1.13-5.64l-.98.2-1.92-9.6.98-.2zm-5.38-23.42l2.4 9.02-.97.26-2.4-9-.13-.43.95-.3zm-4.53-13.6l2.14 6 .77 2.48-.94.3-.77-2.46-2.15-5.95-.32-.8.2-.07h.85zm-14-25l1.6 1.97.88 1.2h-1.25l-.43-.6-1.56-1.9-1.07-1.22.75-.66zm-10.86-9.7l1.57 1.08 1.56 1.15 1.55 1.25 1.55 1.36.12.12-.7.72-.1-.1-1.5-1.34-1.52-1.22-1.52-1.13-1.53-1.05-1.56-.96.53-.86zm-10.03-4.84l1.8.65 1.72.7.55.26-.42.9-.53-.23-1.7-.7-1.73-.62-.56-.16.3-.95z" stroke="#3a414a" stroke-width=".05" fill="#3a414a"/><path d="M1792.87 772.16l-.02.5v.52l-.6-.1.2-1z" fill="#3a414a"/><path d="M1792.9 772.14l-.02.52v.55l-.65-.1.2-1.05zm-.6.9l.53.1v-.96l-.37-.07z" stroke="#3a414a" stroke-width=".05" fill="#3a414a"/><path d="M1688.88 579.6l-13.43-6.7 14.8-2.48z" fill="#3a414a"/><path d="M1689.28 580.34l-15.43-7.67 17-2.86zm-12.22-7.2l11.43 5.7 1.15-7.82z" stroke="#3a414a" stroke-width=".05" fill="#3a414a"/><use xlink:href="#h" transform="matrix(1,0,0,1,1699.324097903171,656.9704776091364) translate(0 14.222222222222223)"/><path d="M1512.35 712.66l-2.42-.05-2.82-.17-2.72-.3-2.67-.38-2.6-.5-2.55-.6-2.53-.7-2.5-.82-2.48-.92-2.5-1.04-2.48-1.17-2.5-1.32-2.55-1.47-2.58-1.63-2.65-1.84-2.7-2.07-2.83-2.33-2.92-2.63-3.07-3-3.25-3.48-3.48-4.03-3.77-4.77-4.17-5.75-4.75-7.15-5.64-9.35-7.47-13.6-40.7-81.43-5.66-9.35-4.74-7.14-4.17-5.75-3.77-4.76-3.5-4.03-3.24-3.46-3.07-3-2.94-2.64-2.8-2.33-2.73-2.06-2.64-1.83-2.6-1.64-2.54-1.47-2.5-1.32-2.5-1.17-2.5-1.04-2.48-.93-2.5-.8-2.52-.72-2.56-.6-2.6-.5-2.67-.4-2.73-.28-2.82-.17-2.43-.05" stroke="#3a414a" stroke-linejoin="round" fill="none"/><path d="M1512.87 712.17l-.02.5v.5h-.52l.02-1zM1313.87 502.17v1h-3.52v-1z" stroke="#3a414a" stroke-width=".05" fill="#3a414a"/><path d="M2213.1 702.42c0 10.9-8.84 19.75-19.75 19.75-10.9 0-19.75-8.85-19.75-19.75s8.85-19.75 19.75-19.75 19.75 8.84 19.75 19.75z" stroke="#3a414a" fill="#fff"/><path d="M2193.35 722.17v49.3a20.7 20.7 0 0 0 3.2 11.07l36.8 58.13m-40-63.2l-40 63.2m0-98.75h80" stroke="#3a414a" fill="none"/><path d="M2153.35 688.67a6 6 0 0 1 6-6h68a6 6 0 0 1 6 6v168a6 6 0 0 1-6 6h-68a6 6 0 0 1-6-6z" fill="none"/><use xlink:href="#p" transform="matrix(1,0,0,1,2073.3544522212496,840.6666666666667) translate(63.24074074074074 17.77777777777778)"/><use xlink:href="#q" transform="matrix(1,0,0,1,2073.3544522212496,840.6666666666667) translate(58.98148148148148 44.44444444444444)"/><use xlink:href="#r" transform="matrix(1,0,0,1,2073.3544522212496,840.6666666666667) translate(129.2283950617284 44.44444444444444)"/><path d="M2152.85 772.67h-198.5" stroke="#3a414a" stroke-linejoin="round" fill="none"/><path d="M2156.35 773.17h-3.5v-1h3.5zM1954.37 773.17h-.53v-1h.53z" stroke="#3a414a" stroke-width=".05" fill="#3a414a"/><path d="M1293.1 702.42c0 10.9-8.84 19.75-19.75 19.75-10.9 0-19.75-8.85-19.75-19.75s8.85-19.75 19.75-19.75 19.75 8.84 19.75 19.75z" stroke="#3a414a" fill="#fff"/><path d="M1273.35 722.17v49.3a20.7 20.7 0 0 0 3.2 11.07l36.8 58.13m-40-63.2l-40 63.2m0-98.75h80" stroke="#3a414a" fill="none"/><path d="M1233.35 688.67a6 6 0 0 1 6-6h68a6 6 0 0 1 6 6v168a6 6 0 0 1-6 6h-68a6 6 0 0 1-6-6z" fill="none"/><use xlink:href="#s" transform="matrix(1,0,0,1,1153.3544522212499,840.6666666666667) translate(75.61728395061729 17.77777777777778)"/><use xlink:href="#t" transform="matrix(1,0,0,1,1153.3544522212499,840.6666666666667) translate(147.1604938271605 17.77777777777778)"/><use xlink:href="#u" transform="matrix(1,0,0,1,1153.3544522212499,840.6666666666667) translate(70.70987654320987 44.44444444444444)"/><path d="M1273.35 649.05v32.62" stroke="#3a414a" fill="none"/><path d="M1273.35 634.28l4.64 14.27h-9.28z" stroke="#3a414a" fill="#fff"/><path d="M1273.85 682.23l-.47-.06h-.53v-.52h1z" stroke="#3a414a" stroke-width=".05" fill="#3a414a"/><path d="M1669.84 692.67h203" stroke="#3a414a" fill="none"/><path d="M1669.85 693.17h-.3l-.4-.97-.03-.03h.73z" stroke="#3a414a" stroke-width=".05" fill="#3a414a"/><path d="M1872.84 692.67h.5" stroke="#3a414a" fill="none"/><path d="M2152.85 502.68l-7.07.14-6.7.42-6 .63-5.42.8-4.94.94-4.54 1.07-4.2 1.17-3.9 1.27-3.68 1.38-3.46 1.45-3.3 1.55-3.13 1.64-3 1.75-2.93 1.85-2.84 1.97-2.77 2.1-2.74 2.26-2.7 2.44-2.72 2.66-2.73 2.9-2.8 3.24-2.87 3.64-3.04 4.18-3.28 4.95-3.73 6.17-4.7 8.55-26.56 53.06-4.47 7.4-4.07 6.12-3.88 5.33-3.77 4.78-3.73 4.33-3.75 4-3.8 3.72-3.88 3.5-3.98 3.3-4.13 3.13-4.3 3-4.5 2.85-4.75 2.74-5.04 2.63-5.36 2.52-5.76 2.4-6.2 2.32-6.77 2.2-7.4 2.06-8.17 1.9-9.1 1.74-10.2 1.5-11.58 1.22-13.28.83-11.37.28" stroke="#3a414a" stroke-linejoin="round" fill="none"/><path d="M2156.36 503.1l-3.5.08-.03-1 3.5-.07z" stroke="#3a414a" stroke-width=".05" fill="#3a414a"/><path d="M1873.87 692.65l-.52.02M1669.84 552.67h203" stroke="#3a414a" fill="none"/><path d="M1669.85 553.17h-.3l-.4-.97-.03-.03h.73z" stroke="#3a414a" stroke-width=".05" fill="#3a414a"/><path d="M1872.84 552.67h.5" stroke="#3a414a" fill="none"/><path d="M2152.85 502.68l-16 .33-14.88.94-13.82 1.45-13.33 1.95-13.5 2.58-14.85 3.5-20.22 5.68-65.37 19.76-17.82 4.18-17.06 3.26-17.64 2.6-19.12 2-21.5 1.35-13.9.4" stroke="#3a414a" stroke-linejoin="round" fill="none"/><path d="M2156.36 503.1l-3.5.08-.03-1 3.5-.07z" stroke="#3a414a" stroke-width=".05" fill="#3a414a"/><path d="M1873.87 552.65l-.52.02" stroke="#3a414a" fill="none"/><defs><path fill="#3a414a" d="M232-93c-1 65-40 97-104 97C67 4 28-28 28-90v-158h33c8 89-33 224 67 224 102 0 64-133 71-224h33v155" id="v"/><path fill="#3a414a" d="M59-47c-2 24 18 29 38 22v24C64 9 27 4 27-40v-127H5v-23h24l9-43h21v43h35v23H59v120" id="w"/><path fill="#3a414a" d="M100-194c63 0 86 42 84 106H49c0 40 14 67 53 68 26 1 43-12 49-29l28 8c-11 28-37 45-77 45C44 4 14-33 15-96c1-61 26-98 85-98zm52 81c6-60-76-77-97-28-3 7-6 17-6 28h103" id="x"/><path fill="#3a414a" d="M117-194c89-4 53 116 60 194h-32v-121c0-31-8-49-39-48C34-167 62-67 57 0H25l-1-190h30c1 10-1 24 2 32 11-22 29-35 61-36" id="y"/><g id="a"><use transform="matrix(0.06172839506172839,0,0,0.06172839506172839,0,0)" xlink:href="#v"/><use transform="matrix(0.06172839506172839,0,0,0.06172839506172839,15.987654320987653,0)" xlink:href="#w"/><use transform="matrix(0.06172839506172839,0,0,0.06172839506172839,22.160493827160494,0)" xlink:href="#x"/><use transform="matrix(0.06172839506172839,0,0,0.06172839506172839,34.50617283950617,0)" xlink:href="#y"/><use transform="matrix(0.06172839506172839,0,0,0.06172839506172839,46.85185185185185,0)" xlink:href="#w"/><use transform="matrix(0.06172839506172839,0,0,0.06172839506172839,53.02469135802469,0)" xlink:href="#x"/></g><path fill="#3a414a" d="M233-177c-1 41-23 64-60 70L243 0h-38l-65-103H63V0H30v-248c88 3 205-21 203 71zM63-129c60-2 137 13 137-47 0-61-80-42-137-45v92" id="z"/><path fill="#3a414a" d="M177-190C167-65 218 103 67 71c-23-6-38-20-44-43l32-5c15 47 100 32 89-28v-30C133-14 115 1 83 1 29 1 15-40 15-95c0-56 16-97 71-98 29-1 48 16 59 35 1-10 0-23 2-32h30zM94-22c36 0 50-32 50-73 0-42-14-75-50-75-39 0-46 34-46 75s6 73 46 73" id="A"/><path fill="#3a414a" d="M24-231v-30h32v30H24zM24 0v-190h32V0H24" id="B"/><path fill="#3a414a" d="M135-143c-3-34-86-38-87 0 15 53 115 12 119 90S17 21 10-45l28-5c4 36 97 45 98 0-10-56-113-15-118-90-4-57 82-63 122-42 12 7 21 19 24 35" id="C"/><path fill="#3a414a" d="M114-163C36-179 61-72 57 0H25l-1-190h30c1 12-1 29 2 39 6-27 23-49 58-41v29" id="D"/><path fill="#3a414a" d="M141-36C126-15 110 5 73 4 37 3 15-17 15-53c-1-64 63-63 125-63 3-35-9-54-41-54-24 1-41 7-42 31l-33-3c5-37 33-52 76-52 45 0 72 20 72 64v82c-1 20 7 32 28 27v20c-31 9-61-2-59-35zM48-53c0 20 12 33 32 33 41-3 63-29 60-74-43 2-92-5-92 41" id="E"/><path fill="#3a414a" d="M100-194c62-1 85 37 85 99 1 63-27 99-86 99S16-35 15-95c0-66 28-99 85-99zM99-20c44 1 53-31 53-75 0-43-8-75-51-75s-53 32-53 75 10 74 51 75" id="F"/><g id="b"><use transform="matrix(0.06172839506172839,0,0,0.06172839506172839,0,0)" xlink:href="#z"/><use transform="matrix(0.06172839506172839,0,0,0.06172839506172839,15.987654320987653,0)" xlink:href="#x"/><use transform="matrix(0.06172839506172839,0,0,0.06172839506172839,28.333333333333332,0)" xlink:href="#A"/><use transform="matrix(0.06172839506172839,0,0,0.06172839506172839,40.67901234567901,0)" xlink:href="#B"/><use transform="matrix(0.06172839506172839,0,0,0.06172839506172839,45.55555555555556,0)" xlink:href="#C"/><use transform="matrix(0.06172839506172839,0,0,0.06172839506172839,56.66666666666667,0)" xlink:href="#w"/><use transform="matrix(0.06172839506172839,0,0,0.06172839506172839,62.83950617283951,0)" xlink:href="#D"/><use transform="matrix(0.06172839506172839,0,0,0.06172839506172839,70.18518518518519,0)" xlink:href="#E"/><use transform="matrix(0.06172839506172839,0,0,0.06172839506172839,82.53086419753087,0)" xlink:href="#w"/><use transform="matrix(0.06172839506172839,0,0,0.06172839506172839,88.70370370370371,0)" xlink:href="#F"/></g><path d="M240 0l2-218c-23 76-54 145-80 218h-23L58-218 59 0H30v-248h44l77 211c21-75 51-140 76-211h43V0h-30" id="G"/><path d="M100-194c62-1 85 37 85 99 1 63-27 99-86 99S16-35 15-95c0-66 28-99 85-99zM99-20c44 1 53-31 53-75 0-43-8-75-51-75s-53 32-53 75 10 74 51 75" id="H"/><path d="M85-194c31 0 48 13 60 33l-1-100h32l1 261h-30c-2-10 0-23-3-31C134-8 116 4 85 4 32 4 16-35 15-94c0-66 23-100 70-100zm9 24c-40 0-46 34-46 75 0 40 6 74 45 74 42 0 51-32 51-76 0-42-9-74-50-73" id="I"/><path d="M24-231v-30h32v30H24zM24 0v-190h32V0H24" id="J"/><path d="M101-234c-31-9-42 10-38 44h38v23H63V0H32v-167H5v-23h27c-7-52 17-82 69-68v24" id="K"/><path d="M96-169c-40 0-48 33-48 73s9 75 48 75c24 0 41-14 43-38l32 2c-6 37-31 61-74 61-59 0-76-41-82-99-10-93 101-131 147-64 4 7 5 14 7 22l-32 3c-4-21-16-35-41-35" id="L"/><path d="M141-36C126-15 110 5 73 4 37 3 15-17 15-53c-1-64 63-63 125-63 3-35-9-54-41-54-24 1-41 7-42 31l-33-3c5-37 33-52 76-52 45 0 72 20 72 64v82c-1 20 7 32 28 27v20c-31 9-61-2-59-35zM48-53c0 20 12 33 32 33 41-3 63-29 60-74-43 2-92-5-92 41" id="M"/><g id="c"><use transform="matrix(0.05,0,0,0.05,0,0)" xlink:href="#G"/><use transform="matrix(0.05,0,0,0.05,14.950000000000001,0)" xlink:href="#H"/><use transform="matrix(0.05,0,0,0.05,24.950000000000003,0)" xlink:href="#I"/><use transform="matrix(0.05,0,0,0.05,34.95,0)" xlink:href="#J"/><use transform="matrix(0.05,0,0,0.05,38.900000000000006,0)" xlink:href="#K"/><use transform="matrix(0.05,0,0,0.05,43.900000000000006,0)" xlink:href="#J"/><use transform="matrix(0.05,0,0,0.05,47.85000000000001,0)" xlink:href="#L"/><use transform="matrix(0.05,0,0,0.05,56.85,0)" xlink:href="#M"/></g><path d="M115-194c55 1 70 41 70 98S169 2 115 4C84 4 66-9 55-30l1 105H24l-1-265h31l2 30c10-21 28-34 59-34zm-8 174c40 0 45-34 45-75s-6-73-45-74c-42 0-51 32-51 76 0 43 10 73 51 73" id="N"/><path d="M114-163C36-179 61-72 57 0H25l-1-190h30c1 12-1 29 2 39 6-27 23-49 58-41v29" id="O"/><path d="M100-194c63 0 86 42 84 106H49c0 40 14 67 53 68 26 1 43-12 49-29l28 8c-11 28-37 45-77 45C44 4 14-33 15-96c1-61 26-98 85-98zm52 81c6-60-76-77-97-28-3 7-6 17-6 28h103" id="P"/><path d="M117-194c89-4 53 116 60 194h-32v-121c0-31-8-49-39-48C34-167 62-67 57 0H25l-1-190h30c1 10-1 24 2 32 11-22 29-35 61-36" id="Q"/><path d="M59-47c-2 24 18 29 38 22v24C64 9 27 4 27-40v-127H5v-23h24l9-43h21v43h35v23H59v120" id="R"/><path d="M9 0v-24l116-142H16v-24h144v24L44-24h123V0H9" id="S"/><g id="d"><use transform="matrix(0.05,0,0,0.05,0,0)" xlink:href="#N"/><use transform="matrix(0.05,0,0,0.05,10,0)" xlink:href="#O"/><use transform="matrix(0.05,0,0,0.05,15.949999999999998,0)" xlink:href="#P"/><use transform="matrix(0.05,0,0,0.05,25.950000000000003,0)" xlink:href="#Q"/><use transform="matrix(0.05,0,0,0.05,35.95,0)" xlink:href="#H"/><use transform="matrix(0.05,0,0,0.05,45.95,0)" xlink:href="#R"/><use transform="matrix(0.05,0,0,0.05,50.95,0)" xlink:href="#M"/><use transform="matrix(0.05,0,0,0.05,60.95,0)" xlink:href="#S"/><use transform="matrix(0.05,0,0,0.05,69.95,0)" xlink:href="#J"/><use transform="matrix(0.05,0,0,0.05,73.9,0)" xlink:href="#H"/><use transform="matrix(0.05,0,0,0.05,83.9,0)" xlink:href="#Q"/><use transform="matrix(0.05,0,0,0.05,93.9,0)" xlink:href="#P"/></g><path d="M30 0v-248h187v28H63v79h144v27H63v87h162V0H30" id="T"/><path d="M24 0v-261h32V0H24" id="U"/><path d="M210-169c-67 3-38 105-44 169h-31v-121c0-29-5-50-35-48C34-165 62-65 56 0H25l-1-190h30c1 10-1 24 2 32 10-44 99-50 107 0 11-21 27-35 58-36 85-2 47 119 55 194h-31v-121c0-29-5-49-35-48" id="V"/><g id="e"><use transform="matrix(0.05,0,0,0.05,0,0)" xlink:href="#T"/><use transform="matrix(0.05,0,0,0.05,12,0)" xlink:href="#U"/><use transform="matrix(0.05,0,0,0.05,15.949999999999998,0)" xlink:href="#J"/><use transform="matrix(0.05,0,0,0.05,19.9,0)" xlink:href="#V"/><use transform="matrix(0.05,0,0,0.05,34.85,0)" xlink:href="#J"/><use transform="matrix(0.05,0,0,0.05,38.800000000000004,0)" xlink:href="#Q"/><use transform="matrix(0.05,0,0,0.05,48.800000000000004,0)" xlink:href="#M"/></g><path d="M137 0h-34L2-248h35l83 218 83-218h36" id="W"/><path d="M135-143c-3-34-86-38-87 0 15 53 115 12 119 90S17 21 10-45l28-5c4 36 97 45 98 0-10-56-113-15-118-90-4-57 82-63 122-42 12 7 21 19 24 35" id="X"/><path d="M84 4C-5 8 30-112 23-190h32v120c0 31 7 50 39 49 72-2 45-101 50-169h31l1 190h-30c-1-10 1-25-2-33-11 22-28 36-60 37" id="Y"/><g id="f"><use transform="matrix(0.05,0,0,0.05,0,0)" xlink:href="#W"/><use transform="matrix(0.05,0,0,0.05,11.65,0)" xlink:href="#J"/><use transform="matrix(0.05,0,0,0.05,15.600000000000001,0)" xlink:href="#X"/><use transform="matrix(0.05,0,0,0.05,24.6,0)" xlink:href="#Y"/><use transform="matrix(0.05,0,0,0.05,34.6,0)" xlink:href="#M"/><use transform="matrix(0.05,0,0,0.05,44.6,0)" xlink:href="#U"/><use transform="matrix(0.05,0,0,0.05,48.550000000000004,0)" xlink:href="#J"/><use transform="matrix(0.05,0,0,0.05,52.5,0)" xlink:href="#S"/><use transform="matrix(0.05,0,0,0.05,61.5,0)" xlink:href="#S"/><use transform="matrix(0.05,0,0,0.05,70.5,0)" xlink:href="#M"/></g><g id="g"><use transform="matrix(0.05,0,0,0.05,0,0)" xlink:href="#N"/><use transform="matrix(0.05,0,0,0.05,10,0)" xlink:href="#O"/><use transform="matrix(0.05,0,0,0.05,15.949999999999998,0)" xlink:href="#P"/><use transform="matrix(0.05,0,0,0.05,25.950000000000003,0)" xlink:href="#Q"/><use transform="matrix(0.05,0,0,0.05,35.95,0)" xlink:href="#H"/><use transform="matrix(0.05,0,0,0.05,45.95,0)" xlink:href="#R"/><use transform="matrix(0.05,0,0,0.05,50.95,0)" xlink:href="#M"/><use transform="matrix(0.05,0,0,0.05,60.95,0)" xlink:href="#S"/><use transform="matrix(0.05,0,0,0.05,69.95,0)" xlink:href="#J"/><use transform="matrix(0.05,0,0,0.05,73.9,0)" xlink:href="#H"/><use transform="matrix(0.05,0,0,0.05,83.9,0)" xlink:href="#Q"/><use transform="matrix(0.05,0,0,0.05,93.9,0)" xlink:href="#J"/></g><path fill="#333" d="M15-91v-56l181-69v40L49-119l147 57v40" id="Z"/><path fill="#333" d="M185-48c-13 30-37 53-82 52C43 2 14-33 14-96s30-98 90-98c62 0 83 45 84 108H66c0 31 8 55 39 56 18 0 30-7 34-22zm-45-69c5-46-57-63-70-21-2 6-4 13-4 21h74" id="aa"/><path fill="#333" d="M144 0l-44-69L55 0H2l70-98-66-92h53l41 62 40-62h54l-67 91 71 99h-54" id="ab"/><path fill="#333" d="M115-3C79 11 28 4 28-45v-112H4v-33h27l15-45h31v45h36v33H77v99c-1 23 16 31 38 25v30" id="ac"/><path fill="#333" d="M135-194c87-1 58 113 63 194h-50c-7-57 23-157-34-157-59 0-34 97-39 157H25l-1-190h47c2 12-1 28 3 38 12-26 28-41 61-42" id="ad"/><path fill="#333" d="M88-194c31-1 46 15 58 34l-1-101h50l1 261h-48c-2-10 0-23-3-31C134-8 116 4 84 4 32 4 16-41 15-95c0-56 19-97 73-99zm17 164c33 0 40-30 41-66 1-37-9-64-41-64s-38 30-39 65c0 43 13 65 39 65" id="ae"/><path fill="#333" d="M15-22v-40l146-57-146-57v-40l181 69v56" id="af"/><g id="h"><use transform="matrix(0.04938271604938272,0,0,0.04938271604938272,0,0)" xlink:href="#Z"/><use transform="matrix(0.04938271604938272,0,0,0.04938271604938272,10.370370370370372,0)" xlink:href="#aa"/><use transform="matrix(0.04938271604938272,0,0,0.04938271604938272,20.24691358024692,0)" xlink:href="#ab"/><use transform="matrix(0.04938271604938272,0,0,0.04938271604938272,30.123456790123466,0)" xlink:href="#ac"/><use transform="matrix(0.04938271604938272,0,0,0.04938271604938272,36.00000000000001,0)" xlink:href="#aa"/><use transform="matrix(0.04938271604938272,0,0,0.04938271604938272,45.87654320987655,0)" xlink:href="#ad"/><use transform="matrix(0.04938271604938272,0,0,0.04938271604938272,56.69135802469136,0)" xlink:href="#ae"/><use transform="matrix(0.04938271604938272,0,0,0.04938271604938272,67.50617283950618,0)" xlink:href="#af"/></g><g id="i"><use transform="matrix(0.04938271604938272,0,0,0.04938271604938272,0,0)" xlink:href="#Z"/><use transform="matrix(0.04938271604938272,0,0,0.04938271604938272,10.370370370370372,0)" xlink:href="#aa"/><use transform="matrix(0.04938271604938272,0,0,0.04938271604938272,20.24691358024692,0)" xlink:href="#ab"/><use transform="matrix(0.04938271604938272,0,0,0.04938271604938272,30.123456790123466,0)" xlink:href="#ac"/><use transform="matrix(0.04938271604938272,0,0,0.04938271604938272,36.00000000000001,0)" xlink:href="#aa"/><use transform="matrix(0.04938271604938272,0,0,0.04938271604938272,45.87654320987655,0)" xlink:href="#ad"/><use transform="matrix(0.04938271604938272,0,0,0.04938271604938272,56.69135802469136,0)" xlink:href="#ae"/><use transform="matrix(0.04938271604938272,0,0,0.04938271604938272,67.50617283950618,0)" xlink:href="#af"/></g><path fill="#3a414a" d="M240 0l2-218c-23 76-54 145-80 218h-23L58-218 59 0H30v-248h44l77 211c21-75 51-140 76-211h43V0h-30" id="ag"/><path fill="#3a414a" d="M30-248c118-7 216 8 213 122C240-48 200 0 122 0H30v-248zM63-27c89 8 146-16 146-99s-60-101-146-95v194" id="ah"/><path fill="#3a414a" d="M160-131c35 5 61 23 61 61C221 17 115-2 30 0v-248c76 3 177-17 177 60 0 33-19 50-47 57zm-97-11c50-1 110 9 110-42 0-47-63-36-110-37v79zm0 115c55-2 124 14 124-45 0-56-70-42-124-44v89" id="ai"/><g id="j"><use transform="matrix(0.06172839506172839,0,0,0.06172839506172839,0,0)" xlink:href="#ag"/><use transform="matrix(0.06172839506172839,0,0,0.06172839506172839,18.456790123456788,0)" xlink:href="#F"/><use transform="matrix(0.06172839506172839,0,0,0.06172839506172839,30.80246913580247,0)" xlink:href="#y"/><use transform="matrix(0.06172839506172839,0,0,0.06172839506172839,43.148148148148145,0)" xlink:href="#A"/><use transform="matrix(0.06172839506172839,0,0,0.06172839506172839,55.49382716049382,0)" xlink:href="#F"/><use transform="matrix(0.06172839506172839,0,0,0.06172839506172839,67.8395061728395,0)" xlink:href="#ah"/><use transform="matrix(0.06172839506172839,0,0,0.06172839506172839,83.82716049382717,0)" xlink:href="#ai"/></g><path d="M30-248c87 1 191-15 191 75 0 78-77 80-158 76V0H30v-248zm33 125c57 0 124 11 124-50 0-59-68-47-124-48v98" id="aj"/><g id="k"><use transform="matrix(0.05,0,0,0.05,0,0)" xlink:href="#aj"/><use transform="matrix(0.05,0,0,0.05,12,0)" xlink:href="#O"/><use transform="matrix(0.05,0,0,0.05,17.95,0)" xlink:href="#P"/><use transform="matrix(0.05,0,0,0.05,27.950000000000003,0)" xlink:href="#Q"/><use transform="matrix(0.05,0,0,0.05,37.95,0)" xlink:href="#H"/><use transform="matrix(0.05,0,0,0.05,47.95,0)" xlink:href="#R"/><use transform="matrix(0.05,0,0,0.05,52.95,0)" xlink:href="#M"/></g><g id="l"><use transform="matrix(0.05,0,0,0.05,0,0)" xlink:href="#X"/><use transform="matrix(0.05,0,0,0.05,9,0)" xlink:href="#N"/><use transform="matrix(0.05,0,0,0.05,19,0)" xlink:href="#M"/><use transform="matrix(0.05,0,0,0.05,29,0)" xlink:href="#S"/><use transform="matrix(0.05,0,0,0.05,38,0)" xlink:href="#J"/><use transform="matrix(0.05,0,0,0.05,41.95,0)" xlink:href="#H"/></g><g id="m"><use transform="matrix(0.05,0,0,0.05,0,0)" xlink:href="#T"/><use transform="matrix(0.05,0,0,0.05,12,0)" xlink:href="#K"/><use transform="matrix(0.05,0,0,0.05,16.65,0)" xlink:href="#K"/><use transform="matrix(0.05,0,0,0.05,21.65,0)" xlink:href="#P"/><use transform="matrix(0.05,0,0,0.05,31.649999999999995,0)" xlink:href="#R"/><use transform="matrix(0.05,0,0,0.05,36.65,0)" xlink:href="#R"/><use transform="matrix(0.05,0,0,0.05,41.65,0)" xlink:href="#Y"/><use transform="matrix(0.05,0,0,0.05,51.650000000000006,0)" xlink:href="#M"/></g><path d="M177-190C167-65 218 103 67 71c-23-6-38-20-44-43l32-5c15 47 100 32 89-28v-30C133-14 115 1 83 1 29 1 15-40 15-95c0-56 16-97 71-98 29-1 48 16 59 35 1-10 0-23 2-32h30zM94-22c36 0 50-32 50-73 0-42-14-75-50-75-39 0-46 34-46 75s6 73 46 73" id="ak"/><g id="n"><use transform="matrix(0.05,0,0,0.05,0,0)" xlink:href="#N"/><use transform="matrix(0.05,0,0,0.05,10,0)" xlink:href="#M"/><use transform="matrix(0.05,0,0,0.05,20,0)" xlink:href="#ak"/><use transform="matrix(0.05,0,0,0.05,30,0)" xlink:href="#M"/><use transform="matrix(0.05,0,0,0.05,40,0)" xlink:href="#V"/><use transform="matrix(0.05,0,0,0.05,54.95,0)" xlink:href="#P"/><use transform="matrix(0.05,0,0,0.05,64.95,0)" xlink:href="#Q"/><use transform="matrix(0.05,0,0,0.05,74.95,0)" xlink:href="#R"/><use transform="matrix(0.05,0,0,0.05,79.95,0)" xlink:href="#H"/></g><g id="o"><use transform="matrix(0.05,0,0,0.05,0,0)" xlink:href="#H"/><use transform="matrix(0.05,0,0,0.05,10,0)" xlink:href="#Q"/><use transform="matrix(0.05,0,0,0.05,20,0)" xlink:href="#U"/><use transform="matrix(0.05,0,0,0.05,23.95,0)" xlink:href="#J"/><use transform="matrix(0.05,0,0,0.05,27.899999999999995,0)" xlink:href="#Q"/><use transform="matrix(0.05,0,0,0.05,37.9,0)" xlink:href="#P"/></g><path fill="#3a414a" d="M30-248c87 1 191-15 191 75 0 78-77 80-158 76V0H30v-248zm33 125c57 0 124 11 124-50 0-59-68-47-124-48v98" id="al"/><path fill="#3a414a" d="M210-169c-67 3-38 105-44 169h-31v-121c0-29-5-50-35-48C34-165 62-65 56 0H25l-1-190h30c1 10-1 24 2 32 10-44 99-50 107 0 11-21 27-35 58-36 85-2 47 119 55 194h-31v-121c0-29-5-49-35-48" id="am"/><g id="p"><use transform="matrix(0.06172839506172839,0,0,0.06172839506172839,0,0)" xlink:href="#al"/><use transform="matrix(0.06172839506172839,0,0,0.06172839506172839,14.814814814814813,0)" xlink:href="#E"/><use transform="matrix(0.06172839506172839,0,0,0.06172839506172839,27.160493827160494,0)" xlink:href="#A"/><use transform="matrix(0.06172839506172839,0,0,0.06172839506172839,39.50617283950617,0)" xlink:href="#E"/><use transform="matrix(0.06172839506172839,0,0,0.06172839506172839,51.85185185185185,0)" xlink:href="#am"/><use transform="matrix(0.06172839506172839,0,0,0.06172839506172839,70.30864197530863,0)" xlink:href="#x"/><use transform="matrix(0.06172839506172839,0,0,0.06172839506172839,82.65432098765432,0)" xlink:href="#y"/><use transform="matrix(0.06172839506172839,0,0,0.06172839506172839,95,0)" xlink:href="#w"/><use transform="matrix(0.06172839506172839,0,0,0.06172839506172839,101.17283950617283,0)" xlink:href="#F"/></g><path fill="#3a414a" d="M140-251c81 0 123 46 123 126C263-46 219 4 140 4 59 4 17-45 17-125s42-126 123-126zm0 227c63 0 89-41 89-101s-29-99-89-99c-61 0-89 39-89 99S79-25 140-24" id="an"/><path fill="#3a414a" d="M24 0v-261h32V0H24" id="ao"/><g id="q"><use transform="matrix(0.06172839506172839,0,0,0.06172839506172839,0,0)" xlink:href="#an"/><use transform="matrix(0.06172839506172839,0,0,0.06172839506172839,17.28395061728395,0)" xlink:href="#y"/><use transform="matrix(0.06172839506172839,0,0,0.06172839506172839,29.629629629629626,0)" xlink:href="#ao"/><use transform="matrix(0.06172839506172839,0,0,0.06172839506172839,34.50617283950617,0)" xlink:href="#B"/><use transform="matrix(0.06172839506172839,0,0,0.06172839506172839,39.382716049382715,0)" xlink:href="#y"/><use transform="matrix(0.06172839506172839,0,0,0.06172839506172839,51.72839506172839,0)" xlink:href="#x"/></g><path fill="#3a414a" d="M190 0L58-211 59 0H30v-248h39L202-35l-2-213h31V0h-41" id="ap"/><path fill="#3a414a" d="M30 0v-248h187v28H63v79h144v27H63v87h162V0H30" id="aq"/><path fill="#3a414a" d="M195 0l-74-108L45 0H8l94-129-87-119h37l69 98 67-98h37l-84 118L233 0h-38" id="ar"/><path fill="#3a414a" d="M33 0v-248h34V0H33" id="as"/><g id="r"><use transform="matrix(0.06172839506172839,0,0,0.06172839506172839,0,0)" xlink:href="#ap"/><use transform="matrix(0.06172839506172839,0,0,0.06172839506172839,15.987654320987653,0)" xlink:href="#aq"/><use transform="matrix(0.06172839506172839,0,0,0.06172839506172839,30.80246913580247,0)" xlink:href="#ar"/><use transform="matrix(0.06172839506172839,0,0,0.06172839506172839,45.61728395061728,0)" xlink:href="#as"/></g><g id="s"><use transform="matrix(0.06172839506172839,0,0,0.06172839506172839,0,0)" xlink:href="#v"/><use transform="matrix(0.06172839506172839,0,0,0.06172839506172839,15.987654320987653,0)" xlink:href="#w"/><use transform="matrix(0.06172839506172839,0,0,0.06172839506172839,22.160493827160494,0)" xlink:href="#x"/><use transform="matrix(0.06172839506172839,0,0,0.06172839506172839,34.50617283950617,0)" xlink:href="#y"/><use transform="matrix(0.06172839506172839,0,0,0.06172839506172839,46.85185185185185,0)" xlink:href="#w"/><use transform="matrix(0.06172839506172839,0,0,0.06172839506172839,53.02469135802469,0)" xlink:href="#x"/></g><path fill="#3a414a" d="M85-194c31 0 48 13 60 33l-1-100h32l1 261h-30c-2-10 0-23-3-31C134-8 116 4 85 4 32 4 16-35 15-94c0-66 23-100 70-100zm9 24c-40 0-46 34-46 75 0 40 6 74 45 74 42 0 51-32 51-76 0-42-9-74-50-73" id="at"/><g id="t"><use transform="matrix(0.06172839506172839,0,0,0.06172839506172839,0,0)" xlink:href="#at"/><use transform="matrix(0.06172839506172839,0,0,0.06172839506172839,12.345679012345679,0)" xlink:href="#B"/></g><g id="u"><use transform="matrix(0.06172839506172839,0,0,0.06172839506172839,0,0)" xlink:href="#C"/><use transform="matrix(0.06172839506172839,0,0,0.06172839506172839,11.11111111111111,0)" xlink:href="#x"/><use transform="matrix(0.06172839506172839,0,0,0.06172839506172839,23.45679012345679,0)" xlink:href="#A"/><use transform="matrix(0.06172839506172839,0,0,0.06172839506172839,35.80246913580247,0)" xlink:href="#D"/><use transform="matrix(0.06172839506172839,0,0,0.06172839506172839,43.148148148148145,0)" xlink:href="#x"/><use transform="matrix(0.06172839506172839,0,0,0.06172839506172839,55.49382716049382,0)" xlink:href="#w"/><use transform="matrix(0.06172839506172839,0,0,0.06172839506172839,61.666666666666664,0)" xlink:href="#x"/><use transform="matrix(0.06172839506172839,0,0,0.06172839506172839,74.01234567901234,0)" xlink:href="#D"/><use transform="matrix(0.06172839506172839,0,0,0.06172839506172839,81.35802469135803,0)" xlink:href="#B"/><use transform="matrix(0.06172839506172839,0,0,0.06172839506172839,86.23456790123457,0)" xlink:href="#E"/></g></defs></g></svg>