<svg xmlns="http://www.w3.org/2000/svg" xmlns:xlink="http://www.w3.org/1999/xlink" xmlns:lucid="lucid" width="1080" height="757.12"><g transform="translate(-1193.3544522212503 3367.333333333333)" lucid:page-tab-id="kkl-xEImwlm-"><path d="M-1806.87-3776.5h5484.6v8875.84h-5484.6z" fill="#fff"/><path d="M1193.35-3361.33a6 6 0 0 1 6-6h1068a6 6 0 0 1 6 6v745.1a6 6 0 0 1-6 6h-1068a6 6 0 0 1-6-6z" fill-opacity="0"/><path d="M2213.1-3057.58c0 10.9-8.84 19.75-19.75 19.75-10.9 0-19.75-8.85-19.75-19.75s8.85-19.75 19.75-19.75 19.75 8.84 19.75 19.75z" stroke="#3a414a" fill="#fff"/><path d="M2193.35-3037.83v49.3a20.7 20.7 0 0 0 3.2 11.07l36.8 58.13m-40-63.2l-40 63.2m0-98.75h80" stroke="#3a414a" fill="none"/><path d="M2153.35-3071.33a6 6 0 0 1 6-6h68a6 6 0 0 1 6 6v168a6 6 0 0 1-6 6h-68a6 6 0 0 1-6-6z" fill="none"/><use xlink:href="#a" transform="matrix(1,0,0,1,2073.3544522212496,-2919.333333333333) translate(70.67901234567901 17.77777777777778)"/><path d="M1654.48-3257.33c0 33.13-35.82 60-80 60s-80-26.87-80-60c0-33.14 35.82-60 80-60s80 26.86 80 60z" stroke="#3a414a" fill="#fff"/><use xlink:href="#b" transform="matrix(1,0,0,1,1494.4800631217329,-3317.333333333333) translate(16.279999999999994 63.15)"/><use xlink:href="#c" transform="matrix(1,0,0,1,1494.4800631217329,-3317.333333333333) translate(101.78 63.15)"/><path d="M1953.35-3257.33c0 33.13-35.86 60-80.1 60-44.23 0-80.1-26.87-80.1-60 0-33.14 35.87-60 80.1-60 44.24 0 80.1 26.86 80.1 60z" stroke="#3a414a" fill="#fff"/><use xlink:href="#d" transform="matrix(1,0,0,1,1793.154977155633,-3317.333333333333) translate(39.754999999999995 40.65)"/><use xlink:href="#e" transform="matrix(1,0,0,1,1793.154977155633,-3317.333333333333) translate(20.154999999999994 62.25)"/><use xlink:href="#f" transform="matrix(1,0,0,1,1793.154977155633,-3317.333333333333) translate(76.005 62.25)"/><use xlink:href="#g" transform="matrix(1,0,0,1,1793.154977155633,-3317.333333333333) translate(32.58 83.85000000000001)"/><use xlink:href="#h" transform="matrix(1,0,0,1,1793.154977155633,-3317.333333333333) translate(75.47999999999999 83.85000000000001)"/><path d="M1676.4-3256.83h-5.03v-1h5.03zm15.1 0h-10.07v-1h10.07zm90.6 0H1772v-1h10.07zm10.05 0h-5.03v-1h5.03z" stroke="#3a414a" stroke-width=".05" fill="#3a414a"/><path d="M1670.87-3252.7l-14.27-4.63 14.27-4.64z" fill="#3a414a"/><path d="M1671.37-3252l-16.4-5.33 16.4-5.33zm-13.15-5.33l12.15 3.94v-7.88z" stroke="#3a414a" stroke-width=".05" fill="#3a414a"/><path d="M1792.65-3257.34v.5h-.5v-1h.52z" fill="#3a414a"/><path d="M1792.68-3257.34v.5l-.56.03v-1.06h.58zm-.5-.47v.94l.45-.02V-3257.8z" stroke="#3a414a" stroke-width=".05" fill="#3a414a"/><use xlink:href="#i" transform="matrix(1,0,0,1,1692.5266887591674,-3267.9999999999995) translate(0 14.222222222222223)"/><path d="M1954.36-3257.35l1.22-.04 1.7.03 1.65.1 1.64.14 1.62.22 1.6.28 1.62.37 1.62.43 1.63.5 1.65.6 1.67.7 1.7.77 1.74.88 1.8 1 1.84 1.16 1.92 1.3 2 1.5 2.1 1.7 2.22 1.94 2.36 2.26 2.52 2.63 2.72 3.1 2.97 3.66 3.27 4.4 3.68 5.43 4.2 6.8 5 8.88 6.2 12.24 8.72 19.1 47.6 114.87 6.85 13.5 5.6 9.93 4.78 7.74 4.23 6.23 3.8 5.13 3.5 4.3 3.2 3.64 3 3.13 2.8 2.7 2.67 2.35 2.54 2.06 2.44 1.82 2.34 1.6 2.27 1.4 2.2 1.25 2.16 1.1 2.12.97 2.1.85 2.05.73 2.05.64 2.04.55 2.05.46 2.06.37 2.07.28 2.1.2 2.13.1 1.12.03" stroke="#3a414a" stroke-linejoin="round" fill="none"/><path d="M1954.4-3256.85l-.56.02v-1.01l.5-.02zM2156.36-2987.8v1l-3.53-.04.02-1z" stroke="#3a414a" stroke-width=".05" fill="#3a414a"/><path d="M1673.35-2757.33c0 33.13-35.8 60-80 60-44.18 0-80-26.87-80-60 0-33.14 35.82-60 80-60 44.2 0 80 26.86 80 60z" stroke="#3a414a" fill="#fff"/><use xlink:href="#d" transform="matrix(1,0,0,1,1513.3544522212499,-2817.333333333333) translate(39.754999999999995 48.15)"/><use xlink:href="#j" transform="matrix(1,0,0,1,1513.3544522212499,-2817.333333333333) translate(33.12999999999999 69.75)"/><use xlink:href="#c" transform="matrix(1,0,0,1,1513.3544522212499,-2817.333333333333) translate(59.03 91.35000000000001)"/><path d="M1953.15-2827.33c0 33.13-35.8 60-80 60-44.18 0-80-26.87-80-60 0-33.14 35.82-60 80-60 44.2 0 80 26.86 80 60z" stroke="#3a414a" fill="#fff"/><use xlink:href="#d" transform="matrix(1,0,0,1,1793.154977155633,-2887.333333333333) translate(39.755 29.41)"/><use xlink:href="#k" transform="matrix(1,0,0,1,1793.154977155633,-2887.333333333333) translate(21.555 51.01)"/><use xlink:href="#l" transform="matrix(1,0,0,1,1793.154977155633,-2887.333333333333) translate(61.555 51.01)"/><use xlink:href="#m" transform="matrix(1,0,0,1,1793.154977155633,-2887.333333333333) translate(80.505 51.01)"/><use xlink:href="#n" transform="matrix(1,0,0,1,1793.154977155633,-2887.333333333333) translate(108.455 51.01)"/><use xlink:href="#o" transform="matrix(1,0,0,1,1793.154977155633,-2887.333333333333) translate(46.529999999999994 72.61)"/><use xlink:href="#p" transform="matrix(1,0,0,1,1793.154977155633,-2887.333333333333) translate(103.48 72.61)"/><use xlink:href="#q" transform="matrix(1,0,0,1,1793.154977155633,-2887.333333333333) translate(37.605 94.21000000000001)"/><path d="M1953.15-2687.33c0 33.13-35.8 60-80 60-44.18 0-80-26.87-80-60 0-33.14 35.82-60 80-60 44.2 0 80 26.86 80 60z" stroke="#3a414a" fill="#fff"/><use xlink:href="#d" transform="matrix(1,0,0,1,1793.154977155633,-2747.333333333333) translate(39.755 29.41)"/><use xlink:href="#r" transform="matrix(1,0,0,1,1793.154977155633,-2747.333333333333) translate(47.58 51.01)"/><use xlink:href="#s" transform="matrix(1,0,0,1,1793.154977155633,-2747.333333333333) translate(70.47999999999999 51.01)"/><use xlink:href="#t" transform="matrix(1,0,0,1,1793.154977155633,-2747.333333333333) translate(13.654999999999982 72.61)"/><use xlink:href="#l" transform="matrix(1,0,0,1,1793.154977155633,-2747.333333333333) translate(97.405 72.61)"/><use xlink:href="#u" transform="matrix(1,0,0,1,1793.154977155633,-2747.333333333333) translate(116.355 72.61)"/><use xlink:href="#v" transform="matrix(1,0,0,1,1793.154977155633,-2747.333333333333) translate(40.029999999999994 94.21000000000001)"/><use xlink:href="#w" transform="matrix(1,0,0,1,1793.154977155633,-2747.333333333333) translate(84.98 94.21000000000001)"/><path d="M1695.28-2760.4l-.58.2-2.27.75-2.22.62-.26-.96 2.2-.6 2.23-.74.56-.2zm14.06-7.43l-1.37.96-2.26 1.44-2.2 1.3-2.2 1.14-1.12.54-.42-.9 1.1-.52 2.15-1.13 2.2-1.28 2.2-1.42 1.37-.95zm12-10.4l-3.02 3-2.92 2.65-1.83 1.53-.64-.77 1.8-1.5 2.9-2.64 3-2.98zm3.54-3.96l-.75-.65 5.88-6.7h1.34zm28.75-30.7l-1.86 1.57-.5.46h-1.5l1.34-1.22 1.9-1.55zm13.18-8.43l-1.15.55-2.15 1.13-2.18 1.26-2.22 1.43-1.3.92-.58-.82 1.32-.93 2.26-1.44 2.22-1.3 2.2-1.14 1.16-.55zm14.93-4.63l-.26.04-2.45.47-2.36.55-2.3.64-2.22.73-.5.2-.35-.95.5-.2 2.28-.73 2.33-.67 2.4-.56 2.5-.48.28-.05zm10.43-.86l-2.56.05-2.68.17-.07-1 2.7-.17 2.6-.05z" stroke="#3a414a" stroke-width=".05" fill="#3a414a"/><path d="M1792.65-2827.34v.5l-.5.02-.02-1h.54z" fill="#3a414a"/><path d="M1792.68-2827.34v.53h-.55l-.03-1.05h.6zm-.52-.46l.02.95h.45v-.96z" stroke="#3a414a" stroke-width=".05" fill="#3a414a"/><path d="M1690.18-2754.66l-14.72-2.87 13.6-6.33z" fill="#3a414a"/><path d="M1690.76-2754.03l-16.9-3.3 15.6-7.27zm-13.7-3.7l12.54 2.45-.95-7.83z" stroke="#3a414a" stroke-width=".05" fill="#3a414a"/><use xlink:href="#i" transform="matrix(1,0,0,1,1701.102512006924,-2810.8697303435692) translate(0 14.222222222222223)"/><path d="M1789.6-2687.9l2.56.06-.02 1-2.58-.06-2.7-.17.06-1zm-17.46-3.24l2.23.73 2.3.63 2.35.56 2.45.46.26.04-.15.98-.28-.04-2.5-.47-2.4-.57-2.32-.65-2.27-.74-.5-.2.34-.93zm-13.04-6.56l2.22 1.42 2.18 1.27 2.15 1.12 1.16.54-.42.9-1.17-.55-2.18-1.14-2.22-1.3-2.26-1.43-1.32-.92.57-.8zm-10.22-8.26l2.9 2.63 1.85 1.55-.64.77-1.9-1.58-2.9-2.65-3-2.95.7-.7zm-33.48-36.13l2.92 2.67 3.03 3-.7.7-3.02-2.98-2.9-2.63-1.8-1.52.64-.76zm-14.1-9.58l2.2 1.15 2.2 1.3 2.27 1.43 1.37.96-.57.82-1.36-.95-2.2-1.42-2.2-1.25-2.14-1.13-1.1-.52.42-.9zm-8.87-3.53l2.27.73.58.22-.35.93-.56-.2-2.23-.74-2.2-.6.27-.98z" stroke="#3a414a" stroke-width=".05" fill="#3a414a"/><path d="M1792.67-2687.83l-.02.5v.5h-.52l.02-1z" fill="#3a414a"/><path d="M1792.7-2687.86l-.02.52v.53l-.58-.02.03-1.05zm-.54 1h.47v-.95l-.45-.02z" stroke="#3a414a" stroke-width=".05" fill="#3a414a"/><path d="M1689.06-2750.8l-13.6-6.34 14.72-2.87z" fill="#3a414a"/><path d="M1689.47-2750.07l-15.62-7.26 16.9-3.3zm-12.4-6.87l11.58 5.4.95-7.85z" stroke="#3a414a" stroke-width=".05" fill="#3a414a"/><use xlink:href="#i" transform="matrix(1,0,0,1,1694.2455471379797,-2732.937174205188) translate(0 14.222222222222223)"/><path d="M1954.16-2827.34l3.32-.07 3.64-.24 3.5-.37 3.36-.5 3.27-.63 3.17-.74 3.1-.87 3.07-1 3-1.12 3-1.26 3-1.4 3-1.57 3.02-1.74 3.07-1.95 3.13-2.17 3.22-2.45 3.35-2.78 3.52-3.16 3.74-3.67 4.04-4.3 4.48-5.2 5.17-6.54 6.48-8.94 10.8-16.4 24.55-38.26 6.48-8.94 5.17-6.54 4.48-5.2 4.05-4.3 3.74-3.66 3.5-3.17 3.36-2.78 3.22-2.45 3.14-2.18 3.07-1.95 3.02-1.74 3-1.57 2.98-1.4 3-1.27 3.02-1.13 3.06-1 3.1-.86 3.18-.74 3.27-.62 3.37-.5 3.5-.37 3.63-.22 3.32-.07" stroke="#3a414a" stroke-linejoin="round" fill="none"/><path d="M1954.18-2826.84h-.54l.02-.5v-.48l.5-.02zM2156.35-2986.83h-3.5v-1h3.5z" stroke="#3a414a" stroke-width=".05" fill="#3a414a"/><path d="M1954.16-2687.34l1.56-.04 2-.12 1.98-.2 1.94-.3 1.92-.36 1.9-.45 1.9-.54 1.9-.6 1.88-.72 1.9-.8 1.95-.9 1.94-1.04 2-1.15 2.04-1.3 2.1-1.46 2.17-1.65 2.25-1.87 2.35-2.1 2.46-2.42 2.6-2.77 2.77-3.22 2.96-3.74 3.2-4.4 3.5-5.28 3.9-6.43 4.4-8 5.1-10.34 6.27-14.13 8.56-21.75 44.45-125.66 6.28-14.1 5.1-10.35 4.4-8 3.9-6.42 3.5-5.28 3.2-4.4 2.96-3.75 2.76-3.2 2.6-2.77 2.46-2.42 2.35-2.1 2.26-1.87 2.17-1.66 2.1-1.46 2.04-1.3 2-1.15 1.95-1.03 1.94-.9 1.9-.8 1.9-.7 1.9-.63 1.9-.53 1.9-.44 1.9-.37 1.95-.3 1.98-.2 2-.12 1.57-.02" stroke="#3a414a" stroke-linejoin="round" fill="none"/><path d="M1954.18-2686.84h-.54l.02-.5v-.48l.5-.02zM2156.35-2986.83h-3.5v-1h3.5z" stroke="#3a414a" stroke-width=".05" fill="#3a414a"/><path d="M1293.1-2827.58c0 10.9-8.84 19.75-19.75 19.75-10.9 0-19.75-8.85-19.75-19.75s8.85-19.75 19.75-19.75 19.75 8.84 19.75 19.75z" stroke="#3a414a" fill="#fff"/><path d="M1273.35-2807.83v49.3a20.7 20.7 0 0 0 3.2 11.07l36.8 58.13m-40-63.2l-40 63.2m0-98.75h80" stroke="#3a414a" fill="none"/><path d="M1233.35-2841.33a6 6 0 0 1 6-6h68a6 6 0 0 1 6 6v168a6 6 0 0 1-6 6h-68a6 6 0 0 1-6-6z" fill="none"/><use xlink:href="#x" transform="matrix(1,0,0,1,1153.3544522212503,-2689.333333333333) translate(87.31481481481481 17.77777777777778)"/><use xlink:href="#y" transform="matrix(1,0,0,1,1153.3544522212503,-2689.333333333333) translate(52.191358024691354 44.44444444444444)"/><use xlink:href="#z" transform="matrix(1,0,0,1,1153.3544522212503,-2689.333333333333) translate(95.40123456790124 44.44444444444444)"/><path d="M1313.86-2757.33h198.5" stroke="#000" stroke-linejoin="round" fill="none"/><path d="M1313.87-2756.83h-3.5v-1h3.5zM1512.85-2757.34v.5h-.5v-1h.52z" stroke="#000" stroke-width=".05"/><path d="M1313.86-2757.34h.5l1.02-.08 1-.1 1-.15 1-.2.98-.22 1-.27 1.02-.33 1.03-.4 1.05-.42 1.07-.5 1.1-.58 1.12-.65 1.17-.74 1.22-.83 1.26-.96 1.32-1.1 1.4-1.24 1.47-1.45 1.56-1.66 1.68-1.95 1.83-2.3 1.96-2.7 2.14-3.25 2.38-3.93 2.65-4.83 3-6.06 3.44-7.74 4.03-10.2 4.82-13.9 6.03-20.08 8.15-31.97 14.2-68.13 36.68-190.24 8.15-31.97 6.03-20.07 4.83-13.9 4.03-10.2 3.43-7.73 3-6.05 2.65-4.84 2.4-3.92 2.14-3.24 1.97-2.7 1.82-2.3 1.68-1.95 1.57-1.68 1.47-1.45 1.4-1.25 1.32-1.1 1.26-.95 1.2-.85 1.17-.74 1.12-.65 1.1-.57 1.06-.5 1.05-.44 1.03-.38 1-.33 1-.27 1-.24 1-.2 1-.14 1-.1 1-.07.52-.02" stroke="#000" stroke-linejoin="round" fill="none"/><path d="M1313.88-2756.84l-3.5.07-.03-1 3.5-.07zM1493.98-3257.34v.5h-.5v-1h.52z" stroke="#000" stroke-width=".05"/><path d="M1658.7-3242.37l6.6.42 6.97.73 7.35 1.1 7.84 1.48 8.4 1.98 9.1 2.54 9.95 3.24 11 4.1 12.38 5.2 14.15 6.67 16.66 8.72 20.44 11.83 27.2 17.3 126.3 91.4 46.5 32.52 27.15 17.3 20.4 11.8 16.62 8.7 14.12 6.66 12.32 5.18 10.97 4.1 9.9 3.22 9.06 2.53 8.36 1.97 7.8 1.5 7.3 1.07 6.92.72 6.58.4 5.8.14-.02 1-5.82-.13-6.62-.4-6.96-.75-7.36-1.1-7.83-1.48-8.4-1.98-9.1-2.54-9.95-3.24-11-4.1-12.37-5.2-14.15-6.67-16.66-8.73-20.45-11.83-27.2-17.3-46.5-32.53-126.3-91.38-27.15-17.3-20.4-11.8-16.63-8.7-14.13-6.66-12.32-5.2-10.97-4.08-9.9-3.22-9.06-2.53-8.37-1.96-7.8-1.5-7.3-1.07-6.92-.73-6.58-.4-5.8-.13v-1z" stroke="#3a414a" stroke-width=".05" fill="#3a414a"/><path d="M2156.36-2987.77l-.02 1-3.5-.07v-1z" fill="#3a414a"/><path d="M2156.4-2987.8l-.04 1.06-3.56-.08.02-1.05zm-3.55.93l3.46.07.03-.95-3.46-.07z" stroke="#3a414a" stroke-width=".05" fill="#3a414a"/><path d="M1652.87-3242.5v1h-.7l.36-1z" fill="#3a414a"/><path d="M1652.9-3242.53v1.05h-.76l.37-1.05zm-.7 1h.64v-.95h-.3z" stroke="#3a414a" stroke-width=".05" fill="#3a414a"/><path d="M1293.1-3327.58c0 10.9-8.84 19.75-19.75 19.75-10.9 0-19.75-8.85-19.75-19.75s8.85-19.75 19.75-19.75 19.75 8.84 19.75 19.75z" stroke="#3a414a" fill="#fff"/><path d="M1273.35-3307.83v49.3a20.7 20.7 0 0 0 3.2 11.07l36.8 58.13m-40-63.2l-40 63.2m0-98.75h80" stroke="#3a414a" fill="none"/><path d="M1233.35-3341.33a6 6 0 0 1 6-6h68a6 6 0 0 1 6 6v168a6 6 0 0 1-6 6h-68a6 6 0 0 1-6-6z" fill="none"/><g><use xlink:href="#A" transform="matrix(1,0,0,1,1153.3544522212503,-3189.333333333333) translate(87.31481481481481 17.77777777777778)"/><use xlink:href="#B" transform="matrix(1,0,0,1,1153.3544522212503,-3189.333333333333) translate(69.4753086419753 44.44444444444444)"/></g><path d="M1493.48-3257.33h-179.63" stroke="#3a414a" stroke-linejoin="round" fill="none"/><path d="M1493.98-3257.34v.5h-.52v-1h.54zM1313.87-3256.83h-3.52v-1h3.52z" stroke="#3a414a" stroke-width=".05" fill="#3a414a"/><path d="M1512.35-2757.34l-.74-.02-1.2-.08-1.23-.12-1.2-.18-1.2-.23-1.2-.3-1.22-.32-1.23-.4-1.23-.45-1.27-.53-1.28-.6-1.32-.7-1.35-.77-1.4-.9-1.43-1-1.5-1.13-1.58-1.3-1.66-1.5-1.74-1.7-1.85-2-1.98-2.3-2.14-2.7-2.32-3.2-2.53-3.8-2.8-4.64-3.1-5.68-3.54-7.1-4.05-9.1-4.73-12-5.73-16.5-7.3-24.28-10.4-40.9-54-248-7.28-24.28-5.73-16.5-4.75-12-4.04-9.1-3.5-7.1-3.12-5.7-2.8-4.6-2.53-3.83-2.32-3.2-2.14-2.7-2-2.3-1.86-1.98-1.74-1.7-1.66-1.5-1.57-1.3-1.5-1.15-1.45-1-1.4-.9-1.35-.77-1.3-.68-1.3-.6-1.25-.54-1.24-.46-1.22-.4-1.2-.33-1.2-.3-1.22-.22-1.2-.18-1.22-.13-1.22-.08-.75-.02" stroke="#3a414a" stroke-linejoin="round" fill="none"/><path d="M1512.87-2757.83l-.02.5v.5h-.52l.02-1zM1313.87-3257.83v1h-3.52v-1z" stroke="#3a414a" stroke-width=".05" fill="#3a414a"/><path d="M1293.1-3057.58c0 10.9-8.84 19.75-19.75 19.75-10.9 0-19.75-8.85-19.75-19.75s8.85-19.75 19.75-19.75 19.75 8.84 19.75 19.75z" stroke="#3a414a" fill="#fff"/><path d="M1273.35-3037.83v49.3a20.7 20.7 0 0 0 3.2 11.07l36.8 58.13m-40-63.2l-40 63.2m0-98.75h80" stroke="#3a414a" fill="none"/><path d="M1233.35-3071.33a6 6 0 0 1 6-6h68a6 6 0 0 1 6 6v168a6 6 0 0 1-6 6h-68a6 6 0 0 1-6-6z" fill="none"/><g><use xlink:href="#C" transform="matrix(1,0,0,1,1153.3544522212503,-2919.333333333333) translate(75.61728395061729 17.77777777777778)"/><use xlink:href="#D" transform="matrix(1,0,0,1,1153.3544522212503,-2919.333333333333) translate(147.1604938271605 17.77777777777778)"/><use xlink:href="#E" transform="matrix(1,0,0,1,1153.3544522212503,-2919.333333333333) translate(70.70987654320987 44.44444444444444)"/></g><path d="M1273.35-3110.95v32.62" stroke="#3a414a" fill="none"/><path d="M1273.35-3125.72l4.64 14.27h-9.28z" stroke="#3a414a" fill="#fff"/><path d="M1273.85-3077.77l-.47-.06h-.53v-.52h1z" stroke="#3a414a" stroke-width=".05" fill="#3a414a"/><defs><path fill="#3a414a" d="M240 0l2-218c-23 76-54 145-80 218h-23L58-218 59 0H30v-248h44l77 211c21-75 51-140 76-211h43V0h-30" id="F"/><path fill="#3a414a" d="M100-194c62-1 85 37 85 99 1 63-27 99-86 99S16-35 15-95c0-66 28-99 85-99zM99-20c44 1 53-31 53-75 0-43-8-75-51-75s-53 32-53 75 10 74 51 75" id="G"/><path fill="#3a414a" d="M117-194c89-4 53 116 60 194h-32v-121c0-31-8-49-39-48C34-167 62-67 57 0H25l-1-190h30c1 10-1 24 2 32 11-22 29-35 61-36" id="H"/><path fill="#3a414a" d="M177-190C167-65 218 103 67 71c-23-6-38-20-44-43l32-5c15 47 100 32 89-28v-30C133-14 115 1 83 1 29 1 15-40 15-95c0-56 16-97 71-98 29-1 48 16 59 35 1-10 0-23 2-32h30zM94-22c36 0 50-32 50-73 0-42-14-75-50-75-39 0-46 34-46 75s6 73 46 73" id="I"/><path fill="#3a414a" d="M30-248c118-7 216 8 213 122C240-48 200 0 122 0H30v-248zM63-27c89 8 146-16 146-99s-60-101-146-95v194" id="J"/><path fill="#3a414a" d="M160-131c35 5 61 23 61 61C221 17 115-2 30 0v-248c76 3 177-17 177 60 0 33-19 50-47 57zm-97-11c50-1 110 9 110-42 0-47-63-36-110-37v79zm0 115c55-2 124 14 124-45 0-56-70-42-124-44v89" id="K"/><g id="a"><use transform="matrix(0.06172839506172839,0,0,0.06172839506172839,0,0)" xlink:href="#F"/><use transform="matrix(0.06172839506172839,0,0,0.06172839506172839,18.456790123456788,0)" xlink:href="#G"/><use transform="matrix(0.06172839506172839,0,0,0.06172839506172839,30.80246913580247,0)" xlink:href="#H"/><use transform="matrix(0.06172839506172839,0,0,0.06172839506172839,43.148148148148145,0)" xlink:href="#I"/><use transform="matrix(0.06172839506172839,0,0,0.06172839506172839,55.49382716049382,0)" xlink:href="#G"/><use transform="matrix(0.06172839506172839,0,0,0.06172839506172839,67.8395061728395,0)" xlink:href="#J"/><use transform="matrix(0.06172839506172839,0,0,0.06172839506172839,83.82716049382717,0)" xlink:href="#K"/></g><path d="M137 0h-34L2-248h35l83 218 83-218h36" id="L"/><path d="M24-231v-30h32v30H24zM24 0v-190h32V0H24" id="M"/><path d="M135-143c-3-34-86-38-87 0 15 53 115 12 119 90S17 21 10-45l28-5c4 36 97 45 98 0-10-56-113-15-118-90-4-57 82-63 122-42 12 7 21 19 24 35" id="N"/><path d="M84 4C-5 8 30-112 23-190h32v120c0 31 7 50 39 49 72-2 45-101 50-169h31l1 190h-30c-1-10 1-25-2-33-11 22-28 36-60 37" id="O"/><path d="M141-36C126-15 110 5 73 4 37 3 15-17 15-53c-1-64 63-63 125-63 3-35-9-54-41-54-24 1-41 7-42 31l-33-3c5-37 33-52 76-52 45 0 72 20 72 64v82c-1 20 7 32 28 27v20c-31 9-61-2-59-35zM48-53c0 20 12 33 32 33 41-3 63-29 60-74-43 2-92-5-92 41" id="P"/><path d="M24 0v-261h32V0H24" id="Q"/><path d="M9 0v-24l116-142H16v-24h144v24L44-24h123V0H9" id="R"/><g id="b"><use transform="matrix(0.05,0,0,0.05,0,0)" xlink:href="#L"/><use transform="matrix(0.05,0,0,0.05,11.65,0)" xlink:href="#M"/><use transform="matrix(0.05,0,0,0.05,15.600000000000001,0)" xlink:href="#N"/><use transform="matrix(0.05,0,0,0.05,24.6,0)" xlink:href="#O"/><use transform="matrix(0.05,0,0,0.05,34.6,0)" xlink:href="#P"/><use transform="matrix(0.05,0,0,0.05,44.6,0)" xlink:href="#Q"/><use transform="matrix(0.05,0,0,0.05,48.550000000000004,0)" xlink:href="#M"/><use transform="matrix(0.05,0,0,0.05,52.5,0)" xlink:href="#R"/><use transform="matrix(0.05,0,0,0.05,61.5,0)" xlink:href="#R"/><use transform="matrix(0.05,0,0,0.05,70.5,0)" xlink:href="#P"/></g><path d="M115-194c55 1 70 41 70 98S169 2 115 4C84 4 66-9 55-30l1 105H24l-1-265h31l2 30c10-21 28-34 59-34zm-8 174c40 0 45-34 45-75s-6-73-45-74c-42 0-51 32-51 76 0 43 10 73 51 73" id="S"/><g id="c"><use transform="matrix(0.05,0,0,0.05,0,0)" xlink:href="#N"/><use transform="matrix(0.05,0,0,0.05,9,0)" xlink:href="#S"/><use transform="matrix(0.05,0,0,0.05,19,0)" xlink:href="#P"/><use transform="matrix(0.05,0,0,0.05,29,0)" xlink:href="#R"/><use transform="matrix(0.05,0,0,0.05,38,0)" xlink:href="#M"/></g><g id="d"><use transform="matrix(0.05,0,0,0.05,0,0)" xlink:href="#L"/><use transform="matrix(0.05,0,0,0.05,11.65,0)" xlink:href="#M"/><use transform="matrix(0.05,0,0,0.05,15.600000000000001,0)" xlink:href="#N"/><use transform="matrix(0.05,0,0,0.05,24.6,0)" xlink:href="#O"/><use transform="matrix(0.05,0,0,0.05,34.6,0)" xlink:href="#P"/><use transform="matrix(0.05,0,0,0.05,44.6,0)" xlink:href="#Q"/><use transform="matrix(0.05,0,0,0.05,48.550000000000004,0)" xlink:href="#M"/><use transform="matrix(0.05,0,0,0.05,52.5,0)" xlink:href="#R"/><use transform="matrix(0.05,0,0,0.05,61.5,0)" xlink:href="#R"/><use transform="matrix(0.05,0,0,0.05,70.5,0)" xlink:href="#P"/></g><path d="M100-194c63 0 86 42 84 106H49c0 40 14 67 53 68 26 1 43-12 49-29l28 8c-11 28-37 45-77 45C44 4 14-33 15-96c1-61 26-98 85-98zm52 81c6-60-76-77-97-28-3 7-6 17-6 28h103" id="T"/><path d="M114-163C36-179 61-72 57 0H25l-1-190h30c1 12-1 29 2 39 6-27 23-49 58-41v29" id="U"/><path d="M108 0H70L1-190h34L89-25l56-165h34" id="V"/><g id="e"><use transform="matrix(0.05,0,0,0.05,0,0)" xlink:href="#N"/><use transform="matrix(0.05,0,0,0.05,9,0)" xlink:href="#T"/><use transform="matrix(0.05,0,0,0.05,19,0)" xlink:href="#U"/><use transform="matrix(0.05,0,0,0.05,24.95,0)" xlink:href="#V"/><use transform="matrix(0.05,0,0,0.05,33.95,0)" xlink:href="#M"/><use transform="matrix(0.05,0,0,0.05,37.900000000000006,0)" xlink:href="#R"/><use transform="matrix(0.05,0,0,0.05,46.900000000000006,0)" xlink:href="#M"/></g><path d="M96-169c-40 0-48 33-48 73s9 75 48 75c24 0 41-14 43-38l32 2c-6 37-31 61-74 61-59 0-76-41-82-99-10-93 101-131 147-64 4 7 5 14 7 22l-32 3c-4-21-16-35-41-35" id="W"/><path d="M101-234c-31-9-42 10-38 44h38v23H63V0H32v-167H5v-23h27c-7-52 17-82 69-68v24" id="X"/><g id="f"><use transform="matrix(0.05,0,0,0.05,0,0)" xlink:href="#N"/><use transform="matrix(0.05,0,0,0.05,9,0)" xlink:href="#S"/><use transform="matrix(0.05,0,0,0.05,19,0)" xlink:href="#T"/><use transform="matrix(0.05,0,0,0.05,29,0)" xlink:href="#W"/><use transform="matrix(0.05,0,0,0.05,38,0)" xlink:href="#M"/><use transform="matrix(0.05,0,0,0.05,41.95,0)" xlink:href="#X"/><use transform="matrix(0.05,0,0,0.05,46.95,0)" xlink:href="#M"/><use transform="matrix(0.05,0,0,0.05,50.900000000000006,0)" xlink:href="#W"/><use transform="matrix(0.05,0,0,0.05,59.900000000000006,0)" xlink:href="#M"/></g><path d="M85-194c31 0 48 13 60 33l-1-100h32l1 261h-30c-2-10 0-23-3-31C134-8 116 4 85 4 32 4 16-35 15-94c0-66 23-100 70-100zm9 24c-40 0-46 34-46 75 0 40 6 74 45 74 42 0 51-32 51-76 0-42-9-74-50-73" id="Y"/><path d="M100-194c62-1 85 37 85 99 1 63-27 99-86 99S16-35 15-95c0-66 28-99 85-99zM99-20c44 1 53-31 53-75 0-43-8-75-51-75s-53 32-53 75 10 74 51 75" id="Z"/><g id="g"><use transform="matrix(0.05,0,0,0.05,0,0)" xlink:href="#Y"/><use transform="matrix(0.05,0,0,0.05,10,0)" xlink:href="#T"/><use transform="matrix(0.05,0,0,0.05,20,0)" xlink:href="#Q"/><use transform="matrix(0.05,0,0,0.05,23.95,0)" xlink:href="#Q"/><use transform="matrix(0.05,0,0,0.05,27.899999999999995,0)" xlink:href="#Z"/></g><g id="h"><use transform="matrix(0.05,0,0,0.05,0,0)" xlink:href="#N"/><use transform="matrix(0.05,0,0,0.05,9,0)" xlink:href="#S"/><use transform="matrix(0.05,0,0,0.05,19,0)" xlink:href="#P"/><use transform="matrix(0.05,0,0,0.05,29,0)" xlink:href="#R"/><use transform="matrix(0.05,0,0,0.05,38,0)" xlink:href="#M"/><use transform="matrix(0.05,0,0,0.05,41.95,0)" xlink:href="#Z"/></g><path fill="#333" d="M15-91v-56l181-69v40L49-119l147 57v40" id="aa"/><path fill="#333" d="M185-48c-13 30-37 53-82 52C43 2 14-33 14-96s30-98 90-98c62 0 83 45 84 108H66c0 31 8 55 39 56 18 0 30-7 34-22zm-45-69c5-46-57-63-70-21-2 6-4 13-4 21h74" id="ab"/><path fill="#333" d="M144 0l-44-69L55 0H2l70-98-66-92h53l41 62 40-62h54l-67 91 71 99h-54" id="ac"/><path fill="#333" d="M115-3C79 11 28 4 28-45v-112H4v-33h27l15-45h31v45h36v33H77v99c-1 23 16 31 38 25v30" id="ad"/><path fill="#333" d="M135-194c87-1 58 113 63 194h-50c-7-57 23-157-34-157-59 0-34 97-39 157H25l-1-190h47c2 12-1 28 3 38 12-26 28-41 61-42" id="ae"/><path fill="#333" d="M88-194c31-1 46 15 58 34l-1-101h50l1 261h-48c-2-10 0-23-3-31C134-8 116 4 84 4 32 4 16-41 15-95c0-56 19-97 73-99zm17 164c33 0 40-30 41-66 1-37-9-64-41-64s-38 30-39 65c0 43 13 65 39 65" id="af"/><path fill="#333" d="M15-22v-40l146-57-146-57v-40l181 69v56" id="ag"/><g id="i"><use transform="matrix(0.04938271604938272,0,0,0.04938271604938272,0,0)" xlink:href="#aa"/><use transform="matrix(0.04938271604938272,0,0,0.04938271604938272,10.370370370370372,0)" xlink:href="#ab"/><use transform="matrix(0.04938271604938272,0,0,0.04938271604938272,20.24691358024692,0)" xlink:href="#ac"/><use transform="matrix(0.04938271604938272,0,0,0.04938271604938272,30.123456790123466,0)" xlink:href="#ad"/><use transform="matrix(0.04938271604938272,0,0,0.04938271604938272,36.00000000000001,0)" xlink:href="#ab"/><use transform="matrix(0.04938271604938272,0,0,0.04938271604938272,45.87654320987655,0)" xlink:href="#ae"/><use transform="matrix(0.04938271604938272,0,0,0.04938271604938272,56.69135802469136,0)" xlink:href="#af"/><use transform="matrix(0.04938271604938272,0,0,0.04938271604938272,67.50617283950618,0)" xlink:href="#ag"/></g><path d="M117-194c89-4 53 116 60 194h-32v-121c0-31-8-49-39-48C34-167 62-67 57 0H25l-1-190h30c1 10-1 24 2 32 11-22 29-35 61-36" id="ah"/><path d="M115-194c53 0 69 39 70 98 0 66-23 100-70 100C84 3 66-7 56-30L54 0H23l1-261h32v101c10-23 28-34 59-34zm-8 174c40 0 45-34 45-75 0-40-5-75-45-74-42 0-51 32-51 76 0 43 10 73 51 73" id="ai"/><path d="M59-47c-2 24 18 29 38 22v24C64 9 27 4 27-40v-127H5v-23h24l9-43h21v43h35v23H59v120" id="aj"/><path d="M141-36C126-15 110 5 73 4 37 3 15-17 15-53c-1-64 63-63 125-63 3-35-9-54-41-54-24 1-41 7-42 31l-33-3c5-37 33-52 76-52 45 0 72 20 72 64v82c-1 20 7 32 28 27v20c-31 9-61-2-59-35zM48-53c0 20 12 33 32 33 41-3 63-29 60-74-43 2-92-5-92 41zm62-158l-58-49v-5h36c12 19 30 32 38 54h-16" id="ak"/><g id="j"><use transform="matrix(0.05,0,0,0.05,0,0)" xlink:href="#Y"/><use transform="matrix(0.05,0,0,0.05,10,0)" xlink:href="#M"/><use transform="matrix(0.05,0,0,0.05,13.949999999999998,0)" xlink:href="#N"/><use transform="matrix(0.05,0,0,0.05,22.95,0)" xlink:href="#S"/><use transform="matrix(0.05,0,0,0.05,32.95,0)" xlink:href="#Z"/><use transform="matrix(0.05,0,0,0.05,42.95,0)" xlink:href="#ah"/><use transform="matrix(0.05,0,0,0.05,52.95,0)" xlink:href="#M"/><use transform="matrix(0.05,0,0,0.05,56.900000000000006,0)" xlink:href="#ai"/><use transform="matrix(0.05,0,0,0.05,66.9,0)" xlink:href="#M"/><use transform="matrix(0.05,0,0,0.05,70.85000000000001,0)" xlink:href="#Q"/><use transform="matrix(0.05,0,0,0.05,74.80000000000001,0)" xlink:href="#M"/><use transform="matrix(0.05,0,0,0.05,78.75000000000001,0)" xlink:href="#aj"/><use transform="matrix(0.05,0,0,0.05,83.75000000000001,0)" xlink:href="#ak"/></g><g id="k"><use transform="matrix(0.05,0,0,0.05,0,0)" xlink:href="#Y"/><use transform="matrix(0.05,0,0,0.05,10,0)" xlink:href="#P"/><use transform="matrix(0.05,0,0,0.05,20,0)" xlink:href="#aj"/><use transform="matrix(0.05,0,0,0.05,25,0)" xlink:href="#T"/></g><g id="l"><use transform="matrix(0.05,0,0,0.05,0,0)" xlink:href="#M"/><use transform="matrix(0.05,0,0,0.05,3.95,0)" xlink:href="#ah"/></g><g id="m"><use transform="matrix(0.05,0,0,0.05,0,0)" xlink:href="#W"/><use transform="matrix(0.05,0,0,0.05,9,0)" xlink:href="#O"/><use transform="matrix(0.05,0,0,0.05,19,0)" xlink:href="#M"/></g><g id="n"><use transform="matrix(0.05,0,0,0.05,0,0)" xlink:href="#O"/><use transform="matrix(0.05,0,0,0.05,10,0)" xlink:href="#ah"/><use transform="matrix(0.05,0,0,0.05,20,0)" xlink:href="#Z"/></g><g id="o"><use transform="matrix(0.05,0,0,0.05,0,0)" xlink:href="#N"/><use transform="matrix(0.05,0,0,0.05,9,0)" xlink:href="#S"/><use transform="matrix(0.05,0,0,0.05,19,0)" xlink:href="#P"/><use transform="matrix(0.05,0,0,0.05,29,0)" xlink:href="#R"/><use transform="matrix(0.05,0,0,0.05,38,0)" xlink:href="#M"/><use transform="matrix(0.05,0,0,0.05,41.95,0)" xlink:href="#Z"/></g><path d="M100-194c63 0 86 42 84 106H49c0 40 14 67 53 68 26 1 43-12 49-29l28 8c-11 28-37 45-77 45C44 4 14-33 15-96c1-61 26-98 85-98zm52 81c6-60-76-77-97-28-3 7-6 17-6 28h103zm-36-98l-58-49v-5h36c12 19 30 32 38 54h-16" id="al"/><use transform="matrix(0.05,0,0,0.05,0,0)" xlink:href="#al" id="p"/><g id="q"><use transform="matrix(0.05,0,0,0.05,0,0)" xlink:href="#Y"/><use transform="matrix(0.05,0,0,0.05,10,0)" xlink:href="#M"/><use transform="matrix(0.05,0,0,0.05,13.949999999999998,0)" xlink:href="#N"/><use transform="matrix(0.05,0,0,0.05,22.95,0)" xlink:href="#S"/><use transform="matrix(0.05,0,0,0.05,32.95,0)" xlink:href="#Z"/><use transform="matrix(0.05,0,0,0.05,42.95,0)" xlink:href="#ah"/><use transform="matrix(0.05,0,0,0.05,52.95,0)" xlink:href="#M"/><use transform="matrix(0.05,0,0,0.05,56.900000000000006,0)" xlink:href="#ai"/><use transform="matrix(0.05,0,0,0.05,66.9,0)" xlink:href="#M"/><use transform="matrix(0.05,0,0,0.05,70.85000000000001,0)" xlink:href="#Q"/><use transform="matrix(0.05,0,0,0.05,74.80000000000001,0)" xlink:href="#T"/></g><path d="M177-190C167-65 218 103 67 71c-23-6-38-20-44-43l32-5c15 47 100 32 89-28v-30C133-14 115 1 83 1 29 1 15-40 15-95c0-56 16-97 71-98 29-1 48 16 59 35 1-10 0-23 2-32h30zM94-22c36 0 50-32 50-73 0-42-14-75-50-75-39 0-46 34-46 75s6 73 46 73" id="am"/><g id="r"><use transform="matrix(0.05,0,0,0.05,0,0)" xlink:href="#am"/><use transform="matrix(0.05,0,0,0.05,10,0)" xlink:href="#Q"/><use transform="matrix(0.05,0,0,0.05,13.949999999999998,0)" xlink:href="#M"/></g><g id="s"><use transform="matrix(0.05,0,0,0.05,0,0)" xlink:href="#N"/><use transform="matrix(0.05,0,0,0.05,9,0)" xlink:href="#S"/><use transform="matrix(0.05,0,0,0.05,19,0)" xlink:href="#P"/><use transform="matrix(0.05,0,0,0.05,29,0)" xlink:href="#R"/><use transform="matrix(0.05,0,0,0.05,38,0)" xlink:href="#M"/></g><g id="t"><use transform="matrix(0.05,0,0,0.05,0,0)" xlink:href="#Y"/><use transform="matrix(0.05,0,0,0.05,10,0)" xlink:href="#M"/><use transform="matrix(0.05,0,0,0.05,13.949999999999998,0)" xlink:href="#N"/><use transform="matrix(0.05,0,0,0.05,22.95,0)" xlink:href="#S"/><use transform="matrix(0.05,0,0,0.05,32.95,0)" xlink:href="#Z"/><use transform="matrix(0.05,0,0,0.05,42.95,0)" xlink:href="#ah"/><use transform="matrix(0.05,0,0,0.05,52.95,0)" xlink:href="#M"/><use transform="matrix(0.05,0,0,0.05,56.900000000000006,0)" xlink:href="#ai"/><use transform="matrix(0.05,0,0,0.05,66.9,0)" xlink:href="#M"/><use transform="matrix(0.05,0,0,0.05,70.85000000000001,0)" xlink:href="#Q"/><use transform="matrix(0.05,0,0,0.05,74.80000000000001,0)" xlink:href="#M"/></g><g id="u"><use transform="matrix(0.05,0,0,0.05,0,0)" xlink:href="#O"/><use transform="matrix(0.05,0,0,0.05,10,0)" xlink:href="#ah"/><use transform="matrix(0.05,0,0,0.05,20,0)" xlink:href="#P"/></g><g id="v"><use transform="matrix(0.05,0,0,0.05,0,0)" xlink:href="#W"/><use transform="matrix(0.05,0,0,0.05,9,0)" xlink:href="#T"/><use transform="matrix(0.05,0,0,0.05,19,0)" xlink:href="#U"/><use transform="matrix(0.05,0,0,0.05,24.95,0)" xlink:href="#aj"/><use transform="matrix(0.05,0,0,0.05,29.950000000000003,0)" xlink:href="#P"/></g><g id="w"><use transform="matrix(0.05,0,0,0.05,0,0)" xlink:href="#Y"/><use transform="matrix(0.05,0,0,0.05,10,0)" xlink:href="#P"/><use transform="matrix(0.05,0,0,0.05,20,0)" xlink:href="#aj"/><use transform="matrix(0.05,0,0,0.05,25,0)" xlink:href="#P"/></g><path fill="#3a414a" d="M232-93c-1 65-40 97-104 97C67 4 28-28 28-90v-158h33c8 89-33 224 67 224 102 0 64-133 71-224h33v155" id="an"/><path fill="#3a414a" d="M59-47c-2 24 18 29 38 22v24C64 9 27 4 27-40v-127H5v-23h24l9-43h21v43h35v23H59v120" id="ao"/><path fill="#3a414a" d="M100-194c63 0 86 42 84 106H49c0 40 14 67 53 68 26 1 43-12 49-29l28 8c-11 28-37 45-77 45C44 4 14-33 15-96c1-61 26-98 85-98zm52 81c6-60-76-77-97-28-3 7-6 17-6 28h103" id="ap"/><g id="x"><use transform="matrix(0.06172839506172839,0,0,0.06172839506172839,0,0)" xlink:href="#an"/><use transform="matrix(0.06172839506172839,0,0,0.06172839506172839,15.987654320987653,0)" xlink:href="#ao"/><use transform="matrix(0.06172839506172839,0,0,0.06172839506172839,22.160493827160494,0)" xlink:href="#ap"/><use transform="matrix(0.06172839506172839,0,0,0.06172839506172839,34.50617283950617,0)" xlink:href="#H"/><use transform="matrix(0.06172839506172839,0,0,0.06172839506172839,46.85185185185185,0)" xlink:href="#ao"/><use transform="matrix(0.06172839506172839,0,0,0.06172839506172839,53.02469135802469,0)" xlink:href="#ap"/></g><g id="y"><use transform="matrix(0.06172839506172839,0,0,0.06172839506172839,0,0)" xlink:href="#H"/><use transform="matrix(0.06172839506172839,0,0,0.06172839506172839,12.345679012345679,0)" xlink:href="#G"/><use transform="matrix(0.06172839506172839,0,0,0.06172839506172839,24.691358024691358,0)" xlink:href="#H"/></g><path fill="#3a414a" d="M114-163C36-179 61-72 57 0H25l-1-190h30c1 12-1 29 2 39 6-27 23-49 58-41v29" id="aq"/><path fill="#3a414a" d="M24-231v-30h32v30H24zM24 0v-190h32V0H24" id="ar"/><path fill="#3a414a" d="M135-143c-3-34-86-38-87 0 15 53 115 12 119 90S17 21 10-45l28-5c4 36 97 45 98 0-10-56-113-15-118-90-4-57 82-63 122-42 12 7 21 19 24 35" id="as"/><path fill="#3a414a" d="M141-36C126-15 110 5 73 4 37 3 15-17 15-53c-1-64 63-63 125-63 3-35-9-54-41-54-24 1-41 7-42 31l-33-3c5-37 33-52 76-52 45 0 72 20 72 64v82c-1 20 7 32 28 27v20c-31 9-61-2-59-35zM48-53c0 20 12 33 32 33 41-3 63-29 60-74-43 2-92-5-92 41" id="at"/><g id="z"><use transform="matrix(0.06172839506172839,0,0,0.06172839506172839,0,0)" xlink:href="#aq"/><use transform="matrix(0.06172839506172839,0,0,0.06172839506172839,7.345679012345679,0)" xlink:href="#ap"/><use transform="matrix(0.06172839506172839,0,0,0.06172839506172839,19.691358024691358,0)" xlink:href="#I"/><use transform="matrix(0.06172839506172839,0,0,0.06172839506172839,32.03703703703704,0)" xlink:href="#ar"/><use transform="matrix(0.06172839506172839,0,0,0.06172839506172839,36.91358024691358,0)" xlink:href="#as"/><use transform="matrix(0.06172839506172839,0,0,0.06172839506172839,48.0246913580247,0)" xlink:href="#ao"/><use transform="matrix(0.06172839506172839,0,0,0.06172839506172839,54.19753086419754,0)" xlink:href="#aq"/><use transform="matrix(0.06172839506172839,0,0,0.06172839506172839,61.543209876543216,0)" xlink:href="#at"/><use transform="matrix(0.06172839506172839,0,0,0.06172839506172839,73.8888888888889,0)" xlink:href="#ao"/><use transform="matrix(0.06172839506172839,0,0,0.06172839506172839,80.06172839506173,0)" xlink:href="#G"/></g><g id="A"><use transform="matrix(0.06172839506172839,0,0,0.06172839506172839,0,0)" xlink:href="#an"/><use transform="matrix(0.06172839506172839,0,0,0.06172839506172839,15.987654320987653,0)" xlink:href="#ao"/><use transform="matrix(0.06172839506172839,0,0,0.06172839506172839,22.160493827160494,0)" xlink:href="#ap"/><use transform="matrix(0.06172839506172839,0,0,0.06172839506172839,34.50617283950617,0)" xlink:href="#H"/><use transform="matrix(0.06172839506172839,0,0,0.06172839506172839,46.85185185185185,0)" xlink:href="#ao"/><use transform="matrix(0.06172839506172839,0,0,0.06172839506172839,53.02469135802469,0)" xlink:href="#ap"/></g><path fill="#3a414a" d="M233-177c-1 41-23 64-60 70L243 0h-38l-65-103H63V0H30v-248c88 3 205-21 203 71zM63-129c60-2 137 13 137-47 0-61-80-42-137-45v92" id="au"/><g id="B"><use transform="matrix(0.06172839506172839,0,0,0.06172839506172839,0,0)" xlink:href="#au"/><use transform="matrix(0.06172839506172839,0,0,0.06172839506172839,15.987654320987653,0)" xlink:href="#ap"/><use transform="matrix(0.06172839506172839,0,0,0.06172839506172839,28.333333333333332,0)" xlink:href="#I"/><use transform="matrix(0.06172839506172839,0,0,0.06172839506172839,40.67901234567901,0)" xlink:href="#ar"/><use transform="matrix(0.06172839506172839,0,0,0.06172839506172839,45.55555555555556,0)" xlink:href="#as"/><use transform="matrix(0.06172839506172839,0,0,0.06172839506172839,56.66666666666667,0)" xlink:href="#ao"/><use transform="matrix(0.06172839506172839,0,0,0.06172839506172839,62.83950617283951,0)" xlink:href="#aq"/><use transform="matrix(0.06172839506172839,0,0,0.06172839506172839,70.18518518518519,0)" xlink:href="#at"/><use transform="matrix(0.06172839506172839,0,0,0.06172839506172839,82.53086419753087,0)" xlink:href="#ao"/><use transform="matrix(0.06172839506172839,0,0,0.06172839506172839,88.70370370370371,0)" xlink:href="#G"/></g><g id="C"><use transform="matrix(0.06172839506172839,0,0,0.06172839506172839,0,0)" xlink:href="#an"/><use transform="matrix(0.06172839506172839,0,0,0.06172839506172839,15.987654320987653,0)" xlink:href="#ao"/><use transform="matrix(0.06172839506172839,0,0,0.06172839506172839,22.160493827160494,0)" xlink:href="#ap"/><use transform="matrix(0.06172839506172839,0,0,0.06172839506172839,34.50617283950617,0)" xlink:href="#H"/><use transform="matrix(0.06172839506172839,0,0,0.06172839506172839,46.85185185185185,0)" xlink:href="#ao"/><use transform="matrix(0.06172839506172839,0,0,0.06172839506172839,53.02469135802469,0)" xlink:href="#ap"/></g><path fill="#3a414a" d="M85-194c31 0 48 13 60 33l-1-100h32l1 261h-30c-2-10 0-23-3-31C134-8 116 4 85 4 32 4 16-35 15-94c0-66 23-100 70-100zm9 24c-40 0-46 34-46 75 0 40 6 74 45 74 42 0 51-32 51-76 0-42-9-74-50-73" id="av"/><g id="D"><use transform="matrix(0.06172839506172839,0,0,0.06172839506172839,0,0)" xlink:href="#av"/><use transform="matrix(0.06172839506172839,0,0,0.06172839506172839,12.345679012345679,0)" xlink:href="#ar"/></g><g id="E"><use transform="matrix(0.06172839506172839,0,0,0.06172839506172839,0,0)" xlink:href="#as"/><use transform="matrix(0.06172839506172839,0,0,0.06172839506172839,11.11111111111111,0)" xlink:href="#ap"/><use transform="matrix(0.06172839506172839,0,0,0.06172839506172839,23.45679012345679,0)" xlink:href="#I"/><use transform="matrix(0.06172839506172839,0,0,0.06172839506172839,35.80246913580247,0)" xlink:href="#aq"/><use transform="matrix(0.06172839506172839,0,0,0.06172839506172839,43.148148148148145,0)" xlink:href="#ap"/><use transform="matrix(0.06172839506172839,0,0,0.06172839506172839,55.49382716049382,0)" xlink:href="#ao"/><use transform="matrix(0.06172839506172839,0,0,0.06172839506172839,61.666666666666664,0)" xlink:href="#ap"/><use transform="matrix(0.06172839506172839,0,0,0.06172839506172839,74.01234567901234,0)" xlink:href="#aq"/><use transform="matrix(0.06172839506172839,0,0,0.06172839506172839,81.35802469135803,0)" xlink:href="#ar"/><use transform="matrix(0.06172839506172839,0,0,0.06172839506172839,86.23456790123457,0)" xlink:href="#at"/></g></defs></g></svg>