<svg xmlns="http://www.w3.org/2000/svg" xmlns:xlink="http://www.w3.org/1999/xlink" xmlns:lucid="lucid" width="1080" height="600"><g transform="translate(-1193.3544522212503 -1732.6666666666667)" lucid:page-tab-id="kkl-xEImwlm-"><path d="M-1806.87-3776.5h5484.6v8875.84h-5484.6z" fill="#fff"/><path d="M1193.35 1738.67a6 6 0 0 1 6-6h1068a6 6 0 0 1 6 6v588a6 6 0 0 1-6 6h-1068a6 6 0 0 1-6-6z" fill-opacity="0"/><path d="M1293.1 1962.42c0 10.9-8.84 19.75-19.75 19.75-10.9 0-19.75-8.85-19.75-19.75s8.85-19.75 19.75-19.75 19.75 8.84 19.75 19.75z" stroke="#3a414a" fill="#fff"/><path d="M1273.35 1982.17v49.3a20.7 20.7 0 0 0 3.2 11.07l36.8 58.13m-40-63.2l-40 63.2m0-98.75h80" stroke="#3a414a" fill="none"/><path d="M1233.35 1948.67a6 6 0 0 1 6-6h68a6 6 0 0 1 6 6v168a6 6 0 0 1-6 6h-68a6 6 0 0 1-6-6z" fill="none"/><use xlink:href="#a" transform="matrix(1,0,0,1,1153.3544522212499,2100.666666666667) translate(75.61728395061729 17.77777777777778)"/><use xlink:href="#b" transform="matrix(1,0,0,1,1153.3544522212499,2100.666666666667) translate(147.1604938271605 17.77777777777778)"/><use xlink:href="#c" transform="matrix(1,0,0,1,1153.3544522212499,2100.666666666667) translate(70.70987654320987 44.44444444444444)"/><path d="M2213.1 1892.42c0 10.9-8.84 19.75-19.75 19.75-10.9 0-19.75-8.85-19.75-19.75s8.85-19.75 19.75-19.75 19.75 8.84 19.75 19.75z" stroke="#3a414a" fill="#fff"/><path d="M2193.35 1912.17v49.3a20.7 20.7 0 0 0 3.2 11.07l36.8 58.13m-40-63.2l-40 63.2m0-98.75h80" stroke="#3a414a" fill="none"/><path d="M2153.35 1878.67a6 6 0 0 1 6-6h68a6 6 0 0 1 6 6v168a6 6 0 0 1-6 6h-68a6 6 0 0 1-6-6z" fill="none"/><use xlink:href="#d" transform="matrix(1,0,0,1,2073.3544522212505,2030.666666666667) translate(70.67901234567901 17.77777777777778)"/><path d="M1533.35 2032.67c0 33.13-35.8 60-80 60-44.18 0-80-26.87-80-60 0-33.14 35.82-60 80-60 44.2 0 80 26.86 80 60z" stroke="#3a414a" fill="#fff"/><use xlink:href="#e" transform="matrix(1,0,0,1,1373.3544522212503,1972.6666666666667) translate(39.754999999999995 51.9)"/><use xlink:href="#f" transform="matrix(1,0,0,1,1373.3544522212503,1972.6666666666667) translate(40.529999999999994 73.5)"/><path d="M1974.48 1879.78c0 33.14-35.82 60-80 60s-80-26.86-80-60c0-33.13 35.82-60 80-60s80 26.87 80 60z" stroke="#3a414a" fill="#fff"/><use xlink:href="#g" transform="matrix(1,0,0,1,1814.4800631217329,1819.7846390842258) translate(19.654999999999994 51.9)"/><use xlink:href="#h" transform="matrix(1,0,0,1,1814.4800631217329,1819.7846390842258) translate(105.155 51.9)"/><use xlink:href="#i" transform="matrix(1,0,0,1,1814.4800631217329,1819.7846390842258) translate(52.55499999999999 73.5)"/><path d="M1814.48 1812.67c0 33.13-35.82 60-80 60s-80-26.87-80-60c0-33.14 35.82-60 80-60s80 26.86 80 60z" stroke="#3a414a" fill="#fff"/><use xlink:href="#j" transform="matrix(1,0,0,1,1654.4800631217329,1752.6666666666667) translate(40.55499999999999 51.9)"/><use xlink:href="#k" transform="matrix(1,0,0,1,1654.4800631217329,1752.6666666666667) translate(50.055 73.5)"/><path d="M1531.4 2004.56l-2.34 1.63-1.94 1.23-.54-.84 1.92-1.24 2.34-1.63zm11.82-10.05l-2.42 2.38-2.8 2.52-2.45 2.03-.64-.77 2.44-2 2.78-2.5 2.4-2.37zm9.97-11.87l-1.72 2.34-2.6 3.3-2.12 2.45-.76-.66 2.1-2.43 2.58-3.26 1.7-2.33zm8.13-13.2l-2.1 3.8-2.58 4.3-.55.83-.83-.56.54-.82 2.58-4.24 2.07-3.78zm6.54-14.04l-.6 1.56-2.75 6.16-.85 1.7-.9-.43.84-1.7 2.73-6.13.6-1.54zm5.32-14.53l-3.07 8.8-.36.94-.93-.36.36-.9 3.05-8.8zm3.93-14.97l-2.6 9.96-.97-.25 2.6-9.95zm1.3-4.98l-.96-.25 2.45-9.34h1.03zm10.45-39.84l-2.33 8.92h-1.04l2.42-9.17zm4.26-14.82l-2.96 9.86-.95-.3 2.95-9.85zm5.37-14.4l-.6 1.37-2.15 5.46-.95 2.7-.94-.32.95-2.74 2.18-5.5.62-1.4zm7.18-13.57l-.46.7-1.7 2.8-1.78 3.24-1.08 2.16-.9-.44 1.1-2.2 1.78-3.25 1.73-2.84.48-.72zm9.8-11.72l-.6.55-1.6 1.55-1.58 1.7-1.6 1.84-1.5 1.9-.77-.63 1.5-1.92 1.63-1.88 1.6-1.72 1.63-1.58.62-.56zm12.72-8.4l-1.58.76-1.8.94-1.74 1-1.7 1.08-1.66 1.16-.3.22-.6-.8.3-.23 1.7-1.17 1.74-1.1 1.78-1.03 1.84-.96 1.6-.75zm9.64-3.24l-1.04.24-2.23.63-1.64.54-.3-.96 1.65-.53 2.28-.64 1.05-.24z" stroke="#3a414a" stroke-width=".05" fill="#3a414a"/><path d="M1652.37 1812.84l-13.68 6.17-1.02-9.2z" fill="#3a414a"/><path d="M1653.98 1812.67l-15.7 7.08-1.17-10.6zm-14.86 5.6l11.64-5.25-12.5-2.6z" stroke="#3a414a" stroke-width=".05" fill="#3a414a"/><path d="M1527.13 2007.43l-.45.28-.5-.85.4-.26z" fill="#3a414a"/><path d="M1527.16 2007.43l-.5.32-.52-.9.45-.3zm-.96-.57l.5.82.4-.26-.52-.8z" stroke="#3a414a" stroke-width=".05" fill="#3a414a"/><use xlink:href="#l" transform="matrix(1,0,0,1,1541.8260943790438,1889.9976800312934) translate(0 14.222222222222223)"/><path d="M1372.35 2032.67h-58.5" stroke="#3a414a" stroke-linejoin="round" fill="none"/><path d="M1372.85 2032.66v.5h-.5v-1h.52zM1313.87 2033.17h-3.52v-1h3.52z" stroke="#3a414a" stroke-width=".05" fill="#3a414a"/><path d="M1853.35 2032.67c0 33.13-35.8 60-80 60-44.18 0-80-26.87-80-60 0-33.14 35.82-60 80-60 44.2 0 80 26.86 80 60z" stroke="#3a414a" fill="#fff"/><use xlink:href="#e" transform="matrix(1,0,0,1,1693.3544522212505,1972.6666666666667) translate(39.754999999999995 40.65)"/><use xlink:href="#m" transform="matrix(1,0,0,1,1693.3544522212505,1972.6666666666667) translate(39.55499999999999 62.25)"/><use xlink:href="#n" transform="matrix(1,0,0,1,1693.3544522212505,1972.6666666666667) translate(96.505 62.25)"/><use xlink:href="#o" transform="matrix(1,0,0,1,1693.3544522212505,1972.6666666666667) translate(42.03 83.85000000000001)"/><path d="M1692.35 2033.17h-5.26v-1h5.25zm-10.52 0h-10.53v-1h10.53zm-94.75 0h-10.52v-1h10.52zm-15.8 0h-10.5v-1h10.5zm-15.78 0h-5.26v-1h5.26z" stroke="#3a414a" stroke-width=".05" fill="#3a414a"/><path d="M1692.85 2032.66v.5h-.5v-1h.52z" fill="#3a414a"/><path d="M1692.88 2032.66v.53h-.57v-1.06h.6zm-.52-.47v.94h.47v-.95z" stroke="#3a414a" stroke-width=".05" fill="#3a414a"/><path d="M1549.74 2037.3l-14.27-4.63 14.27-4.64z" fill="#3a414a"/><path d="M1550.24 2038l-16.4-5.33 16.4-5.33zm-13.15-5.33l12.14 3.94v-7.88z" stroke="#3a414a" stroke-width=".05" fill="#3a414a"/><use xlink:href="#p" transform="matrix(1,0,0,1,1590.0448543424686,2022.0000000000002) translate(0 14.222222222222223)"/><path d="M1973.35 2172.67c0 33.13-35.8 60-80 60-44.18 0-80-26.87-80-60 0-33.14 35.82-60 80-60 44.2 0 80 26.86 80 60z" stroke="#3a414a" fill="#fff"/><use xlink:href="#g" transform="matrix(1,0,0,1,1813.3544522212503,2112.666666666667) translate(15.279999999999996 51.9)"/><use xlink:href="#q" transform="matrix(1,0,0,1,1813.3544522212503,2112.666666666667) translate(100.78 51.9)"/><use xlink:href="#r" transform="matrix(1,0,0,1,1813.3544522212503,2112.666666666667) translate(47.07999999999999 73.5)"/><use xlink:href="#s" transform="matrix(1,0,0,1,1813.3544522212503,2112.666666666667) translate(76.03 73.5)"/><path d="M1814.48 2252.67c0 33.13-35.82 60-80 60s-80-26.87-80-60c0-33.14 35.82-60 80-60s80 26.86 80 60z" stroke="#3a414a" fill="#fff"/><use xlink:href="#e" transform="matrix(1,0,0,1,1654.4800631217329,2192.666666666667) translate(39.754999999999995 40.65)"/><use xlink:href="#t" transform="matrix(1,0,0,1,1654.4800631217329,2192.666666666667) translate(18.604999999999997 62.25)"/><use xlink:href="#u" transform="matrix(1,0,0,1,1654.4800631217329,2192.666666666667) translate(66.60499999999999 62.25)"/><use xlink:href="#n" transform="matrix(1,0,0,1,1654.4800631217329,2192.666666666667) translate(117.455 62.25)"/><use xlink:href="#v" transform="matrix(1,0,0,1,1654.4800631217329,2192.666666666667) translate(42.03 83.85000000000001)"/><path d="M1649.14 2251.66l.94.18.96.14.96.1.98.07h.5v1h-.54l-1.02-.07-1-.1-1-.15-1-.2-.64-.14.22-1zm-13.4-7.46l1.24 1.1 1.17.97 1.12.85 1.08.75 1.05.67 1.02.6 1 .5.35.18-.42.9-.38-.17-1.03-.54-1.06-.6-1.08-.7-1.12-.77-1.16-.88-1.2-1-1.25-1.12-.22-.22.7-.7zm-9.2-11.5l1.85 2.8 1.68 2.32 1.56 1.97.42.48-.75.65-.43-.5-1.6-2-1.7-2.37-1.87-2.8-.44-.74.86-.52zm-6.9-12.74l2.6 5.24 1.3 2.38-.87.48-1.32-2.4-2.62-5.28-.68-1.55.9-.4zm-3.03-6.83l.27.6-.9.4-.28-.6-3.55-8.97.93-.37zm-5.2-13.77l-.96.33-3.35-9.7.94-.32zm-4.83-14.62l-.96.28-2.92-9.85.95-.3zm-4.4-14.8l-.96.3-2.92-9.86.96-.28zm-4.35-14.78l-.96.27-.58-2.05h1.04zm-6.6-23.1h-1.03l-.4-1.35.97-.26zm-1.86-6.57l-.97.27-2.83-9.9.96-.26zm-4.24-14.84l-.96.28-2.82-9.9.96-.27zm-4.37-15.32l.14.5-.97.26-.14-.46-3.2-9.23.94-.32zm-8.6-23.53l3.7 9.4-.93.37-3.7-9.37-.07-.18.9-.4zm-5.66-12.12l2.6 5.27.87 1.97-.9.4-.88-1.95-2.6-5.23-1.1-2 .9-.47zm-9.54-14.77l1.6 2 1.7 2.37 1.87 2.82.68 1.1-.85.52-.66-1.1-1.86-2.78-1.68-2.32-1.57-1.98-.13-.14.76-.65zm-6.65-6.62l1.2 1 1.27 1.13.54.54-.7.7-.52-.5-1.22-1.1-1.17-.98-.94-.7.6-.8z" stroke="#3a414a" stroke-width=".05" fill="#3a414a"/><path d="M1654 2252.17l-.02.5v.5h-.52l.02-1z" fill="#3a414a"/><path d="M1654.02 2252.14v1.05l-.6-.02.03-1.05zm-.54 1h.48v-.95l-.46-.02z" stroke="#3a414a" stroke-width=".05" fill="#3a414a"/><path d="M1550.38 2033.5l-3.05 8.77-11.95-9.07z" fill="#3a414a"/><path d="M1551.08 2033.02l-3.5 10.06-13.73-10.4zm-4 8.43l2.6-7.45-12.77-.27z" stroke="#3a414a" stroke-width=".05" fill="#3a414a"/><use xlink:href="#w" transform="matrix(1,0,0,1,1554.8125261237308,2132.047577947941) translate(0 14.222222222222223)"/><path d="M2152.85 1952.67h-419" stroke="#3a414a" stroke-linejoin="round" fill="none"/><path d="M2152.84 1952.67h.5M1733.87 1952.67h-.52" stroke="#3a414a" fill="none"/><path d="M1732.86 1953.17l-9.9.14-10.92.58-9.63.9-8.65 1.2-7.94 1.42-7.42 1.66-7.1 1.9-6.96 2.18-7.03 2.53-7.45 3.04-8.53 3.93-35.57 19.03-13.97 7.15-10.3 4.73-9.44 3.86-9.34 3.35-9.62 3.02-10.23 2.74-10.63 2.38-.22-.98 10.6-2.36 10.2-2.73 9.58-3 9.3-3.34 9.4-3.84 10.27-4.7 13.93-7.15 35.6-19.04 8.57-3.94 7.48-3.06 7.07-2.55 7-2.2 7.14-1.92 7.47-1.66 8-1.44 8.7-1.2 9.67-.9 10.97-.57 9.9-.13z" stroke="#3a414a" stroke-width=".05" fill="#3a414a"/><path d="M1532.23 2018.88l-.46.1-.3-.96.55-.12z" fill="#3a414a"/><path d="M1532.26 2018.9l-.5.1-.3-1 .58-.13zm-.75-.86l.28.9.42-.08-.2-.93zM1733.36 1953.17h-.5l-.03-1h.52zM1555.23 2031.9l-4.96.5-.1-1 4.95-.5zm14.8-2.58l-1.62.38-6.17 1.18-2.05.3-.15-1 2.04-.3 6.13-1.16 1.6-.37zm14.42-4.04l-4.4 1.43-5.17 1.46-.26-.97 5.14-1.44 4.38-1.43zm5.6-2.02l-.9.33-.34-.95 1.24-.46zm8.34-3.56l-1.95.92-3.3 1.38h-2.6l.15-.05 5.34-2.25 1.92-.9zm13.24-7l-4.47 2.6-4.28 2.23-.47-.9 4.26-2.22 4.44-2.56zm12.53-8.27l-.17.13-5.8 4.05-2.3 1.46-.54-.84 2.27-1.45 5.78-4 .16-.13zm11.73-9.3l-5.72 4.74-2.04 1.55-.6-.8 2-1.53 5.72-4.74zm11.02-10.18l-2.15 2.26-5.1 4.62-.68-.74 5.07-4.58 2.13-2.24zm10.32-10.83l-6.88 7.22-.72-.7 6.87-7.2zm10.3-10.83l-6.86 7.2-.73-.68 6.88-7.22zm10.33-10.84l-6.88 7.22-.73-.7 6.87-7.2zm10.3-10.83l-6.86 7.22-.72-.7 6.88-7.2zm32.87-30.36l-2.76 2.1-5 4.13-.63-.77 5-4.15 2.78-2.1zm12.22-8.53l-3.06 1.94-5.2 3.6-.56-.8 5.2-3.63 3.08-1.96zm12.97-7.36l-5.08 2.66-3.66 2.1-.5-.86 3.67-2.12 5.1-2.66zm13.66-5.9l-2.77 1.02-5.34 2.25-1.1.5-.4-.9 1.08-.5 5.38-2.28 2.78-1.03zm14.2-4.45l-.35.08-5.68 1.6-3.5 1.13-.3-.95 3.5-1.14 5.73-1.6.36-.08zm14.6-2.9l-2.93.43-6.13 1.17-.7.16-.22-.98.7-.17 6.18-1.18 2.97-.43zm14.84-1.52l-4.54.3-5.37.56-.1-1 5.38-.56 4.58-.28zm9.95-.3l-5 .1-.02-1 5-.1z" stroke="#3a414a" stroke-width=".05" fill="#3a414a"/><path d="M1813.98 1879.78v.5l-.5.02-.03-1 .55-.02z" fill="#3a414a"/><path d="M1814 1879.78v.53l-.55.02-.02-1.05h.6zm-.52-.46l.02.95h.46v-.96z" stroke="#3a414a" stroke-width=".05" fill="#3a414a"/><path d="M1549.94 2036.56l-14.47-3.97 14.04-5.3z" fill="#3a414a"/><path d="M1550.47 2037.23l-16.62-4.56 16.13-6.08zm-13.38-4.7l12.3 3.37-.36-7.9z" stroke="#3a414a" stroke-width=".05" fill="#3a414a"/><g><use xlink:href="#x" transform="matrix(1,0,0,1,1660.7547821778687,1918.5884823669635) translate(0 14.222222222222223)"/></g><path d="M1812.36 2172.16l-.02 1-5.1-.1.03-1zm-15.64-.65l5.48.35-.07 1-5.5-.35-4.67-.5.1-.98zm-14.1-1.76l4.4.65-.14.98-4.43-.66-5.63-1.07.2-.98zm-18.68-4.37l5.98 1.67 2.14.5-.23.98-2.16-.5-6.02-1.7-1.68-.53.3-.97zm-11.5-4l5.02 1.87-.35.94-5-1.88-4.48-1.87.4-.93zm-16.8-7.92l5.63 2.94 2.12 1-.43.9-2.15-1-5.65-2.97-1.3-.74.5-.88zm-11.63-7.06l6 3.78-.55.85-6-3.8-2.55-1.78.57-.82zm-6.68-4.7l-.6.8-3.77-2.85h1.66zm-27.36-23.4h-1.44l-2.62-2.52.7-.7zm-7.03-6.77l-.7.72-7.33-7.08.7-.72zm-11-10.62l-.7.73-7.33-7.08.7-.72zm-11-10.6l-.7.7-7.33-7.07.7-.72zm-16.65-16.08l5.65 5.46-.7.7-5.62-5.4-1.8-1.5.65-.77zm-7.87-6.52l2.12 1.75-.63.77-2.12-1.74-5.92-4.5.6-.8zm-13.14-9.6l3.03 2.12-.58.83-3.02-2.1-5.48-3.5.54-.83zm-17.37-10.05l5.64 2.95 1.8 1.04-.5.87-1.78-1.02-5.62-2.94-1.6-.75.44-.9zm-6.26-2.9l-.4.9-5-2.1-1.67-.62h2.78zm-9.6-2.76l-.24-.1.24-.65zm-13-5.08l6.02 1.68 2.24.73-.3.95-2.23-.72-5.98-1.67-1.57-.38.23-.97zm-12.8-2.7l6.23 1.18-.2.98-6.18-1.18-3.83-.57.14-1zm-8.9-1.24l-.1 1-5.07-.53.1-1z" stroke="#3a414a" stroke-width=".05" fill="#3a414a"/><path d="M1812.87 2172.17l-.02.5v.5h-.52l.02-1z" fill="#3a414a"/><path d="M1812.9 2172.14l-.02.52v.53l-.58-.02.02-1.05zm-.55 1h.48v-.95l-.46-.02z" stroke="#3a414a" stroke-width=".05" fill="#3a414a"/><path d="M1549.53 2037.96l-14.06-5.23 14.45-4.03z" fill="#3a414a"/><path d="M1550 2038.67l-16.15-6 16.6-4.64zm-12.9-5.87l11.96 4.45.33-7.9z" stroke="#3a414a" stroke-width=".05" fill="#3a414a"/><g><use xlink:href="#p" transform="matrix(1,0,0,1,1661.8803414354616,2118.314942071732) translate(0 14.222222222222223)"/></g><defs><path fill="#3a414a" d="M232-93c-1 65-40 97-104 97C67 4 28-28 28-90v-158h33c8 89-33 224 67 224 102 0 64-133 71-224h33v155" id="y"/><path fill="#3a414a" d="M59-47c-2 24 18 29 38 22v24C64 9 27 4 27-40v-127H5v-23h24l9-43h21v43h35v23H59v120" id="z"/><path fill="#3a414a" d="M100-194c63 0 86 42 84 106H49c0 40 14 67 53 68 26 1 43-12 49-29l28 8c-11 28-37 45-77 45C44 4 14-33 15-96c1-61 26-98 85-98zm52 81c6-60-76-77-97-28-3 7-6 17-6 28h103" id="A"/><path fill="#3a414a" d="M117-194c89-4 53 116 60 194h-32v-121c0-31-8-49-39-48C34-167 62-67 57 0H25l-1-190h30c1 10-1 24 2 32 11-22 29-35 61-36" id="B"/><g id="a"><use transform="matrix(0.06172839506172839,0,0,0.06172839506172839,0,0)" xlink:href="#y"/><use transform="matrix(0.06172839506172839,0,0,0.06172839506172839,15.987654320987653,0)" xlink:href="#z"/><use transform="matrix(0.06172839506172839,0,0,0.06172839506172839,22.160493827160494,0)" xlink:href="#A"/><use transform="matrix(0.06172839506172839,0,0,0.06172839506172839,34.50617283950617,0)" xlink:href="#B"/><use transform="matrix(0.06172839506172839,0,0,0.06172839506172839,46.85185185185185,0)" xlink:href="#z"/><use transform="matrix(0.06172839506172839,0,0,0.06172839506172839,53.02469135802469,0)" xlink:href="#A"/></g><path fill="#3a414a" d="M85-194c31 0 48 13 60 33l-1-100h32l1 261h-30c-2-10 0-23-3-31C134-8 116 4 85 4 32 4 16-35 15-94c0-66 23-100 70-100zm9 24c-40 0-46 34-46 75 0 40 6 74 45 74 42 0 51-32 51-76 0-42-9-74-50-73" id="C"/><path fill="#3a414a" d="M24-231v-30h32v30H24zM24 0v-190h32V0H24" id="D"/><g id="b"><use transform="matrix(0.06172839506172839,0,0,0.06172839506172839,0,0)" xlink:href="#C"/><use transform="matrix(0.06172839506172839,0,0,0.06172839506172839,12.345679012345679,0)" xlink:href="#D"/></g><path fill="#3a414a" d="M135-143c-3-34-86-38-87 0 15 53 115 12 119 90S17 21 10-45l28-5c4 36 97 45 98 0-10-56-113-15-118-90-4-57 82-63 122-42 12 7 21 19 24 35" id="E"/><path fill="#3a414a" d="M177-190C167-65 218 103 67 71c-23-6-38-20-44-43l32-5c15 47 100 32 89-28v-30C133-14 115 1 83 1 29 1 15-40 15-95c0-56 16-97 71-98 29-1 48 16 59 35 1-10 0-23 2-32h30zM94-22c36 0 50-32 50-73 0-42-14-75-50-75-39 0-46 34-46 75s6 73 46 73" id="F"/><path fill="#3a414a" d="M114-163C36-179 61-72 57 0H25l-1-190h30c1 12-1 29 2 39 6-27 23-49 58-41v29" id="G"/><path fill="#3a414a" d="M141-36C126-15 110 5 73 4 37 3 15-17 15-53c-1-64 63-63 125-63 3-35-9-54-41-54-24 1-41 7-42 31l-33-3c5-37 33-52 76-52 45 0 72 20 72 64v82c-1 20 7 32 28 27v20c-31 9-61-2-59-35zM48-53c0 20 12 33 32 33 41-3 63-29 60-74-43 2-92-5-92 41" id="H"/><g id="c"><use transform="matrix(0.06172839506172839,0,0,0.06172839506172839,0,0)" xlink:href="#E"/><use transform="matrix(0.06172839506172839,0,0,0.06172839506172839,11.11111111111111,0)" xlink:href="#A"/><use transform="matrix(0.06172839506172839,0,0,0.06172839506172839,23.45679012345679,0)" xlink:href="#F"/><use transform="matrix(0.06172839506172839,0,0,0.06172839506172839,35.80246913580247,0)" xlink:href="#G"/><use transform="matrix(0.06172839506172839,0,0,0.06172839506172839,43.148148148148145,0)" xlink:href="#A"/><use transform="matrix(0.06172839506172839,0,0,0.06172839506172839,55.49382716049382,0)" xlink:href="#z"/><use transform="matrix(0.06172839506172839,0,0,0.06172839506172839,61.666666666666664,0)" xlink:href="#A"/><use transform="matrix(0.06172839506172839,0,0,0.06172839506172839,74.01234567901234,0)" xlink:href="#G"/><use transform="matrix(0.06172839506172839,0,0,0.06172839506172839,81.35802469135803,0)" xlink:href="#D"/><use transform="matrix(0.06172839506172839,0,0,0.06172839506172839,86.23456790123457,0)" xlink:href="#H"/></g><path fill="#3a414a" d="M240 0l2-218c-23 76-54 145-80 218h-23L58-218 59 0H30v-248h44l77 211c21-75 51-140 76-211h43V0h-30" id="I"/><path fill="#3a414a" d="M100-194c62-1 85 37 85 99 1 63-27 99-86 99S16-35 15-95c0-66 28-99 85-99zM99-20c44 1 53-31 53-75 0-43-8-75-51-75s-53 32-53 75 10 74 51 75" id="J"/><path fill="#3a414a" d="M30-248c118-7 216 8 213 122C240-48 200 0 122 0H30v-248zM63-27c89 8 146-16 146-99s-60-101-146-95v194" id="K"/><path fill="#3a414a" d="M160-131c35 5 61 23 61 61C221 17 115-2 30 0v-248c76 3 177-17 177 60 0 33-19 50-47 57zm-97-11c50-1 110 9 110-42 0-47-63-36-110-37v79zm0 115c55-2 124 14 124-45 0-56-70-42-124-44v89" id="L"/><g id="d"><use transform="matrix(0.06172839506172839,0,0,0.06172839506172839,0,0)" xlink:href="#I"/><use transform="matrix(0.06172839506172839,0,0,0.06172839506172839,18.456790123456788,0)" xlink:href="#J"/><use transform="matrix(0.06172839506172839,0,0,0.06172839506172839,30.80246913580247,0)" xlink:href="#B"/><use transform="matrix(0.06172839506172839,0,0,0.06172839506172839,43.148148148148145,0)" xlink:href="#F"/><use transform="matrix(0.06172839506172839,0,0,0.06172839506172839,55.49382716049382,0)" xlink:href="#J"/><use transform="matrix(0.06172839506172839,0,0,0.06172839506172839,67.8395061728395,0)" xlink:href="#K"/><use transform="matrix(0.06172839506172839,0,0,0.06172839506172839,83.82716049382717,0)" xlink:href="#L"/></g><path d="M137 0h-34L2-248h35l83 218 83-218h36" id="M"/><path d="M24-231v-30h32v30H24zM24 0v-190h32V0H24" id="N"/><path d="M135-143c-3-34-86-38-87 0 15 53 115 12 119 90S17 21 10-45l28-5c4 36 97 45 98 0-10-56-113-15-118-90-4-57 82-63 122-42 12 7 21 19 24 35" id="O"/><path d="M84 4C-5 8 30-112 23-190h32v120c0 31 7 50 39 49 72-2 45-101 50-169h31l1 190h-30c-1-10 1-25-2-33-11 22-28 36-60 37" id="P"/><path d="M141-36C126-15 110 5 73 4 37 3 15-17 15-53c-1-64 63-63 125-63 3-35-9-54-41-54-24 1-41 7-42 31l-33-3c5-37 33-52 76-52 45 0 72 20 72 64v82c-1 20 7 32 28 27v20c-31 9-61-2-59-35zM48-53c0 20 12 33 32 33 41-3 63-29 60-74-43 2-92-5-92 41" id="Q"/><path d="M24 0v-261h32V0H24" id="R"/><path d="M9 0v-24l116-142H16v-24h144v24L44-24h123V0H9" id="S"/><g id="e"><use transform="matrix(0.05,0,0,0.05,0,0)" xlink:href="#M"/><use transform="matrix(0.05,0,0,0.05,11.65,0)" xlink:href="#N"/><use transform="matrix(0.05,0,0,0.05,15.600000000000001,0)" xlink:href="#O"/><use transform="matrix(0.05,0,0,0.05,24.6,0)" xlink:href="#P"/><use transform="matrix(0.05,0,0,0.05,34.6,0)" xlink:href="#Q"/><use transform="matrix(0.05,0,0,0.05,44.6,0)" xlink:href="#R"/><use transform="matrix(0.05,0,0,0.05,48.550000000000004,0)" xlink:href="#N"/><use transform="matrix(0.05,0,0,0.05,52.5,0)" xlink:href="#S"/><use transform="matrix(0.05,0,0,0.05,61.5,0)" xlink:href="#S"/><use transform="matrix(0.05,0,0,0.05,70.5,0)" xlink:href="#Q"/></g><path d="M114-163C36-179 61-72 57 0H25l-1-190h30c1 12-1 29 2 39 6-27 23-49 58-41v29" id="T"/><path d="M100-194c63 0 86 42 84 106H49c0 40 14 67 53 68 26 1 43-12 49-29l28 8c-11 28-37 45-77 45C44 4 14-33 15-96c1-61 26-98 85-98zm52 81c6-60-76-77-97-28-3 7-6 17-6 28h103" id="U"/><path d="M100-194c62-1 85 37 85 99 1 63-27 99-86 99S16-35 15-95c0-66 28-99 85-99zM99-20c44 1 53-31 53-75 0-43-8-75-51-75s-53 32-53 75 10 74 51 75" id="V"/><path d="M96-169c-40 0-48 33-48 73s9 75 48 75c24 0 41-14 43-38l32 2c-6 37-31 61-74 61-59 0-76-41-82-99-10-93 101-131 147-64 4 7 5 14 7 22l-32 3c-4-21-16-35-41-35" id="W"/><path d="M117-194c89-4 53 116 60 194h-32v-121c0-31-8-49-39-48C34-167 62-67 57 0H25l-1-190h30c1 10-1 24 2 32 11-22 29-35 61-36" id="X"/><path d="M59-47c-2 24 18 29 38 22v24C64 9 27 4 27-40v-127H5v-23h24l9-43h21v43h35v23H59v120" id="Y"/><g id="f"><use transform="matrix(0.05,0,0,0.05,0,0)" xlink:href="#T"/><use transform="matrix(0.05,0,0,0.05,5.95,0)" xlink:href="#U"/><use transform="matrix(0.05,0,0,0.05,15.949999999999998,0)" xlink:href="#O"/><use transform="matrix(0.05,0,0,0.05,24.95,0)" xlink:href="#V"/><use transform="matrix(0.05,0,0,0.05,34.95,0)" xlink:href="#W"/><use transform="matrix(0.05,0,0,0.05,43.95,0)" xlink:href="#V"/><use transform="matrix(0.05,0,0,0.05,53.95,0)" xlink:href="#X"/><use transform="matrix(0.05,0,0,0.05,63.95,0)" xlink:href="#Y"/><use transform="matrix(0.05,0,0,0.05,68.95,0)" xlink:href="#V"/></g><g id="g"><use transform="matrix(0.05,0,0,0.05,0,0)" xlink:href="#M"/><use transform="matrix(0.05,0,0,0.05,11.65,0)" xlink:href="#N"/><use transform="matrix(0.05,0,0,0.05,15.600000000000001,0)" xlink:href="#O"/><use transform="matrix(0.05,0,0,0.05,24.6,0)" xlink:href="#P"/><use transform="matrix(0.05,0,0,0.05,34.6,0)" xlink:href="#Q"/><use transform="matrix(0.05,0,0,0.05,44.6,0)" xlink:href="#R"/><use transform="matrix(0.05,0,0,0.05,48.550000000000004,0)" xlink:href="#N"/><use transform="matrix(0.05,0,0,0.05,52.5,0)" xlink:href="#S"/><use transform="matrix(0.05,0,0,0.05,61.5,0)" xlink:href="#S"/><use transform="matrix(0.05,0,0,0.05,70.5,0)" xlink:href="#Q"/></g><path d="M127-220V0H93v-220H8v-28h204v28h-85" id="Z"/><path d="M140-251c81 0 123 46 123 126C263-46 219 4 140 4 59 4 17-45 17-125s42-126 123-126zm0 227c63 0 89-41 89-101s-29-99-89-99c-61 0-89 39-89 99S79-25 140-24" id="aa"/><g id="h"><use transform="matrix(0.05,0,0,0.05,0,0)" xlink:href="#Z"/><use transform="matrix(0.05,0,0,0.05,10.600000000000001,0)" xlink:href="#aa"/><use transform="matrix(0.05,0,0,0.05,24.6,0)" xlink:href="#Z"/></g><g id="i"><use transform="matrix(0.05,0,0,0.05,0,0)" xlink:href="#N"/><use transform="matrix(0.05,0,0,0.05,3.95,0)" xlink:href="#X"/><use transform="matrix(0.05,0,0,0.05,13.949999999999998,0)" xlink:href="#W"/><use transform="matrix(0.05,0,0,0.05,22.95,0)" xlink:href="#Q"/><use transform="matrix(0.05,0,0,0.05,32.95,0)" xlink:href="#O"/><use transform="matrix(0.05,0,0,0.05,41.95,0)" xlink:href="#O"/><use transform="matrix(0.05,0,0,0.05,50.95,0)" xlink:href="#N"/></g><path d="M185-189c-5-48-123-54-124 2 14 75 158 14 163 119 3 78-121 87-175 55-17-10-28-26-33-46l33-7c5 56 141 63 141-1 0-78-155-14-162-118-5-82 145-84 179-34 5 7 8 16 11 25" id="ab"/><g id="j"><use transform="matrix(0.05,0,0,0.05,0,0)" xlink:href="#ab"/><use transform="matrix(0.05,0,0,0.05,12,0)" xlink:href="#U"/><use transform="matrix(0.05,0,0,0.05,22,0)" xlink:href="#R"/><use transform="matrix(0.05,0,0,0.05,25.950000000000003,0)" xlink:href="#U"/><use transform="matrix(0.05,0,0,0.05,35.95,0)" xlink:href="#S"/><use transform="matrix(0.05,0,0,0.05,44.95,0)" xlink:href="#N"/><use transform="matrix(0.05,0,0,0.05,48.900000000000006,0)" xlink:href="#V"/><use transform="matrix(0.05,0,0,0.05,58.900000000000006,0)" xlink:href="#X"/><use transform="matrix(0.05,0,0,0.05,68.9,0)" xlink:href="#Q"/></g><path d="M115-194c55 1 70 41 70 98S169 2 115 4C84 4 66-9 55-30l1 105H24l-1-265h31l2 30c10-21 28-34 59-34zm-8 174c40 0 45-34 45-75s-6-73-45-74c-42 0-51 32-51 76 0 43 10 73 51 73" id="ac"/><path d="M85-194c31 0 48 13 60 33l-1-100h32l1 261h-30c-2-10 0-23-3-31C134-8 116 4 85 4 32 4 16-35 15-94c0-66 23-100 70-100zm9 24c-40 0-46 34-46 75 0 40 6 74 45 74 42 0 51-32 51-76 0-42-9-74-50-73" id="ad"/><g id="k"><use transform="matrix(0.05,0,0,0.05,0,0)" xlink:href="#ac"/><use transform="matrix(0.05,0,0,0.05,10,0)" xlink:href="#U"/><use transform="matrix(0.05,0,0,0.05,20,0)" xlink:href="#T"/><use transform="matrix(0.05,0,0,0.05,25.950000000000003,0)" xlink:href="#N"/><use transform="matrix(0.05,0,0,0.05,29.899999999999995,0)" xlink:href="#V"/><use transform="matrix(0.05,0,0,0.05,39.9,0)" xlink:href="#ad"/><use transform="matrix(0.05,0,0,0.05,49.9,0)" xlink:href="#V"/></g><path fill="#333" d="M15-91v-56l181-69v40L49-119l147 57v40" id="ae"/><path fill="#333" d="M25-224v-37h50v37H25zM25 0v-190h50V0H25" id="af"/><path fill="#333" d="M135-194c87-1 58 113 63 194h-50c-7-57 23-157-34-157-59 0-34 97-39 157H25l-1-190h47c2 12-1 28 3 38 12-26 28-41 61-42" id="ag"/><path fill="#333" d="M190-63c-7 42-38 67-86 67-59 0-84-38-90-98-12-110 154-137 174-36l-49 2c-2-19-15-32-35-32-30 0-35 28-38 64-6 74 65 87 74 30" id="ah"/><path fill="#333" d="M25 0v-261h50V0H25" id="ai"/><path fill="#333" d="M85 4C-2 5 27-109 22-190h50c7 57-23 150 33 157 60-5 35-97 40-157h50l1 190h-47c-2-12 1-28-3-38-12 25-28 42-61 42" id="aj"/><path fill="#333" d="M88-194c31-1 46 15 58 34l-1-101h50l1 261h-48c-2-10 0-23-3-31C134-8 116 4 84 4 32 4 16-41 15-95c0-56 19-97 73-99zm17 164c33 0 40-30 41-66 1-37-9-64-41-64s-38 30-39 65c0 43 13 65 39 65" id="ak"/><path fill="#333" d="M185-48c-13 30-37 53-82 52C43 2 14-33 14-96s30-98 90-98c62 0 83 45 84 108H66c0 31 8 55 39 56 18 0 30-7 34-22zm-45-69c5-46-57-63-70-21-2 6-4 13-4 21h74" id="al"/><path fill="#333" d="M15-22v-40l146-57-146-57v-40l181 69v56" id="am"/><g id="l"><use transform="matrix(0.04938271604938272,0,0,0.04938271604938272,0,0)" xlink:href="#ae"/><use transform="matrix(0.04938271604938272,0,0,0.04938271604938272,10.370370370370372,0)" xlink:href="#af"/><use transform="matrix(0.04938271604938272,0,0,0.04938271604938272,15.308641975308642,0)" xlink:href="#ag"/><use transform="matrix(0.04938271604938272,0,0,0.04938271604938272,26.12345679012346,0)" xlink:href="#ah"/><use transform="matrix(0.04938271604938272,0,0,0.04938271604938272,36,0)" xlink:href="#ai"/><use transform="matrix(0.04938271604938272,0,0,0.04938271604938272,40.93827160493827,0)" xlink:href="#aj"/><use transform="matrix(0.04938271604938272,0,0,0.04938271604938272,51.75308641975309,0)" xlink:href="#ak"/><use transform="matrix(0.04938271604938272,0,0,0.04938271604938272,62.567901234567906,0)" xlink:href="#al"/><use transform="matrix(0.04938271604938272,0,0,0.04938271604938272,72.44444444444446,0)" xlink:href="#am"/></g><g id="m"><use transform="matrix(0.05,0,0,0.05,0,0)" xlink:href="#O"/><use transform="matrix(0.05,0,0,0.05,9,0)" xlink:href="#ac"/><use transform="matrix(0.05,0,0,0.05,19,0)" xlink:href="#Q"/><use transform="matrix(0.05,0,0,0.05,29,0)" xlink:href="#S"/><use transform="matrix(0.05,0,0,0.05,38,0)" xlink:href="#N"/><use transform="matrix(0.05,0,0,0.05,41.95,0)" xlink:href="#V"/></g><path d="M85 4C-4 8 31-112 24-190h32v120c0 31 7 50 39 49 72-2 45-101 50-169h31l1 190h-30c-1-10 1-25-2-33-11 22-28 36-60 37zm33-215l-58-49v-5h36c12 19 30 32 38 54h-16" id="an"/><g id="n"><use transform="matrix(0.05,0,0,0.05,0,0)" xlink:href="#ac"/><use transform="matrix(0.05,0,0,0.05,10,0)" xlink:href="#N"/><use transform="matrix(0.05,0,0,0.05,13.949999999999998,0)" xlink:href="#an"/></g><g id="o"><use transform="matrix(0.05,0,0,0.05,0,0)" xlink:href="#ac"/><use transform="matrix(0.05,0,0,0.05,10,0)" xlink:href="#T"/><use transform="matrix(0.05,0,0,0.05,15.949999999999998,0)" xlink:href="#U"/><use transform="matrix(0.05,0,0,0.05,25.950000000000003,0)" xlink:href="#X"/><use transform="matrix(0.05,0,0,0.05,35.95,0)" xlink:href="#V"/><use transform="matrix(0.05,0,0,0.05,45.95,0)" xlink:href="#Y"/><use transform="matrix(0.05,0,0,0.05,50.95,0)" xlink:href="#Q"/><use transform="matrix(0.05,0,0,0.05,60.95,0)" xlink:href="#Y"/><use transform="matrix(0.05,0,0,0.05,65.95,0)" xlink:href="#V"/></g><path fill="#333" d="M144 0l-44-69L55 0H2l70-98-66-92h53l41 62 40-62h54l-67 91 71 99h-54" id="ao"/><path fill="#333" d="M115-3C79 11 28 4 28-45v-112H4v-33h27l15-45h31v45h36v33H77v99c-1 23 16 31 38 25v30" id="ap"/><g id="p"><use transform="matrix(0.04938271604938272,0,0,0.04938271604938272,0,0)" xlink:href="#ae"/><use transform="matrix(0.04938271604938272,0,0,0.04938271604938272,10.370370370370372,0)" xlink:href="#al"/><use transform="matrix(0.04938271604938272,0,0,0.04938271604938272,20.24691358024692,0)" xlink:href="#ao"/><use transform="matrix(0.04938271604938272,0,0,0.04938271604938272,30.123456790123466,0)" xlink:href="#ap"/><use transform="matrix(0.04938271604938272,0,0,0.04938271604938272,36.00000000000001,0)" xlink:href="#al"/><use transform="matrix(0.04938271604938272,0,0,0.04938271604938272,45.87654320987655,0)" xlink:href="#ag"/><use transform="matrix(0.04938271604938272,0,0,0.04938271604938272,56.69135802469136,0)" xlink:href="#ak"/><use transform="matrix(0.04938271604938272,0,0,0.04938271604938272,67.50617283950618,0)" xlink:href="#am"/></g><g id="q"><use transform="matrix(0.05,0,0,0.05,0,0)" xlink:href="#P"/><use transform="matrix(0.05,0,0,0.05,10,0)" xlink:href="#Y"/><use transform="matrix(0.05,0,0,0.05,15,0)" xlink:href="#U"/><use transform="matrix(0.05,0,0,0.05,25,0)" xlink:href="#X"/><use transform="matrix(0.05,0,0,0.05,35,0)" xlink:href="#Y"/><use transform="matrix(0.05,0,0,0.05,40,0)" xlink:href="#N"/></g><g id="r"><use transform="matrix(0.05,0,0,0.05,0,0)" xlink:href="#ac"/><use transform="matrix(0.05,0,0,0.05,10,0)" xlink:href="#N"/><use transform="matrix(0.05,0,0,0.05,13.949999999999998,0)" xlink:href="#an"/></g><path d="M108 0H70L1-190h34L89-25l56-165h34" id="aq"/><g id="s"><use transform="matrix(0.05,0,0,0.05,0,0)" xlink:href="#Q"/><use transform="matrix(0.05,0,0,0.05,10,0)" xlink:href="#Y"/><use transform="matrix(0.05,0,0,0.05,15,0)" xlink:href="#Y"/><use transform="matrix(0.05,0,0,0.05,20,0)" xlink:href="#N"/><use transform="matrix(0.05,0,0,0.05,23.95,0)" xlink:href="#aq"/><use transform="matrix(0.05,0,0,0.05,32.95,0)" xlink:href="#N"/></g><path d="M101-234c-31-9-42 10-38 44h38v23H63V0H32v-167H5v-23h27c-7-52 17-82 69-68v24" id="ar"/><g id="t"><use transform="matrix(0.05,0,0,0.05,0,0)" xlink:href="#ar"/><use transform="matrix(0.05,0,0,0.05,5,0)" xlink:href="#Q"/><use transform="matrix(0.05,0,0,0.05,15,0)" xlink:href="#O"/><use transform="matrix(0.05,0,0,0.05,24,0)" xlink:href="#W"/><use transform="matrix(0.05,0,0,0.05,33,0)" xlink:href="#U"/></g><g id="u"><use transform="matrix(0.05,0,0,0.05,0,0)" xlink:href="#V"/><use transform="matrix(0.05,0,0,0.05,10,0)" xlink:href="#T"/><use transform="matrix(0.05,0,0,0.05,15.949999999999998,0)" xlink:href="#Q"/><use transform="matrix(0.05,0,0,0.05,25.950000000000003,0)" xlink:href="#T"/><use transform="matrix(0.05,0,0,0.05,31.899999999999995,0)" xlink:href="#N"/><use transform="matrix(0.05,0,0,0.05,35.85,0)" xlink:href="#U"/></g><g id="v"><use transform="matrix(0.05,0,0,0.05,0,0)" xlink:href="#ac"/><use transform="matrix(0.05,0,0,0.05,10,0)" xlink:href="#T"/><use transform="matrix(0.05,0,0,0.05,15.949999999999998,0)" xlink:href="#U"/><use transform="matrix(0.05,0,0,0.05,25.950000000000003,0)" xlink:href="#X"/><use transform="matrix(0.05,0,0,0.05,35.95,0)" xlink:href="#V"/><use transform="matrix(0.05,0,0,0.05,45.95,0)" xlink:href="#Y"/><use transform="matrix(0.05,0,0,0.05,50.95,0)" xlink:href="#Q"/><use transform="matrix(0.05,0,0,0.05,60.95,0)" xlink:href="#Y"/><use transform="matrix(0.05,0,0,0.05,65.95,0)" xlink:href="#U"/></g><g id="w"><use transform="matrix(0.04938271604938272,0,0,0.04938271604938272,0,0)" xlink:href="#ae"/><use transform="matrix(0.04938271604938272,0,0,0.04938271604938272,10.370370370370372,0)" xlink:href="#al"/><use transform="matrix(0.04938271604938272,0,0,0.04938271604938272,20.24691358024692,0)" xlink:href="#ao"/><use transform="matrix(0.04938271604938272,0,0,0.04938271604938272,30.123456790123466,0)" xlink:href="#ap"/><use transform="matrix(0.04938271604938272,0,0,0.04938271604938272,36.00000000000001,0)" xlink:href="#al"/><use transform="matrix(0.04938271604938272,0,0,0.04938271604938272,45.87654320987655,0)" xlink:href="#ag"/><use transform="matrix(0.04938271604938272,0,0,0.04938271604938272,56.69135802469136,0)" xlink:href="#ak"/><use transform="matrix(0.04938271604938272,0,0,0.04938271604938272,67.50617283950618,0)" xlink:href="#am"/></g><g id="x"><use transform="matrix(0.04938271604938272,0,0,0.04938271604938272,0,0)" xlink:href="#ae"/><use transform="matrix(0.04938271604938272,0,0,0.04938271604938272,10.370370370370372,0)" xlink:href="#al"/><use transform="matrix(0.04938271604938272,0,0,0.04938271604938272,20.24691358024692,0)" xlink:href="#ao"/><use transform="matrix(0.04938271604938272,0,0,0.04938271604938272,30.123456790123466,0)" xlink:href="#ap"/><use transform="matrix(0.04938271604938272,0,0,0.04938271604938272,36.00000000000001,0)" xlink:href="#al"/><use transform="matrix(0.04938271604938272,0,0,0.04938271604938272,45.87654320987655,0)" xlink:href="#ag"/><use transform="matrix(0.04938271604938272,0,0,0.04938271604938272,56.69135802469136,0)" xlink:href="#ak"/><use transform="matrix(0.04938271604938272,0,0,0.04938271604938272,67.50617283950618,0)" xlink:href="#am"/></g></defs></g></svg>