<svg xmlns="http://www.w3.org/2000/svg" xmlns:xlink="http://www.w3.org/1999/xlink" xmlns:lucid="lucid" width="1081.21" height="320"><g transform="translate(-1192.3432729385775 -3552.666666666667)" lucid:page-tab-id="kkl-xEImwlm-"><path d="M-1806.87-3776.5h5484.6v8875.84h-5484.6z" fill="#fff"/><path d="M1192.34 3558.67a6 6 0 0 1 6-6h1069.2a6 6 0 0 1 6 6v308a6 6 0 0 1-6 6h-1069.2a6 6 0 0 1-6-6z" fill-opacity="0"/><path d="M1953.35 3792.67c0 33.13-35.8 60-80 60-44.18 0-80-26.87-80-60 0-33.14 35.82-60 80-60 44.2 0 80 26.86 80 60z" stroke="#3a414a" fill="#fff"/><use xlink:href="#a" transform="matrix(1,0,0,1,1793.3544522212503,3732.666666666667) translate(39.754999999999995 51.9)"/><use xlink:href="#b" transform="matrix(1,0,0,1,1793.3544522212503,3732.666666666667) translate(31.07999999999999 73.5)"/><path d="M1293.1 3642.42c0 10.9-8.84 19.75-19.75 19.75-10.9 0-19.75-8.85-19.75-19.75s8.85-19.75 19.75-19.75 19.75 8.84 19.75 19.75z" stroke="#3a414a" fill="#fff"/><path d="M1273.35 3662.17v49.3a20.7 20.7 0 0 0 3.2 11.07l36.8 58.13m-40-63.2l-40 63.2m0-98.75h80" stroke="#3a414a" fill="none"/><path d="M1233.35 3628.67a6 6 0 0 1 6-6h68a6 6 0 0 1 6 6v168a6 6 0 0 1-6 6h-68a6 6 0 0 1-6-6z" fill="none"/><use xlink:href="#c" transform="matrix(1,0,0,1,1153.3544522212499,3780.666666666667) translate(75.61728395061729 17.77777777777778)"/><use xlink:href="#d" transform="matrix(1,0,0,1,1153.3544522212499,3780.666666666667) translate(147.1604938271605 17.77777777777778)"/><use xlink:href="#e" transform="matrix(1,0,0,1,1153.3544522212499,3780.666666666667) translate(70.70987654320987 44.44444444444444)"/><path d="M1673.35 3712.67c0 33.13-35.8 60-80 60-44.18 0-80-26.87-80-60 0-33.14 35.82-60 80-60 44.2 0 80 26.86 80 60z" stroke="#3a414a" fill="#fff"/><use xlink:href="#a" transform="matrix(1,0,0,1,1513.3544522212503,3652.666666666667) translate(39.754999999999995 40.65)"/><use xlink:href="#f" transform="matrix(1,0,0,1,1513.3544522212503,3652.666666666667) translate(25.104999999999997 62.25)"/><use xlink:href="#g" transform="matrix(1,0,0,1,1513.3544522212503,3652.666666666667) translate(62.004999999999995 62.25)"/><use xlink:href="#h" transform="matrix(1,0,0,1,1513.3544522212503,3652.666666666667) translate(80.955 62.25)"/><use xlink:href="#i" transform="matrix(1,0,0,1,1513.3544522212503,3652.666666666667) translate(120.955 62.25)"/><use xlink:href="#b" transform="matrix(1,0,0,1,1513.3544522212503,3652.666666666667) translate(31.079999999999995 83.85000000000001)"/><path d="M2213.1 3642.42c0 10.9-8.84 19.75-19.75 19.75-10.9 0-19.75-8.85-19.75-19.75s8.85-19.75 19.75-19.75 19.75 8.84 19.75 19.75z" stroke="#3a414a" fill="#fff"/><path d="M2193.35 3662.17v49.3a20.7 20.7 0 0 0 3.2 11.07l36.8 58.13m-40-63.2l-40 63.2m0-98.75h80" stroke="#3a414a" fill="none"/><path d="M2153.35 3628.67a6 6 0 0 1 6-6h68a6 6 0 0 1 6 6v168a6 6 0 0 1-6 6h-68a6 6 0 0 1-6-6z" fill="none"/><use xlink:href="#j" transform="matrix(1,0,0,1,2073.3544522212505,3780.666666666667) translate(70.67901234567901 17.77777777777778)"/><path d="M1789.27 3792.1l3.1.06-.03 1-3.1-.07-2.1-.14.07-1zm-15.53-2.25l2.9.67 2.96.57 2.5.36-.15 1-2.52-.4-3-.56-2.94-.7-1.74-.47.27-.96zm-14.1-5.27l2.87 1.35 2.82 1.18 1.82.68-.35.94-1.84-.68-2.85-1.2-2.9-1.37-1.9-1 .45-.88zm-13.14-8.07l3.74 2.6 3.05 1.95-.55.84-3.07-1.96-3.77-2.62-1.72-1.32.6-.8zm-36.45-31.1l7.2 6.3-.67.75-7.16-6.26-.64-.5.6-.8zm-9.67-7.05l4.5 3.13.38.3-.6.8-.37-.3-4.47-3.1-3.74-2.37.53-.83zm-11.93-6.92l3.66 1.92-.45.88-3.64-1.9-.94-.45.43-.9z" stroke="#3a414a" stroke-width=".05" fill="#3a414a"/><path d="M1792.87 3792.17l-.02.5v.5h-.52l.02-1z" fill="#3a414a"/><path d="M1792.9 3792.14l-.02.52v.53l-.58-.02.03-1.05zm-.54 1h.47v-.95l-.46-.02z" stroke="#3a414a" stroke-width=".05" fill="#3a414a"/><path d="M1688.5 3726.93l-3.34 8.65-11.65-9.46z" fill="#3a414a"/><path d="M1689.2 3726.47l-3.82 9.93-13.37-10.86zm-4.26 8.3l2.84-7.38-12.76-.7z" stroke="#3a414a" stroke-width=".05" fill="#3a414a"/><use xlink:href="#k" transform="matrix(1,0,0,1,1691.4886168728135,3753.2308840176597) translate(0 14.222222222222223)"/><path d="M1313.86 3712.67h198.5" stroke="#3a414a" stroke-linejoin="round" fill="none"/><path d="M1313.87 3713.17h-3.5v-1h3.5zM1512.85 3712.66v.5h-.5v-1h.52zM1691.73 3690.8l-3.8 2-.8.37-.43-.9.77-.37 3.8-1.98zm13.1-8.33l-4.4 3.06-4.2 2.67-.53-.84 4.2-2.66 4.36-3.05zm12.08-9.74l-6.02 5.17-1.9 1.46-.62-.8 1.9-1.44 6-5.15zm36.23-28.77l-.77.45-3.5 2.23-3.97 2.76-.3.22-.62-.8.32-.24 4-2.78 3.54-2.25.8-.46zm13.9-6.56l-2.56.95-2.9 1.2-2.93 1.4-1.02.52-.46-.88 1.03-.55 2.97-1.4 2.93-1.23 2.57-.96zm14.9-3.55l-2.85.42-3.04.58-2.95.7-1.2.32-.27-.96 1.2-.33 3-.7 3.08-.6 2.9-.4zm10.23-.67l-3.18.06-1.95.13-.06-1 1.97-.13 3.2-.06z" stroke="#3a414a" stroke-width=".05" fill="#3a414a"/><path d="M1792.65 3632.66v.5l-.5.02-.02-1h.54z" fill="#3a414a"/><path d="M1792.68 3632.66v.53h-.55l-.03-1.05h.6zm-.52-.46l.02.95h.45v-.96z" stroke="#3a414a" stroke-width=".05" fill="#3a414a"/><path d="M1688.16 3697.2l-14.97.9 11.57-9.52z" fill="#3a414a"/><path d="M1688.88 3697.67l-17.2 1.03 13.3-10.95zm-14.2-.16l12.76-.75-2.88-7.35z" stroke="#3a414a" stroke-width=".05" fill="#3a414a"/><g><use xlink:href="#l" transform="matrix(1,0,0,1,1691.182282542799,3650.0626250988607) translate(0 14.222222222222223)"/></g><path d="M1953.15 3632.67c0 33.13-35.8 60-80 60-44.18 0-80-26.87-80-60 0-33.14 35.82-60 80-60 44.2 0 80 26.86 80 60z" stroke="#3a414a" fill="#fff"/><g><use xlink:href="#m" transform="matrix(1,0,0,1,1793.154977155633,3572.666666666667) translate(24.055000000000003 40.65)"/><use xlink:href="#n" transform="matrix(1,0,0,1,1793.154977155633,3572.666666666667) translate(35.029999999999994 62.25)"/><use xlink:href="#o" transform="matrix(1,0,0,1,1793.154977155633,3572.666666666667) translate(42.67999999999999 83.85000000000001)"/></g><path d="M1674.36 3712.67h478.5" stroke="#3a414a" stroke-linejoin="round" fill="none"/><path d="M1674.37 3713.17h-.53v-1h.53zM2156.35 3713.17h-3.5v-1h3.5z" stroke="#3a414a" stroke-width=".05" fill="#3a414a"/><defs><path d="M137 0h-34L2-248h35l83 218 83-218h36" id="p"/><path d="M24-231v-30h32v30H24zM24 0v-190h32V0H24" id="q"/><path d="M135-143c-3-34-86-38-87 0 15 53 115 12 119 90S17 21 10-45l28-5c4 36 97 45 98 0-10-56-113-15-118-90-4-57 82-63 122-42 12 7 21 19 24 35" id="r"/><path d="M84 4C-5 8 30-112 23-190h32v120c0 31 7 50 39 49 72-2 45-101 50-169h31l1 190h-30c-1-10 1-25-2-33-11 22-28 36-60 37" id="s"/><path d="M141-36C126-15 110 5 73 4 37 3 15-17 15-53c-1-64 63-63 125-63 3-35-9-54-41-54-24 1-41 7-42 31l-33-3c5-37 33-52 76-52 45 0 72 20 72 64v82c-1 20 7 32 28 27v20c-31 9-61-2-59-35zM48-53c0 20 12 33 32 33 41-3 63-29 60-74-43 2-92-5-92 41" id="t"/><path d="M24 0v-261h32V0H24" id="u"/><path d="M9 0v-24l116-142H16v-24h144v24L44-24h123V0H9" id="v"/><g id="a"><use transform="matrix(0.05,0,0,0.05,0,0)" xlink:href="#p"/><use transform="matrix(0.05,0,0,0.05,11.65,0)" xlink:href="#q"/><use transform="matrix(0.05,0,0,0.05,15.600000000000001,0)" xlink:href="#r"/><use transform="matrix(0.05,0,0,0.05,24.6,0)" xlink:href="#s"/><use transform="matrix(0.05,0,0,0.05,34.6,0)" xlink:href="#t"/><use transform="matrix(0.05,0,0,0.05,44.6,0)" xlink:href="#u"/><use transform="matrix(0.05,0,0,0.05,48.550000000000004,0)" xlink:href="#q"/><use transform="matrix(0.05,0,0,0.05,52.5,0)" xlink:href="#v"/><use transform="matrix(0.05,0,0,0.05,61.5,0)" xlink:href="#v"/><use transform="matrix(0.05,0,0,0.05,70.5,0)" xlink:href="#t"/></g><path d="M115-194c55 1 70 41 70 98S169 2 115 4C84 4 66-9 55-30l1 105H24l-1-265h31l2 30c10-21 28-34 59-34zm-8 174c40 0 45-34 45-75s-6-73-45-74c-42 0-51 32-51 76 0 43 10 73 51 73" id="w"/><path d="M114-163C36-179 61-72 57 0H25l-1-190h30c1 12-1 29 2 39 6-27 23-49 58-41v29" id="x"/><path d="M100-194c63 0 86 42 84 106H49c0 40 14 67 53 68 26 1 43-12 49-29l28 8c-11 28-37 45-77 45C44 4 14-33 15-96c1-61 26-98 85-98zm52 81c6-60-76-77-97-28-3 7-6 17-6 28h103" id="y"/><path d="M117-194c89-4 53 116 60 194h-32v-121c0-31-8-49-39-48C34-167 62-67 57 0H25l-1-190h30c1 10-1 24 2 32 11-22 29-35 61-36" id="z"/><path d="M100-194c62-1 85 37 85 99 1 63-27 99-86 99S16-35 15-95c0-66 28-99 85-99zM99-20c44 1 53-31 53-75 0-43-8-75-51-75s-53 32-53 75 10 74 51 75" id="A"/><path d="M59-47c-2 24 18 29 38 22v24C64 9 27 4 27-40v-127H5v-23h24l9-43h21v43h35v23H59v120" id="B"/><g id="b"><use transform="matrix(0.05,0,0,0.05,0,0)" xlink:href="#w"/><use transform="matrix(0.05,0,0,0.05,10,0)" xlink:href="#x"/><use transform="matrix(0.05,0,0,0.05,15.949999999999998,0)" xlink:href="#y"/><use transform="matrix(0.05,0,0,0.05,25.950000000000003,0)" xlink:href="#z"/><use transform="matrix(0.05,0,0,0.05,35.95,0)" xlink:href="#A"/><use transform="matrix(0.05,0,0,0.05,45.95,0)" xlink:href="#B"/><use transform="matrix(0.05,0,0,0.05,50.95,0)" xlink:href="#t"/><use transform="matrix(0.05,0,0,0.05,60.95,0)" xlink:href="#v"/><use transform="matrix(0.05,0,0,0.05,69.95,0)" xlink:href="#q"/><use transform="matrix(0.05,0,0,0.05,73.9,0)" xlink:href="#A"/><use transform="matrix(0.05,0,0,0.05,83.9,0)" xlink:href="#z"/><use transform="matrix(0.05,0,0,0.05,93.9,0)" xlink:href="#q"/></g><path fill="#3a414a" d="M232-93c-1 65-40 97-104 97C67 4 28-28 28-90v-158h33c8 89-33 224 67 224 102 0 64-133 71-224h33v155" id="C"/><path fill="#3a414a" d="M59-47c-2 24 18 29 38 22v24C64 9 27 4 27-40v-127H5v-23h24l9-43h21v43h35v23H59v120" id="D"/><path fill="#3a414a" d="M100-194c63 0 86 42 84 106H49c0 40 14 67 53 68 26 1 43-12 49-29l28 8c-11 28-37 45-77 45C44 4 14-33 15-96c1-61 26-98 85-98zm52 81c6-60-76-77-97-28-3 7-6 17-6 28h103" id="E"/><path fill="#3a414a" d="M117-194c89-4 53 116 60 194h-32v-121c0-31-8-49-39-48C34-167 62-67 57 0H25l-1-190h30c1 10-1 24 2 32 11-22 29-35 61-36" id="F"/><g id="c"><use transform="matrix(0.06172839506172839,0,0,0.06172839506172839,0,0)" xlink:href="#C"/><use transform="matrix(0.06172839506172839,0,0,0.06172839506172839,15.987654320987653,0)" xlink:href="#D"/><use transform="matrix(0.06172839506172839,0,0,0.06172839506172839,22.160493827160494,0)" xlink:href="#E"/><use transform="matrix(0.06172839506172839,0,0,0.06172839506172839,34.50617283950617,0)" xlink:href="#F"/><use transform="matrix(0.06172839506172839,0,0,0.06172839506172839,46.85185185185185,0)" xlink:href="#D"/><use transform="matrix(0.06172839506172839,0,0,0.06172839506172839,53.02469135802469,0)" xlink:href="#E"/></g><path fill="#3a414a" d="M85-194c31 0 48 13 60 33l-1-100h32l1 261h-30c-2-10 0-23-3-31C134-8 116 4 85 4 32 4 16-35 15-94c0-66 23-100 70-100zm9 24c-40 0-46 34-46 75 0 40 6 74 45 74 42 0 51-32 51-76 0-42-9-74-50-73" id="G"/><path fill="#3a414a" d="M24-231v-30h32v30H24zM24 0v-190h32V0H24" id="H"/><g id="d"><use transform="matrix(0.06172839506172839,0,0,0.06172839506172839,0,0)" xlink:href="#G"/><use transform="matrix(0.06172839506172839,0,0,0.06172839506172839,12.345679012345679,0)" xlink:href="#H"/></g><path fill="#3a414a" d="M135-143c-3-34-86-38-87 0 15 53 115 12 119 90S17 21 10-45l28-5c4 36 97 45 98 0-10-56-113-15-118-90-4-57 82-63 122-42 12 7 21 19 24 35" id="I"/><path fill="#3a414a" d="M177-190C167-65 218 103 67 71c-23-6-38-20-44-43l32-5c15 47 100 32 89-28v-30C133-14 115 1 83 1 29 1 15-40 15-95c0-56 16-97 71-98 29-1 48 16 59 35 1-10 0-23 2-32h30zM94-22c36 0 50-32 50-73 0-42-14-75-50-75-39 0-46 34-46 75s6 73 46 73" id="J"/><path fill="#3a414a" d="M114-163C36-179 61-72 57 0H25l-1-190h30c1 12-1 29 2 39 6-27 23-49 58-41v29" id="K"/><path fill="#3a414a" d="M141-36C126-15 110 5 73 4 37 3 15-17 15-53c-1-64 63-63 125-63 3-35-9-54-41-54-24 1-41 7-42 31l-33-3c5-37 33-52 76-52 45 0 72 20 72 64v82c-1 20 7 32 28 27v20c-31 9-61-2-59-35zM48-53c0 20 12 33 32 33 41-3 63-29 60-74-43 2-92-5-92 41" id="L"/><g id="e"><use transform="matrix(0.06172839506172839,0,0,0.06172839506172839,0,0)" xlink:href="#I"/><use transform="matrix(0.06172839506172839,0,0,0.06172839506172839,11.11111111111111,0)" xlink:href="#E"/><use transform="matrix(0.06172839506172839,0,0,0.06172839506172839,23.45679012345679,0)" xlink:href="#J"/><use transform="matrix(0.06172839506172839,0,0,0.06172839506172839,35.80246913580247,0)" xlink:href="#K"/><use transform="matrix(0.06172839506172839,0,0,0.06172839506172839,43.148148148148145,0)" xlink:href="#E"/><use transform="matrix(0.06172839506172839,0,0,0.06172839506172839,55.49382716049382,0)" xlink:href="#D"/><use transform="matrix(0.06172839506172839,0,0,0.06172839506172839,61.666666666666664,0)" xlink:href="#E"/><use transform="matrix(0.06172839506172839,0,0,0.06172839506172839,74.01234567901234,0)" xlink:href="#K"/><use transform="matrix(0.06172839506172839,0,0,0.06172839506172839,81.35802469135803,0)" xlink:href="#H"/><use transform="matrix(0.06172839506172839,0,0,0.06172839506172839,86.23456790123457,0)" xlink:href="#L"/></g><g id="f"><use transform="matrix(0.05,0,0,0.05,0,0)" xlink:href="#u"/><use transform="matrix(0.05,0,0,0.05,3.95,0)" xlink:href="#q"/><use transform="matrix(0.05,0,0,0.05,7.9,0)" xlink:href="#r"/><use transform="matrix(0.05,0,0,0.05,16.9,0)" xlink:href="#B"/><use transform="matrix(0.05,0,0,0.05,21.9,0)" xlink:href="#t"/></g><path d="M85-194c31 0 48 13 60 33l-1-100h32l1 261h-30c-2-10 0-23-3-31C134-8 116 4 85 4 32 4 16-35 15-94c0-66 23-100 70-100zm9 24c-40 0-46 34-46 75 0 40 6 74 45 74 42 0 51-32 51-76 0-42-9-74-50-73" id="M"/><g id="g"><use transform="matrix(0.05,0,0,0.05,0,0)" xlink:href="#M"/><use transform="matrix(0.05,0,0,0.05,10,0)" xlink:href="#q"/></g><g id="h"><use transform="matrix(0.05,0,0,0.05,0,0)" xlink:href="#B"/><use transform="matrix(0.05,0,0,0.05,5,0)" xlink:href="#s"/><use transform="matrix(0.05,0,0,0.05,15,0)" xlink:href="#B"/><use transform="matrix(0.05,0,0,0.05,20,0)" xlink:href="#B"/><use transform="matrix(0.05,0,0,0.05,25,0)" xlink:href="#y"/></g><g id="i"><use transform="matrix(0.05,0,0,0.05,0,0)" xlink:href="#u"/><use transform="matrix(0.05,0,0,0.05,3.95,0)" xlink:href="#y"/></g><path fill="#3a414a" d="M240 0l2-218c-23 76-54 145-80 218h-23L58-218 59 0H30v-248h44l77 211c21-75 51-140 76-211h43V0h-30" id="N"/><path fill="#3a414a" d="M100-194c62-1 85 37 85 99 1 63-27 99-86 99S16-35 15-95c0-66 28-99 85-99zM99-20c44 1 53-31 53-75 0-43-8-75-51-75s-53 32-53 75 10 74 51 75" id="O"/><path fill="#3a414a" d="M30-248c118-7 216 8 213 122C240-48 200 0 122 0H30v-248zM63-27c89 8 146-16 146-99s-60-101-146-95v194" id="P"/><path fill="#3a414a" d="M160-131c35 5 61 23 61 61C221 17 115-2 30 0v-248c76 3 177-17 177 60 0 33-19 50-47 57zm-97-11c50-1 110 9 110-42 0-47-63-36-110-37v79zm0 115c55-2 124 14 124-45 0-56-70-42-124-44v89" id="Q"/><g id="j"><use transform="matrix(0.06172839506172839,0,0,0.06172839506172839,0,0)" xlink:href="#N"/><use transform="matrix(0.06172839506172839,0,0,0.06172839506172839,18.456790123456788,0)" xlink:href="#O"/><use transform="matrix(0.06172839506172839,0,0,0.06172839506172839,30.80246913580247,0)" xlink:href="#F"/><use transform="matrix(0.06172839506172839,0,0,0.06172839506172839,43.148148148148145,0)" xlink:href="#J"/><use transform="matrix(0.06172839506172839,0,0,0.06172839506172839,55.49382716049382,0)" xlink:href="#O"/><use transform="matrix(0.06172839506172839,0,0,0.06172839506172839,67.8395061728395,0)" xlink:href="#P"/><use transform="matrix(0.06172839506172839,0,0,0.06172839506172839,83.82716049382717,0)" xlink:href="#Q"/></g><path fill="#333" d="M15-91v-56l181-69v40L49-119l147 57v40" id="R"/><path fill="#333" d="M185-48c-13 30-37 53-82 52C43 2 14-33 14-96s30-98 90-98c62 0 83 45 84 108H66c0 31 8 55 39 56 18 0 30-7 34-22zm-45-69c5-46-57-63-70-21-2 6-4 13-4 21h74" id="S"/><path fill="#333" d="M144 0l-44-69L55 0H2l70-98-66-92h53l41 62 40-62h54l-67 91 71 99h-54" id="T"/><path fill="#333" d="M115-3C79 11 28 4 28-45v-112H4v-33h27l15-45h31v45h36v33H77v99c-1 23 16 31 38 25v30" id="U"/><path fill="#333" d="M135-194c87-1 58 113 63 194h-50c-7-57 23-157-34-157-59 0-34 97-39 157H25l-1-190h47c2 12-1 28 3 38 12-26 28-41 61-42" id="V"/><path fill="#333" d="M88-194c31-1 46 15 58 34l-1-101h50l1 261h-48c-2-10 0-23-3-31C134-8 116 4 84 4 32 4 16-41 15-95c0-56 19-97 73-99zm17 164c33 0 40-30 41-66 1-37-9-64-41-64s-38 30-39 65c0 43 13 65 39 65" id="W"/><path fill="#333" d="M15-22v-40l146-57-146-57v-40l181 69v56" id="X"/><g id="k"><use transform="matrix(0.04938271604938272,0,0,0.04938271604938272,0,0)" xlink:href="#R"/><use transform="matrix(0.04938271604938272,0,0,0.04938271604938272,10.370370370370372,0)" xlink:href="#S"/><use transform="matrix(0.04938271604938272,0,0,0.04938271604938272,20.24691358024692,0)" xlink:href="#T"/><use transform="matrix(0.04938271604938272,0,0,0.04938271604938272,30.123456790123466,0)" xlink:href="#U"/><use transform="matrix(0.04938271604938272,0,0,0.04938271604938272,36.00000000000001,0)" xlink:href="#S"/><use transform="matrix(0.04938271604938272,0,0,0.04938271604938272,45.87654320987655,0)" xlink:href="#V"/><use transform="matrix(0.04938271604938272,0,0,0.04938271604938272,56.69135802469136,0)" xlink:href="#W"/><use transform="matrix(0.04938271604938272,0,0,0.04938271604938272,67.50617283950618,0)" xlink:href="#X"/></g><g id="l"><use transform="matrix(0.04938271604938272,0,0,0.04938271604938272,0,0)" xlink:href="#R"/><use transform="matrix(0.04938271604938272,0,0,0.04938271604938272,10.370370370370372,0)" xlink:href="#S"/><use transform="matrix(0.04938271604938272,0,0,0.04938271604938272,20.24691358024692,0)" xlink:href="#T"/><use transform="matrix(0.04938271604938272,0,0,0.04938271604938272,30.123456790123466,0)" xlink:href="#U"/><use transform="matrix(0.04938271604938272,0,0,0.04938271604938272,36.00000000000001,0)" xlink:href="#S"/><use transform="matrix(0.04938271604938272,0,0,0.04938271604938272,45.87654320987655,0)" xlink:href="#V"/><use transform="matrix(0.04938271604938272,0,0,0.04938271604938272,56.69135802469136,0)" xlink:href="#W"/><use transform="matrix(0.04938271604938272,0,0,0.04938271604938272,67.50617283950618,0)" xlink:href="#X"/></g><path d="M212-179c-10-28-35-45-73-45-59 0-87 40-87 99 0 60 29 101 89 101 43 0 62-24 78-52l27 14C228-24 195 4 139 4 59 4 22-46 18-125c-6-104 99-153 187-111 19 9 31 26 39 46" id="Y"/><path d="M177-190C167-65 218 103 67 71c-23-6-38-20-44-43l32-5c15 47 100 32 89-28v-30C133-14 115 1 83 1 29 1 15-40 15-95c0-56 16-97 71-98 29-1 48 16 59 35 1-10 0-23 2-32h30zM94-22c36 0 50-32 50-73 0-42-14-75-50-75-39 0-46 34-46 75s6 73 46 73" id="Z"/><g id="m"><use transform="matrix(0.05,0,0,0.05,0,0)" xlink:href="#Y"/><use transform="matrix(0.05,0,0,0.05,12.950000000000001,0)" xlink:href="#A"/><use transform="matrix(0.05,0,0,0.05,22.950000000000003,0)" xlink:href="#z"/><use transform="matrix(0.05,0,0,0.05,32.95,0)" xlink:href="#B"/><use transform="matrix(0.05,0,0,0.05,37.95,0)" xlink:href="#x"/><use transform="matrix(0.05,0,0,0.05,43.900000000000006,0)" xlink:href="#t"/><use transform="matrix(0.05,0,0,0.05,53.900000000000006,0)" xlink:href="#r"/><use transform="matrix(0.05,0,0,0.05,62.900000000000006,0)" xlink:href="#r"/><use transform="matrix(0.05,0,0,0.05,71.9,0)" xlink:href="#y"/><use transform="matrix(0.05,0,0,0.05,81.9,0)" xlink:href="#Z"/><use transform="matrix(0.05,0,0,0.05,91.9,0)" xlink:href="#z"/><use transform="matrix(0.05,0,0,0.05,101.9,0)" xlink:href="#t"/></g><path d="M210-169c-67 3-38 105-44 169h-31v-121c0-29-5-50-35-48C34-165 62-65 56 0H25l-1-190h30c1 10-1 24 2 32 10-44 99-50 107 0 11-21 27-35 58-36 85-2 47 119 55 194h-31v-121c0-29-5-49-35-48" id="aa"/><g id="n"><use transform="matrix(0.05,0,0,0.05,0,0)" xlink:href="#w"/><use transform="matrix(0.05,0,0,0.05,10,0)" xlink:href="#t"/><use transform="matrix(0.05,0,0,0.05,20,0)" xlink:href="#Z"/><use transform="matrix(0.05,0,0,0.05,30,0)" xlink:href="#t"/><use transform="matrix(0.05,0,0,0.05,40,0)" xlink:href="#aa"/><use transform="matrix(0.05,0,0,0.05,54.95,0)" xlink:href="#y"/><use transform="matrix(0.05,0,0,0.05,64.95,0)" xlink:href="#z"/><use transform="matrix(0.05,0,0,0.05,74.95,0)" xlink:href="#B"/><use transform="matrix(0.05,0,0,0.05,79.95,0)" xlink:href="#A"/></g><path d="M101-234c-31-9-42 10-38 44h38v23H63V0H32v-167H5v-23h27c-7-52 17-82 69-68v24" id="ab"/><g id="o"><use transform="matrix(0.05,0,0,0.05,0,0)" xlink:href="#y"/><use transform="matrix(0.05,0,0,0.05,10,0)" xlink:href="#ab"/><use transform="matrix(0.05,0,0,0.05,14.65,0)" xlink:href="#ab"/><use transform="matrix(0.05,0,0,0.05,19.65,0)" xlink:href="#y"/><use transform="matrix(0.05,0,0,0.05,29.649999999999995,0)" xlink:href="#B"/><use transform="matrix(0.05,0,0,0.05,34.65,0)" xlink:href="#B"/><use transform="matrix(0.05,0,0,0.05,39.65,0)" xlink:href="#s"/><use transform="matrix(0.05,0,0,0.05,49.65,0)" xlink:href="#t"/><use transform="matrix(0.05,0,0,0.05,59.650000000000006,0)" xlink:href="#B"/><use transform="matrix(0.05,0,0,0.05,64.65,0)" xlink:href="#A"/></g></defs></g></svg>