<svg xmlns="http://www.w3.org/2000/svg" xmlns:xlink="http://www.w3.org/1999/xlink" xmlns:lucid="lucid" width="1081.01" height="580"><g transform="translate(-1192.3432729385775 -972.6666666666667)" lucid:page-tab-id="kkl-xEImwlm-"><path d="M-1806.87-3776.5h5484.6v8875.84h-5484.6z" fill="#fff"/><path d="M1192.34 978.67a6 6 0 0 1 6-6h1069a6 6 0 0 1 6 6v568a6 6 0 0 1-6 6h-1069a6 6 0 0 1-6-6z" fill-opacity="0"/><path d="M1294.23 1042.42c0 10.9-8.84 19.75-19.75 19.75-10.9 0-19.75-8.85-19.75-19.75s8.84-19.75 19.75-19.75c10.9 0 19.75 8.84 19.75 19.75z" stroke="#3a414a" fill="#fff"/><path d="M1274.48 1062.17v49.3a20.7 20.7 0 0 0 3.2 11.07l36.8 58.13m-40-63.2l-40 63.2m0-98.75h80" stroke="#3a414a" fill="none"/><path d="M1234.48 1028.67a6 6 0 0 1 6-6h68a6 6 0 0 1 6 6v168a6 6 0 0 1-6 6h-68a6 6 0 0 1-6-6z" fill="none"/><use xlink:href="#a" transform="matrix(1,0,0,1,1154.4800631217338,1180.6666666666667) translate(87.31481481481481 17.77777777777778)"/><use xlink:href="#b" transform="matrix(1,0,0,1,1154.4800631217338,1180.6666666666667) translate(69.4753086419753 44.44444444444444)"/><path d="M1813.35 1052.67c0 33.13-35.8 60-80 60-44.18 0-80-26.87-80-60 0-33.14 35.82-60 80-60 44.2 0 80 26.86 80 60z" stroke="#3a414a" fill="#fff"/><use xlink:href="#c" transform="matrix(1,0,0,1,1653.3544522212499,992.6666666666667) translate(46.57999999999999 51.9)"/><use xlink:href="#d" transform="matrix(1,0,0,1,1653.3544522212499,992.6666666666667) translate(48.504999999999995 73.5)"/><path d="M1315 1112.66l26.37-.54 22.12-1.38 18.9-1.98 16.84-2.48 15.62-2.97 15.33-3.6 16.55-4.62 24.78-8.14 49.05-16.68 16.57-4.64 15.33-3.6 15.6-2.97 16.84-2.48 18.93-1.98 22.12-1.4 26.38-.52" stroke="#3a414a" stroke-linejoin="round" fill="none"/><path d="M1315 1113.16l-3.5.07-.02-1 3.5-.07zM1652.85 1052.66v.5h-.5v-1h.52z" stroke="#3a414a" stroke-width=".05" fill="#3a414a"/><path d="M1813.35 1192.67c0 33.13-35.8 60-80 60-44.18 0-80-26.87-80-60 0-33.14 35.82-60 80-60 44.2 0 80 26.86 80 60z" stroke="#3a414a" fill="#fff"/><use xlink:href="#e" transform="matrix(1,0,0,1,1653.3544522212499,1132.6666666666667) translate(41.05499999999999 51.9)"/><use xlink:href="#f" transform="matrix(1,0,0,1,1653.3544522212499,1132.6666666666667) translate(41.55499999999999 73.5)"/><path d="M1813.35 1332.67c0 33.13-35.8 60-80 60-44.18 0-80-26.87-80-60 0-33.14 35.82-60 80-60 44.2 0 80 26.86 80 60z" stroke="#3a414a" fill="#fff"/><use xlink:href="#g" transform="matrix(1,0,0,1,1653.3544522212503,1272.6666666666667) translate(29.12999999999999 51.9)"/><use xlink:href="#d" transform="matrix(1,0,0,1,1653.3544522212503,1272.6666666666667) translate(48.504999999999995 73.5)"/><path d="M1315 1112.68l20.17.4 17.77 1.12 15.63 1.63 14.06 2.08 12.95 2.47 12.22 2.87 11.9 3.32 12.04 3.92 13.06 4.86 16.64 7.03 61.1 27.62 13.06 4.86 12.05 3.92 11.9 3.32 12.2 2.86 12.95 2.47 14.06 2.07 15.63 1.64 17.76 1.1 20.2.42" stroke="#3a414a" stroke-linejoin="round" fill="none"/><path d="M1315 1112.18v1l-3.52-.07.02-1zM1652.87 1192.17l-.02.5v.5h-.5v-1z" stroke="#3a414a" stroke-width=".05" fill="#3a414a"/><path d="M1315 1112.68l7.4.15 7.5.47 7.1.75 6.77 1 6.52 1.24 6.28 1.47 6.12 1.7 5.98 1.94 5.87 2.2 5.8 2.44 5.78 2.72 5.8 3.03 5.82 3.36 5.94 3.76 6.1 4.24 6.32 4.8 6.67 5.54 7.17 6.46 7.94 7.8 9.24 9.84 12 13.94 61.05 76.2 9.23 9.85 7.94 7.77 7.17 6.47 6.68 5.52 6.33 4.8 6.1 4.25 5.93 3.78 5.84 3.37 5.78 3.02 5.78 2.72 5.8 2.43 5.88 2.2 5.97 1.93 6.12 1.7 6.3 1.48 6.5 1.25 6.8 1 7.1.73 7.47.47 7.43.16" stroke="#3a414a" stroke-linejoin="round" fill="none"/><path d="M1315 1112.18v1l-3.52-.08.02-1zM1652.87 1332.17l-.02.5v.5h-.5v-1z" stroke="#3a414a" stroke-width=".05" fill="#3a414a"/><path d="M1813.35 1472.67c0 33.13-35.8 60-80 60-44.18 0-80-26.87-80-60 0-33.14 35.82-60 80-60 44.2 0 80 26.86 80 60z" stroke="#3a414a" fill="#fff"/><use xlink:href="#h" transform="matrix(1,0,0,1,1653.3544522212499,1412.6666666666667) translate(22.20499999999999 63.15)"/><use xlink:href="#i" transform="matrix(1,0,0,1,1653.3544522212499,1412.6666666666667) translate(88.855 63.15)"/><path d="M1315 1112.68l4.4.1 4.72.3 4.6.47 4.47.66 4.37.85 4.3 1 4.25 1.2 4.2 1.36 4.2 1.56 4.17 1.76 4.2 1.98 4.22 2.2 4.28 2.48 4.36 2.77 4.46 3.1 4.58 3.48 4.73 3.92 4.94 4.44 5.17 5.06 5.47 5.83 5.86 6.78 6.35 8.02 7 9.65 7.95 11.97 9.4 15.56 12.24 22.34 26.7 54.63 32.84 67.66 12.24 22.35 9.4 15.57 7.94 11.97 7 9.64 6.35 8 5.85 6.8 5.48 5.83 5.17 5.07 4.93 4.44 4.74 3.93 4.58 3.48 4.45 3.1 4.36 2.77 4.28 2.47 4.24 2.2 4.2 2 4.18 1.75 4.2 1.56 4.2 1.36 4.24 1.18 4.3 1 4.38.84 4.48.66 4.6.5 4.73.28 4.4.1" stroke="#3a414a" stroke-linejoin="round" fill="none"/><path d="M1315 1112.18v1l-3.52-.08.02-1zM1652.87 1472.17l-.02.5v.5h-.5v-1z" stroke="#3a414a" stroke-width=".05" fill="#3a414a"/><path d="M2213.1 1042.42c0 10.9-8.84 19.75-19.75 19.75-10.9 0-19.75-8.85-19.75-19.75s8.85-19.75 19.75-19.75 19.75 8.84 19.75 19.75z" stroke="#3a414a" fill="#fff"/><path d="M2193.35 1062.17v49.3a20.7 20.7 0 0 0 3.2 11.07l36.8 58.13m-40-63.2l-40 63.2m0-98.75h80" stroke="#3a414a" fill="none"/><path d="M2153.35 1028.67a6 6 0 0 1 6-6h68a6 6 0 0 1 6 6v168a6 6 0 0 1-6 6h-68a6 6 0 0 1-6-6z" fill="none"/><use xlink:href="#j" transform="matrix(1,0,0,1,2073.3544522212505,1180.6666666666667) translate(70.67901234567901 17.77777777777778)"/><path d="M2213.1 1315.3c0 10.9-8.84 19.75-19.75 19.75-10.9 0-19.75-8.84-19.75-19.75 0-10.9 8.85-19.75 19.75-19.75s19.75 8.84 19.75 19.75z" stroke="#3a414a" fill="#fff"/><path d="M2193.35 1335.05v49.3a20.7 20.7 0 0 0 3.2 11.07l36.8 58.13m-40-63.2l-40 63.2m0-98.75h80" stroke="#3a414a" fill="none"/><path d="M2153.35 1301.55a6 6 0 0 1 6-6h68a6 6 0 0 1 6 6v168a6 6 0 0 1-6 6h-68a6 6 0 0 1-6-6z" fill="none"/><use xlink:href="#k" transform="matrix(1,0,0,1,2073.3544522212496,1453.5486939610153) translate(68.24074074074075 17.77777777777778)"/><use xlink:href="#l" transform="matrix(1,0,0,1,2073.3544522212496,1453.5486939610153) translate(154.53703703703704 17.77777777777778)"/><use xlink:href="#m" transform="matrix(1,0,0,1,2073.3544522212496,1453.5486939610153) translate(65.80246913580247 44.44444444444444)"/><use xlink:href="#n" transform="matrix(1,0,0,1,2073.3544522212496,1453.5486939610153) translate(118.82716049382717 44.44444444444444)"/><path d="M2152.85 1385.54l-8.56-.18-8.5-.53-7.98-.84-7.58-1.13-7.23-1.38-6.95-1.64-6.73-1.88-6.55-2.12-6.42-2.4-6.33-2.66-6.3-2.96-6.32-3.3-6.4-3.7-6.53-4.15-6.78-4.72-7.17-5.44-7.74-6.4-8.7-7.86-10.57-10.36-16.28-17.43-43.57-48.2-10.56-10.37-8.7-7.85-7.74-6.4-7.16-5.44-6.78-4.72-6.54-4.15-6.4-3.7-6.3-3.3-6.3-2.96-6.34-2.65-6.42-2.4-6.55-2.12-6.74-1.88-6.96-1.63-7.24-1.38-7.57-1.12-8-.83-8.48-.55-8.57-.17" stroke="#3a414a" stroke-linejoin="round" fill="none"/><path d="M2156.36 1385.1l-.02 1-3.5-.06v-1zM1814.37 1192.17v1h-.53v-1z" stroke="#3a414a" stroke-width=".05" fill="#3a414a"/><path d="M2152.85 1112.68l-20.4.4-17.92 1.13-15.73 1.66-14.13 2.08-13 2.48-12.27 2.87-11.92 3.32-12.07 3.93-13.08 4.87-16.72 7.06-60.7 27.43-13.1 4.9-12.07 3.9-11.92 3.34-12.26 2.87-13 2.5-14.13 2.07-15.73 1.65-17.9 1.12-20.42.42" stroke="#3a414a" stroke-linejoin="round" fill="none"/><path d="M2156.36 1113.1l-3.5.08-.03-1 3.5-.07zM1814.37 1193.17h-.53v-1h.53z" stroke="#3a414a" stroke-width=".05" fill="#3a414a"/><path d="M2152.85 1112.68l-7.5.15-7.56.48-7.18.76-6.84 1-6.57 1.26-6.33 1.5-6.16 1.7-6 1.96-5.9 2.2-5.85 2.45-5.8 2.73-5.8 3.04-5.87 3.4-5.96 3.77-6.1 4.25-6.36 4.82-6.7 5.54-7.18 6.48-7.96 7.8-9.26 9.88-12.05 14-60.65 75.66-9.27 9.87-7.95 7.8-7.2 6.48-6.68 5.54-6.35 4.8-6.1 4.27-5.97 3.78-5.86 3.38-5.8 3.04-5.8 2.73-5.85 2.45-5.9 2.2-6.02 1.96-6.16 1.73-6.34 1.48-6.57 1.26-6.84 1-7.18.77-7.55.47-7.52.16" stroke="#3a414a" stroke-linejoin="round" fill="none"/><path d="M2156.36 1113.1l-3.5.08-.03-1 3.5-.08zM1814.37 1333.17h-.53v-1h.53z" stroke="#3a414a" stroke-width=".05" fill="#3a414a"/><path d="M2152.85 1112.66l-26.65-.54-22.28-1.4-19.04-1.98-16.9-2.5-15.66-2.98-15.36-3.6-16.6-4.65-25-8.2-48.5-16.48-16.6-4.64-15.37-3.6-15.68-3-16.9-2.48-19.03-2-22.3-1.4-26.65-.52" stroke="#3a414a" stroke-linejoin="round" fill="none"/><path d="M2156.36 1112.23l-.02 1-3.5-.07v-1zM1814.37 1052.17v1h-.53v-1z" stroke="#3a414a" stroke-width=".05" fill="#3a414a"/><path d="M1293.1 1315.3c0 10.9-8.84 19.75-19.75 19.75-10.9 0-19.75-8.84-19.75-19.75 0-10.9 8.85-19.75 19.75-19.75s19.75 8.84 19.75 19.75z" stroke="#3a414a" fill="#fff"/><path d="M1273.35 1335.05v49.3a20.7 20.7 0 0 0 3.2 11.07l36.8 58.13m-40-63.2l-40 63.2m0-98.75h80" stroke="#3a414a" fill="none"/><path d="M1233.35 1301.55a6 6 0 0 1 6-6h68a6 6 0 0 1 6 6v168a6 6 0 0 1-6 6h-68a6 6 0 0 1-6-6z" fill="none"/><g><use xlink:href="#o" transform="matrix(1,0,0,1,1153.3544522212503,1453.5486939610153) translate(75.61728395061729 17.77777777777778)"/><use xlink:href="#p" transform="matrix(1,0,0,1,1153.3544522212503,1453.5486939610153) translate(147.1604938271605 17.77777777777778)"/><use xlink:href="#q" transform="matrix(1,0,0,1,1153.3544522212503,1453.5486939610153) translate(70.70987654320987 44.44444444444444)"/></g><path d="M1273.35 1261.93v32.62" stroke="#3a414a" fill="none"/><path d="M1273.35 1247.17l4.64 14.26h-9.28z" stroke="#3a414a" fill="#fff"/><path d="M1273.85 1295.1l-.47-.05h-.53v-.5h1z" stroke="#3a414a" stroke-width=".05" fill="#3a414a"/><defs><path fill="#3a414a" d="M232-93c-1 65-40 97-104 97C67 4 28-28 28-90v-158h33c8 89-33 224 67 224 102 0 64-133 71-224h33v155" id="r"/><path fill="#3a414a" d="M59-47c-2 24 18 29 38 22v24C64 9 27 4 27-40v-127H5v-23h24l9-43h21v43h35v23H59v120" id="s"/><path fill="#3a414a" d="M100-194c63 0 86 42 84 106H49c0 40 14 67 53 68 26 1 43-12 49-29l28 8c-11 28-37 45-77 45C44 4 14-33 15-96c1-61 26-98 85-98zm52 81c6-60-76-77-97-28-3 7-6 17-6 28h103" id="t"/><path fill="#3a414a" d="M117-194c89-4 53 116 60 194h-32v-121c0-31-8-49-39-48C34-167 62-67 57 0H25l-1-190h30c1 10-1 24 2 32 11-22 29-35 61-36" id="u"/><g id="a"><use transform="matrix(0.06172839506172839,0,0,0.06172839506172839,0,0)" xlink:href="#r"/><use transform="matrix(0.06172839506172839,0,0,0.06172839506172839,15.987654320987653,0)" xlink:href="#s"/><use transform="matrix(0.06172839506172839,0,0,0.06172839506172839,22.160493827160494,0)" xlink:href="#t"/><use transform="matrix(0.06172839506172839,0,0,0.06172839506172839,34.50617283950617,0)" xlink:href="#u"/><use transform="matrix(0.06172839506172839,0,0,0.06172839506172839,46.85185185185185,0)" xlink:href="#s"/><use transform="matrix(0.06172839506172839,0,0,0.06172839506172839,53.02469135802469,0)" xlink:href="#t"/></g><path fill="#3a414a" d="M233-177c-1 41-23 64-60 70L243 0h-38l-65-103H63V0H30v-248c88 3 205-21 203 71zM63-129c60-2 137 13 137-47 0-61-80-42-137-45v92" id="v"/><path fill="#3a414a" d="M177-190C167-65 218 103 67 71c-23-6-38-20-44-43l32-5c15 47 100 32 89-28v-30C133-14 115 1 83 1 29 1 15-40 15-95c0-56 16-97 71-98 29-1 48 16 59 35 1-10 0-23 2-32h30zM94-22c36 0 50-32 50-73 0-42-14-75-50-75-39 0-46 34-46 75s6 73 46 73" id="w"/><path fill="#3a414a" d="M24-231v-30h32v30H24zM24 0v-190h32V0H24" id="x"/><path fill="#3a414a" d="M135-143c-3-34-86-38-87 0 15 53 115 12 119 90S17 21 10-45l28-5c4 36 97 45 98 0-10-56-113-15-118-90-4-57 82-63 122-42 12 7 21 19 24 35" id="y"/><path fill="#3a414a" d="M114-163C36-179 61-72 57 0H25l-1-190h30c1 12-1 29 2 39 6-27 23-49 58-41v29" id="z"/><path fill="#3a414a" d="M141-36C126-15 110 5 73 4 37 3 15-17 15-53c-1-64 63-63 125-63 3-35-9-54-41-54-24 1-41 7-42 31l-33-3c5-37 33-52 76-52 45 0 72 20 72 64v82c-1 20 7 32 28 27v20c-31 9-61-2-59-35zM48-53c0 20 12 33 32 33 41-3 63-29 60-74-43 2-92-5-92 41" id="A"/><path fill="#3a414a" d="M100-194c62-1 85 37 85 99 1 63-27 99-86 99S16-35 15-95c0-66 28-99 85-99zM99-20c44 1 53-31 53-75 0-43-8-75-51-75s-53 32-53 75 10 74 51 75" id="B"/><g id="b"><use transform="matrix(0.06172839506172839,0,0,0.06172839506172839,0,0)" xlink:href="#v"/><use transform="matrix(0.06172839506172839,0,0,0.06172839506172839,15.987654320987653,0)" xlink:href="#t"/><use transform="matrix(0.06172839506172839,0,0,0.06172839506172839,28.333333333333332,0)" xlink:href="#w"/><use transform="matrix(0.06172839506172839,0,0,0.06172839506172839,40.67901234567901,0)" xlink:href="#x"/><use transform="matrix(0.06172839506172839,0,0,0.06172839506172839,45.55555555555556,0)" xlink:href="#y"/><use transform="matrix(0.06172839506172839,0,0,0.06172839506172839,56.66666666666667,0)" xlink:href="#s"/><use transform="matrix(0.06172839506172839,0,0,0.06172839506172839,62.83950617283951,0)" xlink:href="#z"/><use transform="matrix(0.06172839506172839,0,0,0.06172839506172839,70.18518518518519,0)" xlink:href="#A"/><use transform="matrix(0.06172839506172839,0,0,0.06172839506172839,82.53086419753087,0)" xlink:href="#s"/><use transform="matrix(0.06172839506172839,0,0,0.06172839506172839,88.70370370370371,0)" xlink:href="#B"/></g><path d="M240 0l2-218c-23 76-54 145-80 218h-23L58-218 59 0H30v-248h44l77 211c21-75 51-140 76-211h43V0h-30" id="C"/><path d="M100-194c62-1 85 37 85 99 1 63-27 99-86 99S16-35 15-95c0-66 28-99 85-99zM99-20c44 1 53-31 53-75 0-43-8-75-51-75s-53 32-53 75 10 74 51 75" id="D"/><path d="M85-194c31 0 48 13 60 33l-1-100h32l1 261h-30c-2-10 0-23-3-31C134-8 116 4 85 4 32 4 16-35 15-94c0-66 23-100 70-100zm9 24c-40 0-46 34-46 75 0 40 6 74 45 74 42 0 51-32 51-76 0-42-9-74-50-73" id="E"/><path d="M24-231v-30h32v30H24zM24 0v-190h32V0H24" id="F"/><path d="M101-234c-31-9-42 10-38 44h38v23H63V0H32v-167H5v-23h27c-7-52 17-82 69-68v24" id="G"/><path d="M96-169c-40 0-48 33-48 73s9 75 48 75c24 0 41-14 43-38l32 2c-6 37-31 61-74 61-59 0-76-41-82-99-10-93 101-131 147-64 4 7 5 14 7 22l-32 3c-4-21-16-35-41-35" id="H"/><path d="M141-36C126-15 110 5 73 4 37 3 15-17 15-53c-1-64 63-63 125-63 3-35-9-54-41-54-24 1-41 7-42 31l-33-3c5-37 33-52 76-52 45 0 72 20 72 64v82c-1 20 7 32 28 27v20c-31 9-61-2-59-35zM48-53c0 20 12 33 32 33 41-3 63-29 60-74-43 2-92-5-92 41" id="I"/><g id="c"><use transform="matrix(0.05,0,0,0.05,0,0)" xlink:href="#C"/><use transform="matrix(0.05,0,0,0.05,14.950000000000001,0)" xlink:href="#D"/><use transform="matrix(0.05,0,0,0.05,24.950000000000003,0)" xlink:href="#E"/><use transform="matrix(0.05,0,0,0.05,34.95,0)" xlink:href="#F"/><use transform="matrix(0.05,0,0,0.05,38.900000000000006,0)" xlink:href="#G"/><use transform="matrix(0.05,0,0,0.05,43.900000000000006,0)" xlink:href="#F"/><use transform="matrix(0.05,0,0,0.05,47.85000000000001,0)" xlink:href="#H"/><use transform="matrix(0.05,0,0,0.05,56.85,0)" xlink:href="#I"/></g><path d="M84 4C-5 8 30-112 23-190h32v120c0 31 7 50 39 49 72-2 45-101 50-169h31l1 190h-30c-1-10 1-25-2-33-11 22-28 36-60 37" id="J"/><path d="M117-194c89-4 53 116 60 194h-32v-121c0-31-8-49-39-48C34-167 62-67 57 0H25l-1-190h30c1 10-1 24 2 32 11-22 29-35 61-36" id="K"/><path d="M59-47c-2 24 18 29 38 22v24C64 9 27 4 27-40v-127H5v-23h24l9-43h21v43h35v23H59v120" id="L"/><g id="d"><use transform="matrix(0.05,0,0,0.05,0,0)" xlink:href="#I"/><use transform="matrix(0.05,0,0,0.05,10,0)" xlink:href="#H"/><use transform="matrix(0.05,0,0,0.05,19,0)" xlink:href="#H"/><use transform="matrix(0.05,0,0,0.05,28,0)" xlink:href="#D"/><use transform="matrix(0.05,0,0,0.05,38,0)" xlink:href="#J"/><use transform="matrix(0.05,0,0,0.05,48,0)" xlink:href="#K"/><use transform="matrix(0.05,0,0,0.05,58,0)" xlink:href="#L"/></g><path d="M233-177c-1 41-23 64-60 70L243 0h-38l-65-103H63V0H30v-248c88 3 205-21 203 71zM63-129c60-2 137 13 137-47 0-61-80-42-137-45v92" id="M"/><path d="M100-194c63 0 86 42 84 106H49c0 40 14 67 53 68 26 1 43-12 49-29l28 8c-11 28-37 45-77 45C44 4 14-33 15-96c1-61 26-98 85-98zm52 81c6-60-76-77-97-28-3 7-6 17-6 28h103" id="N"/><path d="M115-194c55 1 70 41 70 98S169 2 115 4C84 4 66-9 55-30l1 105H24l-1-265h31l2 30c10-21 28-34 59-34zm-8 174c40 0 45-34 45-75s-6-73-45-74c-42 0-51 32-51 76 0 43 10 73 51 73" id="O"/><path d="M114-163C36-179 61-72 57 0H25l-1-190h30c1 12-1 29 2 39 6-27 23-49 58-41v29" id="P"/><g id="e"><use transform="matrix(0.05,0,0,0.05,0,0)" xlink:href="#M"/><use transform="matrix(0.05,0,0,0.05,12.950000000000001,0)" xlink:href="#N"/><use transform="matrix(0.05,0,0,0.05,22.950000000000003,0)" xlink:href="#H"/><use transform="matrix(0.05,0,0,0.05,31.950000000000003,0)" xlink:href="#J"/><use transform="matrix(0.05,0,0,0.05,41.95,0)" xlink:href="#O"/><use transform="matrix(0.05,0,0,0.05,51.95,0)" xlink:href="#N"/><use transform="matrix(0.05,0,0,0.05,61.95,0)" xlink:href="#P"/><use transform="matrix(0.05,0,0,0.05,67.9,0)" xlink:href="#D"/></g><path d="M135-143c-3-34-86-38-87 0 15 53 115 12 119 90S17 21 10-45l28-5c4 36 97 45 98 0-10-56-113-15-118-90-4-57 82-63 122-42 12 7 21 19 24 35" id="Q"/><path d="M206 0h-36l-40-164L89 0H53L-1-190h32L70-26l43-164h34l41 164 42-164h31" id="R"/><g id="f"><use transform="matrix(0.05,0,0,0.05,0,0)" xlink:href="#O"/><use transform="matrix(0.05,0,0,0.05,10,0)" xlink:href="#I"/><use transform="matrix(0.05,0,0,0.05,20,0)" xlink:href="#Q"/><use transform="matrix(0.05,0,0,0.05,29,0)" xlink:href="#Q"/><use transform="matrix(0.05,0,0,0.05,38,0)" xlink:href="#R"/><use transform="matrix(0.05,0,0,0.05,50.95,0)" xlink:href="#D"/><use transform="matrix(0.05,0,0,0.05,60.95,0)" xlink:href="#P"/><use transform="matrix(0.05,0,0,0.05,66.9,0)" xlink:href="#E"/></g><path d="M30 0v-248h187v28H63v79h144v27H63v87h162V0H30" id="S"/><path d="M24 0v-261h32V0H24" id="T"/><path d="M210-169c-67 3-38 105-44 169h-31v-121c0-29-5-50-35-48C34-165 62-65 56 0H25l-1-190h30c1 10-1 24 2 32 10-44 99-50 107 0 11-21 27-35 58-36 85-2 47 119 55 194h-31v-121c0-29-5-49-35-48" id="U"/><path d="M9 0v-24l116-142H16v-24h144v24L44-24h123V0H9" id="V"/><g id="g"><use transform="matrix(0.05,0,0,0.05,0,0)" xlink:href="#S"/><use transform="matrix(0.05,0,0,0.05,12,0)" xlink:href="#T"/><use transform="matrix(0.05,0,0,0.05,15.949999999999998,0)" xlink:href="#F"/><use transform="matrix(0.05,0,0,0.05,19.9,0)" xlink:href="#U"/><use transform="matrix(0.05,0,0,0.05,34.85,0)" xlink:href="#F"/><use transform="matrix(0.05,0,0,0.05,38.800000000000004,0)" xlink:href="#K"/><use transform="matrix(0.05,0,0,0.05,48.800000000000004,0)" xlink:href="#I"/><use transform="matrix(0.05,0,0,0.05,58.800000000000004,0)" xlink:href="#V"/><use transform="matrix(0.05,0,0,0.05,67.80000000000001,0)" xlink:href="#F"/><use transform="matrix(0.05,0,0,0.05,71.75000000000001,0)" xlink:href="#D"/><use transform="matrix(0.05,0,0,0.05,81.75000000000001,0)" xlink:href="#K"/><use transform="matrix(0.05,0,0,0.05,91.75000000000001,0)" xlink:href="#N"/></g><g id="h"><use transform="matrix(0.05,0,0,0.05,0,0)" xlink:href="#S"/><use transform="matrix(0.05,0,0,0.05,12,0)" xlink:href="#G"/><use transform="matrix(0.05,0,0,0.05,16.65,0)" xlink:href="#G"/><use transform="matrix(0.05,0,0,0.05,21.65,0)" xlink:href="#N"/><use transform="matrix(0.05,0,0,0.05,31.649999999999995,0)" xlink:href="#L"/><use transform="matrix(0.05,0,0,0.05,36.65,0)" xlink:href="#L"/><use transform="matrix(0.05,0,0,0.05,41.65,0)" xlink:href="#J"/><use transform="matrix(0.05,0,0,0.05,51.650000000000006,0)" xlink:href="#I"/></g><path d="M177-190C167-65 218 103 67 71c-23-6-38-20-44-43l32-5c15 47 100 32 89-28v-30C133-14 115 1 83 1 29 1 15-40 15-95c0-56 16-97 71-98 29-1 48 16 59 35 1-10 0-23 2-32h30zM94-22c36 0 50-32 50-73 0-42-14-75-50-75-39 0-46 34-46 75s6 73 46 73" id="W"/><g id="i"><use transform="matrix(0.05,0,0,0.05,0,0)" xlink:href="#T"/><use transform="matrix(0.05,0,0,0.05,3.95,0)" xlink:href="#D"/><use transform="matrix(0.05,0,0,0.05,13.949999999999998,0)" xlink:href="#W"/><use transform="matrix(0.05,0,0,0.05,23.95,0)" xlink:href="#D"/><use transform="matrix(0.05,0,0,0.05,33.95,0)" xlink:href="#J"/><use transform="matrix(0.05,0,0,0.05,43.95,0)" xlink:href="#L"/></g><path fill="#3a414a" d="M240 0l2-218c-23 76-54 145-80 218h-23L58-218 59 0H30v-248h44l77 211c21-75 51-140 76-211h43V0h-30" id="X"/><path fill="#3a414a" d="M30-248c118-7 216 8 213 122C240-48 200 0 122 0H30v-248zM63-27c89 8 146-16 146-99s-60-101-146-95v194" id="Y"/><path fill="#3a414a" d="M160-131c35 5 61 23 61 61C221 17 115-2 30 0v-248c76 3 177-17 177 60 0 33-19 50-47 57zm-97-11c50-1 110 9 110-42 0-47-63-36-110-37v79zm0 115c55-2 124 14 124-45 0-56-70-42-124-44v89" id="Z"/><g id="j"><use transform="matrix(0.06172839506172839,0,0,0.06172839506172839,0,0)" xlink:href="#X"/><use transform="matrix(0.06172839506172839,0,0,0.06172839506172839,18.456790123456788,0)" xlink:href="#B"/><use transform="matrix(0.06172839506172839,0,0,0.06172839506172839,30.80246913580247,0)" xlink:href="#u"/><use transform="matrix(0.06172839506172839,0,0,0.06172839506172839,43.148148148148145,0)" xlink:href="#w"/><use transform="matrix(0.06172839506172839,0,0,0.06172839506172839,55.49382716049382,0)" xlink:href="#B"/><use transform="matrix(0.06172839506172839,0,0,0.06172839506172839,67.8395061728395,0)" xlink:href="#Y"/><use transform="matrix(0.06172839506172839,0,0,0.06172839506172839,83.82716049382717,0)" xlink:href="#Z"/></g><path fill="#3a414a" d="M185-189c-5-48-123-54-124 2 14 75 158 14 163 119 3 78-121 87-175 55-17-10-28-26-33-46l33-7c5 56 141 63 141-1 0-78-155-14-162-118-5-82 145-84 179-34 5 7 8 16 11 25" id="aa"/><path fill="#3a414a" d="M210-169c-67 3-38 105-44 169h-31v-121c0-29-5-50-35-48C34-165 62-65 56 0H25l-1-190h30c1 10-1 24 2 32 10-44 99-50 107 0 11-21 27-35 58-36 85-2 47 119 55 194h-31v-121c0-29-5-49-35-48" id="ab"/><g id="k"><use transform="matrix(0.06172839506172839,0,0,0.06172839506172839,0,0)" xlink:href="#aa"/><use transform="matrix(0.06172839506172839,0,0,0.06172839506172839,14.814814814814813,0)" xlink:href="#x"/><use transform="matrix(0.06172839506172839,0,0,0.06172839506172839,19.691358024691354,0)" xlink:href="#y"/><use transform="matrix(0.06172839506172839,0,0,0.06172839506172839,30.802469135802465,0)" xlink:href="#s"/><use transform="matrix(0.06172839506172839,0,0,0.06172839506172839,36.9753086419753,0)" xlink:href="#t"/><use transform="matrix(0.06172839506172839,0,0,0.06172839506172839,49.32098765432098,0)" xlink:href="#ab"/><use transform="matrix(0.06172839506172839,0,0,0.06172839506172839,67.77777777777777,0)" xlink:href="#A"/></g><path fill="#3a414a" d="M85-194c31 0 48 13 60 33l-1-100h32l1 261h-30c-2-10 0-23-3-31C134-8 116 4 85 4 32 4 16-35 15-94c0-66 23-100 70-100zm9 24c-40 0-46 34-46 75 0 40 6 74 45 74 42 0 51-32 51-76 0-42-9-74-50-73" id="ac"/><g id="l"><use transform="matrix(0.06172839506172839,0,0,0.06172839506172839,0,0)" xlink:href="#ac"/><use transform="matrix(0.06172839506172839,0,0,0.06172839506172839,12.345679012345679,0)" xlink:href="#x"/></g><path fill="#3a414a" d="M33 0v-248h34V0H33" id="ad"/><path fill="#3a414a" d="M108 0H70L1-190h34L89-25l56-165h34" id="ae"/><g id="m"><use transform="matrix(0.06172839506172839,0,0,0.06172839506172839,0,0)" xlink:href="#ad"/><use transform="matrix(0.06172839506172839,0,0,0.06172839506172839,6.172839506172839,0)" xlink:href="#u"/><use transform="matrix(0.06172839506172839,0,0,0.06172839506172839,18.51851851851852,0)" xlink:href="#ae"/><use transform="matrix(0.06172839506172839,0,0,0.06172839506172839,29.62962962962963,0)" xlink:href="#x"/><use transform="matrix(0.06172839506172839,0,0,0.06172839506172839,34.50617283950617,0)" xlink:href="#B"/></g><path fill="#3a414a" d="M30 0v-248h187v28H63v79h144v27H63v87h162V0H30" id="af"/><path fill="#3a414a" d="M24 0v-261h32V0H24" id="ag"/><g id="n"><use transform="matrix(0.06172839506172839,0,0,0.06172839506172839,0,0)" xlink:href="#af"/><use transform="matrix(0.06172839506172839,0,0,0.06172839506172839,14.814814814814813,0)" xlink:href="#ab"/><use transform="matrix(0.06172839506172839,0,0,0.06172839506172839,33.2716049382716,0)" xlink:href="#A"/><use transform="matrix(0.06172839506172839,0,0,0.06172839506172839,45.61728395061728,0)" xlink:href="#x"/><use transform="matrix(0.06172839506172839,0,0,0.06172839506172839,50.49382716049382,0)" xlink:href="#ag"/></g><g id="o"><use transform="matrix(0.06172839506172839,0,0,0.06172839506172839,0,0)" xlink:href="#r"/><use transform="matrix(0.06172839506172839,0,0,0.06172839506172839,15.987654320987653,0)" xlink:href="#s"/><use transform="matrix(0.06172839506172839,0,0,0.06172839506172839,22.160493827160494,0)" xlink:href="#t"/><use transform="matrix(0.06172839506172839,0,0,0.06172839506172839,34.50617283950617,0)" xlink:href="#u"/><use transform="matrix(0.06172839506172839,0,0,0.06172839506172839,46.85185185185185,0)" xlink:href="#s"/><use transform="matrix(0.06172839506172839,0,0,0.06172839506172839,53.02469135802469,0)" xlink:href="#t"/></g><g id="p"><use transform="matrix(0.06172839506172839,0,0,0.06172839506172839,0,0)" xlink:href="#ac"/><use transform="matrix(0.06172839506172839,0,0,0.06172839506172839,12.345679012345679,0)" xlink:href="#x"/></g><g id="q"><use transform="matrix(0.06172839506172839,0,0,0.06172839506172839,0,0)" xlink:href="#y"/><use transform="matrix(0.06172839506172839,0,0,0.06172839506172839,11.11111111111111,0)" xlink:href="#t"/><use transform="matrix(0.06172839506172839,0,0,0.06172839506172839,23.45679012345679,0)" xlink:href="#w"/><use transform="matrix(0.06172839506172839,0,0,0.06172839506172839,35.80246913580247,0)" xlink:href="#z"/><use transform="matrix(0.06172839506172839,0,0,0.06172839506172839,43.148148148148145,0)" xlink:href="#t"/><use transform="matrix(0.06172839506172839,0,0,0.06172839506172839,55.49382716049382,0)" xlink:href="#s"/><use transform="matrix(0.06172839506172839,0,0,0.06172839506172839,61.666666666666664,0)" xlink:href="#t"/><use transform="matrix(0.06172839506172839,0,0,0.06172839506172839,74.01234567901234,0)" xlink:href="#z"/><use transform="matrix(0.06172839506172839,0,0,0.06172839506172839,81.35802469135803,0)" xlink:href="#x"/><use transform="matrix(0.06172839506172839,0,0,0.06172839506172839,86.23456790123457,0)" xlink:href="#A"/></g></defs></g></svg>