<svg xmlns="http://www.w3.org/2000/svg" xmlns:xlink="http://www.w3.org/1999/xlink" xmlns:lucid="lucid" width="1081.21" height="460"><g transform="translate(-1193.3544522212503 -2652.666666666667)" lucid:page-tab-id="kkl-xEImwlm-"><path d="M-1806.87-3776.5h5484.6v8875.84h-5484.6z" fill="#fff"/><path d="M1193.35 2658.67a6 6 0 0 1 6-6h1069.22a6 6 0 0 1 6 6v448a6 6 0 0 1-6 6H1199.35a6 6 0 0 1-6-6z" fill-opacity="0"/><path d="M1293.1 2882.42c0 10.9-8.84 19.75-19.75 19.75-10.9 0-19.75-8.85-19.75-19.75s8.85-19.75 19.75-19.75 19.75 8.84 19.75 19.75z" stroke="#3a414a" fill="#fff"/><path d="M1273.35 2902.17v49.3a20.7 20.7 0 0 0 3.2 11.07l36.8 58.13m-40-63.2l-40 63.2m0-98.75h80" stroke="#3a414a" fill="none"/><path d="M1233.35 2868.67a6 6 0 0 1 6-6h68a6 6 0 0 1 6 6v168a6 6 0 0 1-6 6h-68a6 6 0 0 1-6-6z" fill="none"/><use xlink:href="#a" transform="matrix(1,0,0,1,1153.3544522212499,3020.666666666667) translate(75.61728395061729 17.77777777777778)"/><use xlink:href="#b" transform="matrix(1,0,0,1,1153.3544522212499,3020.666666666667) translate(147.1604938271605 17.77777777777778)"/><use xlink:href="#c" transform="matrix(1,0,0,1,1153.3544522212499,3020.666666666667) translate(70.70987654320987 44.44444444444444)"/><path d="M2213.1 2882.42c0 10.9-8.84 19.75-19.75 19.75-10.9 0-19.75-8.85-19.75-19.75s8.85-19.75 19.75-19.75 19.75 8.84 19.75 19.75z" stroke="#3a414a" fill="#fff"/><path d="M2193.35 2902.17v49.3a20.7 20.7 0 0 0 3.2 11.07l36.8 58.13m-40-63.2l-40 63.2m0-98.75h80" stroke="#3a414a" fill="none"/><path d="M2153.35 2868.67a6 6 0 0 1 6-6h68a6 6 0 0 1 6 6v168a6 6 0 0 1-6 6h-68a6 6 0 0 1-6-6z" fill="none"/><use xlink:href="#d" transform="matrix(1,0,0,1,2073.3544522212496,3020.666666666667) translate(70.67901234567901 17.77777777777778)"/><path d="M1533.35 2952.67c0 33.13-35.8 60-80 60-44.18 0-80-26.87-80-60 0-33.14 35.82-60 80-60 44.2 0 80 26.86 80 60z" stroke="#3a414a" fill="#fff"/><use xlink:href="#e" transform="matrix(1,0,0,1,1373.3544522212503,2892.666666666667) translate(11.279999999999996 63.15)"/><use xlink:href="#f" transform="matrix(1,0,0,1,1373.3544522212503,2892.666666666667) translate(96.78 63.15)"/><path d="M1783.35 2872.67c0 33.13-35.8 60-80 60-44.18 0-80-26.87-80-60 0-33.14 35.82-60 80-60 44.2 0 80 26.86 80 60z" stroke="#3a414a" fill="#fff"/><use xlink:href="#g" transform="matrix(1,0,0,1,1623.3544522212503,2812.666666666667) translate(46.58 40.65)"/><use xlink:href="#h" transform="matrix(1,0,0,1,1623.3544522212503,2812.666666666667) translate(10.680000000000001 62.25)"/><use xlink:href="#i" transform="matrix(1,0,0,1,1623.3544522212503,2812.666666666667) translate(112.43 62.25)"/><use xlink:href="#f" transform="matrix(1,0,0,1,1623.3544522212503,2812.666666666667) translate(54.03 83.85000000000001)"/><path d="M1313.86 2952.67h58.5" stroke="#3a414a" stroke-linejoin="round" fill="none"/><path d="M1313.87 2953.17h-3.5v-1h3.5zM1372.85 2952.66v.5h-.5v-1h.52zM1551.24 2931.32l-2.3 1.7-1.63 1.06-.54-.83 1.6-1.05 2.3-1.68zm10.57-9.83l-.2.27-3.6 3.72-3.02 2.77-.68-.74 3-2.76 3.54-3.66.2-.23zm2.97-3.75l-.78-.62 2.67-3.4h1.28zm24.06-29.6l-1.95 2.03-1.9 2.2h-1.34l2.5-2.88 1.97-2.03zm11-8.87l-.48.28-2.16 1.42-2.25 1.65-2.4 1.97-.3.28-.67-.74.32-.3 2.43-2 2.3-1.7 2.2-1.43.5-.3zm13.14-5.13l-.7.14-2.28.57-2.2.7-2.14.8-1.65.7-.4-.9 1.68-.74 2.2-.82 2.24-.7 2.33-.6.72-.13zm9.4-.97l-2.46.07-2.27.2-.08-1 2.3-.2 2.5-.07z" stroke="#3a414a" stroke-width=".05" fill="#3a414a"/><path d="M1622.85 2872.66v.5l-.5.02-.02-1h.54z" fill="#3a414a"/><path d="M1622.88 2872.66v.53h-.55l-.03-1.04.6-.02zm-.53-.45l.03.95h.45v-.96z" stroke="#3a414a" stroke-width=".05" fill="#3a414a"/><path d="M1548.6 2938.05l-14.9 1.83 10.98-10.23z" fill="#3a414a"/><path d="M1549.34 2938.47l-17.1 2.1 12.6-11.75zm-14.17.72l12.68-1.56-3.34-7.15z" stroke="#3a414a" stroke-width=".05" fill="#3a414a"/><use xlink:href="#j" transform="matrix(1,0,0,1,1536.7904344629903,2892.3872384350875) translate(0 14.222222222222223)"/><path d="M2083.15 3032.67c0 33.13-35.8 60-80 60-44.18 0-80-26.87-80-60 0-33.14 35.82-60 80-60 44.2 0 80 26.86 80 60z" stroke="#3a414a" fill="#fff"/><use xlink:href="#g" transform="matrix(1,0,0,1,1923.1549771556336,2972.666666666667) translate(46.58 40.65)"/><use xlink:href="#k" transform="matrix(1,0,0,1,1923.1549771556336,2972.666666666667) translate(11.679999999999987 62.25)"/><use xlink:href="#l" transform="matrix(1,0,0,1,1923.1549771556336,2972.666666666667) translate(110.43 62.25)"/><use xlink:href="#f" transform="matrix(1,0,0,1,1923.1549771556336,2972.666666666667) translate(54.03 83.85000000000001)"/><path d="M1919.04 3032.02l1.78.1 1.34.04-.02 1-1.37-.03-1.82-.12-1.76-.17.1-1zm-14.74-4.13l1.6.75 1.6.67 1.6.6 1.6.52 1.63.45.17.03-.23.97-.2-.05-1.65-.46-1.64-.54-1.64-.6-1.64-.7-1.64-.77-.9-.48.46-.9zm-12.2-8.66l1.92 1.72 1.84 1.52 1.77 1.34 1.6 1.12-.57.82-1.62-1.13-1.8-1.37-1.87-1.54-1.94-1.75-.5-.47.7-.72zm-8.8-9.9l2.44 3.07 2.26 2.63.22.23-.73.68-.25-.25-2.28-2.66-2.46-3.1-1.24-1.73.8-.58zm-9.07-13.85l3.43 5.67 1.6 2.42-.83.54-1.62-2.44-3.44-5.7-.15-.3.9-.47zm-4.16-7.6l1.64 3-.86.48-1.66-3.02-2.86-5.78.9-.44zm-5.73-11.58l.7 1.4-.9.44-.7-1.4-3.45-7.58.9-.42zm-5.48-12.05l-.9.4-4.1-8.97.9-.42zm-6.14-13.48l-.9.4-1.33-2.9h1.1zm-15.4-33.82l3.13 6.85-.9.4-3.1-6.8-1.14-2.06.9-.48zm-7.62-13.35l3.45 5.7.67 1.23-.88.48-.66-1.2-3.43-5.67-1-1.53.82-.55zm-8.16-11.34l2.46 3.1 1.88 2.6-.8.58-1.87-2.58-2.43-3.07-1.78-2.07.75-.65zm-12.07-11.6l1.8 1.37 1.87 1.54 1.94 1.76 1.25 1.23-.7.7-1.24-1.2-1.9-1.73-1.85-1.52-1.77-1.34-.73-.5.58-.82zm-8.46-4.93l1.65.78 1.67.87.2.1-.5.88-.2-.1-1.6-.86-1.62-.75-.97-.42.4-.92z" stroke="#3a414a" stroke-width=".05" fill="#3a414a"/><path d="M1922.67 3032.17l-.02.5v.5h-.52l.02-1z" fill="#3a414a"/><path d="M1922.7 3032.14l-.02.52v.53l-.58-.02.03-1.05zm-.54 1h.47v-.95l-.45-.02z" stroke="#3a414a" stroke-width=".05" fill="#3a414a"/><path d="M1798.54 2880.3l-13.1-7.32 14.9-1.8z" fill="#3a414a"/><path d="M1798.9 2881.06l-15.05-8.4 17.1-2.04zm-11.87-7.77l11.15 6.22 1.53-7.75z" stroke="#3a414a" stroke-width=".05" fill="#3a414a"/><use xlink:href="#m" transform="matrix(1,0,0,1,1807.2458741512094,2926.96167471857) translate(0 14.222222222222223)"/><path d="M1783.35 3032.67c0 33.13-35.8 60-80 60-44.18 0-80-26.87-80-60 0-33.14 35.82-60 80-60 44.2 0 80 26.86 80 60z" stroke="#3a414a" fill="#fff"/><use xlink:href="#n" transform="matrix(1,0,0,1,1623.3544522212503,2972.666666666667) translate(22.129999999999995 63.15)"/><use xlink:href="#f" transform="matrix(1,0,0,1,1623.3544522212503,2972.666666666667) translate(85.93 63.15)"/><path d="M1620.1 3032.1l2.27.05-.03 1-2.3-.06-2.55-.22.07-1zm-15.4-3.83l1.98.88 2.02.76 2.07.66 2.13.54-.25.97-2.16-.55-2.13-.67-2.07-.77-2.03-.9-.8-.4.46-.9zm-10.26-6.85l2.2 1.83 2.1 1.54 1.06.7-.55.83-1.1-.72-2.12-1.57-2.25-1.86-2.1-1.95.7-.73zm-8.3-8.78l2.92 3.4-.76.66-2.95-3.43-1.6-2.07h1.27zm-16.8-22.78h-1.24l-2.98-4.1.8-.6zm-13.1-14.95l2.8 2.6 3.08 3.2.65.76-.76.66-.62-.74-3.05-3.16-2.75-2.56-.35-.3.64-.76zm-7.68-5.7l2.5 1.63 1 .75-.6.8-.97-.73-2.47-1.6-.53-.32.5-.86z" stroke="#3a414a" stroke-width=".05" fill="#3a414a"/><path d="M1622.87 3032.17l-.02.5v.5l-.52-.02.02-1z" fill="#3a414a"/><path d="M1622.9 3032.14l-.02.52v.53l-.58-.02.03-1.05zm-.55 1h.48v-.95l-.45-.02z" stroke="#3a414a" stroke-width=".05" fill="#3a414a"/><path d="M1549.08 2964.84l-3.45 8.6-11.52-9.6z" fill="#3a414a"/><path d="M1549.8 2964.4l-3.96 9.87-13.23-11.04zm-4.38 8.22l2.94-7.33-12.74-.86z" stroke="#3a414a" stroke-width=".05" fill="#3a414a"/><use xlink:href="#m" transform="matrix(1,0,0,1,1537.5264914742077,2989.862955142108) translate(0 14.222222222222223)"/><path d="M2152.85 2953.17h-618.5v-1h618.5z" stroke="#3a414a" stroke-width=".05" fill="#3a414a"/><path d="M1534.38 2953.17h-.54v-1h.54z" fill="#3a414a"/><path d="M1534.4 2953.2h-.6l.03-.53v-.53h.57zm-.53-1v.94h.48v-.95z" stroke="#3a414a" stroke-width=".05" fill="#3a414a"/><path d="M2156.35 2953.17h-3.5v-1h3.5z" fill="#3a414a"/><path d="M2156.38 2953.2h-3.56v-1.06h3.56zm-3.5-1v.94h3.45v-.95z" stroke="#3a414a" stroke-width=".05" fill="#3a414a"/><path d="M2083.35 2732.67c0 33.13-35.8 60-80 60-44.18 0-80-26.87-80-60 0-33.14 35.82-60 80-60 44.2 0 80 26.86 80 60z" stroke="#3a414a" fill="#fff"/><use xlink:href="#o" transform="matrix(1,0,0,1,1923.3544522212508,2672.666666666667) translate(12.12999999999999 63.15)"/><use xlink:href="#p" transform="matrix(1,0,0,1,1923.3544522212508,2672.666666666667) translate(87.03 63.15)"/><path d="M2083.35 2872.67c0 33.13-35.8 60-80 60-44.18 0-80-26.87-80-60 0-33.14 35.82-60 80-60 44.2 0 80 26.86 80 60z" stroke="#3a414a" fill="#fff"/><use xlink:href="#q" transform="matrix(1,0,0,1,1923.3544522212508,2812.666666666667) translate(15.679999999999987 51.9)"/><use xlink:href="#p" transform="matrix(1,0,0,1,1923.3544522212508,2812.666666666667) translate(49.57999999999999 73.5)"/><path d="M1922.35 2873.17h-5.1v-1h5.1zm-10.17 0H1902v-1h10.18zm-97.76 0h-4v-1h4zm-9.1 0h-5.08v-1h5.1zm91.6 0h-4.63v-1h4.6z" stroke="#3a414a" stroke-width=".05" fill="#3a414a"/><path d="M1922.85 2872.66v.5h-.5v-1h.52z" fill="#3a414a"/><path d="M1922.88 2872.66v.53h-.57v-1.06h.6zm-.52-.47v.94h.47v-.95z" stroke="#3a414a" stroke-width=".05" fill="#3a414a"/><path d="M1799.74 2877.3l-14.27-4.63 14.27-4.64z" fill="#3a414a"/><path d="M1800.24 2878l-16.4-5.33 16.4-5.33zm-13.15-5.33l12.14 3.94v-7.88z" stroke="#3a414a" stroke-width=".05" fill="#3a414a"/><g><use xlink:href="#m" transform="matrix(1,0,0,1,1814.4151381268016,2862.0000000000005) translate(0 14.222222222222223)"/></g><path d="M1804.64 2868.45l-1.45.68-1.82.76-1.3.47-.34-.94 1.27-.47 1.78-.74 1.43-.68zm12.26-8.28l-.4.37-1.77 1.46h-.3v.26l-1.94 1.46-1.93 1.34-1.6 1-.52-.84 1.56-1 1.9-1.3 1.94-1.48 2-1.66.4-.35zm10.1-10.76l-1.26 1.6-2.53 2.93-2.35 2.5-.37.37-.7-.7.35-.36 2.33-2.48 2.5-2.9 1.25-1.57zm8.47-12.05l-.34.56-3.56 5.37-1.6 2.22-.82-.6 1.6-2.2 3.53-5.32.33-.55zm7.22-12.83l-3.2 6.14-1.5 2.5-.86-.52 1.5-2.47 3.16-6.1zm2.24-4.34l-.9-.46 3.1-5.97h1.13zm18.08-34.74l-1.38 2.52-2.3 4.46h-1.14l2.56-4.93 1.38-2.54zm7.2-12.8l-2.12 3.5-2.73 5-.88-.48 2.73-5.02 2.12-3.5zm8.06-12.2l-2.3 3.17-3.23 4.9-.84-.56 3.26-4.9 2.3-3.2zm9.53-11.05l-1.2 1.17-2.33 2.48-2.5 2.9-.5.63-.8-.62.52-.64 2.53-2.94 2.36-2.5 1.2-1.2zm11.5-8.9l-.73.4-1.85 1.18-1.88 1.32-1.94 1.47-1.5 1.24-.65-.76 1.53-1.26 1.97-1.5 1.92-1.33 1.88-1.2.74-.42zm13.47-5.3l-1.66.4-1.8.5-1.8.58-1.77.66-1.78.75-.35.16-.43-.9.37-.18 1.82-.77 1.82-.66 1.83-.6 1.86-.5 1.68-.4zm9.62-1.05l-1.64.04-2.04.1-1.18.14-.1-1 1.2-.12 2.08-.13 1.65-.05z" stroke="#3a414a" stroke-width=".05" fill="#3a414a"/><path d="M1922.9 2734.14h-.53l-.02-1h.5z" fill="#3a414a"/><path d="M1922.92 2734.17h-.57l-.02-1.04h.55zm-.54-1l.02.96h.47l-.03-.96z" stroke="#3a414a" stroke-width=".05" fill="#3a414a"/><path d="M1800.3 2874.54l-14.85-2.15 13.27-7z" fill="#3a414a"/><path d="M1800.9 2875.14l-17.05-2.47 15.25-8.03zm-13.86-3.02l12.64 1.83-1.33-7.78z" stroke="#3a414a" stroke-width=".05" fill="#3a414a"/><g><use xlink:href="#m" transform="matrix(1,0,0,1,1814.2964785287934,2792.4185299749206) translate(0 14.222222222222223)"/></g><defs><path fill="#3a414a" d="M232-93c-1 65-40 97-104 97C67 4 28-28 28-90v-158h33c8 89-33 224 67 224 102 0 64-133 71-224h33v155" id="r"/><path fill="#3a414a" d="M59-47c-2 24 18 29 38 22v24C64 9 27 4 27-40v-127H5v-23h24l9-43h21v43h35v23H59v120" id="s"/><path fill="#3a414a" d="M100-194c63 0 86 42 84 106H49c0 40 14 67 53 68 26 1 43-12 49-29l28 8c-11 28-37 45-77 45C44 4 14-33 15-96c1-61 26-98 85-98zm52 81c6-60-76-77-97-28-3 7-6 17-6 28h103" id="t"/><path fill="#3a414a" d="M117-194c89-4 53 116 60 194h-32v-121c0-31-8-49-39-48C34-167 62-67 57 0H25l-1-190h30c1 10-1 24 2 32 11-22 29-35 61-36" id="u"/><g id="a"><use transform="matrix(0.06172839506172839,0,0,0.06172839506172839,0,0)" xlink:href="#r"/><use transform="matrix(0.06172839506172839,0,0,0.06172839506172839,15.987654320987653,0)" xlink:href="#s"/><use transform="matrix(0.06172839506172839,0,0,0.06172839506172839,22.160493827160494,0)" xlink:href="#t"/><use transform="matrix(0.06172839506172839,0,0,0.06172839506172839,34.50617283950617,0)" xlink:href="#u"/><use transform="matrix(0.06172839506172839,0,0,0.06172839506172839,46.85185185185185,0)" xlink:href="#s"/><use transform="matrix(0.06172839506172839,0,0,0.06172839506172839,53.02469135802469,0)" xlink:href="#t"/></g><path fill="#3a414a" d="M85-194c31 0 48 13 60 33l-1-100h32l1 261h-30c-2-10 0-23-3-31C134-8 116 4 85 4 32 4 16-35 15-94c0-66 23-100 70-100zm9 24c-40 0-46 34-46 75 0 40 6 74 45 74 42 0 51-32 51-76 0-42-9-74-50-73" id="v"/><path fill="#3a414a" d="M24-231v-30h32v30H24zM24 0v-190h32V0H24" id="w"/><g id="b"><use transform="matrix(0.06172839506172839,0,0,0.06172839506172839,0,0)" xlink:href="#v"/><use transform="matrix(0.06172839506172839,0,0,0.06172839506172839,12.345679012345679,0)" xlink:href="#w"/></g><path fill="#3a414a" d="M135-143c-3-34-86-38-87 0 15 53 115 12 119 90S17 21 10-45l28-5c4 36 97 45 98 0-10-56-113-15-118-90-4-57 82-63 122-42 12 7 21 19 24 35" id="x"/><path fill="#3a414a" d="M177-190C167-65 218 103 67 71c-23-6-38-20-44-43l32-5c15 47 100 32 89-28v-30C133-14 115 1 83 1 29 1 15-40 15-95c0-56 16-97 71-98 29-1 48 16 59 35 1-10 0-23 2-32h30zM94-22c36 0 50-32 50-73 0-42-14-75-50-75-39 0-46 34-46 75s6 73 46 73" id="y"/><path fill="#3a414a" d="M114-163C36-179 61-72 57 0H25l-1-190h30c1 12-1 29 2 39 6-27 23-49 58-41v29" id="z"/><path fill="#3a414a" d="M141-36C126-15 110 5 73 4 37 3 15-17 15-53c-1-64 63-63 125-63 3-35-9-54-41-54-24 1-41 7-42 31l-33-3c5-37 33-52 76-52 45 0 72 20 72 64v82c-1 20 7 32 28 27v20c-31 9-61-2-59-35zM48-53c0 20 12 33 32 33 41-3 63-29 60-74-43 2-92-5-92 41" id="A"/><g id="c"><use transform="matrix(0.06172839506172839,0,0,0.06172839506172839,0,0)" xlink:href="#x"/><use transform="matrix(0.06172839506172839,0,0,0.06172839506172839,11.11111111111111,0)" xlink:href="#t"/><use transform="matrix(0.06172839506172839,0,0,0.06172839506172839,23.45679012345679,0)" xlink:href="#y"/><use transform="matrix(0.06172839506172839,0,0,0.06172839506172839,35.80246913580247,0)" xlink:href="#z"/><use transform="matrix(0.06172839506172839,0,0,0.06172839506172839,43.148148148148145,0)" xlink:href="#t"/><use transform="matrix(0.06172839506172839,0,0,0.06172839506172839,55.49382716049382,0)" xlink:href="#s"/><use transform="matrix(0.06172839506172839,0,0,0.06172839506172839,61.666666666666664,0)" xlink:href="#t"/><use transform="matrix(0.06172839506172839,0,0,0.06172839506172839,74.01234567901234,0)" xlink:href="#z"/><use transform="matrix(0.06172839506172839,0,0,0.06172839506172839,81.35802469135803,0)" xlink:href="#w"/><use transform="matrix(0.06172839506172839,0,0,0.06172839506172839,86.23456790123457,0)" xlink:href="#A"/></g><path fill="#3a414a" d="M240 0l2-218c-23 76-54 145-80 218h-23L58-218 59 0H30v-248h44l77 211c21-75 51-140 76-211h43V0h-30" id="B"/><path fill="#3a414a" d="M100-194c62-1 85 37 85 99 1 63-27 99-86 99S16-35 15-95c0-66 28-99 85-99zM99-20c44 1 53-31 53-75 0-43-8-75-51-75s-53 32-53 75 10 74 51 75" id="C"/><path fill="#3a414a" d="M30-248c118-7 216 8 213 122C240-48 200 0 122 0H30v-248zM63-27c89 8 146-16 146-99s-60-101-146-95v194" id="D"/><path fill="#3a414a" d="M160-131c35 5 61 23 61 61C221 17 115-2 30 0v-248c76 3 177-17 177 60 0 33-19 50-47 57zm-97-11c50-1 110 9 110-42 0-47-63-36-110-37v79zm0 115c55-2 124 14 124-45 0-56-70-42-124-44v89" id="E"/><g id="d"><use transform="matrix(0.06172839506172839,0,0,0.06172839506172839,0,0)" xlink:href="#B"/><use transform="matrix(0.06172839506172839,0,0,0.06172839506172839,18.456790123456788,0)" xlink:href="#C"/><use transform="matrix(0.06172839506172839,0,0,0.06172839506172839,30.80246913580247,0)" xlink:href="#u"/><use transform="matrix(0.06172839506172839,0,0,0.06172839506172839,43.148148148148145,0)" xlink:href="#y"/><use transform="matrix(0.06172839506172839,0,0,0.06172839506172839,55.49382716049382,0)" xlink:href="#C"/><use transform="matrix(0.06172839506172839,0,0,0.06172839506172839,67.8395061728395,0)" xlink:href="#D"/><use transform="matrix(0.06172839506172839,0,0,0.06172839506172839,83.82716049382717,0)" xlink:href="#E"/></g><path d="M137 0h-34L2-248h35l83 218 83-218h36" id="F"/><path d="M24-231v-30h32v30H24zM24 0v-190h32V0H24" id="G"/><path d="M135-143c-3-34-86-38-87 0 15 53 115 12 119 90S17 21 10-45l28-5c4 36 97 45 98 0-10-56-113-15-118-90-4-57 82-63 122-42 12 7 21 19 24 35" id="H"/><path d="M84 4C-5 8 30-112 23-190h32v120c0 31 7 50 39 49 72-2 45-101 50-169h31l1 190h-30c-1-10 1-25-2-33-11 22-28 36-60 37" id="I"/><path d="M141-36C126-15 110 5 73 4 37 3 15-17 15-53c-1-64 63-63 125-63 3-35-9-54-41-54-24 1-41 7-42 31l-33-3c5-37 33-52 76-52 45 0 72 20 72 64v82c-1 20 7 32 28 27v20c-31 9-61-2-59-35zM48-53c0 20 12 33 32 33 41-3 63-29 60-74-43 2-92-5-92 41" id="J"/><path d="M24 0v-261h32V0H24" id="K"/><path d="M9 0v-24l116-142H16v-24h144v24L44-24h123V0H9" id="L"/><g id="e"><use transform="matrix(0.05,0,0,0.05,0,0)" xlink:href="#F"/><use transform="matrix(0.05,0,0,0.05,11.65,0)" xlink:href="#G"/><use transform="matrix(0.05,0,0,0.05,15.600000000000001,0)" xlink:href="#H"/><use transform="matrix(0.05,0,0,0.05,24.6,0)" xlink:href="#I"/><use transform="matrix(0.05,0,0,0.05,34.6,0)" xlink:href="#J"/><use transform="matrix(0.05,0,0,0.05,44.6,0)" xlink:href="#K"/><use transform="matrix(0.05,0,0,0.05,48.550000000000004,0)" xlink:href="#G"/><use transform="matrix(0.05,0,0,0.05,52.5,0)" xlink:href="#L"/><use transform="matrix(0.05,0,0,0.05,61.5,0)" xlink:href="#L"/><use transform="matrix(0.05,0,0,0.05,70.5,0)" xlink:href="#J"/></g><path d="M115-194c55 1 70 41 70 98S169 2 115 4C84 4 66-9 55-30l1 105H24l-1-265h31l2 30c10-21 28-34 59-34zm-8 174c40 0 45-34 45-75s-6-73-45-74c-42 0-51 32-51 76 0 43 10 73 51 73" id="M"/><path d="M100-194c62-1 85 37 85 99 1 63-27 99-86 99S16-35 15-95c0-66 28-99 85-99zM99-20c44 1 53-31 53-75 0-43-8-75-51-75s-53 32-53 75 10 74 51 75" id="N"/><g id="f"><use transform="matrix(0.05,0,0,0.05,0,0)" xlink:href="#H"/><use transform="matrix(0.05,0,0,0.05,9,0)" xlink:href="#M"/><use transform="matrix(0.05,0,0,0.05,19,0)" xlink:href="#J"/><use transform="matrix(0.05,0,0,0.05,29,0)" xlink:href="#L"/><use transform="matrix(0.05,0,0,0.05,38,0)" xlink:href="#G"/><use transform="matrix(0.05,0,0,0.05,41.95,0)" xlink:href="#N"/></g><path d="M240 0l2-218c-23 76-54 145-80 218h-23L58-218 59 0H30v-248h44l77 211c21-75 51-140 76-211h43V0h-30" id="O"/><path d="M85-194c31 0 48 13 60 33l-1-100h32l1 261h-30c-2-10 0-23-3-31C134-8 116 4 85 4 32 4 16-35 15-94c0-66 23-100 70-100zm9 24c-40 0-46 34-46 75 0 40 6 74 45 74 42 0 51-32 51-76 0-42-9-74-50-73" id="P"/><path d="M101-234c-31-9-42 10-38 44h38v23H63V0H32v-167H5v-23h27c-7-52 17-82 69-68v24" id="Q"/><path d="M96-169c-40 0-48 33-48 73s9 75 48 75c24 0 41-14 43-38l32 2c-6 37-31 61-74 61-59 0-76-41-82-99-10-93 101-131 147-64 4 7 5 14 7 22l-32 3c-4-21-16-35-41-35" id="R"/><g id="g"><use transform="matrix(0.05,0,0,0.05,0,0)" xlink:href="#O"/><use transform="matrix(0.05,0,0,0.05,14.950000000000001,0)" xlink:href="#N"/><use transform="matrix(0.05,0,0,0.05,24.950000000000003,0)" xlink:href="#P"/><use transform="matrix(0.05,0,0,0.05,34.95,0)" xlink:href="#G"/><use transform="matrix(0.05,0,0,0.05,38.900000000000006,0)" xlink:href="#Q"/><use transform="matrix(0.05,0,0,0.05,43.900000000000006,0)" xlink:href="#G"/><use transform="matrix(0.05,0,0,0.05,47.85000000000001,0)" xlink:href="#R"/><use transform="matrix(0.05,0,0,0.05,56.85,0)" xlink:href="#J"/></g><path d="M117-194c89-4 53 116 60 194h-32v-121c0-31-8-49-39-48C34-167 62-67 57 0H25l-1-190h30c1 10-1 24 2 32 11-22 29-35 61-36" id="S"/><path d="M114-163C36-179 61-72 57 0H25l-1-190h30c1 12-1 29 2 39 6-27 23-49 58-41v29" id="T"/><path d="M210-169c-67 3-38 105-44 169h-31v-121c0-29-5-50-35-48C34-165 62-65 56 0H25l-1-190h30c1 10-1 24 2 32 10-44 99-50 107 0 11-21 27-35 58-36 85-2 47 119 55 194h-31v-121c0-29-5-49-35-48" id="U"/><g id="h"><use transform="matrix(0.05,0,0,0.05,0,0)" xlink:href="#G"/><use transform="matrix(0.05,0,0,0.05,3.95,0)" xlink:href="#S"/><use transform="matrix(0.05,0,0,0.05,13.949999999999998,0)" xlink:href="#Q"/><use transform="matrix(0.05,0,0,0.05,18.95,0)" xlink:href="#N"/><use transform="matrix(0.05,0,0,0.05,28.950000000000003,0)" xlink:href="#T"/><use transform="matrix(0.05,0,0,0.05,34.9,0)" xlink:href="#U"/><use transform="matrix(0.05,0,0,0.05,49.85,0)" xlink:href="#J"/><use transform="matrix(0.05,0,0,0.05,59.85,0)" xlink:href="#L"/><use transform="matrix(0.05,0,0,0.05,68.85,0)" xlink:href="#G"/><use transform="matrix(0.05,0,0,0.05,72.8,0)" xlink:href="#N"/><use transform="matrix(0.05,0,0,0.05,82.8,0)" xlink:href="#S"/><use transform="matrix(0.05,0,0,0.05,92.8,0)" xlink:href="#G"/></g><g id="i"><use transform="matrix(0.05,0,0,0.05,0,0)" xlink:href="#H"/><use transform="matrix(0.05,0,0,0.05,9,0)" xlink:href="#I"/><use transform="matrix(0.05,0,0,0.05,19,0)" xlink:href="#K"/><use transform="matrix(0.05,0,0,0.05,22.95,0)" xlink:href="#K"/><use transform="matrix(0.05,0,0,0.05,26.899999999999995,0)" xlink:href="#N"/></g><path fill="#333" d="M15-91v-56l181-69v40L49-119l147 57v40" id="V"/><path fill="#333" d="M185-48c-13 30-37 53-82 52C43 2 14-33 14-96s30-98 90-98c62 0 83 45 84 108H66c0 31 8 55 39 56 18 0 30-7 34-22zm-45-69c5-46-57-63-70-21-2 6-4 13-4 21h74" id="W"/><path fill="#333" d="M144 0l-44-69L55 0H2l70-98-66-92h53l41 62 40-62h54l-67 91 71 99h-54" id="X"/><path fill="#333" d="M115-3C79 11 28 4 28-45v-112H4v-33h27l15-45h31v45h36v33H77v99c-1 23 16 31 38 25v30" id="Y"/><path fill="#333" d="M135-194c87-1 58 113 63 194h-50c-7-57 23-157-34-157-59 0-34 97-39 157H25l-1-190h47c2 12-1 28 3 38 12-26 28-41 61-42" id="Z"/><path fill="#333" d="M88-194c31-1 46 15 58 34l-1-101h50l1 261h-48c-2-10 0-23-3-31C134-8 116 4 84 4 32 4 16-41 15-95c0-56 19-97 73-99zm17 164c33 0 40-30 41-66 1-37-9-64-41-64s-38 30-39 65c0 43 13 65 39 65" id="aa"/><path fill="#333" d="M15-22v-40l146-57-146-57v-40l181 69v56" id="ab"/><g id="j"><use transform="matrix(0.04938271604938272,0,0,0.04938271604938272,0,0)" xlink:href="#V"/><use transform="matrix(0.04938271604938272,0,0,0.04938271604938272,10.370370370370372,0)" xlink:href="#W"/><use transform="matrix(0.04938271604938272,0,0,0.04938271604938272,20.24691358024692,0)" xlink:href="#X"/><use transform="matrix(0.04938271604938272,0,0,0.04938271604938272,30.123456790123466,0)" xlink:href="#Y"/><use transform="matrix(0.04938271604938272,0,0,0.04938271604938272,36.00000000000001,0)" xlink:href="#W"/><use transform="matrix(0.04938271604938272,0,0,0.04938271604938272,45.87654320987655,0)" xlink:href="#Z"/><use transform="matrix(0.04938271604938272,0,0,0.04938271604938272,56.69135802469136,0)" xlink:href="#aa"/><use transform="matrix(0.04938271604938272,0,0,0.04938271604938272,67.50617283950618,0)" xlink:href="#ab"/></g><path d="M115-194c53 0 69 39 70 98 0 66-23 100-70 100C84 3 66-7 56-30L54 0H23l1-261h32v101c10-23 28-34 59-34zm-8 174c40 0 45-34 45-75 0-40-5-75-45-74-42 0-51 32-51 76 0 43 10 73 51 73" id="ac"/><path d="M59-47c-2 24 18 29 38 22v24C64 9 27 4 27-40v-127H5v-23h24l9-43h21v43h35v23H59v120" id="ad"/><path d="M141-36C126-15 110 5 73 4 37 3 15-17 15-53c-1-64 63-63 125-63 3-35-9-54-41-54-24 1-41 7-42 31l-33-3c5-37 33-52 76-52 45 0 72 20 72 64v82c-1 20 7 32 28 27v20c-31 9-61-2-59-35zM48-53c0 20 12 33 32 33 41-3 63-29 60-74-43 2-92-5-92 41zm62-158l-58-49v-5h36c12 19 30 32 38 54h-16" id="ae"/><g id="k"><use transform="matrix(0.05,0,0,0.05,0,0)" xlink:href="#P"/><use transform="matrix(0.05,0,0,0.05,10,0)" xlink:href="#G"/><use transform="matrix(0.05,0,0,0.05,13.949999999999998,0)" xlink:href="#H"/><use transform="matrix(0.05,0,0,0.05,22.95,0)" xlink:href="#M"/><use transform="matrix(0.05,0,0,0.05,32.95,0)" xlink:href="#N"/><use transform="matrix(0.05,0,0,0.05,42.95,0)" xlink:href="#S"/><use transform="matrix(0.05,0,0,0.05,52.95,0)" xlink:href="#G"/><use transform="matrix(0.05,0,0,0.05,56.900000000000006,0)" xlink:href="#ac"/><use transform="matrix(0.05,0,0,0.05,66.9,0)" xlink:href="#G"/><use transform="matrix(0.05,0,0,0.05,70.85000000000001,0)" xlink:href="#K"/><use transform="matrix(0.05,0,0,0.05,74.80000000000001,0)" xlink:href="#G"/><use transform="matrix(0.05,0,0,0.05,78.75000000000001,0)" xlink:href="#ad"/><use transform="matrix(0.05,0,0,0.05,83.75000000000001,0)" xlink:href="#ae"/></g><path d="M100-194c63 0 86 42 84 106H49c0 40 14 67 53 68 26 1 43-12 49-29l28 8c-11 28-37 45-77 45C44 4 14-33 15-96c1-61 26-98 85-98zm52 81c6-60-76-77-97-28-3 7-6 17-6 28h103" id="af"/><g id="l"><use transform="matrix(0.05,0,0,0.05,0,0)" xlink:href="#P"/><use transform="matrix(0.05,0,0,0.05,10,0)" xlink:href="#af"/><use transform="matrix(0.05,0,0,0.05,20,0)" xlink:href="#K"/><use transform="matrix(0.05,0,0,0.05,23.95,0)" xlink:href="#K"/><use transform="matrix(0.05,0,0,0.05,27.899999999999995,0)" xlink:href="#N"/></g><g id="m"><use transform="matrix(0.04938271604938272,0,0,0.04938271604938272,0,0)" xlink:href="#V"/><use transform="matrix(0.04938271604938272,0,0,0.04938271604938272,10.370370370370372,0)" xlink:href="#W"/><use transform="matrix(0.04938271604938272,0,0,0.04938271604938272,20.24691358024692,0)" xlink:href="#X"/><use transform="matrix(0.04938271604938272,0,0,0.04938271604938272,30.123456790123466,0)" xlink:href="#Y"/><use transform="matrix(0.04938271604938272,0,0,0.04938271604938272,36.00000000000001,0)" xlink:href="#W"/><use transform="matrix(0.04938271604938272,0,0,0.04938271604938272,45.87654320987655,0)" xlink:href="#Z"/><use transform="matrix(0.04938271604938272,0,0,0.04938271604938272,56.69135802469136,0)" xlink:href="#aa"/><use transform="matrix(0.04938271604938272,0,0,0.04938271604938272,67.50617283950618,0)" xlink:href="#ab"/></g><path d="M30 0v-248h187v28H63v79h144v27H63v87h162V0H30" id="ag"/><g id="n"><use transform="matrix(0.05,0,0,0.05,0,0)" xlink:href="#ag"/><use transform="matrix(0.05,0,0,0.05,12,0)" xlink:href="#K"/><use transform="matrix(0.05,0,0,0.05,15.949999999999998,0)" xlink:href="#G"/><use transform="matrix(0.05,0,0,0.05,19.9,0)" xlink:href="#U"/><use transform="matrix(0.05,0,0,0.05,34.85,0)" xlink:href="#G"/><use transform="matrix(0.05,0,0,0.05,38.800000000000004,0)" xlink:href="#S"/><use transform="matrix(0.05,0,0,0.05,48.800000000000004,0)" xlink:href="#J"/></g><path d="M205 0l-28-72H64L36 0H1l101-248h38L239 0h-34zm-38-99l-47-123c-12 45-31 82-46 123h93" id="ah"/><path d="M177-190C167-65 218 103 67 71c-23-6-38-20-44-43l32-5c15 47 100 32 89-28v-30C133-14 115 1 83 1 29 1 15-40 15-95c0-56 16-97 71-98 29-1 48 16 59 35 1-10 0-23 2-32h30zM94-22c36 0 50-32 50-73 0-42-14-75-50-75-39 0-46 34-46 75s6 73 46 73" id="ai"/><g id="o"><use transform="matrix(0.05,0,0,0.05,0,0)" xlink:href="#ah"/><use transform="matrix(0.05,0,0,0.05,12,0)" xlink:href="#ai"/><use transform="matrix(0.05,0,0,0.05,22,0)" xlink:href="#ai"/><use transform="matrix(0.05,0,0,0.05,32,0)" xlink:href="#G"/><use transform="matrix(0.05,0,0,0.05,35.95,0)" xlink:href="#I"/><use transform="matrix(0.05,0,0,0.05,45.95,0)" xlink:href="#S"/><use transform="matrix(0.05,0,0,0.05,55.95,0)" xlink:href="#ai"/><use transform="matrix(0.05,0,0,0.05,65.95,0)" xlink:href="#G"/></g><path d="M108 0H70L1-190h34L89-25l56-165h34" id="aj"/><g id="p"><use transform="matrix(0.05,0,0,0.05,0,0)" xlink:href="#H"/><use transform="matrix(0.05,0,0,0.05,9,0)" xlink:href="#af"/><use transform="matrix(0.05,0,0,0.05,19,0)" xlink:href="#T"/><use transform="matrix(0.05,0,0,0.05,24.95,0)" xlink:href="#aj"/><use transform="matrix(0.05,0,0,0.05,33.95,0)" xlink:href="#G"/><use transform="matrix(0.05,0,0,0.05,37.900000000000006,0)" xlink:href="#L"/><use transform="matrix(0.05,0,0,0.05,46.900000000000006,0)" xlink:href="#G"/><use transform="matrix(0.05,0,0,0.05,50.85000000000001,0)" xlink:href="#N"/></g><path d="M0 4l72-265h28L28 4H0" id="ak"/><g id="q"><use transform="matrix(0.05,0,0,0.05,0,0)" xlink:href="#O"/><use transform="matrix(0.05,0,0,0.05,14.950000000000001,0)" xlink:href="#N"/><use transform="matrix(0.05,0,0,0.05,24.950000000000003,0)" xlink:href="#P"/><use transform="matrix(0.05,0,0,0.05,34.95,0)" xlink:href="#G"/><use transform="matrix(0.05,0,0,0.05,38.900000000000006,0)" xlink:href="#Q"/><use transform="matrix(0.05,0,0,0.05,43.900000000000006,0)" xlink:href="#G"/><use transform="matrix(0.05,0,0,0.05,47.85000000000001,0)" xlink:href="#R"/><use transform="matrix(0.05,0,0,0.05,56.85,0)" xlink:href="#J"/><use transform="matrix(0.05,0,0,0.05,66.85000000000001,0)" xlink:href="#ak"/><use transform="matrix(0.05,0,0,0.05,71.85000000000001,0)" xlink:href="#af"/><use transform="matrix(0.05,0,0,0.05,81.85000000000001,0)" xlink:href="#K"/><use transform="matrix(0.05,0,0,0.05,85.80000000000001,0)" xlink:href="#G"/><use transform="matrix(0.05,0,0,0.05,89.75000000000001,0)" xlink:href="#U"/><use transform="matrix(0.05,0,0,0.05,104.7,0)" xlink:href="#G"/><use transform="matrix(0.05,0,0,0.05,108.65000000000003,0)" xlink:href="#S"/><use transform="matrix(0.05,0,0,0.05,118.65000000000003,0)" xlink:href="#J"/></g></defs></g></svg>